<svg width="40" height="40" viewBox="0 0 40 40" fill="none" xmlns="http://www.w3.org/2000/svg">
<path d="M30 2.6795L40 20L30 37.3205L9.99995 37.3205L-4.93697e-05 20L9.99995 2.6795L30 2.6795Z" fill="#80E3FE"/>
<path d="M30 2.6795L40 20L30 37.3205L9.99995 37.3205L-4.93697e-05 20L9.99995 2.6795L30 2.6795Z" fill="url(#paint0_linear_429_20483)" fill-opacity="0.5"/>
<path fill-rule="evenodd" clip-rule="evenodd" d="M27.6205 15.0689C27.6205 15.0689 29.7981 22.9771 27.6205 27.1724C26.1133 30.0762 19.8115 32.9831 19.7758 32.9995C19.7354 32.9809 13.4377 30.0751 11.9311 27.1724C9.75356 22.9771 11.9311 15.0689 11.9311 15.0689L19.7758 13.7241L27.6205 15.0689ZM14.3891 17.7691C14.3891 17.7691 12.8938 23.1028 14.3891 25.9321C15.4251 27.8914 19.7558 29.8528 19.7758 29.8618C19.7995 29.8511 24.127 27.8906 25.1625 25.9321C26.6579 23.1028 25.1625 17.7691 25.1625 17.7691L19.7758 16.8618L14.3891 17.7691Z" fill="white"/>
<path d="M19.9999 7C27.6747 7 33.8963 13.2217 33.8964 20.8965C33.8964 21.3502 33.8734 21.7987 33.8309 22.2412C33.1544 15.1975 27.2209 9.68945 19.9999 9.68945C12.7772 9.68952 6.84208 15.2001 6.16785 22.2461C6.12505 21.802 6.10339 21.3518 6.10339 20.8965C6.10343 13.2217 12.3251 7.00004 19.9999 7Z" fill="white"/>
<defs>
<linearGradient id="paint0_linear_429_20483" x1="30" y1="2.6795" x2="9.99995" y2="37.3205" gradientUnits="userSpaceOnUse">
<stop stop-color="white" stop-opacity="0"/>
<stop offset="1" stop-color="white"/>
</linearGradient>
</defs>
</svg>
