<svg width="1270" height="890" viewBox="0 0 1270 890" fill="none" xmlns="http://www.w3.org/2000/svg">
<g clip-path="url(#clip0_419_11453)">
<rect width="1270" height="890" fill="white"/>
<path d="M1270.5 0V120H101L52 73V0H1270.5Z" fill="#0D5E5E"/>
<path d="M37 223V198L62 223H37Z" fill="#B4CDCD"/>
<rect width="37" height="25" transform="matrix(-1 0 0 1 37 198)" fill="#B4CDCD"/>
<rect width="62" height="614" transform="matrix(-1 0 0 1 62 223)" fill="#B4CDCD"/>
<path d="M42.6 444.541C42.64 444.981 42.68 445.381 42.72 445.741C42.76 446.101 42.79 446.451 42.81 446.791C42.85 447.151 42.88 447.521 42.9 447.901C42.92 448.281 42.93 448.701 42.93 449.161C42.93 450.181 42.83 451.191 42.63 452.191C42.43 453.191 42.08 454.081 41.58 454.861C41.08 455.641 40.4 456.271 39.54 456.751C38.7 457.251 37.63 457.501 36.33 457.501C35.55 457.501 34.84 457.371 34.2 457.111C33.56 456.851 32.99 456.521 32.49 456.121C31.99 455.721 31.55 455.261 31.17 454.741C30.81 454.241 30.51 453.751 30.27 453.271L30.09 452.911L21 459.181C20.94 458.641 20.91 458.031 20.91 457.351C20.91 456.811 20.94 456.271 21 455.731L30.99 448.831L31.11 448.831L31.17 449.071C31.31 449.611 31.5 450.181 31.74 450.781C31.98 451.381 32.29 451.931 32.67 452.431C33.07 452.951 33.54 453.381 34.08 453.721C34.64 454.061 35.31 454.231 36.09 454.231C37.53 454.231 38.6 453.801 39.3 452.941C40 452.101 40.35 450.961 40.35 449.521C40.35 449.181 40.34 448.861 40.32 448.561C40.3 448.281 40.27 447.961 40.23 447.601L21 447.601C20.98 447.381 20.96 447.131 20.94 446.851C20.92 446.591 20.91 446.341 20.91 446.101C20.91 445.861 20.92 445.601 20.94 445.321C20.94 445.041 20.96 444.781 21 444.541L42.6 444.541ZM27.96 463.922C26.28 463.962 25.05 464.392 24.27 465.212C23.49 466.052 23.1 467.282 23.1 468.902C23.1 470.322 23.35 471.672 23.85 472.952C23.55 473.112 23.18 473.242 22.74 473.342C22.32 473.442 21.9 473.502 21.48 473.522C21.2 472.862 20.99 472.132 20.85 471.332C20.71 470.552 20.64 469.682 20.64 468.722C20.64 467.322 20.83 466.122 21.21 465.122C21.61 464.122 22.16 463.292 22.86 462.632C23.58 461.992 24.42 461.522 25.38 461.222C26.36 460.922 27.43 460.772 28.59 460.772C29.73 460.772 30.79 460.912 31.77 461.192C32.77 461.492 33.63 461.942 34.35 462.542C35.09 463.142 35.67 463.892 36.09 464.792C36.53 465.712 36.75 466.792 36.75 468.032C36.75 469.092 36.57 470.022 36.21 470.822C35.85 471.622 35.35 472.292 34.71 472.832C34.09 473.372 33.34 473.782 32.46 474.062C31.6 474.342 30.66 474.482 29.64 474.482C29.36 474.482 29.06 474.472 28.74 474.452C28.44 474.432 28.18 474.412 27.96 474.392L27.96 463.922ZM30.18 471.542C30.74 471.542 31.27 471.462 31.77 471.302C32.29 471.162 32.74 470.942 33.12 470.642C33.5 470.362 33.8 469.992 34.02 469.532C34.26 469.092 34.38 468.562 34.38 467.942C34.38 466.722 34.01 465.782 33.27 465.122C32.53 464.482 31.5 464.092 30.18 463.952L30.18 471.542ZM34.05 479.275L34.05 476.755C34.37 476.675 34.76 476.635 35.22 476.635C35.66 476.635 36.05 476.675 36.39 476.755L36.39 479.275L37.47 479.275C39.37 479.275 40.81 479.745 41.79 480.685C42.79 481.645 43.29 483.035 43.29 484.855C43.29 485.355 43.26 485.795 43.2 486.175C43.16 486.555 43.09 486.915 42.99 487.255C42.49 487.215 42.06 487.155 41.7 487.075C41.34 487.015 40.97 486.925 40.59 486.805C40.63 486.605 40.67 486.365 40.71 486.085C40.77 485.825 40.8 485.505 40.8 485.125C40.8 484.685 40.75 484.285 40.65 483.925C40.57 483.585 40.4 483.285 40.14 483.025C39.9 482.785 39.55 482.595 39.09 482.455C38.65 482.315 38.08 482.245 37.38 482.245L36.39 482.245L36.39 486.175C35.99 486.235 35.58 486.265 35.16 486.265C34.78 486.265 34.41 486.235 34.05 486.175L34.05 482.245L21 482.245C20.96 482.025 20.93 481.775 20.91 481.495C20.89 481.235 20.88 480.995 20.88 480.775C20.88 480.555 20.89 480.305 20.91 480.025C20.93 479.745 20.96 479.495 21 479.275L34.05 479.275ZM27.96 490.816C26.28 490.856 25.05 491.286 24.27 492.106C23.49 492.946 23.1 494.176 23.1 495.796C23.1 497.216 23.35 498.566 23.85 499.846C23.55 500.006 23.18 500.136 22.74 500.236C22.32 500.336 21.9 500.396 21.48 500.416C21.2 499.756 20.99 499.026 20.85 498.226C20.71 497.446 20.64 496.576 20.64 495.616C20.64 494.216 20.83 493.016 21.21 492.016C21.61 491.016 22.16 490.186 22.86 489.526C23.58 488.886 24.42 488.416 25.38 488.116C26.36 487.816 27.43 487.666 28.59 487.666C29.73 487.666 30.79 487.806 31.77 488.086C32.77 488.386 33.63 488.836 34.35 489.436C35.09 490.036 35.67 490.786 36.09 491.686C36.53 492.606 36.75 493.686 36.75 494.926C36.75 495.986 36.57 496.916 36.21 497.716C35.85 498.516 35.35 499.186 34.71 499.726C34.09 500.266 33.34 500.676 32.46 500.956C31.6 501.236 30.66 501.376 29.64 501.376C29.36 501.376 29.06 501.366 28.74 501.346C28.44 501.326 28.18 501.306 27.96 501.286L27.96 490.816ZM30.18 498.436C30.74 498.436 31.27 498.356 31.77 498.196C32.29 498.056 32.74 497.836 33.12 497.536C33.5 497.256 33.8 496.886 34.02 496.426C34.26 495.986 34.38 495.456 34.38 494.836C34.38 493.616 34.01 492.676 33.27 492.016C32.53 491.376 31.5 490.986 30.18 490.846L30.18 498.436ZM36.39 505.266C36.43 505.486 36.46 505.696 36.48 505.896C36.5 506.096 36.51 506.306 36.51 506.526C36.51 506.746 36.5 506.966 36.48 507.186C36.46 507.406 36.43 507.606 36.39 507.786C36.09 507.846 35.69 507.906 35.19 507.966C34.71 508.026 34.3 508.056 33.96 508.056C34.64 508.476 35.23 509.026 35.73 509.706C36.23 510.406 36.48 511.296 36.48 512.376C36.48 512.536 36.47 512.696 36.45 512.856C36.45 513.036 36.44 513.186 36.42 513.306C36.24 513.346 36.05 513.376 35.85 513.396C35.65 513.416 35.44 513.426 35.22 513.426C34.98 513.426 34.73 513.406 34.47 513.366C34.21 513.346 33.96 513.316 33.72 513.276C33.76 513.116 33.78 512.946 33.78 512.766C33.78 512.606 33.78 512.476 33.78 512.376C33.78 511.836 33.7 511.316 33.54 510.816C33.4 510.336 33.14 509.896 32.76 509.496C32.38 509.116 31.86 508.806 31.2 508.566C30.54 508.346 29.69 508.236 28.65 508.236L21 508.236C20.96 508.016 20.93 507.766 20.91 507.486C20.89 507.226 20.88 506.986 20.88 506.766C20.88 506.546 20.89 506.296 20.91 506.016C20.93 505.756 20.96 505.506 21 505.266L36.39 505.266ZM27.96 518.209C26.28 518.249 25.05 518.679 24.27 519.499C23.49 520.339 23.1 521.569 23.1 523.189C23.1 524.609 23.35 525.959 23.85 527.239C23.55 527.399 23.18 527.529 22.74 527.629C22.32 527.729 21.9 527.789 21.48 527.809C21.2 527.149 20.99 526.419 20.85 525.619C20.71 524.839 20.64 523.969 20.64 523.009C20.64 521.609 20.83 520.409 21.21 519.409C21.61 518.409 22.16 517.579 22.86 516.919C23.58 516.279 24.42 515.809 25.38 515.509C26.36 515.209 27.43 515.059 28.59 515.059C29.73 515.059 30.79 515.199 31.77 515.479C32.77 515.779 33.63 516.229 34.35 516.829C35.09 517.429 35.67 518.179 36.09 519.079C36.53 519.999 36.75 521.079 36.75 522.319C36.75 523.379 36.57 524.309 36.21 525.109C35.85 525.909 35.35 526.579 34.71 527.119C34.09 527.659 33.34 528.069 32.46 528.349C31.6 528.629 30.66 528.769 29.64 528.769C29.36 528.769 29.06 528.759 28.74 528.739C28.44 528.719 28.18 528.699 27.96 528.679L27.96 518.209ZM30.18 525.829C30.74 525.829 31.27 525.749 31.77 525.589C32.29 525.449 32.74 525.229 33.12 524.929C33.5 524.649 33.8 524.279 34.02 523.819C34.26 523.379 34.38 522.849 34.38 522.229C34.38 521.009 34.01 520.069 33.27 519.409C32.53 518.769 31.5 518.379 30.18 518.239L30.18 525.829ZM36.39 532.659C36.43 532.879 36.46 533.089 36.48 533.289C36.5 533.509 36.51 533.729 36.51 533.949C36.51 534.169 36.5 534.369 36.48 534.549C36.46 534.749 36.43 534.959 36.39 535.179C36.09 535.239 35.68 535.299 35.16 535.359C34.66 535.419 34.24 535.449 33.9 535.449C34.24 535.649 34.58 535.899 34.92 536.199C35.26 536.519 35.56 536.879 35.82 537.279C36.1 537.679 36.32 538.139 36.48 538.659C36.66 539.179 36.75 539.749 36.75 540.369C36.75 542.129 36.24 543.429 35.22 544.269C34.22 545.109 32.73 545.529 30.75 545.529L21 545.529C20.96 545.309 20.93 545.059 20.91 544.779C20.89 544.499 20.88 544.249 20.88 544.029C20.88 543.809 20.89 543.559 20.91 543.279C20.93 543.019 20.96 542.779 21 542.559L29.94 542.559C31.36 542.559 32.4 542.339 33.06 541.899C33.74 541.459 34.08 540.759 34.08 539.799C34.08 539.239 33.98 538.709 33.78 538.209C33.58 537.709 33.27 537.269 32.85 536.889C32.43 536.509 31.88 536.199 31.2 535.959C30.54 535.739 29.74 535.629 28.8 535.629L21 535.629C20.96 535.409 20.93 535.159 20.91 534.879C20.89 534.619 20.88 534.379 20.88 534.159C20.88 533.939 20.89 533.689 20.91 533.409C20.93 533.129 20.96 532.879 21 532.659L36.39 532.659ZM23.67 560.263C23.39 560.423 23.04 560.563 22.62 560.683C22.2 560.803 21.77 560.873 21.33 560.893C20.87 559.713 20.64 558.363 20.64 556.843C20.64 554.283 21.36 552.353 22.8 551.053C24.26 549.753 26.22 549.103 28.68 549.103C29.82 549.103 30.88 549.263 31.86 549.583C32.84 549.903 33.69 550.373 34.41 550.993C35.13 551.633 35.7 552.423 36.12 553.363C36.54 554.303 36.75 555.393 36.75 556.633C36.75 557.473 36.7 558.213 36.6 558.853C36.5 559.493 36.34 560.103 36.12 560.683C35.78 560.683 35.38 560.633 34.92 560.533C34.48 560.453 34.09 560.333 33.75 560.173C34.09 559.193 34.26 558.073 34.26 556.813C34.26 555.273 33.75 554.123 32.73 553.363C31.71 552.603 30.36 552.223 28.68 552.223C26.76 552.223 25.35 552.653 24.45 553.513C23.57 554.373 23.13 555.553 23.13 557.053C23.13 557.653 23.17 558.203 23.25 558.703C23.33 559.223 23.47 559.743 23.67 560.263ZM27.96 566.109C26.28 566.149 25.05 566.579 24.27 567.399C23.49 568.239 23.1 569.469 23.1 571.089C23.1 572.509 23.35 573.859 23.85 575.139C23.55 575.299 23.18 575.429 22.74 575.529C22.32 575.629 21.9 575.689 21.48 575.709C21.2 575.049 20.99 574.319 20.85 573.519C20.71 572.739 20.64 571.869 20.64 570.909C20.64 569.509 20.83 568.309 21.21 567.309C21.61 566.309 22.16 565.479 22.86 564.819C23.58 564.179 24.42 563.709 25.38 563.409C26.36 563.109 27.43 562.959 28.59 562.959C29.73 562.959 30.79 563.099 31.77 563.379C32.77 563.679 33.63 564.129 34.35 564.729C35.09 565.329 35.67 566.079 36.09 566.979C36.53 567.899 36.75 568.979 36.75 570.219C36.75 571.279 36.57 572.209 36.21 573.009C35.85 573.809 35.35 574.479 34.71 575.019C34.09 575.559 33.34 575.969 32.46 576.249C31.6 576.529 30.66 576.669 29.64 576.669C29.36 576.669 29.06 576.659 28.74 576.639C28.44 576.619 28.18 576.599 27.96 576.579L27.96 566.109ZM30.18 573.729C30.74 573.729 31.27 573.649 31.77 573.489C32.29 573.349 32.74 573.129 33.12 572.829C33.5 572.549 33.8 572.179 34.02 571.719C34.26 571.279 34.38 570.749 34.38 570.129C34.38 568.909 34.01 567.969 33.27 567.309C32.53 566.669 31.5 566.279 30.18 566.139L30.18 573.729Z" fill="white"/>
</g>
<defs>
<clipPath id="clip0_419_11453">
<rect width="1270" height="890" fill="white"/>
</clipPath>
</defs>
</svg>
