<svg width="1270" height="890" viewBox="0 0 1270 890" fill="none" xmlns="http://www.w3.org/2000/svg">
<g clip-path="url(#clip0_270_2624)">
<rect width="1270" height="890" fill="white"/>
<path d="M1270 0V120H468L419 73V0H1270Z" fill="#0D5E5E"/>
<path d="M869 270L941 200H1093L1165 270V422L1093 492H941L869 422V270Z" fill="#B4CDCD"/>
<rect x="942" y="271" width="150" height="150" fill="#B4CDCD"/>
<rect x="942" y="271" width="150" height="150" stroke="white" stroke-width="2"/>
<path d="M966.496 313.228C968.667 312.876 970.808 312.7 972.92 312.7C975.032 312.7 977.203 312.876 979.432 313.228V338.044H1000.64V313.228C1002.81 312.876 1004.95 312.7 1007.06 312.7C1009.18 312.7 1011.35 312.876 1013.58 313.228V376.5C1011.35 376.852 1009.21 377.028 1007.15 377.028C1004.98 377.028 1002.81 376.852 1000.64 376.5V349.132H979.432V376.5C977.203 376.852 975.062 377.028 973.008 377.028C970.838 377.028 968.667 376.852 966.496 376.5V313.228ZM1028.52 312.964C1031.22 312.729 1033.95 312.553 1036.7 312.436C1039.46 312.26 1042.25 312.172 1045.06 312.172C1048 312.172 1050.96 312.465 1053.95 313.052C1057 313.639 1059.73 314.753 1062.14 316.396C1064.6 317.98 1066.59 320.209 1068.12 323.084C1069.64 325.959 1070.41 329.684 1070.41 334.26C1070.41 338.836 1069.64 342.561 1068.12 345.436C1066.59 348.252 1064.63 350.481 1062.22 352.124C1059.82 353.767 1057.12 354.881 1054.13 355.468C1051.19 356.055 1048.29 356.348 1045.42 356.348C1044.65 356.348 1043.92 356.348 1043.22 356.348C1042.57 356.289 1041.95 356.231 1041.37 356.172V376.5C1040.25 376.676 1039.17 376.793 1038.11 376.852C1037.06 376.911 1036.03 376.94 1035.03 376.94C1034.09 376.94 1033.07 376.911 1031.95 376.852C1030.84 376.793 1029.69 376.676 1028.52 376.5V312.964ZM1041.37 345.524C1042.07 345.641 1042.72 345.7 1043.3 345.7C1043.95 345.7 1044.71 345.7 1045.59 345.7C1047.06 345.7 1048.5 345.524 1049.9 345.172C1051.31 344.761 1052.54 344.116 1053.6 343.236C1054.71 342.356 1055.59 341.212 1056.24 339.804C1056.88 338.337 1057.21 336.548 1057.21 334.436C1057.21 332.265 1056.88 330.447 1056.24 328.98C1055.59 327.455 1054.71 326.252 1053.6 325.372C1052.54 324.433 1051.31 323.788 1049.9 323.436C1048.5 323.025 1047.06 322.82 1045.59 322.82C1044.95 322.82 1044.33 322.849 1043.74 322.908C1043.22 322.908 1042.42 322.967 1041.37 323.084V345.524Z" fill="white"/>
<rect x="495" y="200" width="106" height="70" fill="#0D5E5E"/>
<rect x="609" y="200" width="106" height="70" fill="#0D5E5E"/>
<rect x="723" y="200" width="106" height="70" fill="#0D5E5E"/>
<path d="M521.669 217.926C523.019 217.773 524.276 217.65 525.441 217.558C526.637 217.435 527.956 217.374 529.397 217.374C531.084 217.374 532.74 217.527 534.365 217.834C536.021 218.141 537.509 218.693 538.827 219.49C540.146 220.257 541.204 221.315 542.001 222.664C542.829 223.983 543.243 225.669 543.243 227.724C543.243 228.951 543.09 230.039 542.783 230.99C542.477 231.91 542.078 232.723 541.587 233.428C541.127 234.133 540.621 234.747 540.069 235.268C539.517 235.759 538.996 236.157 538.505 236.464L537.723 236.97L545.773 250.954C545.16 251.015 544.516 251.077 543.841 251.138C543.167 251.199 542.477 251.23 541.771 251.23C540.606 251.23 539.456 251.138 538.321 250.954L529.673 235.59L530.777 235.038C531.207 234.823 531.728 234.547 532.341 234.21C532.955 233.873 533.537 233.459 534.089 232.968C534.672 232.447 535.163 231.833 535.561 231.128C535.96 230.392 536.159 229.533 536.159 228.552C536.159 226.62 535.607 225.209 534.503 224.32C533.399 223.4 531.973 222.94 530.225 222.94C529.551 222.94 528.937 222.986 528.385 223.078V251C527.833 251.061 527.281 251.107 526.729 251.138C526.177 251.199 525.641 251.23 525.119 251.23C524.598 251.23 524.046 251.215 523.463 251.184C522.881 251.153 522.283 251.092 521.669 251V217.926ZM558.53 217.926C559.174 217.834 559.788 217.773 560.37 217.742C560.953 217.681 561.597 217.65 562.302 217.65C562.916 217.65 563.514 217.681 564.096 217.742C564.679 217.773 565.323 217.834 566.028 217.926L576.378 251C575.121 251.184 573.894 251.276 572.698 251.276C571.533 251.276 570.398 251.184 569.294 251L567.454 244.376H556.506L554.62 251C553.516 251.184 552.458 251.276 551.446 251.276C550.312 251.276 549.192 251.184 548.088 251L558.53 217.926ZM565.89 238.81L562.072 224.918L558.07 238.81H565.89Z" fill="white"/>
<path d="M646.269 217.926H665.037C665.221 218.846 665.313 219.781 665.313 220.732C665.313 221.744 665.221 222.71 665.037 223.63H652.985V231.404H662.553C662.737 232.385 662.829 233.336 662.829 234.256C662.829 235.237 662.737 236.203 662.553 237.154H652.985V251C651.82 251.184 650.716 251.276 649.673 251.276C648.539 251.276 647.404 251.184 646.269 251V217.926ZM670.964 217.926C672.098 217.742 673.218 217.65 674.322 217.65C675.426 217.65 676.56 217.742 677.726 217.926V251C676.56 251.184 675.441 251.276 674.368 251.276C673.233 251.276 672.098 251.184 670.964 251V217.926Z" fill="white"/>
<path d="M756.246 235.682C755.203 235.283 754.268 234.854 753.44 234.394C752.612 233.903 751.907 233.336 751.324 232.692C750.741 232.017 750.281 231.22 749.944 230.3C749.637 229.38 749.484 228.276 749.484 226.988C749.484 225.424 749.745 224.044 750.266 222.848C750.818 221.652 751.585 220.655 752.566 219.858C753.547 219.03 754.728 218.417 756.108 218.018C757.488 217.589 759.037 217.374 760.754 217.374C762.318 217.374 763.775 217.512 765.124 217.788C766.504 218.064 767.945 218.463 769.448 218.984C769.264 220.763 768.773 222.511 767.976 224.228C767.516 224.044 767.041 223.86 766.55 223.676C766.09 223.492 765.584 223.339 765.032 223.216C764.511 223.093 763.913 223.001 763.238 222.94C762.563 222.848 761.797 222.802 760.938 222.802C760.417 222.802 759.88 222.848 759.328 222.94C758.807 223.032 758.331 223.201 757.902 223.446C757.473 223.691 757.12 224.059 756.844 224.55C756.568 225.01 756.43 225.623 756.43 226.39C756.43 227.003 756.537 227.525 756.752 227.954C756.967 228.353 757.258 228.705 757.626 229.012C757.994 229.288 758.408 229.533 758.868 229.748C759.328 229.932 759.788 230.116 760.248 230.3L763.008 231.358C764.173 231.818 765.231 232.293 766.182 232.784C767.133 233.275 767.93 233.888 768.574 234.624C769.249 235.329 769.77 236.203 770.138 237.246C770.506 238.258 770.69 239.515 770.69 241.018C770.69 242.582 770.399 244.008 769.816 245.296C769.264 246.584 768.451 247.688 767.378 248.608C766.305 249.528 764.971 250.249 763.376 250.77C761.812 251.291 760.003 251.552 757.948 251.552C756.936 251.552 756.031 251.521 755.234 251.46C754.437 251.399 753.67 251.291 752.934 251.138C752.229 251.015 751.523 250.847 750.818 250.632C750.113 250.417 749.377 250.157 748.61 249.85C748.702 248.961 748.871 248.041 749.116 247.09C749.361 246.109 749.653 245.127 749.99 244.146C751.278 244.667 752.489 245.066 753.624 245.342C754.759 245.587 755.97 245.71 757.258 245.71C759.19 245.71 760.708 245.357 761.812 244.652C762.916 243.916 763.468 242.812 763.468 241.34C763.468 240.604 763.33 239.991 763.054 239.5C762.809 239.009 762.471 238.595 762.042 238.258C761.643 237.921 761.183 237.645 760.662 237.43C760.141 237.185 759.604 236.955 759.052 236.74L756.246 235.682ZM774.131 217.926C774.652 217.865 775.25 217.803 775.925 217.742C776.6 217.681 777.198 217.65 777.719 217.65C778.884 217.65 780.111 217.742 781.399 217.926L788.621 244.008L795.935 217.926C796.548 217.834 797.131 217.773 797.683 217.742C798.266 217.711 798.848 217.696 799.431 217.696C799.983 217.696 800.535 217.711 801.087 217.742C801.67 217.773 802.268 217.834 802.881 217.926L792.209 251C791.565 251.092 790.936 251.153 790.323 251.184C789.74 251.245 789.112 251.276 788.437 251.276C787.824 251.276 787.226 251.245 786.643 251.184C786.06 251.153 785.416 251.092 784.711 251L774.131 217.926Z" fill="white"/>
<rect x="495" y="270" width="106" height="70" fill="#B4CDCD"/>
<rect x="609" y="270" width="106" height="70" fill="#B4CDCD"/>
<rect x="723" y="270" width="106" height="70" fill="#B4CDCD"/>
<path d="M531 432L506.238 492H495L519.762 432L495 372H506.238L531 432Z" fill="#0D5E5E"/>
<path d="M648.46 432L624 492H518.46L542 432L518.46 372H624L648.46 432Z" fill="#0D5E5E"/>
<path d="M704 373L764 397L824 373V467L764 491L704 467V373Z" fill="#0D5E5E"/>
<path d="M1233 223V198L1208 223H1233Z" fill="#B4CDCD"/>
<rect x="1233" y="198" width="37" height="25" fill="#B4CDCD"/>
<rect width="62" height="614" transform="translate(1208 223)" fill="#B4CDCD"/>
<path d="M1227.4 584.953C1227.36 584.653 1227.32 584.303 1227.28 583.903C1227.24 583.483 1227.21 583.053 1227.19 582.613C1227.15 582.153 1227.12 581.703 1227.1 581.263C1227.08 580.803 1227.07 580.363 1227.07 579.943C1227.07 578.843 1227.18 577.803 1227.4 576.823C1227.62 575.823 1228 574.953 1228.54 574.213C1229.08 573.453 1229.8 572.853 1230.7 572.413C1231.58 571.973 1232.69 571.753 1234.03 571.753C1235.43 571.753 1236.6 571.993 1237.54 572.473C1238.46 572.933 1239.2 573.553 1239.76 574.333C1240.32 575.093 1240.72 575.963 1240.96 576.943C1241.18 577.923 1241.29 578.923 1241.29 579.943C1241.29 580.323 1241.29 580.663 1241.29 580.963C1241.27 581.243 1241.24 581.553 1241.2 581.893L1249 581.893C1249.06 582.373 1249.09 582.883 1249.09 583.423C1249.09 583.663 1249.08 583.923 1249.06 584.203C1249.06 584.463 1249.04 584.713 1249 584.953L1227.4 584.953ZM1238.53 581.893C1238.57 581.573 1238.6 581.293 1238.62 581.053C1238.64 580.813 1238.65 580.463 1238.65 580.003C1238.65 579.383 1238.59 578.773 1238.47 578.173C1238.33 577.553 1238.09 577.003 1237.75 576.523C1237.41 576.043 1236.95 575.663 1236.37 575.383C1235.77 575.083 1235 574.933 1234.06 574.933C1233.24 574.933 1232.55 575.063 1231.99 575.323C1231.43 575.563 1230.98 575.903 1230.64 576.343C1230.3 576.783 1230.06 577.313 1229.92 577.933C1229.78 578.553 1229.71 579.223 1229.71 579.943C1229.71 580.683 1229.74 581.333 1229.8 581.893L1238.53 581.893ZM1235.95 567.301L1235.95 569.251C1235.79 569.291 1235.61 569.321 1235.41 569.341C1235.19 569.361 1234.98 569.371 1234.78 569.371C1234.58 569.371 1234.38 569.361 1234.18 569.341C1233.96 569.321 1233.77 569.291 1233.61 569.251L1233.61 564.391L1249 564.391C1249.04 564.611 1249.07 564.861 1249.09 565.141C1249.11 565.401 1249.12 565.641 1249.12 565.861C1249.12 566.061 1249.11 566.301 1249.09 566.581C1249.07 566.841 1249.04 567.081 1249 567.301L1235.95 567.301ZM1230.22 567.961C1229.98 568.001 1229.72 568.031 1229.44 568.051C1229.16 568.051 1228.91 568.051 1228.69 568.051C1228.47 568.051 1228.22 568.051 1227.94 568.051C1227.66 568.031 1227.41 568.001 1227.19 567.961C1227.15 567.701 1227.12 567.421 1227.1 567.121C1227.08 566.821 1227.07 566.561 1227.07 566.341C1227.07 566.121 1227.08 565.861 1227.1 565.561C1227.12 565.261 1227.15 564.991 1227.19 564.751C1227.41 564.711 1227.66 564.691 1227.94 564.691C1228.22 564.671 1228.47 564.661 1228.69 564.661C1228.91 564.661 1229.16 564.671 1229.44 564.691C1229.72 564.691 1229.98 564.711 1230.22 564.751C1230.26 564.991 1230.29 565.261 1230.31 565.561C1230.33 565.841 1230.34 566.091 1230.34 566.311C1230.34 566.551 1230.33 566.821 1230.31 567.121C1230.29 567.421 1230.26 567.701 1230.22 567.961ZM1246.33 549.298C1246.61 549.138 1246.96 548.998 1247.38 548.878C1247.8 548.758 1248.23 548.688 1248.67 548.668C1249.13 549.848 1249.36 551.198 1249.36 552.718C1249.36 555.278 1248.64 557.208 1247.2 558.508C1245.74 559.808 1243.78 560.458 1241.32 560.458C1240.18 560.458 1239.12 560.298 1238.14 559.978C1237.16 559.658 1236.31 559.188 1235.59 558.568C1234.87 557.928 1234.3 557.138 1233.88 556.198C1233.46 555.258 1233.25 554.168 1233.25 552.928C1233.25 552.088 1233.3 551.348 1233.4 550.708C1233.5 550.068 1233.66 549.458 1233.88 548.878C1234.22 548.878 1234.62 548.928 1235.08 549.028C1235.52 549.108 1235.91 549.228 1236.25 549.388C1235.91 550.368 1235.74 551.488 1235.74 552.748C1235.74 554.288 1236.25 555.438 1237.27 556.198C1238.29 556.958 1239.64 557.338 1241.32 557.338C1243.24 557.338 1244.65 556.908 1245.55 556.048C1246.43 555.188 1246.87 554.008 1246.87 552.508C1246.87 551.908 1246.83 551.358 1246.75 550.858C1246.67 550.338 1246.53 549.818 1246.33 549.298ZM1227.01 545.352C1226.97 545.132 1226.94 544.892 1226.92 544.632C1226.9 544.352 1226.89 544.102 1226.89 543.882C1226.89 543.662 1226.9 543.412 1226.92 543.132C1226.94 542.852 1226.97 542.602 1227.01 542.382L1249 542.382C1249.04 542.602 1249.07 542.852 1249.09 543.132C1249.11 543.412 1249.12 543.662 1249.12 543.882C1249.12 544.102 1249.11 544.352 1249.09 544.632C1249.07 544.892 1249.04 545.132 1249 545.352L1227.01 545.352ZM1241.02 541.572L1233.61 536.682C1233.57 536.422 1233.54 536.162 1233.52 535.902C1233.5 535.642 1233.49 535.372 1233.49 535.092C1233.49 534.792 1233.5 534.512 1233.52 534.252C1233.54 533.972 1233.57 533.692 1233.61 533.412L1240.81 538.302L1249 532.572C1249.04 532.852 1249.07 533.122 1249.09 533.382C1249.11 533.642 1249.12 533.912 1249.12 534.192C1249.12 534.472 1249.11 534.752 1249.09 535.032C1249.07 535.312 1249.04 535.592 1249 535.872L1241.02 541.572ZM1233.61 522.883C1233.57 522.663 1233.54 522.413 1233.52 522.133C1233.5 521.853 1233.49 521.613 1233.49 521.413C1233.49 521.193 1233.5 520.943 1233.52 520.663C1233.54 520.383 1233.57 520.133 1233.61 519.913L1242.04 519.913C1243 519.913 1243.8 519.823 1244.44 519.643C1245.06 519.463 1245.55 519.193 1245.91 518.833C1246.27 518.473 1246.52 518.033 1246.66 517.513C1246.8 516.993 1246.87 516.393 1246.87 515.713C1246.87 514.693 1246.76 513.823 1246.54 513.103L1233.61 513.103C1233.57 512.883 1233.54 512.643 1233.52 512.383C1233.5 512.103 1233.49 511.853 1233.49 511.633C1233.49 511.413 1233.5 511.173 1233.52 510.913C1233.54 510.633 1233.57 510.383 1233.61 510.163L1248.52 510.163C1248.72 510.863 1248.91 511.703 1249.09 512.683C1249.27 513.643 1249.36 514.643 1249.36 515.683C1249.36 516.663 1249.27 517.593 1249.09 518.473C1248.93 519.333 1248.59 520.093 1248.07 520.753C1247.55 521.413 1246.82 521.933 1245.88 522.313C1244.94 522.693 1243.7 522.883 1242.16 522.883L1233.61 522.883ZM1233.61 505.506C1233.57 505.306 1233.54 505.106 1233.52 504.906C1233.5 504.686 1233.49 504.466 1233.49 504.246C1233.49 504.046 1233.5 503.836 1233.52 503.616C1233.54 503.396 1233.57 503.186 1233.61 502.986C1233.65 502.966 1233.78 502.946 1234 502.926C1234.2 502.886 1234.42 502.856 1234.66 502.836C1234.9 502.796 1235.13 502.766 1235.35 502.746C1235.57 502.706 1235.71 502.686 1235.77 502.686C1235.45 502.486 1235.14 502.246 1234.84 501.966C1234.54 501.686 1234.27 501.356 1234.03 500.976C1233.79 500.576 1233.6 500.136 1233.46 499.656C1233.32 499.156 1233.25 498.606 1233.25 498.006C1233.25 497.106 1233.4 496.276 1233.7 495.516C1234 494.736 1234.47 494.076 1235.11 493.536C1235.73 492.976 1236.53 492.546 1237.51 492.246C1238.47 491.926 1239.61 491.766 1240.93 491.766C1243.57 491.766 1245.64 492.486 1247.14 493.926C1248.62 495.346 1249.36 497.366 1249.36 499.986C1249.36 500.426 1249.33 500.876 1249.27 501.336C1249.21 501.796 1249.13 502.196 1249.03 502.536L1256.08 502.536C1256.12 502.776 1256.15 503.036 1256.17 503.316C1256.19 503.576 1256.2 503.816 1256.2 504.036C1256.2 504.256 1256.19 504.506 1256.17 504.786C1256.15 505.046 1256.12 505.286 1256.08 505.506L1233.61 505.506ZM1246.48 502.536C1246.62 502.156 1246.72 501.766 1246.78 501.366C1246.84 500.966 1246.87 500.446 1246.87 499.806C1246.87 499.086 1246.76 498.426 1246.54 497.826C1246.3 497.226 1245.94 496.716 1245.46 496.296C1244.98 495.856 1244.38 495.516 1243.66 495.276C1242.92 495.016 1242.05 494.886 1241.05 494.886C1239.45 494.886 1238.18 495.186 1237.24 495.786C1236.3 496.366 1235.83 497.326 1235.83 498.666C1235.83 499.166 1235.92 499.646 1236.1 500.106C1236.28 500.566 1236.55 500.976 1236.91 501.336C1237.27 501.696 1237.73 501.986 1238.29 502.206C1238.83 502.426 1239.48 502.536 1240.24 502.536L1246.48 502.536ZM1246.21 480.932C1246.43 480.392 1246.61 479.802 1246.75 479.162C1246.87 478.502 1246.93 477.852 1246.93 477.212C1246.93 476.752 1246.88 476.312 1246.78 475.892C1246.68 475.472 1246.53 475.112 1246.33 474.812C1246.13 474.492 1245.89 474.242 1245.61 474.062C1245.31 473.862 1244.98 473.762 1244.62 473.762C1244.22 473.762 1243.89 473.842 1243.63 474.002C1243.37 474.142 1243.15 474.342 1242.97 474.602C1242.79 474.842 1242.64 475.132 1242.52 475.472C1242.38 475.792 1242.25 476.142 1242.13 476.522L1241.74 477.572C1241.26 478.852 1240.72 479.782 1240.12 480.362C1239.52 480.942 1238.71 481.232 1237.69 481.232C1236.33 481.232 1235.25 480.752 1234.45 479.792C1233.65 478.812 1233.25 477.382 1233.25 475.502C1233.25 474.722 1233.33 473.962 1233.49 473.222C1233.63 472.462 1233.8 471.802 1234 471.242C1234.4 471.282 1234.8 471.362 1235.2 471.482C1235.6 471.582 1235.97 471.712 1236.31 471.872C1236.15 472.312 1236 472.842 1235.86 473.462C1235.7 474.062 1235.62 474.712 1235.62 475.412C1235.62 476.152 1235.75 476.812 1236.01 477.392C1236.27 477.952 1236.73 478.232 1237.39 478.232C1237.73 478.232 1238.02 478.162 1238.26 478.022C1238.5 477.882 1238.71 477.692 1238.89 477.452C1239.05 477.212 1239.19 476.942 1239.31 476.642C1239.43 476.322 1239.55 475.982 1239.67 475.622L1240.12 474.302C1240.28 473.822 1240.47 473.372 1240.69 472.952C1240.91 472.512 1241.19 472.142 1241.53 471.842C1241.85 471.522 1242.25 471.272 1242.73 471.092C1243.19 470.892 1243.75 470.792 1244.41 470.792C1245.15 470.792 1245.83 470.942 1246.45 471.242C1247.05 471.542 1247.57 471.972 1248.01 472.532C1248.43 473.072 1248.76 473.732 1249 474.512C1249.24 475.292 1249.36 476.152 1249.36 477.092C1249.36 478.052 1249.29 478.892 1249.15 479.612C1249.03 480.332 1248.86 481.002 1248.64 481.622C1248.24 481.582 1247.84 481.502 1247.44 481.382C1247.02 481.242 1246.61 481.092 1246.21 480.932ZM1227.01 467.069C1226.97 466.849 1226.94 466.609 1226.92 466.349C1226.9 466.069 1226.89 465.819 1226.89 465.599C1226.89 465.379 1226.9 465.139 1226.92 464.879C1226.94 464.599 1226.97 464.349 1227.01 464.129L1244.35 464.129C1244.91 464.129 1245.35 464.079 1245.67 463.979C1245.99 463.879 1246.24 463.749 1246.42 463.589C1246.58 463.409 1246.69 463.209 1246.75 462.989C1246.79 462.749 1246.81 462.499 1246.81 462.239C1246.81 462.059 1246.8 461.859 1246.78 461.639C1246.76 461.399 1246.73 461.199 1246.69 461.039C1247.39 460.859 1248.15 460.769 1248.97 460.769C1249.07 461.049 1249.13 461.389 1249.15 461.789C1249.19 462.189 1249.21 462.559 1249.21 462.899C1249.21 463.479 1249.14 464.019 1249 464.519C1248.86 465.019 1248.63 465.459 1248.31 465.839C1247.99 466.219 1247.56 466.519 1247.02 466.739C1246.48 466.959 1245.81 467.069 1245.01 467.069L1227.01 467.069ZM1249.36 451.834C1249.36 453.034 1249.16 454.084 1248.76 454.984C1248.34 455.884 1247.77 456.634 1247.05 457.234C1246.33 457.834 1245.48 458.284 1244.5 458.584C1243.52 458.864 1242.46 459.004 1241.32 459.004C1240.18 459.004 1239.12 458.864 1238.14 458.584C1237.16 458.284 1236.31 457.834 1235.59 457.234C1234.87 456.634 1234.3 455.884 1233.88 454.984C1233.46 454.084 1233.25 453.034 1233.25 451.834C1233.25 450.634 1233.46 449.584 1233.88 448.684C1234.3 447.784 1234.87 447.034 1235.59 446.434C1236.31 445.834 1237.16 445.394 1238.14 445.114C1239.12 444.814 1240.18 444.664 1241.32 444.664C1242.46 444.664 1243.52 444.814 1244.5 445.114C1245.48 445.394 1246.33 445.834 1247.05 446.434C1247.77 447.034 1248.34 447.784 1248.76 448.684C1249.16 449.584 1249.36 450.634 1249.36 451.834ZM1246.99 451.834C1246.99 450.454 1246.49 449.434 1245.49 448.774C1244.49 448.114 1243.1 447.784 1241.32 447.784C1239.54 447.784 1238.16 448.114 1237.18 448.774C1236.18 449.434 1235.68 450.454 1235.68 451.834C1235.68 453.214 1236.18 454.234 1237.18 454.894C1238.16 455.534 1239.54 455.854 1241.32 455.854C1243.1 455.854 1244.49 455.534 1245.49 454.894C1246.49 454.234 1246.99 453.214 1246.99 451.834ZM1235.98 440.189L1235.98 442.529L1235.56 442.649L1229.8 437.489L1229.8 437.249L1233.61 437.249L1233.61 433.349C1233.95 433.269 1234.33 433.229 1234.75 433.229C1234.97 433.229 1235.18 433.239 1235.38 433.259C1235.58 433.279 1235.78 433.309 1235.98 433.349L1235.98 437.249L1243 437.249C1243.84 437.249 1244.51 437.219 1245.01 437.159C1245.51 437.079 1245.9 436.959 1246.18 436.799C1246.44 436.619 1246.62 436.389 1246.72 436.109C1246.8 435.809 1246.84 435.439 1246.84 434.999C1246.84 434.659 1246.82 434.339 1246.78 434.039C1246.72 433.739 1246.66 433.469 1246.6 433.229C1247 433.089 1247.41 433.009 1247.83 432.989C1248.25 432.949 1248.62 432.929 1248.94 432.929C1249.04 433.329 1249.11 433.749 1249.15 434.189C1249.21 434.629 1249.24 435.099 1249.24 435.599C1249.24 437.039 1248.89 438.169 1248.19 438.989C1247.49 439.789 1246.33 440.189 1244.71 440.189L1235.98 440.189Z" fill="white"/>
<path d="M20 880C20 868.954 28.9543 860 40 860H154C165.046 860 174 868.954 174 880V890H20V880Z" fill="#B4CDCD"/>
<path d="M208 880C208 868.954 216.954 860 228 860H342C353.046 860 362 868.954 362 880V890H208V880Z" fill="#B4CDCD"/>
<path d="M396 880C396 868.954 404.954 860 416 860H530C541.046 860 550 868.954 550 880V890H396V880Z" fill="#B4CDCD"/>
<path d="M584 880C584 868.954 592.954 860 604 860H718C729.046 860 738 868.954 738 880V890H584V880Z" fill="#B4CDCD"/>
<path d="M748 19H670L658 0H760L748 19Z" fill="#B4CDCD"/>
<path d="M900 19H822L810 0H912L900 19Z" fill="#B4CDCD"/>
<path d="M1052 19H974L962 0H1064L1052 19Z" fill="#B4CDCD"/>
<path d="M1204 19H1126L1114 0H1216L1204 19Z" fill="#B4CDCD"/>
</g>
<defs>
<clipPath id="clip0_270_2624">
<rect width="1270" height="890" fill="white"/>
</clipPath>
</defs>
</svg>
