<svg width="1330" height="950" viewBox="0 0 1330 950" fill="none" xmlns="http://www.w3.org/2000/svg">
<g clip-path="url(#clip0_440_10049)">
<rect width="1330" height="950" fill="white"/>
<path d="M0 40L-1.74845e-06 1.90735e-05L478 -1.82056e-06L478 40L0 40Z" fill="#B4CDCD"/>
<path d="M1330 0V150H498L449 103V0L1330 0Z" fill="#0D5E5E"/>
<path d="M899 300L971 230H1123L1195 300V452L1123 522H971L899 452V300Z" fill="#B4CDCD"/>
<rect x="972" y="301" width="150" height="150" fill="#B4CDCD"/>
<rect x="972" y="301" width="150" height="150" stroke="white" stroke-width="2"/>
<path d="M996.496 343.228C998.667 342.876 1000.81 342.7 1002.92 342.7C1005.03 342.7 1007.2 342.876 1009.43 343.228V368.044H1030.64V343.228C1032.81 342.876 1034.95 342.7 1037.06 342.7C1039.18 342.7 1041.35 342.876 1043.58 343.228V406.5C1041.35 406.852 1039.21 407.028 1037.15 407.028C1034.98 407.028 1032.81 406.852 1030.64 406.5V379.132H1009.43V406.5C1007.2 406.852 1005.06 407.028 1003.01 407.028C1000.84 407.028 998.667 406.852 996.496 406.5V343.228ZM1058.52 342.964C1061.22 342.729 1063.95 342.553 1066.7 342.436C1069.46 342.26 1072.25 342.172 1075.06 342.172C1078 342.172 1080.96 342.465 1083.95 343.052C1087 343.639 1089.73 344.753 1092.14 346.396C1094.6 347.98 1096.59 350.209 1098.12 353.084C1099.64 355.959 1100.41 359.684 1100.41 364.26C1100.41 368.836 1099.64 372.561 1098.12 375.436C1096.59 378.252 1094.63 380.481 1092.22 382.124C1089.82 383.767 1087.12 384.881 1084.13 385.468C1081.19 386.055 1078.29 386.348 1075.42 386.348C1074.65 386.348 1073.92 386.348 1073.22 386.348C1072.57 386.289 1071.95 386.231 1071.37 386.172V406.5C1070.25 406.676 1069.17 406.793 1068.11 406.852C1067.06 406.911 1066.03 406.94 1065.03 406.94C1064.09 406.94 1063.07 406.911 1061.95 406.852C1060.84 406.793 1059.69 406.676 1058.52 406.5V342.964ZM1071.37 375.524C1072.07 375.641 1072.72 375.7 1073.3 375.7C1073.95 375.7 1074.71 375.7 1075.59 375.7C1077.06 375.7 1078.5 375.524 1079.9 375.172C1081.31 374.761 1082.54 374.116 1083.6 373.236C1084.71 372.356 1085.59 371.212 1086.24 369.804C1086.88 368.337 1087.21 366.548 1087.21 364.436C1087.21 362.265 1086.88 360.447 1086.24 358.98C1085.59 357.455 1084.71 356.252 1083.6 355.372C1082.54 354.433 1081.31 353.788 1079.9 353.436C1078.5 353.025 1077.06 352.82 1075.59 352.82C1074.95 352.82 1074.33 352.849 1073.74 352.908C1073.22 352.908 1072.42 352.967 1071.37 353.084V375.524Z" fill="white"/>
<rect x="525" y="230" width="106" height="70" fill="#0D5E5E"/>
<rect x="639" y="230" width="106" height="70" fill="#0D5E5E"/>
<rect x="753" y="230" width="106" height="70" fill="#0D5E5E"/>
<path d="M551.669 247.926C553.019 247.773 554.276 247.65 555.441 247.558C556.637 247.435 557.956 247.374 559.397 247.374C561.084 247.374 562.74 247.527 564.365 247.834C566.021 248.141 567.509 248.693 568.827 249.49C570.146 250.257 571.204 251.315 572.001 252.664C572.829 253.983 573.243 255.669 573.243 257.724C573.243 258.951 573.09 260.039 572.783 260.99C572.477 261.91 572.078 262.723 571.587 263.428C571.127 264.133 570.621 264.747 570.069 265.268C569.517 265.759 568.996 266.157 568.505 266.464L567.723 266.97L575.773 280.954C575.16 281.015 574.516 281.077 573.841 281.138C573.167 281.199 572.477 281.23 571.771 281.23C570.606 281.23 569.456 281.138 568.321 280.954L559.673 265.59L560.777 265.038C561.207 264.823 561.728 264.547 562.341 264.21C562.955 263.873 563.537 263.459 564.089 262.968C564.672 262.447 565.163 261.833 565.561 261.128C565.96 260.392 566.159 259.533 566.159 258.552C566.159 256.62 565.607 255.209 564.503 254.32C563.399 253.4 561.973 252.94 560.225 252.94C559.551 252.94 558.937 252.986 558.385 253.078V281C557.833 281.061 557.281 281.107 556.729 281.138C556.177 281.199 555.641 281.23 555.119 281.23C554.598 281.23 554.046 281.215 553.463 281.184C552.881 281.153 552.283 281.092 551.669 281V247.926ZM588.53 247.926C589.174 247.834 589.788 247.773 590.37 247.742C590.953 247.681 591.597 247.65 592.302 247.65C592.916 247.65 593.514 247.681 594.096 247.742C594.679 247.773 595.323 247.834 596.028 247.926L606.378 281C605.121 281.184 603.894 281.276 602.698 281.276C601.533 281.276 600.398 281.184 599.294 281L597.454 274.376H586.506L584.62 281C583.516 281.184 582.458 281.276 581.446 281.276C580.312 281.276 579.192 281.184 578.088 281L588.53 247.926ZM595.89 268.81L592.072 254.918L588.07 268.81H595.89Z" fill="white"/>
<path d="M676.269 247.926H695.037C695.221 248.846 695.313 249.781 695.313 250.732C695.313 251.744 695.221 252.71 695.037 253.63H682.985V261.404H692.553C692.737 262.385 692.829 263.336 692.829 264.256C692.829 265.237 692.737 266.203 692.553 267.154H682.985V281C681.82 281.184 680.716 281.276 679.673 281.276C678.539 281.276 677.404 281.184 676.269 281V247.926ZM700.964 247.926C702.098 247.742 703.218 247.65 704.322 247.65C705.426 247.65 706.56 247.742 707.726 247.926V281C706.56 281.184 705.441 281.276 704.368 281.276C703.233 281.276 702.098 281.184 700.964 281V247.926Z" fill="white"/>
<path d="M786.246 265.682C785.203 265.283 784.268 264.854 783.44 264.394C782.612 263.903 781.907 263.336 781.324 262.692C780.741 262.017 780.281 261.22 779.944 260.3C779.637 259.38 779.484 258.276 779.484 256.988C779.484 255.424 779.745 254.044 780.266 252.848C780.818 251.652 781.585 250.655 782.566 249.858C783.547 249.03 784.728 248.417 786.108 248.018C787.488 247.589 789.037 247.374 790.754 247.374C792.318 247.374 793.775 247.512 795.124 247.788C796.504 248.064 797.945 248.463 799.448 248.984C799.264 250.763 798.773 252.511 797.976 254.228C797.516 254.044 797.041 253.86 796.55 253.676C796.09 253.492 795.584 253.339 795.032 253.216C794.511 253.093 793.913 253.001 793.238 252.94C792.563 252.848 791.797 252.802 790.938 252.802C790.417 252.802 789.88 252.848 789.328 252.94C788.807 253.032 788.331 253.201 787.902 253.446C787.473 253.691 787.12 254.059 786.844 254.55C786.568 255.01 786.43 255.623 786.43 256.39C786.43 257.003 786.537 257.525 786.752 257.954C786.967 258.353 787.258 258.705 787.626 259.012C787.994 259.288 788.408 259.533 788.868 259.748C789.328 259.932 789.788 260.116 790.248 260.3L793.008 261.358C794.173 261.818 795.231 262.293 796.182 262.784C797.133 263.275 797.93 263.888 798.574 264.624C799.249 265.329 799.77 266.203 800.138 267.246C800.506 268.258 800.69 269.515 800.69 271.018C800.69 272.582 800.399 274.008 799.816 275.296C799.264 276.584 798.451 277.688 797.378 278.608C796.305 279.528 794.971 280.249 793.376 280.77C791.812 281.291 790.003 281.552 787.948 281.552C786.936 281.552 786.031 281.521 785.234 281.46C784.437 281.399 783.67 281.291 782.934 281.138C782.229 281.015 781.523 280.847 780.818 280.632C780.113 280.417 779.377 280.157 778.61 279.85C778.702 278.961 778.871 278.041 779.116 277.09C779.361 276.109 779.653 275.127 779.99 274.146C781.278 274.667 782.489 275.066 783.624 275.342C784.759 275.587 785.97 275.71 787.258 275.71C789.19 275.71 790.708 275.357 791.812 274.652C792.916 273.916 793.468 272.812 793.468 271.34C793.468 270.604 793.33 269.991 793.054 269.5C792.809 269.009 792.471 268.595 792.042 268.258C791.643 267.921 791.183 267.645 790.662 267.43C790.141 267.185 789.604 266.955 789.052 266.74L786.246 265.682ZM804.131 247.926C804.652 247.865 805.25 247.803 805.925 247.742C806.6 247.681 807.198 247.65 807.719 247.65C808.884 247.65 810.111 247.742 811.399 247.926L818.621 274.008L825.935 247.926C826.548 247.834 827.131 247.773 827.683 247.742C828.266 247.711 828.848 247.696 829.431 247.696C829.983 247.696 830.535 247.711 831.087 247.742C831.67 247.773 832.268 247.834 832.881 247.926L822.209 281C821.565 281.092 820.936 281.153 820.323 281.184C819.74 281.245 819.112 281.276 818.437 281.276C817.824 281.276 817.226 281.245 816.643 281.184C816.06 281.153 815.416 281.092 814.711 281L804.131 247.926Z" fill="white"/>
<rect x="525" y="300" width="106" height="70" fill="#B4CDCD"/>
<rect x="639" y="300" width="106" height="70" fill="#B4CDCD"/>
<rect x="753" y="300" width="106" height="70" fill="#B4CDCD"/>
<path d="M561 462L536.238 522H525L549.762 462L525 402H536.238L561 462Z" fill="#0D5E5E"/>
<path d="M678.46 462L654 522H548.46L572 462L548.46 402H654L678.46 462Z" fill="#0D5E5E"/>
<path d="M734 403L794 427L854 403V497L794 521L734 497V403Z" fill="#0D5E5E"/>
<path d="M1330 253H1238L1263 228H1330V253Z" fill="#B4CDCD"/>
<rect width="92" height="614" transform="translate(1238 253)" fill="#B4CDCD"/>
<path d="M1257.4 614.953C1257.36 614.653 1257.32 614.303 1257.28 613.903C1257.24 613.483 1257.21 613.053 1257.19 612.613C1257.15 612.153 1257.12 611.703 1257.1 611.263C1257.08 610.803 1257.07 610.363 1257.07 609.943C1257.07 608.843 1257.18 607.803 1257.4 606.823C1257.62 605.823 1258 604.953 1258.54 604.213C1259.08 603.453 1259.8 602.853 1260.7 602.413C1261.58 601.973 1262.69 601.753 1264.03 601.753C1265.43 601.753 1266.6 601.993 1267.54 602.473C1268.46 602.933 1269.2 603.553 1269.76 604.333C1270.32 605.093 1270.72 605.963 1270.96 606.943C1271.18 607.923 1271.29 608.923 1271.29 609.943C1271.29 610.323 1271.29 610.663 1271.29 610.963C1271.27 611.243 1271.24 611.553 1271.2 611.893L1279 611.893C1279.06 612.373 1279.09 612.883 1279.09 613.423C1279.09 613.663 1279.08 613.923 1279.06 614.203C1279.06 614.463 1279.04 614.713 1279 614.953L1257.4 614.953ZM1268.53 611.893C1268.57 611.573 1268.6 611.293 1268.62 611.053C1268.64 610.813 1268.65 610.463 1268.65 610.003C1268.65 609.383 1268.59 608.773 1268.47 608.173C1268.33 607.553 1268.09 607.003 1267.75 606.523C1267.41 606.043 1266.95 605.663 1266.37 605.383C1265.77 605.083 1265 604.933 1264.06 604.933C1263.24 604.933 1262.55 605.063 1261.99 605.323C1261.43 605.563 1260.98 605.903 1260.64 606.343C1260.3 606.783 1260.06 607.313 1259.92 607.933C1259.78 608.553 1259.71 609.223 1259.71 609.943C1259.71 610.683 1259.74 611.333 1259.8 611.893L1268.53 611.893ZM1265.95 597.301L1265.95 599.251C1265.79 599.291 1265.61 599.321 1265.41 599.341C1265.19 599.361 1264.98 599.371 1264.78 599.371C1264.58 599.371 1264.38 599.361 1264.18 599.341C1263.96 599.321 1263.77 599.291 1263.61 599.251L1263.61 594.391L1279 594.391C1279.04 594.611 1279.07 594.861 1279.09 595.141C1279.11 595.401 1279.12 595.641 1279.12 595.861C1279.12 596.061 1279.11 596.301 1279.09 596.581C1279.07 596.841 1279.04 597.081 1279 597.301L1265.95 597.301ZM1260.22 597.961C1259.98 598.001 1259.72 598.031 1259.44 598.051C1259.16 598.051 1258.91 598.051 1258.69 598.051C1258.47 598.051 1258.22 598.051 1257.94 598.051C1257.66 598.031 1257.41 598.001 1257.19 597.961C1257.15 597.701 1257.12 597.421 1257.1 597.121C1257.08 596.821 1257.07 596.561 1257.07 596.341C1257.07 596.121 1257.08 595.861 1257.1 595.561C1257.12 595.261 1257.15 594.991 1257.19 594.751C1257.41 594.711 1257.66 594.691 1257.94 594.691C1258.22 594.671 1258.47 594.661 1258.69 594.661C1258.91 594.661 1259.16 594.671 1259.44 594.691C1259.72 594.691 1259.98 594.711 1260.22 594.751C1260.26 594.991 1260.29 595.261 1260.31 595.561C1260.33 595.841 1260.34 596.091 1260.34 596.311C1260.34 596.551 1260.33 596.821 1260.31 597.121C1260.29 597.421 1260.26 597.701 1260.22 597.961ZM1276.33 579.298C1276.61 579.138 1276.96 578.998 1277.38 578.878C1277.8 578.758 1278.23 578.688 1278.67 578.668C1279.13 579.848 1279.36 581.198 1279.36 582.718C1279.36 585.278 1278.64 587.208 1277.2 588.508C1275.74 589.808 1273.78 590.458 1271.32 590.458C1270.18 590.458 1269.12 590.298 1268.14 589.978C1267.16 589.658 1266.31 589.188 1265.59 588.568C1264.87 587.928 1264.3 587.138 1263.88 586.198C1263.46 585.258 1263.25 584.168 1263.25 582.928C1263.25 582.088 1263.3 581.348 1263.4 580.708C1263.5 580.068 1263.66 579.458 1263.88 578.878C1264.22 578.878 1264.62 578.928 1265.08 579.028C1265.52 579.108 1265.91 579.228 1266.25 579.388C1265.91 580.368 1265.74 581.488 1265.74 582.748C1265.74 584.288 1266.25 585.438 1267.27 586.198C1268.29 586.958 1269.64 587.338 1271.32 587.338C1273.24 587.338 1274.65 586.908 1275.55 586.048C1276.43 585.188 1276.87 584.008 1276.87 582.508C1276.87 581.908 1276.83 581.358 1276.75 580.858C1276.67 580.338 1276.53 579.818 1276.33 579.298ZM1257.01 575.352C1256.97 575.132 1256.94 574.892 1256.92 574.632C1256.9 574.352 1256.89 574.102 1256.89 573.882C1256.89 573.662 1256.9 573.412 1256.92 573.132C1256.94 572.852 1256.97 572.602 1257.01 572.382L1279 572.382C1279.04 572.602 1279.07 572.852 1279.09 573.132C1279.11 573.412 1279.12 573.662 1279.12 573.882C1279.12 574.102 1279.11 574.352 1279.09 574.632C1279.07 574.892 1279.04 575.132 1279 575.352L1257.01 575.352ZM1271.02 571.572L1263.61 566.682C1263.57 566.422 1263.54 566.162 1263.52 565.902C1263.5 565.642 1263.49 565.372 1263.49 565.092C1263.49 564.792 1263.5 564.512 1263.52 564.252C1263.54 563.972 1263.57 563.692 1263.61 563.412L1270.81 568.302L1279 562.572C1279.04 562.852 1279.07 563.122 1279.09 563.382C1279.11 563.642 1279.12 563.912 1279.12 564.192C1279.12 564.472 1279.11 564.752 1279.09 565.032C1279.07 565.312 1279.04 565.592 1279 565.872L1271.02 571.572ZM1263.61 552.883C1263.57 552.663 1263.54 552.413 1263.52 552.133C1263.5 551.853 1263.49 551.613 1263.49 551.413C1263.49 551.193 1263.5 550.943 1263.52 550.663C1263.54 550.383 1263.57 550.133 1263.61 549.913L1272.04 549.913C1273 549.913 1273.8 549.823 1274.44 549.643C1275.06 549.463 1275.55 549.193 1275.91 548.833C1276.27 548.473 1276.52 548.033 1276.66 547.513C1276.8 546.993 1276.87 546.393 1276.87 545.713C1276.87 544.693 1276.76 543.823 1276.54 543.103L1263.61 543.103C1263.57 542.883 1263.54 542.643 1263.52 542.383C1263.5 542.103 1263.49 541.853 1263.49 541.633C1263.49 541.413 1263.5 541.173 1263.52 540.913C1263.54 540.633 1263.57 540.383 1263.61 540.163L1278.52 540.163C1278.72 540.863 1278.91 541.703 1279.09 542.683C1279.27 543.643 1279.36 544.643 1279.36 545.683C1279.36 546.663 1279.27 547.593 1279.09 548.473C1278.93 549.333 1278.59 550.093 1278.07 550.753C1277.55 551.413 1276.82 551.933 1275.88 552.313C1274.94 552.693 1273.7 552.883 1272.16 552.883L1263.61 552.883ZM1263.61 535.506C1263.57 535.306 1263.54 535.106 1263.52 534.906C1263.5 534.686 1263.49 534.466 1263.49 534.246C1263.49 534.046 1263.5 533.836 1263.52 533.616C1263.54 533.396 1263.57 533.186 1263.61 532.986C1263.65 532.966 1263.78 532.946 1264 532.926C1264.2 532.886 1264.42 532.856 1264.66 532.836C1264.9 532.796 1265.13 532.766 1265.35 532.746C1265.57 532.706 1265.71 532.686 1265.77 532.686C1265.45 532.486 1265.14 532.246 1264.84 531.966C1264.54 531.686 1264.27 531.356 1264.03 530.976C1263.79 530.576 1263.6 530.136 1263.46 529.656C1263.32 529.156 1263.25 528.606 1263.25 528.006C1263.25 527.106 1263.4 526.276 1263.7 525.516C1264 524.736 1264.47 524.076 1265.11 523.536C1265.73 522.976 1266.53 522.546 1267.51 522.246C1268.47 521.926 1269.61 521.766 1270.93 521.766C1273.57 521.766 1275.64 522.486 1277.14 523.926C1278.62 525.346 1279.36 527.366 1279.36 529.986C1279.36 530.426 1279.33 530.876 1279.27 531.336C1279.21 531.796 1279.13 532.196 1279.03 532.536L1286.08 532.536C1286.12 532.776 1286.15 533.036 1286.17 533.316C1286.19 533.576 1286.2 533.816 1286.2 534.036C1286.2 534.256 1286.19 534.506 1286.17 534.786C1286.15 535.046 1286.12 535.286 1286.08 535.506L1263.61 535.506ZM1276.48 532.536C1276.62 532.156 1276.72 531.766 1276.78 531.366C1276.84 530.966 1276.87 530.446 1276.87 529.806C1276.87 529.086 1276.76 528.426 1276.54 527.826C1276.3 527.226 1275.94 526.716 1275.46 526.296C1274.98 525.856 1274.38 525.516 1273.66 525.276C1272.92 525.016 1272.05 524.886 1271.05 524.886C1269.45 524.886 1268.18 525.186 1267.24 525.786C1266.3 526.366 1265.83 527.326 1265.83 528.666C1265.83 529.166 1265.92 529.646 1266.1 530.106C1266.28 530.566 1266.55 530.976 1266.91 531.336C1267.27 531.696 1267.73 531.986 1268.29 532.206C1268.83 532.426 1269.48 532.536 1270.24 532.536L1276.48 532.536ZM1276.21 510.932C1276.43 510.392 1276.61 509.802 1276.75 509.162C1276.87 508.502 1276.93 507.852 1276.93 507.212C1276.93 506.752 1276.88 506.312 1276.78 505.892C1276.68 505.472 1276.53 505.112 1276.33 504.812C1276.13 504.492 1275.89 504.242 1275.61 504.062C1275.31 503.862 1274.98 503.762 1274.62 503.762C1274.22 503.762 1273.89 503.842 1273.63 504.002C1273.37 504.142 1273.15 504.342 1272.97 504.602C1272.79 504.842 1272.64 505.132 1272.52 505.472C1272.38 505.792 1272.25 506.142 1272.13 506.522L1271.74 507.572C1271.26 508.852 1270.72 509.782 1270.12 510.362C1269.52 510.942 1268.71 511.232 1267.69 511.232C1266.33 511.232 1265.25 510.752 1264.45 509.792C1263.65 508.812 1263.25 507.382 1263.25 505.502C1263.25 504.722 1263.33 503.962 1263.49 503.222C1263.63 502.462 1263.8 501.802 1264 501.242C1264.4 501.282 1264.8 501.362 1265.2 501.482C1265.6 501.582 1265.97 501.712 1266.31 501.872C1266.15 502.312 1266 502.842 1265.86 503.462C1265.7 504.062 1265.62 504.712 1265.62 505.412C1265.62 506.152 1265.75 506.812 1266.01 507.392C1266.27 507.952 1266.73 508.232 1267.39 508.232C1267.73 508.232 1268.02 508.162 1268.26 508.022C1268.5 507.882 1268.71 507.692 1268.89 507.452C1269.05 507.212 1269.19 506.942 1269.31 506.642C1269.43 506.322 1269.55 505.982 1269.67 505.622L1270.12 504.302C1270.28 503.822 1270.47 503.372 1270.69 502.952C1270.91 502.512 1271.19 502.142 1271.53 501.842C1271.85 501.522 1272.25 501.272 1272.73 501.092C1273.19 500.892 1273.75 500.792 1274.41 500.792C1275.15 500.792 1275.83 500.942 1276.45 501.242C1277.05 501.542 1277.57 501.972 1278.01 502.532C1278.43 503.072 1278.76 503.732 1279 504.512C1279.24 505.292 1279.36 506.152 1279.36 507.092C1279.36 508.052 1279.29 508.892 1279.15 509.612C1279.03 510.332 1278.86 511.002 1278.64 511.622C1278.24 511.582 1277.84 511.502 1277.44 511.382C1277.02 511.242 1276.61 511.092 1276.21 510.932ZM1257.01 497.069C1256.97 496.849 1256.94 496.609 1256.92 496.349C1256.9 496.069 1256.89 495.819 1256.89 495.599C1256.89 495.379 1256.9 495.139 1256.92 494.879C1256.94 494.599 1256.97 494.349 1257.01 494.129L1274.35 494.129C1274.91 494.129 1275.35 494.079 1275.67 493.979C1275.99 493.879 1276.24 493.749 1276.42 493.589C1276.58 493.409 1276.69 493.209 1276.75 492.989C1276.79 492.749 1276.81 492.499 1276.81 492.239C1276.81 492.059 1276.8 491.859 1276.78 491.639C1276.76 491.399 1276.73 491.199 1276.69 491.039C1277.39 490.859 1278.15 490.769 1278.97 490.769C1279.07 491.049 1279.13 491.389 1279.15 491.789C1279.19 492.189 1279.21 492.559 1279.21 492.899C1279.21 493.479 1279.14 494.019 1279 494.519C1278.86 495.019 1278.63 495.459 1278.31 495.839C1277.99 496.219 1277.56 496.519 1277.02 496.739C1276.48 496.959 1275.81 497.069 1275.01 497.069L1257.01 497.069ZM1279.36 481.834C1279.36 483.034 1279.16 484.084 1278.76 484.984C1278.34 485.884 1277.77 486.634 1277.05 487.234C1276.33 487.834 1275.48 488.284 1274.5 488.584C1273.52 488.864 1272.46 489.004 1271.32 489.004C1270.18 489.004 1269.12 488.864 1268.14 488.584C1267.16 488.284 1266.31 487.834 1265.59 487.234C1264.87 486.634 1264.3 485.884 1263.88 484.984C1263.46 484.084 1263.25 483.034 1263.25 481.834C1263.25 480.634 1263.46 479.584 1263.88 478.684C1264.3 477.784 1264.87 477.034 1265.59 476.434C1266.31 475.834 1267.16 475.394 1268.14 475.114C1269.12 474.814 1270.18 474.664 1271.32 474.664C1272.46 474.664 1273.52 474.814 1274.5 475.114C1275.48 475.394 1276.33 475.834 1277.05 476.434C1277.77 477.034 1278.34 477.784 1278.76 478.684C1279.16 479.584 1279.36 480.634 1279.36 481.834ZM1276.99 481.834C1276.99 480.454 1276.49 479.434 1275.49 478.774C1274.49 478.114 1273.1 477.784 1271.32 477.784C1269.54 477.784 1268.16 478.114 1267.18 478.774C1266.18 479.434 1265.68 480.454 1265.68 481.834C1265.68 483.214 1266.18 484.234 1267.18 484.894C1268.16 485.534 1269.54 485.854 1271.32 485.854C1273.1 485.854 1274.49 485.534 1275.49 484.894C1276.49 484.234 1276.99 483.214 1276.99 481.834ZM1265.98 470.189L1265.98 472.529L1265.56 472.649L1259.8 467.489L1259.8 467.249L1263.61 467.249L1263.61 463.349C1263.95 463.269 1264.33 463.229 1264.75 463.229C1264.97 463.229 1265.18 463.239 1265.38 463.259C1265.58 463.279 1265.78 463.309 1265.98 463.349L1265.98 467.249L1273 467.249C1273.84 467.249 1274.51 467.219 1275.01 467.159C1275.51 467.079 1275.9 466.959 1276.18 466.799C1276.44 466.619 1276.62 466.389 1276.72 466.109C1276.8 465.809 1276.84 465.439 1276.84 464.999C1276.84 464.659 1276.82 464.339 1276.78 464.039C1276.72 463.739 1276.66 463.469 1276.6 463.229C1277 463.089 1277.41 463.009 1277.83 462.989C1278.25 462.949 1278.62 462.929 1278.94 462.929C1279.04 463.329 1279.11 463.749 1279.15 464.189C1279.21 464.629 1279.24 465.099 1279.24 465.599C1279.24 467.039 1278.89 468.169 1278.19 468.989C1277.49 469.789 1276.33 470.189 1274.71 470.189L1265.98 470.189Z" fill="white"/>
<path d="M50 910C50 898.954 58.9543 890 70 890H184C195.046 890 204 898.954 204 910V950H50L50 910Z" fill="#B4CDCD"/>
<path d="M238 910C238 898.954 246.954 890 258 890H372C383.046 890 392 898.954 392 910V950H238L238 910Z" fill="#B4CDCD"/>
<path d="M426 910C426 898.954 434.954 890 446 890H560C571.046 890 580 898.954 580 910V950H426L426 910Z" fill="#B4CDCD"/>
<path d="M614 910C614 898.954 622.954 890 634 890H748C759.046 890 768 898.954 768 910V950H614V910Z" fill="#B4CDCD"/>
<path d="M0 0L40 0V867H0V0Z" fill="#B4CDCD"/>
</g>
<defs>
<clipPath id="clip0_440_10049">
<rect width="1330" height="950" fill="white"/>
</clipPath>
</defs>
</svg>
