<svg width="62" height="639" viewBox="0 0 62 639" fill="none" xmlns="http://www.w3.org/2000/svg">
<path d="M62 25L37 0H0V639H62V25Z" fill="#B4CDCD"/>
<path d="M24.15 145.48C23.29 145.92 22.46 146.2 21.66 146.32C21.3 145.48 21.04 144.62 20.88 143.74C20.72 142.86 20.64 141.91 20.64 140.89C20.64 139.33 20.89 137.92 21.39 136.66C21.91 135.42 22.64 134.37 23.58 133.51C24.54 132.65 25.7 131.99 27.06 131.53C28.42 131.07 29.95 130.84 31.65 130.84C33.37 130.84 34.92 131.07 36.3 131.53C37.7 131.99 38.89 132.65 39.87 133.51C40.85 134.37 41.6 135.42 42.12 136.66C42.66 137.9 42.93 139.29 42.93 140.83C42.93 141.97 42.85 142.95 42.69 143.77C42.53 144.59 42.34 145.32 42.12 145.96C41.66 145.92 41.23 145.83 40.83 145.69C40.45 145.57 40.04 145.42 39.6 145.24C39.7 144.94 39.79 144.65 39.87 144.37C39.95 144.09 40.02 143.79 40.08 143.47C40.14 143.15 40.18 142.79 40.2 142.39C40.24 142.01 40.26 141.57 40.26 141.07C40.26 138.89 39.52 137.19 38.04 135.97C36.56 134.77 34.43 134.17 31.65 134.17C30.23 134.17 29 134.34 27.96 134.68C26.92 135.02 26.06 135.5 25.38 136.12C24.7 136.74 24.19 137.48 23.85 138.34C23.51 139.22 23.34 140.2 23.34 141.28C23.34 142.12 23.41 142.88 23.55 143.56C23.69 144.24 23.89 144.88 24.15 145.48ZM42.99 149.955C43.03 150.175 43.06 150.415 43.08 150.675C43.1 150.955 43.11 151.205 43.11 151.425C43.11 151.645 43.1 151.885 43.08 152.145C43.06 152.425 43.03 152.675 42.99 152.895L25.65 152.895C25.09 152.895 24.65 152.945 24.33 153.045C24.01 153.145 23.76 153.275 23.58 153.435C23.42 153.615 23.31 153.815 23.25 154.035C23.21 154.275 23.19 154.525 23.19 154.785C23.19 154.965 23.2 155.165 23.22 155.385C23.24 155.625 23.27 155.825 23.31 155.985C22.61 156.165 21.85 156.255 21.03 156.255C20.93 155.975 20.87 155.635 20.85 155.235C20.81 154.835 20.79 154.465 20.79 154.125C20.79 153.545 20.86 153.005 21 152.505C21.14 152.005 21.37 151.565 21.69 151.185C22.01 150.805 22.44 150.505 22.98 150.285C23.52 150.065 24.19 149.955 24.99 149.955L42.99 149.955ZM20.64 165.191C20.64 163.991 20.84 162.941 21.24 162.041C21.66 161.141 22.23 160.391 22.95 159.791C23.67 159.191 24.52 158.741 25.5 158.441C26.48 158.161 27.54 158.021 28.68 158.021C29.82 158.021 30.88 158.161 31.86 158.441C32.84 158.741 33.69 159.191 34.41 159.791C35.13 160.391 35.7 161.141 36.12 162.041C36.54 162.941 36.75 163.991 36.75 165.191C36.75 166.391 36.54 167.441 36.12 168.341C35.7 169.241 35.13 169.991 34.41 170.591C33.69 171.191 32.84 171.631 31.86 171.911C30.88 172.211 29.82 172.361 28.68 172.361C27.54 172.361 26.48 172.211 25.5 171.911C24.52 171.631 23.67 171.191 22.95 170.591C22.23 169.991 21.66 169.241 21.24 168.341C20.84 167.441 20.64 166.391 20.64 165.191ZM23.01 165.191C23.01 166.571 23.51 167.591 24.51 168.251C25.51 168.911 26.9 169.241 28.68 169.241C30.46 169.241 31.84 168.911 32.82 168.251C33.82 167.591 34.32 166.571 34.32 165.191C34.32 163.811 33.82 162.791 32.82 162.131C31.84 161.491 30.46 161.171 28.68 161.171C26.9 161.171 25.51 161.491 24.51 162.131C23.51 162.791 23.01 163.811 23.01 165.191ZM23.79 175.995C23.57 176.535 23.39 177.125 23.25 177.765C23.13 178.425 23.07 179.075 23.07 179.715C23.07 180.175 23.12 180.615 23.22 181.035C23.32 181.455 23.47 181.815 23.67 182.115C23.87 182.435 24.11 182.685 24.39 182.865C24.69 183.065 25.02 183.165 25.38 183.165C25.78 183.165 26.11 183.085 26.37 182.925C26.63 182.785 26.85 182.585 27.03 182.325C27.21 182.085 27.36 181.795 27.48 181.455C27.62 181.135 27.75 180.785 27.87 180.405L28.26 179.355C28.74 178.075 29.28 177.145 29.88 176.565C30.48 175.985 31.29 175.695 32.31 175.695C33.67 175.695 34.75 176.175 35.55 177.135C36.35 178.115 36.75 179.545 36.75 181.425C36.75 182.205 36.67 182.965 36.51 183.705C36.37 184.465 36.2 185.125 36 185.685C35.6 185.645 35.2 185.565 34.8 185.445C34.4 185.345 34.03 185.215 33.69 185.055C33.85 184.615 34 184.085 34.14 183.465C34.3 182.865 34.38 182.215 34.38 181.515C34.38 180.775 34.25 180.115 33.99 179.535C33.73 178.975 33.27 178.695 32.61 178.695C32.27 178.695 31.98 178.765 31.74 178.905C31.5 179.045 31.29 179.235 31.11 179.475C30.95 179.715 30.81 179.985 30.69 180.285C30.57 180.605 30.45 180.945 30.33 181.305L29.88 182.625C29.72 183.105 29.53 183.555 29.31 183.975C29.09 184.415 28.81 184.785 28.47 185.085C28.15 185.405 27.75 185.655 27.27 185.835C26.81 186.035 26.25 186.135 25.59 186.135C24.85 186.135 24.17 185.985 23.55 185.685C22.95 185.385 22.43 184.955 21.99 184.395C21.57 183.855 21.24 183.195 21 182.415C20.76 181.635 20.64 180.775 20.64 179.835C20.64 178.875 20.71 178.035 20.85 177.315C20.97 176.595 21.14 175.925 21.36 175.305C21.76 175.345 22.16 175.425 22.56 175.545C22.98 175.685 23.39 175.835 23.79 175.995ZM27.96 192.138C26.28 192.178 25.05 192.608 24.27 193.428C23.49 194.268 23.1 195.498 23.1 197.118C23.1 198.538 23.35 199.888 23.85 201.168C23.55 201.328 23.18 201.458 22.74 201.558C22.32 201.658 21.9 201.718 21.48 201.738C21.2 201.078 20.99 200.348 20.85 199.548C20.71 198.768 20.64 197.898 20.64 196.938C20.64 195.538 20.83 194.338 21.21 193.338C21.61 192.338 22.16 191.508 22.86 190.848C23.58 190.208 24.42 189.738 25.38 189.438C26.36 189.138 27.43 188.988 28.59 188.988C29.73 188.988 30.79 189.128 31.77 189.408C32.77 189.708 33.63 190.158 34.35 190.758C35.09 191.358 35.67 192.108 36.09 193.008C36.53 193.928 36.75 195.008 36.75 196.248C36.75 197.308 36.57 198.238 36.21 199.038C35.85 199.838 35.35 200.508 34.71 201.048C34.09 201.588 33.34 201.998 32.46 202.278C31.6 202.558 30.66 202.698 29.64 202.698C29.36 202.698 29.06 202.688 28.74 202.668C28.44 202.648 28.18 202.628 27.96 202.608L27.96 192.138ZM30.18 199.758C30.74 199.758 31.27 199.678 31.77 199.518C32.29 199.378 32.74 199.158 33.12 198.858C33.5 198.578 33.8 198.208 34.02 197.748C34.26 197.308 34.38 196.778 34.38 196.158C34.38 194.938 34.01 193.998 33.27 193.338C32.53 192.698 31.5 192.308 30.18 192.168L30.18 199.758ZM24.15 227.717C23.29 228.157 22.46 228.437 21.66 228.557C21.3 227.717 21.04 226.857 20.88 225.977C20.72 225.097 20.64 224.147 20.64 223.127C20.64 221.567 20.89 220.157 21.39 218.897C21.91 217.657 22.64 216.607 23.58 215.747C24.54 214.887 25.7 214.227 27.06 213.767C28.42 213.307 29.95 213.077 31.65 213.077C33.37 213.077 34.92 213.307 36.3 213.767C37.7 214.227 38.89 214.887 39.87 215.747C40.85 216.607 41.6 217.657 42.12 218.897C42.66 220.137 42.93 221.527 42.93 223.067C42.93 224.207 42.85 225.187 42.69 226.007C42.53 226.827 42.34 227.557 42.12 228.197C41.66 228.157 41.23 228.067 40.83 227.927C40.45 227.807 40.04 227.657 39.6 227.477C39.7 227.177 39.79 226.887 39.87 226.607C39.95 226.327 40.02 226.027 40.08 225.707C40.14 225.387 40.18 225.027 40.2 224.627C40.24 224.247 40.26 223.807 40.26 223.307C40.26 221.127 39.52 219.427 38.04 218.207C36.56 217.007 34.43 216.407 31.65 216.407C30.23 216.407 29 216.577 27.96 216.917C26.92 217.257 26.06 217.737 25.38 218.357C24.7 218.977 24.19 219.717 23.85 220.577C23.51 221.457 23.34 222.437 23.34 223.517C23.34 224.357 23.41 225.117 23.55 225.797C23.69 226.477 23.89 227.117 24.15 227.717ZM20.64 238.052C20.64 236.852 20.84 235.802 21.24 234.902C21.66 234.002 22.23 233.252 22.95 232.652C23.67 232.052 24.52 231.602 25.5 231.302C26.48 231.022 27.54 230.882 28.68 230.882C29.82 230.882 30.88 231.022 31.86 231.302C32.84 231.602 33.69 232.052 34.41 232.652C35.13 233.252 35.7 234.002 36.12 234.902C36.54 235.802 36.75 236.852 36.75 238.052C36.75 239.252 36.54 240.302 36.12 241.202C35.7 242.102 35.13 242.852 34.41 243.452C33.69 244.052 32.84 244.492 31.86 244.772C30.88 245.072 29.82 245.222 28.68 245.222C27.54 245.222 26.48 245.072 25.5 244.772C24.52 244.492 23.67 244.052 22.95 243.452C22.23 242.852 21.66 242.102 21.24 241.202C20.84 240.302 20.64 239.252 20.64 238.052ZM23.01 238.052C23.01 239.432 23.51 240.452 24.51 241.112C25.51 241.772 26.9 242.102 28.68 242.102C30.46 242.102 31.84 241.772 32.82 241.112C33.82 240.452 34.32 239.432 34.32 238.052C34.32 236.672 33.82 235.652 32.82 234.992C31.84 234.352 30.46 234.032 28.68 234.032C26.9 234.032 25.51 234.352 24.51 234.992C23.51 235.652 23.01 236.672 23.01 238.052ZM36.39 249.127C36.43 249.347 36.46 249.557 36.48 249.757C36.5 249.977 36.51 250.197 36.51 250.417C36.51 250.637 36.5 250.837 36.48 251.017C36.46 251.217 36.43 251.427 36.39 251.647C36.09 251.707 35.69 251.767 35.19 251.827C34.71 251.887 34.3 251.917 33.96 251.917C34.32 252.097 34.66 252.317 34.98 252.577C35.32 252.857 35.62 253.177 35.88 253.537C36.14 253.917 36.35 254.347 36.51 254.827C36.67 255.307 36.75 255.837 36.75 256.417C36.75 257.617 36.5 258.537 36 259.177C35.52 259.837 34.84 260.337 33.96 260.677C34.3 260.877 34.64 261.117 34.98 261.397C35.32 261.697 35.62 262.027 35.88 262.387C36.14 262.747 36.35 263.157 36.51 263.617C36.67 264.077 36.75 264.597 36.75 265.177C36.75 266.957 36.25 268.247 35.25 269.047C34.25 269.867 32.77 270.277 30.81 270.277L21 270.277C20.96 270.057 20.93 269.807 20.91 269.527C20.89 269.247 20.88 268.997 20.88 268.777C20.88 268.557 20.89 268.307 20.91 268.027C20.93 267.767 20.96 267.527 21 267.307L29.94 267.307C31.32 267.307 32.35 267.097 33.03 266.677C33.73 266.257 34.08 265.567 34.08 264.607C34.08 263.587 33.71 262.757 32.97 262.117C32.23 261.497 31.14 261.187 29.7 261.187L21 261.187C20.96 260.967 20.93 260.717 20.91 260.437C20.89 260.177 20.88 259.937 20.88 259.717C20.88 259.497 20.89 259.247 20.91 258.967C20.93 258.707 20.96 258.467 21 258.247L30.15 258.247C31.49 258.247 32.49 258.047 33.15 257.647C33.83 257.247 34.17 256.607 34.17 255.727C34.17 255.227 34.06 254.757 33.84 254.317C33.62 253.877 33.29 253.487 32.85 253.147C32.41 252.827 31.85 252.567 31.17 252.367C30.51 252.187 29.74 252.097 28.86 252.097L21 252.097C20.96 251.877 20.93 251.627 20.91 251.347C20.89 251.087 20.88 250.847 20.88 250.627C20.88 250.407 20.89 250.157 20.91 249.877C20.93 249.597 20.96 249.347 21 249.127L36.39 249.127ZM42.99 274.702C43.03 274.922 43.06 275.162 43.08 275.422C43.1 275.702 43.11 275.952 43.11 276.172C43.11 276.392 43.1 276.642 43.08 276.922C43.06 277.202 43.03 277.452 42.99 277.672L34.53 277.672C35.13 278.032 35.65 278.592 36.09 279.352C36.53 280.112 36.75 281.032 36.75 282.112C36.75 283.032 36.6 283.882 36.3 284.662C36 285.442 35.53 286.112 34.89 286.672C34.27 287.232 33.47 287.662 32.49 287.962C31.53 288.282 30.39 288.442 29.07 288.442C26.43 288.442 24.36 287.692 22.86 286.192C21.38 284.712 20.64 282.572 20.64 279.772C20.64 278.892 20.73 277.982 20.91 277.042C21.07 276.122 21.26 275.342 21.48 274.702L42.99 274.702ZM23.49 277.672C23.37 278.032 23.28 278.412 23.22 278.812C23.18 279.232 23.16 279.662 23.16 280.102C23.16 280.842 23.27 281.522 23.49 282.142C23.73 282.782 24.08 283.332 24.54 283.792C25.02 284.252 25.62 284.612 26.34 284.872C27.08 285.152 27.95 285.292 28.95 285.292C30.61 285.292 31.9 285.002 32.82 284.422C33.74 283.842 34.2 282.882 34.2 281.542C34.2 281.082 34.12 280.622 33.96 280.162C33.82 279.722 33.58 279.312 33.24 278.932C32.92 278.552 32.48 278.242 31.92 278.002C31.38 277.782 30.72 277.672 29.94 277.672L23.49 277.672ZM28.23 300.557C28.27 300.257 28.31 299.877 28.35 299.417C28.39 298.957 28.41 298.567 28.41 298.247C28.41 297.007 28.18 296.057 27.72 295.397C27.26 294.757 26.56 294.437 25.62 294.437C25.02 294.437 24.55 294.547 24.21 294.767C23.87 294.987 23.61 295.257 23.43 295.577C23.25 295.917 23.14 296.287 23.1 296.687C23.06 297.087 23.04 297.467 23.04 297.827C23.04 298.287 23.06 298.757 23.1 299.237C23.16 299.737 23.24 300.177 23.34 300.557L28.23 300.557ZM31.14 300.557C32.32 300.557 33.14 300.257 33.6 299.657C34.06 299.057 34.29 298.187 34.29 297.047C34.29 296.347 34.23 295.687 34.11 295.067C34.01 294.467 33.87 293.877 33.69 293.297C34.35 292.917 35.14 292.727 36.06 292.727C36.28 293.407 36.45 294.157 36.57 294.977C36.69 295.797 36.75 296.587 36.75 297.347C36.75 299.347 36.29 300.867 35.37 301.907C34.47 302.947 33.02 303.467 31.02 303.467L21.39 303.467C21.23 302.767 21.07 301.917 20.91 300.917C20.73 299.917 20.64 298.897 20.64 297.857C20.64 296.877 20.73 295.987 20.91 295.187C21.09 294.407 21.38 293.737 21.78 293.177C22.18 292.637 22.69 292.217 23.31 291.917C23.93 291.617 24.68 291.467 25.56 291.467C26.42 291.467 27.17 291.637 27.81 291.977C28.47 292.337 29.01 292.817 29.43 293.417C29.87 294.017 30.19 294.707 30.39 295.487C30.61 296.267 30.72 297.087 30.72 297.947C30.72 298.587 30.7 299.107 30.66 299.507C30.64 299.927 30.61 300.277 30.57 300.557L31.14 300.557ZM34.02 308.495L34.02 306.155L34.44 306.035L40.2 311.195L40.2 311.435L36.39 311.435L36.39 315.335C36.05 315.415 35.67 315.455 35.25 315.455C35.03 315.455 34.82 315.445 34.62 315.425C34.42 315.405 34.22 315.375 34.02 315.335L34.02 311.435L27 311.435C26.16 311.435 25.49 311.465 24.99 311.525C24.49 311.605 24.1 311.725 23.82 311.885C23.56 312.065 23.38 312.295 23.28 312.575C23.2 312.875 23.16 313.245 23.16 313.685C23.16 314.025 23.18 314.345 23.22 314.645C23.28 314.945 23.34 315.215 23.4 315.455C23 315.595 22.59 315.675 22.17 315.695C21.75 315.735 21.38 315.755 21.06 315.755C20.96 315.355 20.89 314.935 20.85 314.495C20.79 314.055 20.76 313.585 20.76 313.085C20.76 311.645 21.11 310.515 21.81 309.695C22.51 308.895 23.67 308.495 25.29 308.495L34.02 308.495ZM42.57 324.206C42.61 324.426 42.64 324.696 42.66 325.016C42.68 325.356 42.69 325.666 42.69 325.946C42.69 326.226 42.68 326.506 42.66 326.786C42.64 327.086 42.61 327.356 42.57 327.596L24.6 331.286L42.57 335.726C42.61 335.966 42.64 336.226 42.66 336.506C42.68 336.806 42.69 337.086 42.69 337.346C42.69 337.586 42.68 337.856 42.66 338.156C42.64 338.456 42.61 338.716 42.57 338.936L24.42 343.406L42.57 347.156C42.61 347.376 42.64 347.606 42.66 347.846C42.68 348.106 42.69 348.356 42.69 348.596C42.69 348.876 42.68 349.156 42.66 349.436C42.64 349.736 42.61 349.996 42.57 350.216L21 345.026C20.96 344.786 20.93 344.506 20.91 344.186C20.89 343.866 20.88 343.576 20.88 343.316C20.88 343.036 20.89 342.726 20.91 342.386C20.93 342.046 20.96 341.736 21 341.456L37.89 337.196L21 332.876C20.96 332.596 20.93 332.286 20.91 331.946C20.89 331.626 20.88 331.326 20.88 331.046C20.88 330.806 20.89 330.526 20.91 330.206C20.93 329.906 20.96 329.636 21 329.396L42.57 324.206ZM27.96 354.559C26.28 354.599 25.05 355.029 24.27 355.849C23.49 356.689 23.1 357.919 23.1 359.539C23.1 360.959 23.35 362.309 23.85 363.589C23.55 363.749 23.18 363.879 22.74 363.979C22.32 364.079 21.9 364.139 21.48 364.159C21.2 363.499 20.99 362.769 20.85 361.969C20.71 361.189 20.64 360.319 20.64 359.359C20.64 357.959 20.83 356.759 21.21 355.759C21.61 354.759 22.16 353.929 22.86 353.269C23.58 352.629 24.42 352.159 25.38 351.859C26.36 351.559 27.43 351.409 28.59 351.409C29.73 351.409 30.79 351.549 31.77 351.829C32.77 352.129 33.63 352.579 34.35 353.179C35.09 353.779 35.67 354.529 36.09 355.429C36.53 356.349 36.75 357.429 36.75 358.669C36.75 359.729 36.57 360.659 36.21 361.459C35.85 362.259 35.35 362.929 34.71 363.469C34.09 364.009 33.34 364.419 32.46 364.699C31.6 364.979 30.66 365.119 29.64 365.119C29.36 365.119 29.06 365.109 28.74 365.089C28.44 365.069 28.18 365.049 27.96 365.029L27.96 354.559ZM30.18 362.179C30.74 362.179 31.27 362.099 31.77 361.939C32.29 361.799 32.74 361.579 33.12 361.279C33.5 360.999 33.8 360.629 34.02 360.169C34.26 359.729 34.38 359.199 34.38 358.579C34.38 357.359 34.01 356.419 33.27 355.759C32.53 355.119 31.5 354.729 30.18 354.589L30.18 362.179ZM28.23 377.139C28.27 376.839 28.31 376.459 28.35 375.999C28.39 375.539 28.41 375.149 28.41 374.829C28.41 373.589 28.18 372.639 27.72 371.979C27.26 371.339 26.56 371.019 25.62 371.019C25.02 371.019 24.55 371.129 24.21 371.349C23.87 371.569 23.61 371.839 23.43 372.159C23.25 372.499 23.14 372.869 23.1 373.269C23.06 373.669 23.04 374.049 23.04 374.409C23.04 374.869 23.06 375.339 23.1 375.819C23.16 376.319 23.24 376.759 23.34 377.139L28.23 377.139ZM31.14 377.139C32.32 377.139 33.14 376.839 33.6 376.239C34.06 375.639 34.29 374.769 34.29 373.629C34.29 372.929 34.23 372.269 34.11 371.649C34.01 371.049 33.87 370.459 33.69 369.879C34.35 369.499 35.14 369.309 36.06 369.309C36.28 369.989 36.45 370.739 36.57 371.559C36.69 372.379 36.75 373.169 36.75 373.929C36.75 375.929 36.29 377.449 35.37 378.489C34.47 379.529 33.02 380.049 31.02 380.049L21.39 380.049C21.23 379.349 21.07 378.499 20.91 377.499C20.73 376.499 20.64 375.479 20.64 374.439C20.64 373.459 20.73 372.569 20.91 371.769C21.09 370.989 21.38 370.319 21.78 369.759C22.18 369.219 22.69 368.799 23.31 368.499C23.93 368.199 24.68 368.049 25.56 368.049C26.42 368.049 27.17 368.219 27.81 368.559C28.47 368.919 29.01 369.399 29.43 369.999C29.87 370.599 30.19 371.289 30.39 372.069C30.61 372.849 30.72 373.669 30.72 374.529C30.72 375.169 30.7 375.689 30.66 376.089C30.64 376.509 30.61 376.859 30.57 377.139L31.14 377.139ZM36.39 384.477C36.43 384.677 36.46 384.877 36.48 385.077C36.5 385.297 36.51 385.517 36.51 385.737C36.51 385.937 36.5 386.147 36.48 386.367C36.46 386.587 36.43 386.797 36.39 386.997C36.35 387.017 36.22 387.037 36 387.057C35.8 387.097 35.58 387.127 35.34 387.147C35.1 387.187 34.87 387.217 34.65 387.237C34.43 387.277 34.29 387.297 34.23 387.297C34.55 387.497 34.86 387.737 35.16 388.017C35.46 388.297 35.73 388.627 35.97 389.007C36.21 389.407 36.4 389.847 36.54 390.327C36.68 390.827 36.75 391.377 36.75 391.977C36.75 392.877 36.6 393.707 36.3 394.467C36 395.247 35.53 395.907 34.89 396.447C34.27 397.007 33.47 397.437 32.49 397.737C31.53 398.057 30.39 398.217 29.07 398.217C26.43 398.217 24.36 397.497 22.86 396.057C21.38 394.637 20.64 392.617 20.64 389.997C20.64 389.557 20.67 389.107 20.73 388.647C20.79 388.187 20.87 387.787 20.97 387.447L13.92 387.447C13.88 387.207 13.85 386.947 13.83 386.667C13.81 386.407 13.8 386.167 13.8 385.947C13.8 385.727 13.81 385.477 13.83 385.197C13.85 384.937 13.88 384.697 13.92 384.477L36.39 384.477ZM23.52 387.447C23.38 387.827 23.28 388.217 23.22 388.617C23.16 389.017 23.13 389.537 23.13 390.177C23.13 390.897 23.24 391.557 23.46 392.157C23.7 392.757 24.06 393.267 24.54 393.687C25.02 394.127 25.62 394.467 26.34 394.707C27.08 394.967 27.95 395.097 28.95 395.097C30.55 395.097 31.82 394.797 32.76 394.197C33.7 393.617 34.17 392.657 34.17 391.317C34.17 390.817 34.08 390.337 33.9 389.877C33.72 389.417 33.45 389.007 33.09 388.647C32.73 388.287 32.27 387.997 31.71 387.777C31.17 387.557 30.52 387.447 29.76 387.447L23.52 387.447ZM20.64 408.443C20.64 407.243 20.84 406.193 21.24 405.293C21.66 404.393 22.23 403.643 22.95 403.043C23.67 402.443 24.52 401.993 25.5 401.693C26.48 401.413 27.54 401.273 28.68 401.273C29.82 401.273 30.88 401.413 31.86 401.693C32.84 401.993 33.69 402.443 34.41 403.043C35.13 403.643 35.7 404.393 36.12 405.293C36.54 406.193 36.75 407.243 36.75 408.443C36.75 409.643 36.54 410.693 36.12 411.593C35.7 412.493 35.13 413.243 34.41 413.843C33.69 414.443 32.84 414.883 31.86 415.163C30.88 415.463 29.82 415.613 28.68 415.613C27.54 415.613 26.48 415.463 25.5 415.163C24.52 414.883 23.67 414.443 22.95 413.843C22.23 413.243 21.66 412.493 21.24 411.593C20.84 410.693 20.64 409.643 20.64 408.443ZM23.01 408.443C23.01 409.823 23.51 410.843 24.51 411.503C25.51 412.163 26.9 412.493 28.68 412.493C30.46 412.493 31.84 412.163 32.82 411.503C33.82 410.843 34.32 409.823 34.32 408.443C34.32 407.063 33.82 406.043 32.82 405.383C31.84 404.743 30.46 404.423 28.68 404.423C26.9 404.423 25.51 404.743 24.51 405.383C23.51 406.043 23.01 407.063 23.01 408.443ZM36.39 419.517C36.43 419.737 36.46 419.947 36.48 420.147C36.5 420.367 36.51 420.587 36.51 420.807C36.51 421.027 36.5 421.227 36.48 421.407C36.46 421.607 36.43 421.817 36.39 422.037C36.09 422.097 35.68 422.157 35.16 422.217C34.66 422.277 34.24 422.307 33.9 422.307C34.24 422.507 34.58 422.757 34.92 423.057C35.26 423.377 35.56 423.737 35.82 424.137C36.1 424.537 36.32 424.997 36.48 425.517C36.66 426.037 36.75 426.607 36.75 427.227C36.75 428.987 36.24 430.287 35.22 431.127C34.22 431.967 32.73 432.387 30.75 432.387L21 432.387C20.96 432.167 20.93 431.917 20.91 431.637C20.89 431.357 20.88 431.107 20.88 430.887C20.88 430.667 20.89 430.417 20.91 430.137C20.93 429.877 20.96 429.637 21 429.417L29.94 429.417C31.36 429.417 32.4 429.197 33.06 428.757C33.74 428.317 34.08 427.617 34.08 426.657C34.08 426.097 33.98 425.567 33.78 425.067C33.58 424.567 33.27 424.127 32.85 423.747C32.43 423.367 31.88 423.057 31.2 422.817C30.54 422.597 29.74 422.487 28.8 422.487L21 422.487C20.96 422.267 20.93 422.017 20.91 421.737C20.89 421.477 20.88 421.237 20.88 421.017C20.88 420.797 20.89 420.547 20.91 420.267C20.93 419.987 20.96 419.737 21 419.517L36.39 419.517ZM24.27 443.68C24.03 444.34 23.82 445.03 23.64 445.75C23.46 446.47 23.37 447.35 23.37 448.39C23.37 450.03 23.7 451.25 24.36 452.05C25.04 452.87 25.95 453.28 27.09 453.28C27.65 453.28 28.13 453.19 28.53 453.01C28.93 452.85 29.27 452.6 29.55 452.26C29.85 451.92 30.12 451.49 30.36 450.97C30.6 450.47 30.86 449.88 31.14 449.2L31.83 447.49C32.07 446.91 32.33 446.38 32.61 445.9C32.91 445.42 33.27 445 33.69 444.64C34.11 444.3 34.59 444.03 35.13 443.83C35.69 443.63 36.35 443.53 37.11 443.53C38.93 443.53 40.35 444.15 41.37 445.39C42.41 446.63 42.93 448.37 42.93 450.61C42.93 451.57 42.85 452.48 42.69 453.34C42.53 454.2 42.33 454.96 42.09 455.62C41.25 455.52 40.42 455.3 39.6 454.96C39.8 454.42 39.98 453.79 40.14 453.07C40.3 452.37 40.38 451.57 40.38 450.67C40.38 449.41 40.12 448.44 39.6 447.76C39.1 447.08 38.34 446.74 37.32 446.74C36.9 446.74 36.52 446.82 36.18 446.98C35.86 447.16 35.57 447.39 35.31 447.67C35.07 447.95 34.85 448.28 34.65 448.66C34.45 449.04 34.27 449.44 34.11 449.86L33.45 451.54C33.13 452.34 32.79 453.05 32.43 453.67C32.09 454.29 31.68 454.82 31.2 455.26C30.74 455.7 30.19 456.03 29.55 456.25C28.91 456.49 28.16 456.61 27.3 456.61C25.24 456.61 23.61 455.9 22.41 454.48C21.23 453.06 20.64 451.07 20.64 448.51C20.64 447.89 20.66 447.33 20.7 446.83C20.74 446.33 20.8 445.86 20.88 445.42C20.96 445 21.06 444.59 21.18 444.19C21.3 443.79 21.43 443.38 21.57 442.96C22.01 443 22.46 443.09 22.92 443.23C23.38 443.37 23.83 443.52 24.27 443.68ZM42.99 460.268C43.03 460.488 43.06 460.728 43.08 460.988C43.1 461.268 43.11 461.518 43.11 461.738C43.11 461.958 43.1 462.198 43.08 462.458C43.06 462.738 43.03 462.988 42.99 463.208L25.65 463.208C25.09 463.208 24.65 463.258 24.33 463.358C24.01 463.458 23.76 463.588 23.58 463.748C23.42 463.928 23.31 464.128 23.25 464.348C23.21 464.588 23.19 464.838 23.19 465.098C23.19 465.278 23.2 465.478 23.22 465.698C23.24 465.938 23.27 466.138 23.31 466.298C22.61 466.478 21.85 466.568 21.03 466.568C20.93 466.288 20.87 465.948 20.85 465.548C20.81 465.148 20.79 464.778 20.79 464.438C20.79 463.858 20.86 463.318 21 462.818C21.14 462.318 21.37 461.878 21.69 461.498C22.01 461.118 22.44 460.818 22.98 460.598C23.52 460.378 24.19 460.268 24.99 460.268L42.99 460.268ZM20.64 475.503C20.64 474.303 20.84 473.253 21.24 472.353C21.66 471.453 22.23 470.703 22.95 470.103C23.67 469.503 24.52 469.053 25.5 468.753C26.48 468.473 27.54 468.333 28.68 468.333C29.82 468.333 30.88 468.473 31.86 468.753C32.84 469.053 33.69 469.503 34.41 470.103C35.13 470.703 35.7 471.453 36.12 472.353C36.54 473.253 36.75 474.303 36.75 475.503C36.75 476.703 36.54 477.753 36.12 478.653C35.7 479.553 35.13 480.303 34.41 480.903C33.69 481.503 32.84 481.943 31.86 482.223C30.88 482.523 29.82 482.673 28.68 482.673C27.54 482.673 26.48 482.523 25.5 482.223C24.52 481.943 23.67 481.503 22.95 480.903C22.23 480.303 21.66 479.553 21.24 478.653C20.84 477.753 20.64 476.703 20.64 475.503ZM23.01 475.503C23.01 476.883 23.51 477.903 24.51 478.563C25.51 479.223 26.9 479.553 28.68 479.553C30.46 479.553 31.84 479.223 32.82 478.563C33.82 477.903 34.32 476.883 34.32 475.503C34.32 474.123 33.82 473.103 32.82 472.443C31.84 471.803 30.46 471.483 28.68 471.483C26.9 471.483 25.51 471.803 24.51 472.443C23.51 473.103 23.01 474.123 23.01 475.503ZM34.02 487.148L34.02 484.808L34.44 484.688L40.2 489.848L40.2 490.088L36.39 490.088L36.39 493.988C36.05 494.068 35.67 494.108 35.25 494.108C35.03 494.108 34.82 494.098 34.62 494.078C34.42 494.058 34.22 494.028 34.02 493.988L34.02 490.088L27 490.088C26.16 490.088 25.49 490.118 24.99 490.178C24.49 490.258 24.1 490.378 23.82 490.538C23.56 490.718 23.38 490.948 23.28 491.228C23.2 491.528 23.16 491.898 23.16 492.338C23.16 492.678 23.18 492.998 23.22 493.298C23.28 493.598 23.34 493.868 23.4 494.108C23 494.248 22.59 494.328 22.17 494.348C21.75 494.388 21.38 494.408 21.06 494.408C20.96 494.008 20.89 493.588 20.85 493.148C20.79 492.708 20.76 492.238 20.76 491.738C20.76 490.298 21.11 489.168 21.81 488.348C22.51 487.548 23.67 487.148 25.29 487.148L34.02 487.148Z" fill="white"/>
</svg>
