<svg width="1103" height="58" viewBox="0 0 1103 58" fill="none" xmlns="http://www.w3.org/2000/svg">
<path d="M1076 0L1103 25V58H0V0H1076Z" fill="#0D5E5E"/>
<path d="M859.61 28.14L865.46 17.43C865.92 17.35 866.34 17.3 866.72 17.28C867.12 17.26 867.48 17.25 867.8 17.25C868.14 17.25 868.52 17.27 868.94 17.31C869.36 17.35 869.8 17.39 870.26 17.43L864.35 27.84L870.77 39C870.31 39.04 869.86 39.08 869.42 39.12C869 39.16 868.62 39.18 868.28 39.18C867.96 39.18 867.6 39.17 867.2 39.15C866.82 39.13 866.39 39.08 865.91 39L859.61 28.14ZM854.6 17.4C854.98 17.34 855.35 17.3 855.71 17.28C856.07 17.26 856.44 17.25 856.82 17.25C857.16 17.25 857.51 17.26 857.87 17.28C858.23 17.3 858.6 17.34 858.98 17.4V39.03C858.6 39.09 858.23 39.13 857.87 39.15C857.51 39.17 857.15 39.18 856.79 39.18C856.43 39.18 856.07 39.17 855.71 39.15C855.35 39.13 854.98 39.09 854.6 39.03V17.4ZM875.978 32.55C876.058 33.75 876.478 34.62 877.238 35.16C877.998 35.7 878.998 35.97 880.238 35.97C880.918 35.97 881.608 35.91 882.308 35.79C883.028 35.65 883.708 35.46 884.348 35.22C884.568 35.62 884.758 36.1 884.918 36.66C885.078 37.22 885.168 37.82 885.188 38.46C883.628 39.06 881.868 39.36 879.908 39.36C878.468 39.36 877.228 39.16 876.188 38.76C875.168 38.36 874.328 37.81 873.668 37.11C873.028 36.39 872.548 35.54 872.228 34.56C871.928 33.58 871.778 32.51 871.778 31.35C871.778 30.21 871.938 29.14 872.258 28.14C872.578 27.14 873.048 26.27 873.668 25.53C874.308 24.79 875.088 24.21 876.008 23.79C876.948 23.35 878.038 23.13 879.278 23.13C880.358 23.13 881.318 23.32 882.158 23.7C882.998 24.08 883.708 24.6 884.288 25.26C884.888 25.92 885.338 26.71 885.638 27.63C885.938 28.53 886.088 29.5 886.088 30.54C886.088 30.92 886.068 31.3 886.028 31.68C886.008 32.04 885.978 32.33 885.938 32.55H875.978ZM882.068 29.58C882.028 28.62 881.758 27.85 881.258 27.27C880.778 26.67 880.098 26.37 879.218 26.37C878.218 26.37 877.458 26.65 876.938 27.21C876.418 27.77 876.108 28.56 876.008 29.58H882.068ZM887.341 23.49C887.801 23.39 888.201 23.34 888.541 23.34C888.901 23.32 889.231 23.31 889.531 23.31C889.931 23.31 890.341 23.32 890.761 23.34C891.181 23.36 891.561 23.41 891.901 23.49L895.141 37.02L898.801 23.49C899.461 23.37 900.141 23.31 900.841 23.31C901.141 23.31 901.461 23.32 901.801 23.34C902.141 23.34 902.561 23.39 903.061 23.49L897.271 42.66C897.031 43.42 896.741 44.05 896.401 44.55C896.081 45.05 895.711 45.44 895.291 45.72C894.871 46 894.401 46.19 893.881 46.29C893.361 46.41 892.801 46.47 892.201 46.47C891.641 46.47 891.131 46.43 890.671 46.35C890.231 46.29 889.791 46.2 889.351 46.08C889.331 45.98 889.321 45.89 889.321 45.81C889.321 45.75 889.321 45.68 889.321 45.6C889.321 45.12 889.371 44.66 889.471 44.22C889.591 43.8 889.731 43.39 889.891 42.99C890.071 43.05 890.311 43.1 890.611 43.14C890.911 43.2 891.211 43.23 891.511 43.23C891.751 43.23 891.991 43.21 892.231 43.17C892.471 43.15 892.701 43.06 892.921 42.9C893.161 42.76 893.381 42.53 893.581 42.21C893.781 41.89 893.961 41.44 894.121 40.86L894.631 39C894.411 39.02 894.161 39.03 893.881 39.03C893.621 39.05 893.351 39.06 893.071 39.06C892.851 39.06 892.641 39.06 892.441 39.06C892.241 39.06 892.061 39.04 891.901 39L887.341 23.49ZM903.511 23.52C903.971 23.42 904.401 23.36 904.801 23.34C905.221 23.32 905.571 23.31 905.851 23.31C906.251 23.31 906.641 23.32 907.021 23.34C907.401 23.36 907.761 23.41 908.101 23.49L910.591 34.95L913.471 23.49C914.091 23.37 914.771 23.31 915.511 23.31C916.031 23.33 916.461 23.35 916.801 23.37C917.141 23.39 917.441 23.43 917.701 23.49L920.521 34.74L922.981 23.49C923.321 23.43 923.641 23.39 923.941 23.37C924.241 23.33 924.581 23.31 924.961 23.31C925.241 23.31 925.571 23.32 925.951 23.34C926.351 23.36 926.791 23.42 927.271 23.52L922.441 39C922.081 39.06 921.691 39.1 921.271 39.12C920.871 39.14 920.531 39.15 920.251 39.15C919.951 39.15 919.611 39.14 919.231 39.12C918.871 39.1 918.521 39.05 918.181 38.97L915.361 28.71L912.451 39C912.071 39.06 911.671 39.1 911.251 39.12C910.851 39.14 910.511 39.15 910.231 39.15C909.951 39.15 909.621 39.14 909.241 39.12C908.881 39.1 908.531 39.05 908.191 38.97L903.511 23.52ZM935.701 39.36C934.441 39.36 933.341 39.16 932.401 38.76C931.481 38.34 930.711 37.77 930.091 37.05C929.491 36.31 929.031 35.45 928.711 34.47C928.411 33.49 928.261 32.43 928.261 31.29C928.261 30.15 928.411 29.08 928.711 28.08C929.031 27.08 929.491 26.22 930.091 25.5C930.711 24.76 931.481 24.18 932.401 23.76C933.341 23.34 934.441 23.13 935.701 23.13C936.961 23.13 938.061 23.34 939.001 23.76C939.941 24.18 940.721 24.76 941.341 25.5C941.961 26.22 942.421 27.08 942.721 28.08C943.021 29.08 943.171 30.15 943.171 31.29C943.171 32.43 943.021 33.49 942.721 34.47C942.421 35.45 941.961 36.31 941.341 37.05C940.721 37.77 939.941 38.34 939.001 38.76C938.061 39.16 936.961 39.36 935.701 39.36ZM935.701 36.12C936.821 36.12 937.621 35.71 938.101 34.89C938.601 34.05 938.851 32.85 938.851 31.29C938.851 29.73 938.601 28.54 938.101 27.72C937.621 26.88 936.821 26.46 935.701 26.46C934.601 26.46 933.801 26.88 933.301 27.72C932.821 28.54 932.581 29.73 932.581 31.29C932.581 32.85 932.821 34.05 933.301 34.89C933.801 35.71 934.601 36.12 935.701 36.12ZM946.534 23.49C946.834 23.43 947.114 23.39 947.374 23.37C947.654 23.33 947.954 23.31 948.274 23.31C948.574 23.31 948.864 23.33 949.144 23.37C949.444 23.41 949.734 23.46 950.014 23.52C950.074 23.62 950.124 23.77 950.164 23.97C950.224 24.15 950.274 24.35 950.314 24.57C950.354 24.77 950.384 24.98 950.404 25.2C950.444 25.4 950.474 25.57 950.494 25.71C950.934 25.09 951.474 24.54 952.114 24.06C952.754 23.56 953.554 23.31 954.514 23.31C954.714 23.31 954.944 23.32 955.204 23.34C955.464 23.36 955.654 23.39 955.774 23.43C955.814 23.63 955.844 23.86 955.864 24.12C955.884 24.38 955.894 24.65 955.894 24.93C955.894 25.27 955.874 25.64 955.834 26.04C955.814 26.44 955.764 26.82 955.684 27.18C955.464 27.14 955.214 27.12 954.934 27.12C954.674 27.12 954.514 27.12 954.454 27.12C954.114 27.12 953.734 27.16 953.314 27.24C952.894 27.3 952.494 27.48 952.114 27.78C951.734 28.08 951.414 28.53 951.154 29.13C950.914 29.73 950.794 30.57 950.794 31.65V39.03C950.434 39.09 950.074 39.13 949.714 39.15C949.354 39.17 949.004 39.18 948.664 39.18C948.324 39.18 947.974 39.17 947.614 39.15C947.274 39.13 946.914 39.09 946.534 39.03V23.49ZM967.464 17.07C967.824 17.01 968.174 16.97 968.514 16.95C968.874 16.93 969.224 16.92 969.564 16.92C969.904 16.92 970.254 16.93 970.614 16.95C970.974 16.97 971.334 17.01 971.694 17.07V38.49C970.754 38.77 969.794 38.98 968.814 39.12C967.854 39.28 966.684 39.36 965.304 39.36C964.244 39.36 963.224 39.22 962.244 38.94C961.284 38.64 960.434 38.18 959.694 37.56C958.954 36.92 958.364 36.1 957.924 35.1C957.504 34.1 957.294 32.88 957.294 31.44C957.294 30.3 957.474 29.23 957.834 28.23C958.214 27.21 958.744 26.33 959.424 25.59C960.124 24.85 960.964 24.27 961.944 23.85C962.924 23.41 964.014 23.19 965.214 23.19C965.574 23.19 965.944 23.21 966.324 23.25C966.724 23.27 967.104 23.33 967.464 23.43V17.07ZM967.464 26.7C967.064 26.6 966.734 26.54 966.474 26.52C966.234 26.48 965.924 26.46 965.544 26.46C964.884 26.46 964.304 26.6 963.804 26.88C963.324 27.14 962.924 27.5 962.604 27.96C962.284 28.4 962.044 28.93 961.884 29.55C961.744 30.15 961.674 30.78 961.674 31.44C961.674 32.26 961.774 32.96 961.974 33.54C962.174 34.1 962.444 34.55 962.784 34.89C963.144 35.23 963.564 35.48 964.044 35.64C964.524 35.78 965.044 35.85 965.604 35.85C965.944 35.85 966.254 35.84 966.534 35.82C966.814 35.78 967.124 35.71 967.464 35.61V26.7ZM978.801 32.25C977.681 31.93 976.801 31.46 976.161 30.84C975.541 30.2 975.231 29.25 975.231 27.99C975.231 26.47 975.771 25.28 976.851 24.42C977.951 23.56 979.441 23.13 981.321 23.13C982.101 23.13 982.871 23.2 983.631 23.34C984.391 23.48 985.161 23.69 985.941 23.97C985.901 24.49 985.801 25.03 985.641 25.59C985.481 26.15 985.291 26.64 985.071 27.06C984.591 26.86 984.061 26.69 983.481 26.55C982.901 26.39 982.291 26.31 981.651 26.31C980.971 26.31 980.441 26.42 980.061 26.64C979.681 26.84 979.491 27.17 979.491 27.63C979.491 28.07 979.621 28.38 979.881 28.56C980.161 28.74 980.551 28.91 981.051 29.07L982.761 29.58C983.321 29.74 983.821 29.94 984.261 30.18C984.721 30.4 985.111 30.68 985.431 31.02C985.751 31.36 986.001 31.78 986.181 32.28C986.361 32.78 986.451 33.39 986.451 34.11C986.451 34.85 986.291 35.54 985.971 36.18C985.671 36.82 985.221 37.38 984.621 37.86C984.041 38.32 983.331 38.69 982.491 38.97C981.651 39.23 980.701 39.36 979.641 39.36C979.161 39.36 978.721 39.34 978.321 39.3C977.921 39.28 977.531 39.23 977.151 39.15C976.791 39.09 976.431 39.01 976.071 38.91C975.711 38.81 975.321 38.68 974.901 38.52C974.941 37.98 975.031 37.44 975.171 36.9C975.331 36.34 975.531 35.8 975.771 35.28C976.431 35.54 977.051 35.74 977.631 35.88C978.231 36 978.851 36.06 979.491 36.06C979.771 36.06 980.071 36.04 980.391 36C980.731 35.94 981.041 35.85 981.321 35.73C981.601 35.59 981.831 35.42 982.011 35.22C982.211 35 982.311 34.72 982.311 34.38C982.311 33.9 982.161 33.56 981.861 33.36C981.581 33.14 981.181 32.95 980.661 32.79L978.801 32.25Z" fill="white"/>
<path d="M728.11 17.43C728.53 17.37 728.93 17.33 729.31 17.31C729.69 17.27 730.11 17.25 730.57 17.25C730.97 17.25 731.36 17.27 731.74 17.31C732.12 17.33 732.54 17.37 733 17.43L739.75 39C738.93 39.12 738.13 39.18 737.35 39.18C736.59 39.18 735.85 39.12 735.13 39L733.93 34.68H726.79L725.56 39C724.84 39.12 724.15 39.18 723.49 39.18C722.75 39.18 722.02 39.12 721.3 39L728.11 17.43ZM732.91 31.05L730.42 21.99L727.81 31.05H732.91ZM742.172 17.34C743.092 17.26 744.022 17.2 744.962 17.16C745.902 17.1 746.852 17.07 747.812 17.07C748.812 17.07 749.822 17.17 750.842 17.37C751.882 17.57 752.812 17.95 753.632 18.51C754.472 19.05 755.152 19.81 755.672 20.79C756.192 21.77 756.452 23.04 756.452 24.6C756.452 26.16 756.192 27.43 755.672 28.41C755.152 29.37 754.482 30.13 753.662 30.69C752.842 31.25 751.922 31.63 750.902 31.83C749.902 32.03 748.912 32.13 747.932 32.13C747.672 32.13 747.422 32.13 747.182 32.13C746.962 32.11 746.752 32.09 746.552 32.07V39C746.172 39.06 745.802 39.1 745.442 39.12C745.082 39.14 744.732 39.15 744.392 39.15C744.072 39.15 743.722 39.14 743.342 39.12C742.962 39.1 742.572 39.06 742.172 39V17.34ZM746.552 28.44C746.792 28.48 747.012 28.5 747.212 28.5C747.432 28.5 747.692 28.5 747.992 28.5C748.492 28.5 748.982 28.44 749.462 28.32C749.942 28.18 750.362 27.96 750.722 27.66C751.102 27.36 751.402 26.97 751.622 26.49C751.842 25.99 751.952 25.38 751.952 24.66C751.952 23.92 751.842 23.3 751.622 22.8C751.402 22.28 751.102 21.87 750.722 21.57C750.362 21.25 749.942 21.03 749.462 20.91C748.982 20.77 748.492 20.7 747.992 20.7C747.772 20.7 747.562 20.71 747.362 20.73C747.182 20.73 746.912 20.75 746.552 20.79V28.44Z" fill="white"/>
<path d="M611.31 17.43C612.19 17.33 613.01 17.25 613.77 17.19C614.55 17.11 615.41 17.07 616.35 17.07C617.45 17.07 618.53 17.17 619.59 17.37C620.67 17.57 621.64 17.93 622.5 18.45C623.36 18.95 624.05 19.64 624.57 20.52C625.11 21.38 625.38 22.48 625.38 23.82C625.38 24.62 625.28 25.33 625.08 25.95C624.88 26.55 624.62 27.08 624.3 27.54C624 28 623.67 28.4 623.31 28.74C622.95 29.06 622.61 29.32 622.29 29.52L621.78 29.85L627.03 38.97C626.63 39.01 626.21 39.05 625.77 39.09C625.33 39.13 624.88 39.15 624.42 39.15C623.66 39.15 622.91 39.09 622.17 38.97L616.53 28.95L617.25 28.59C617.53 28.45 617.87 28.27 618.27 28.05C618.67 27.83 619.05 27.56 619.41 27.24C619.79 26.9 620.11 26.5 620.37 26.04C620.63 25.56 620.76 25 620.76 24.36C620.76 23.1 620.4 22.18 619.68 21.6C618.96 21 618.03 20.7 616.89 20.7C616.45 20.7 616.05 20.73 615.69 20.79V39C615.33 39.04 614.97 39.07 614.61 39.09C614.25 39.13 613.9 39.15 613.56 39.15C613.22 39.15 612.86 39.14 612.48 39.12C612.1 39.1 611.71 39.06 611.31 39V17.43ZM637.18 31.89C636.94 31.85 636.68 31.82 636.4 31.8C636.12 31.76 635.87 31.74 635.65 31.74C634.67 31.74 633.89 31.92 633.31 32.28C632.75 32.62 632.47 33.18 632.47 33.96C632.47 34.48 632.58 34.88 632.8 35.16C633.02 35.44 633.28 35.65 633.58 35.79C633.9 35.91 634.23 35.99 634.57 36.03C634.93 36.05 635.24 36.06 635.5 36.06C635.8 36.06 636.1 36.04 636.4 36C636.7 35.94 636.96 35.89 637.18 35.85V31.89ZM637.18 28.8C637.18 28.32 637.1 27.93 636.94 27.63C636.78 27.33 636.56 27.1 636.28 26.94C636 26.76 635.65 26.64 635.23 26.58C634.83 26.52 634.38 26.49 633.88 26.49C632.8 26.49 631.65 26.7 630.43 27.12C630.15 26.6 629.94 26.11 629.8 25.65C629.66 25.19 629.59 24.64 629.59 24C630.47 23.7 631.35 23.48 632.23 23.34C633.11 23.2 633.93 23.13 634.69 23.13C636.77 23.13 638.39 23.63 639.55 24.63C640.73 25.63 641.32 27.23 641.32 29.43V38.43C640.62 38.65 639.77 38.86 638.77 39.06C637.77 39.26 636.64 39.36 635.38 39.36C634.36 39.36 633.42 39.27 632.56 39.09C631.72 38.91 630.99 38.61 630.37 38.19C629.77 37.77 629.3 37.23 628.96 36.57C628.64 35.91 628.48 35.1 628.48 34.14C628.48 33.18 628.68 32.38 629.08 31.74C629.5 31.08 630.03 30.56 630.67 30.18C631.33 29.78 632.06 29.5 632.86 29.34C633.66 29.16 634.46 29.07 635.26 29.07C635.84 29.07 636.48 29.1 637.18 29.16V28.8ZM645.114 23.49C645.394 23.43 645.674 23.39 645.954 23.37C646.234 23.33 646.544 23.31 646.884 23.31C647.224 23.31 647.524 23.33 647.784 23.37C648.044 23.39 648.314 23.43 648.594 23.49C648.654 23.59 648.704 23.74 648.744 23.94C648.804 24.12 648.854 24.32 648.894 24.54C648.934 24.74 648.964 24.94 648.984 25.14C649.024 25.34 649.054 25.51 649.074 25.65C649.274 25.35 649.514 25.05 649.794 24.75C650.074 24.45 650.394 24.18 650.754 23.94C651.134 23.7 651.554 23.51 652.014 23.37C652.474 23.21 652.984 23.13 653.544 23.13C655.304 23.13 656.624 23.61 657.504 24.57C658.404 25.53 658.854 27.04 658.854 29.1V39C658.134 39.12 657.424 39.18 656.724 39.18C656.024 39.18 655.314 39.12 654.594 39V30.24C654.594 29.16 654.424 28.33 654.084 27.75C653.764 27.17 653.194 26.88 652.374 26.88C652.034 26.88 651.684 26.93 651.324 27.03C650.964 27.13 650.634 27.33 650.334 27.63C650.054 27.91 649.824 28.31 649.644 28.83C649.464 29.35 649.374 30.03 649.374 30.87V39C648.654 39.12 647.944 39.18 647.244 39.18C646.544 39.18 645.834 39.12 645.114 39V23.49ZM671.421 36.42C673.241 36.46 674.581 36.87 675.441 37.65C676.301 38.41 676.731 39.5 676.731 40.92C676.731 41.76 676.511 42.52 676.071 43.2C675.631 43.9 675.031 44.49 674.271 44.97C673.511 45.45 672.611 45.82 671.571 46.08C670.531 46.34 669.411 46.47 668.211 46.47C667.011 46.47 665.991 46.37 665.151 46.17C664.311 45.99 663.621 45.73 663.081 45.39C662.561 45.05 662.181 44.63 661.941 44.13C661.721 43.63 661.611 43.08 661.611 42.48C661.611 41.58 661.821 40.84 662.241 40.26C662.681 39.68 663.261 39.17 663.981 38.73C663.521 38.45 663.151 38.11 662.871 37.71C662.611 37.29 662.481 36.76 662.481 36.12C662.481 35.36 662.641 34.74 662.961 34.26C663.281 33.78 663.751 33.32 664.371 32.88C663.671 32.38 663.131 31.77 662.751 31.05C662.371 30.33 662.181 29.53 662.181 28.65C662.181 27.87 662.331 27.15 662.631 26.49C662.931 25.81 663.361 25.23 663.921 24.75C664.501 24.25 665.201 23.86 666.021 23.58C666.841 23.3 667.761 23.16 668.781 23.16C669.781 23.16 670.701 23.32 671.541 23.64C672.381 23.94 673.081 24.33 673.641 24.81C674.021 24.31 674.491 23.94 675.051 23.7C675.611 23.44 676.371 23.31 677.331 23.31C677.371 23.57 677.401 23.83 677.421 24.09C677.461 24.33 677.481 24.59 677.481 24.87C677.481 25.19 677.471 25.51 677.451 25.83C677.431 26.15 677.391 26.48 677.331 26.82H674.901C675.001 27.02 675.091 27.26 675.171 27.54C675.251 27.82 675.291 28.19 675.291 28.65C675.291 29.43 675.141 30.16 674.841 30.84C674.561 31.5 674.141 32.07 673.581 32.55C673.021 33.03 672.331 33.41 671.511 33.69C670.711 33.97 669.801 34.11 668.781 34.11C667.921 34.11 667.151 34.02 666.471 33.84C666.131 34.06 665.921 34.3 665.841 34.56C665.761 34.8 665.721 35.03 665.721 35.25C665.721 35.57 665.821 35.83 666.021 36.03C666.241 36.23 666.671 36.34 667.311 36.36L671.421 36.42ZM667.581 39.54C667.141 39.52 666.771 39.57 666.471 39.69C666.191 39.81 665.961 39.96 665.781 40.14C665.621 40.34 665.501 40.55 665.421 40.77C665.361 41.01 665.331 41.24 665.331 41.46C665.331 42.22 665.611 42.73 666.171 42.99C666.751 43.27 667.521 43.41 668.481 43.41C669.741 43.41 670.751 43.21 671.511 42.81C672.291 42.41 672.681 41.87 672.681 41.19C672.681 40.99 672.651 40.8 672.591 40.62C672.551 40.44 672.461 40.27 672.321 40.11C672.181 39.97 671.981 39.85 671.721 39.75C671.481 39.65 671.151 39.6 670.731 39.6L667.581 39.54ZM668.811 31.35C669.651 31.35 670.251 31.11 670.611 30.63C670.991 30.15 671.181 29.49 671.181 28.65C671.181 27.81 670.991 27.15 670.611 26.67C670.251 26.17 669.651 25.92 668.811 25.92C667.951 25.92 667.331 26.17 666.951 26.67C666.571 27.15 666.381 27.81 666.381 28.65C666.381 29.49 666.571 30.15 666.951 30.63C667.331 31.11 667.951 31.35 668.811 31.35ZM682.81 32.55C682.89 33.75 683.31 34.62 684.07 35.16C684.83 35.7 685.83 35.97 687.07 35.97C687.75 35.97 688.44 35.91 689.14 35.79C689.86 35.65 690.54 35.46 691.18 35.22C691.4 35.62 691.59 36.1 691.75 36.66C691.91 37.22 692 37.82 692.02 38.46C690.46 39.06 688.7 39.36 686.74 39.36C685.3 39.36 684.06 39.16 683.02 38.76C682 38.36 681.16 37.81 680.5 37.11C679.86 36.39 679.38 35.54 679.06 34.56C678.76 33.58 678.61 32.51 678.61 31.35C678.61 30.21 678.77 29.14 679.09 28.14C679.41 27.14 679.88 26.27 680.5 25.53C681.14 24.79 681.92 24.21 682.84 23.79C683.78 23.35 684.87 23.13 686.11 23.13C687.19 23.13 688.15 23.32 688.99 23.7C689.83 24.08 690.54 24.6 691.12 25.26C691.72 25.92 692.17 26.71 692.47 27.63C692.77 28.53 692.92 29.5 692.92 30.54C692.92 30.92 692.9 31.3 692.86 31.68C692.84 32.04 692.81 32.33 692.77 32.55H682.81ZM688.9 29.58C688.86 28.62 688.59 27.85 688.09 27.27C687.61 26.67 686.93 26.37 686.05 26.37C685.05 26.37 684.29 26.65 683.77 27.21C683.25 27.77 682.94 28.56 682.84 29.58H688.9Z" fill="white"/>
<path d="M391.48 17.43C392.2 17.31 393.02 17.25 393.94 17.25C394.3 17.25 394.66 17.26 395.02 17.28C395.4 17.3 395.77 17.35 396.13 17.43L399.22 33.66L402.94 17.43C403.34 17.37 403.71 17.33 404.05 17.31C404.39 17.27 404.74 17.25 405.1 17.25C405.7 17.25 406.35 17.31 407.05 17.43L410.92 34.08L414.01 17.43C414.63 17.31 415.27 17.25 415.93 17.25C416.33 17.25 416.72 17.27 417.1 17.31C417.48 17.35 417.85 17.39 418.21 17.43L413.02 39C412.3 39.12 411.55 39.18 410.77 39.18C410.01 39.18 409.18 39.12 408.28 39L404.83 24.63L401.11 39C400.63 39.04 400.2 39.08 399.82 39.12C399.46 39.16 399.06 39.18 398.62 39.18C398 39.18 397.33 39.12 396.61 39L391.48 17.43ZM423.121 32.55C423.201 33.75 423.621 34.62 424.381 35.16C425.141 35.7 426.141 35.97 427.381 35.97C428.061 35.97 428.751 35.91 429.451 35.79C430.171 35.65 430.851 35.46 431.491 35.22C431.711 35.62 431.901 36.1 432.061 36.66C432.221 37.22 432.311 37.82 432.331 38.46C430.771 39.06 429.011 39.36 427.051 39.36C425.611 39.36 424.371 39.16 423.331 38.76C422.311 38.36 421.471 37.81 420.811 37.11C420.171 36.39 419.691 35.54 419.371 34.56C419.071 33.58 418.921 32.51 418.921 31.35C418.921 30.21 419.081 29.14 419.401 28.14C419.721 27.14 420.191 26.27 420.811 25.53C421.451 24.79 422.231 24.21 423.151 23.79C424.091 23.35 425.181 23.13 426.421 23.13C427.501 23.13 428.461 23.32 429.301 23.7C430.141 24.08 430.851 24.6 431.431 25.26C432.031 25.92 432.481 26.71 432.781 27.63C433.081 28.53 433.231 29.5 433.231 30.54C433.231 30.92 433.211 31.3 433.171 31.68C433.151 32.04 433.121 32.33 433.081 32.55H423.121ZM429.211 29.58C429.171 28.62 428.901 27.85 428.401 27.27C427.921 26.67 427.241 26.37 426.361 26.37C425.361 26.37 424.601 26.65 424.081 27.21C423.561 27.77 423.251 28.56 423.151 29.58H429.211ZM444.317 31.89C444.077 31.85 443.817 31.82 443.537 31.8C443.257 31.76 443.007 31.74 442.787 31.74C441.807 31.74 441.027 31.92 440.447 32.28C439.887 32.62 439.607 33.18 439.607 33.96C439.607 34.48 439.717 34.88 439.937 35.16C440.157 35.44 440.417 35.65 440.717 35.79C441.037 35.91 441.367 35.99 441.707 36.03C442.067 36.05 442.377 36.06 442.637 36.06C442.937 36.06 443.237 36.04 443.537 36C443.837 35.94 444.097 35.89 444.317 35.85V31.89ZM444.317 28.8C444.317 28.32 444.237 27.93 444.077 27.63C443.917 27.33 443.697 27.1 443.417 26.94C443.137 26.76 442.787 26.64 442.367 26.58C441.967 26.52 441.517 26.49 441.017 26.49C439.937 26.49 438.787 26.7 437.567 27.12C437.287 26.6 437.077 26.11 436.937 25.65C436.797 25.19 436.727 24.64 436.727 24C437.607 23.7 438.487 23.48 439.367 23.34C440.247 23.2 441.067 23.13 441.827 23.13C443.907 23.13 445.527 23.63 446.687 24.63C447.867 25.63 448.457 27.23 448.457 29.43V38.43C447.757 38.65 446.907 38.86 445.907 39.06C444.907 39.26 443.777 39.36 442.517 39.36C441.497 39.36 440.557 39.27 439.697 39.09C438.857 38.91 438.127 38.61 437.507 38.19C436.907 37.77 436.437 37.23 436.097 36.57C435.777 35.91 435.617 35.1 435.617 34.14C435.617 33.18 435.817 32.38 436.217 31.74C436.637 31.08 437.167 30.56 437.807 30.18C438.467 29.78 439.197 29.5 439.997 29.34C440.797 29.16 441.597 29.07 442.397 29.07C442.977 29.07 443.617 29.1 444.317 29.16V28.8ZM452.16 23.46C452.44 23.4 452.71 23.36 452.97 23.34C453.25 23.32 453.56 23.31 453.9 23.31C454.46 23.31 455.03 23.37 455.61 23.49C455.67 23.59 455.72 23.74 455.76 23.94C455.82 24.12 455.87 24.32 455.91 24.54C455.97 24.76 456.01 24.98 456.03 25.2C456.07 25.4 456.1 25.57 456.12 25.71C456.3 25.39 456.52 25.08 456.78 24.78C457.04 24.46 457.35 24.18 457.71 23.94C458.09 23.7 458.51 23.51 458.97 23.37C459.43 23.21 459.94 23.13 460.5 23.13C461.36 23.13 462.16 23.29 462.9 23.61C463.66 23.93 464.32 24.42 464.88 25.08C465.44 25.72 465.87 26.53 466.17 27.51C466.49 28.49 466.65 29.65 466.65 30.99C466.65 32.29 466.46 33.46 466.08 34.5C465.7 35.52 465.15 36.39 464.43 37.11C463.71 37.83 462.83 38.39 461.79 38.79C460.75 39.17 459.57 39.36 458.25 39.36C457.91 39.36 457.57 39.34 457.23 39.3C456.91 39.28 456.64 39.25 456.42 39.21V46.11C456.04 46.17 455.67 46.21 455.31 46.23C454.97 46.25 454.63 46.26 454.29 46.26C453.95 46.26 453.6 46.25 453.24 46.23C452.9 46.21 452.54 46.17 452.16 46.11V23.46ZM456.42 35.7C456.96 35.86 457.58 35.94 458.28 35.94C459.52 35.94 460.47 35.54 461.13 34.74C461.79 33.94 462.12 32.73 462.12 31.11C462.12 30.49 462.07 29.92 461.97 29.4C461.87 28.86 461.7 28.4 461.46 28.02C461.22 27.64 460.91 27.34 460.53 27.12C460.17 26.9 459.72 26.79 459.18 26.79C458.68 26.79 458.25 26.89 457.89 27.09C457.55 27.27 457.27 27.53 457.05 27.87C456.83 28.19 456.67 28.57 456.57 29.01C456.47 29.45 456.42 29.92 456.42 30.42V35.7ZM476.545 39.36C475.285 39.36 474.185 39.16 473.245 38.76C472.325 38.34 471.555 37.77 470.935 37.05C470.335 36.31 469.875 35.45 469.555 34.47C469.255 33.49 469.105 32.43 469.105 31.29C469.105 30.15 469.255 29.08 469.555 28.08C469.875 27.08 470.335 26.22 470.935 25.5C471.555 24.76 472.325 24.18 473.245 23.76C474.185 23.34 475.285 23.13 476.545 23.13C477.805 23.13 478.905 23.34 479.845 23.76C480.785 24.18 481.565 24.76 482.185 25.5C482.805 26.22 483.265 27.08 483.565 28.08C483.865 29.08 484.015 30.15 484.015 31.29C484.015 32.43 483.865 33.49 483.565 34.47C483.265 35.45 482.805 36.31 482.185 37.05C481.565 37.77 480.785 38.34 479.845 38.76C478.905 39.16 477.805 39.36 476.545 39.36ZM476.545 36.12C477.665 36.12 478.465 35.71 478.945 34.89C479.445 34.05 479.695 32.85 479.695 31.29C479.695 29.73 479.445 28.54 478.945 27.72C478.465 26.88 477.665 26.46 476.545 26.46C475.445 26.46 474.645 26.88 474.145 27.72C473.665 28.54 473.425 29.73 473.425 31.29C473.425 32.85 473.665 34.05 474.145 34.89C474.645 35.71 475.445 36.12 476.545 36.12ZM487.377 23.49C487.657 23.43 487.937 23.39 488.217 23.37C488.497 23.33 488.807 23.31 489.147 23.31C489.487 23.31 489.787 23.33 490.047 23.37C490.307 23.39 490.577 23.43 490.857 23.49C490.917 23.59 490.967 23.74 491.007 23.94C491.067 24.12 491.117 24.32 491.157 24.54C491.197 24.74 491.227 24.94 491.247 25.14C491.287 25.34 491.317 25.51 491.337 25.65C491.537 25.35 491.777 25.05 492.057 24.75C492.337 24.45 492.657 24.18 493.017 23.94C493.397 23.7 493.817 23.51 494.277 23.37C494.737 23.21 495.247 23.13 495.807 23.13C497.567 23.13 498.887 23.61 499.767 24.57C500.667 25.53 501.117 27.04 501.117 29.1V39C500.397 39.12 499.687 39.18 498.987 39.18C498.287 39.18 497.577 39.12 496.857 39V30.24C496.857 29.16 496.687 28.33 496.347 27.75C496.027 27.17 495.457 26.88 494.637 26.88C494.297 26.88 493.947 26.93 493.587 27.03C493.227 27.13 492.897 27.33 492.597 27.63C492.317 27.91 492.087 28.31 491.907 28.83C491.727 29.35 491.637 30.03 491.637 30.87V39C490.917 39.12 490.207 39.18 489.507 39.18C488.807 39.18 488.097 39.12 487.377 39V23.49Z" fill="white"/>
<path d="M56.98 17.43C57.7 17.31 58.52 17.25 59.44 17.25C59.8 17.25 60.16 17.26 60.52 17.28C60.9 17.3 61.27 17.35 61.63 17.43L64.72 33.66L68.44 17.43C68.84 17.37 69.21 17.33 69.55 17.31C69.89 17.27 70.24 17.25 70.6 17.25C71.2 17.25 71.85 17.31 72.55 17.43L76.42 34.08L79.51 17.43C80.13 17.31 80.77 17.25 81.43 17.25C81.83 17.25 82.22 17.27 82.6 17.31C82.98 17.35 83.35 17.39 83.71 17.43L78.52 39C77.8 39.12 77.05 39.18 76.27 39.18C75.51 39.18 74.68 39.12 73.78 39L70.33 24.63L66.61 39C66.13 39.04 65.7 39.08 65.32 39.12C64.96 39.16 64.56 39.18 64.12 39.18C63.5 39.18 62.83 39.12 62.11 39L56.98 17.43ZM88.6209 32.55C88.7009 33.75 89.1209 34.62 89.8809 35.16C90.6409 35.7 91.6409 35.97 92.8809 35.97C93.5609 35.97 94.2509 35.91 94.9509 35.79C95.6709 35.65 96.3509 35.46 96.9909 35.22C97.2109 35.62 97.4009 36.1 97.5609 36.66C97.7209 37.22 97.8109 37.82 97.8309 38.46C96.2709 39.06 94.5109 39.36 92.5509 39.36C91.1109 39.36 89.8709 39.16 88.8309 38.76C87.8109 38.36 86.9709 37.81 86.3109 37.11C85.6709 36.39 85.1909 35.54 84.8709 34.56C84.5709 33.58 84.4209 32.51 84.4209 31.35C84.4209 30.21 84.5809 29.14 84.9009 28.14C85.2209 27.14 85.6909 26.27 86.3109 25.53C86.9509 24.79 87.7309 24.21 88.6509 23.79C89.5909 23.35 90.6809 23.13 91.9209 23.13C93.0009 23.13 93.9609 23.32 94.8009 23.7C95.6409 24.08 96.3509 24.6 96.9309 25.26C97.5309 25.92 97.9809 26.71 98.2809 27.63C98.5809 28.53 98.7309 29.5 98.7309 30.54C98.7309 30.92 98.7109 31.3 98.6709 31.68C98.6509 32.04 98.6209 32.33 98.5809 32.55H88.6209ZM94.7109 29.58C94.6709 28.62 94.4009 27.85 93.9009 27.27C93.4209 26.67 92.7409 26.37 91.8609 26.37C90.8609 26.37 90.1009 26.65 89.5809 27.21C89.0609 27.77 88.7509 28.56 88.6509 29.58H94.7109ZM109.817 31.89C109.577 31.85 109.317 31.82 109.037 31.8C108.757 31.76 108.507 31.74 108.287 31.74C107.307 31.74 106.527 31.92 105.947 32.28C105.387 32.62 105.107 33.18 105.107 33.96C105.107 34.48 105.217 34.88 105.437 35.16C105.657 35.44 105.917 35.65 106.217 35.79C106.537 35.91 106.867 35.99 107.207 36.03C107.567 36.05 107.877 36.06 108.137 36.06C108.437 36.06 108.737 36.04 109.037 36C109.337 35.94 109.597 35.89 109.817 35.85V31.89ZM109.817 28.8C109.817 28.32 109.737 27.93 109.577 27.63C109.417 27.33 109.197 27.1 108.917 26.94C108.637 26.76 108.287 26.64 107.867 26.58C107.467 26.52 107.017 26.49 106.517 26.49C105.437 26.49 104.287 26.7 103.067 27.12C102.787 26.6 102.577 26.11 102.437 25.65C102.297 25.19 102.227 24.64 102.227 24C103.107 23.7 103.987 23.48 104.867 23.34C105.747 23.2 106.567 23.13 107.327 23.13C109.407 23.13 111.027 23.63 112.187 24.63C113.367 25.63 113.957 27.23 113.957 29.43V38.43C113.257 38.65 112.407 38.86 111.407 39.06C110.407 39.26 109.277 39.36 108.017 39.36C106.997 39.36 106.057 39.27 105.197 39.09C104.357 38.91 103.627 38.61 103.007 38.19C102.407 37.77 101.937 37.23 101.597 36.57C101.277 35.91 101.117 35.1 101.117 34.14C101.117 33.18 101.317 32.38 101.717 31.74C102.137 31.08 102.667 30.56 103.307 30.18C103.967 29.78 104.697 29.5 105.497 29.34C106.297 29.16 107.097 29.07 107.897 29.07C108.477 29.07 109.117 29.1 109.817 29.16V28.8ZM117.66 23.46C117.94 23.4 118.21 23.36 118.47 23.34C118.75 23.32 119.06 23.31 119.4 23.31C119.96 23.31 120.53 23.37 121.11 23.49C121.17 23.59 121.22 23.74 121.26 23.94C121.32 24.12 121.37 24.32 121.41 24.54C121.47 24.76 121.51 24.98 121.53 25.2C121.57 25.4 121.6 25.57 121.62 25.71C121.8 25.39 122.02 25.08 122.28 24.78C122.54 24.46 122.85 24.18 123.21 23.94C123.59 23.7 124.01 23.51 124.47 23.37C124.93 23.21 125.44 23.13 126 23.13C126.86 23.13 127.66 23.29 128.4 23.61C129.16 23.93 129.82 24.42 130.38 25.08C130.94 25.72 131.37 26.53 131.67 27.51C131.99 28.49 132.15 29.65 132.15 30.99C132.15 32.29 131.96 33.46 131.58 34.5C131.2 35.52 130.65 36.39 129.93 37.11C129.21 37.83 128.33 38.39 127.29 38.79C126.25 39.17 125.07 39.36 123.75 39.36C123.41 39.36 123.07 39.34 122.73 39.3C122.41 39.28 122.14 39.25 121.92 39.21V46.11C121.54 46.17 121.17 46.21 120.81 46.23C120.47 46.25 120.13 46.26 119.79 46.26C119.45 46.26 119.1 46.25 118.74 46.23C118.4 46.21 118.04 46.17 117.66 46.11V23.46ZM121.92 35.7C122.46 35.86 123.08 35.94 123.78 35.94C125.02 35.94 125.97 35.54 126.63 34.74C127.29 33.94 127.62 32.73 127.62 31.11C127.62 30.49 127.57 29.92 127.47 29.4C127.37 28.86 127.2 28.4 126.96 28.02C126.72 27.64 126.41 27.34 126.03 27.12C125.67 26.9 125.22 26.79 124.68 26.79C124.18 26.79 123.75 26.89 123.39 27.09C123.05 27.27 122.77 27.53 122.55 27.87C122.33 28.19 122.17 28.57 122.07 29.01C121.97 29.45 121.92 29.92 121.92 30.42V35.7ZM142.045 39.36C140.785 39.36 139.685 39.16 138.745 38.76C137.825 38.34 137.055 37.77 136.435 37.05C135.835 36.31 135.375 35.45 135.055 34.47C134.755 33.49 134.605 32.43 134.605 31.29C134.605 30.15 134.755 29.08 135.055 28.08C135.375 27.08 135.835 26.22 136.435 25.5C137.055 24.76 137.825 24.18 138.745 23.76C139.685 23.34 140.785 23.13 142.045 23.13C143.305 23.13 144.405 23.34 145.345 23.76C146.285 24.18 147.065 24.76 147.685 25.5C148.305 26.22 148.765 27.08 149.065 28.08C149.365 29.08 149.515 30.15 149.515 31.29C149.515 32.43 149.365 33.49 149.065 34.47C148.765 35.45 148.305 36.31 147.685 37.05C147.065 37.77 146.285 38.34 145.345 38.76C144.405 39.16 143.305 39.36 142.045 39.36ZM142.045 36.12C143.165 36.12 143.965 35.71 144.445 34.89C144.945 34.05 145.195 32.85 145.195 31.29C145.195 29.73 144.945 28.54 144.445 27.72C143.965 26.88 143.165 26.46 142.045 26.46C140.945 26.46 140.145 26.88 139.645 27.72C139.165 28.54 138.925 29.73 138.925 31.29C138.925 32.85 139.165 34.05 139.645 34.89C140.145 35.71 140.945 36.12 142.045 36.12ZM152.877 23.49C153.157 23.43 153.437 23.39 153.717 23.37C153.997 23.33 154.307 23.31 154.647 23.31C154.987 23.31 155.287 23.33 155.547 23.37C155.807 23.39 156.077 23.43 156.357 23.49C156.417 23.59 156.467 23.74 156.507 23.94C156.567 24.12 156.617 24.32 156.657 24.54C156.697 24.74 156.727 24.94 156.747 25.14C156.787 25.34 156.817 25.51 156.837 25.65C157.037 25.35 157.277 25.05 157.557 24.75C157.837 24.45 158.157 24.18 158.517 23.94C158.897 23.7 159.317 23.51 159.777 23.37C160.237 23.21 160.747 23.13 161.307 23.13C163.067 23.13 164.387 23.61 165.267 24.57C166.167 25.53 166.617 27.04 166.617 29.1V39C165.897 39.12 165.187 39.18 164.487 39.18C163.787 39.18 163.077 39.12 162.357 39V30.24C162.357 29.16 162.187 28.33 161.847 27.75C161.527 27.17 160.957 26.88 160.137 26.88C159.797 26.88 159.447 26.93 159.087 27.03C158.727 27.13 158.397 27.33 158.097 27.63C157.817 27.91 157.587 28.31 157.407 28.83C157.227 29.35 157.137 30.03 157.137 30.87V39C156.417 39.12 155.707 39.18 155.007 39.18C154.307 39.18 153.597 39.12 152.877 39V23.49ZM181.277 21.15H175.907C175.787 20.55 175.727 19.92 175.727 19.26C175.727 18.64 175.787 18.03 175.907 17.43H191.057C191.177 18.03 191.237 18.64 191.237 19.26C191.237 19.92 191.177 20.55 191.057 21.15H185.687V39C185.327 39.04 184.967 39.07 184.607 39.09C184.247 39.13 183.897 39.15 183.557 39.15C183.217 39.15 182.847 39.14 182.447 39.12C182.067 39.1 181.677 39.06 181.277 39V21.15ZM190.804 23.49C191.264 23.39 191.664 23.34 192.004 23.34C192.364 23.32 192.694 23.31 192.994 23.31C193.394 23.31 193.804 23.32 194.224 23.34C194.644 23.36 195.024 23.41 195.364 23.49L198.604 37.02L202.264 23.49C202.924 23.37 203.604 23.31 204.304 23.31C204.604 23.31 204.924 23.32 205.264 23.34C205.604 23.34 206.024 23.39 206.524 23.49L200.734 42.66C200.494 43.42 200.204 44.05 199.864 44.55C199.544 45.05 199.174 45.44 198.754 45.72C198.334 46 197.864 46.19 197.344 46.29C196.824 46.41 196.264 46.47 195.664 46.47C195.104 46.47 194.594 46.43 194.134 46.35C193.694 46.29 193.254 46.2 192.814 46.08C192.794 45.98 192.784 45.89 192.784 45.81C192.784 45.75 192.784 45.68 192.784 45.6C192.784 45.12 192.834 44.66 192.934 44.22C193.054 43.8 193.194 43.39 193.354 42.99C193.534 43.05 193.774 43.1 194.074 43.14C194.374 43.2 194.674 43.23 194.974 43.23C195.214 43.23 195.454 43.21 195.694 43.17C195.934 43.15 196.164 43.06 196.384 42.9C196.624 42.76 196.844 42.53 197.044 42.21C197.244 41.89 197.424 41.44 197.584 40.86L198.094 39C197.874 39.02 197.624 39.03 197.344 39.03C197.084 39.05 196.814 39.06 196.534 39.06C196.314 39.06 196.104 39.06 195.904 39.06C195.704 39.06 195.524 39.04 195.364 39L190.804 23.49ZM208.774 23.46C209.054 23.4 209.324 23.36 209.584 23.34C209.864 23.32 210.174 23.31 210.514 23.31C211.074 23.31 211.644 23.37 212.224 23.49C212.284 23.59 212.334 23.74 212.374 23.94C212.434 24.12 212.484 24.32 212.524 24.54C212.584 24.76 212.624 24.98 212.644 25.2C212.684 25.4 212.714 25.57 212.734 25.71C212.914 25.39 213.134 25.08 213.394 24.78C213.654 24.46 213.964 24.18 214.324 23.94C214.704 23.7 215.124 23.51 215.584 23.37C216.044 23.21 216.554 23.13 217.114 23.13C217.974 23.13 218.774 23.29 219.514 23.61C220.274 23.93 220.934 24.42 221.494 25.08C222.054 25.72 222.484 26.53 222.784 27.51C223.104 28.49 223.264 29.65 223.264 30.99C223.264 32.29 223.074 33.46 222.694 34.5C222.314 35.52 221.764 36.39 221.044 37.11C220.324 37.83 219.444 38.39 218.404 38.79C217.364 39.17 216.184 39.36 214.864 39.36C214.524 39.36 214.184 39.34 213.844 39.3C213.524 39.28 213.254 39.25 213.034 39.21V46.11C212.654 46.17 212.284 46.21 211.924 46.23C211.584 46.25 211.244 46.26 210.904 46.26C210.564 46.26 210.214 46.25 209.854 46.23C209.514 46.21 209.154 46.17 208.774 46.11V23.46ZM213.034 35.7C213.574 35.86 214.194 35.94 214.894 35.94C216.134 35.94 217.084 35.54 217.744 34.74C218.404 33.94 218.734 32.73 218.734 31.11C218.734 30.49 218.684 29.92 218.584 29.4C218.484 28.86 218.314 28.4 218.074 28.02C217.834 27.64 217.524 27.34 217.144 27.12C216.784 26.9 216.334 26.79 215.794 26.79C215.294 26.79 214.864 26.89 214.504 27.09C214.164 27.27 213.884 27.53 213.664 27.87C213.444 28.19 213.284 28.57 213.184 29.01C213.084 29.45 213.034 29.92 213.034 30.42V35.7ZM229.978 32.55C230.058 33.75 230.478 34.62 231.238 35.16C231.998 35.7 232.998 35.97 234.238 35.97C234.918 35.97 235.608 35.91 236.308 35.79C237.028 35.65 237.708 35.46 238.348 35.22C238.568 35.62 238.758 36.1 238.918 36.66C239.078 37.22 239.168 37.82 239.188 38.46C237.628 39.06 235.868 39.36 233.908 39.36C232.468 39.36 231.228 39.16 230.188 38.76C229.168 38.36 228.328 37.81 227.668 37.11C227.028 36.39 226.548 35.54 226.228 34.56C225.928 33.58 225.778 32.51 225.778 31.35C225.778 30.21 225.938 29.14 226.258 28.14C226.578 27.14 227.048 26.27 227.668 25.53C228.308 24.79 229.088 24.21 230.008 23.79C230.948 23.35 232.038 23.13 233.278 23.13C234.358 23.13 235.318 23.32 236.158 23.7C236.998 24.08 237.708 24.6 238.288 25.26C238.888 25.92 239.338 26.71 239.638 27.63C239.938 28.53 240.088 29.5 240.088 30.54C240.088 30.92 240.068 31.3 240.028 31.68C240.008 32.04 239.978 32.33 239.938 32.55H229.978ZM236.068 29.58C236.028 28.62 235.758 27.85 235.258 27.27C234.778 26.67 234.098 26.37 233.218 26.37C232.218 26.37 231.458 26.65 230.938 27.21C230.418 27.77 230.108 28.56 230.008 29.58H236.068Z" fill="white"/>
</svg>
