<svg width="890" height="1270" viewBox="0 0 890 1270" fill="none" xmlns="http://www.w3.org/2000/svg">
<g clip-path="url(#clip0_891_14608)">
<rect width="890" height="1270" fill="white"/>
<rect width="890" height="104" fill="#110F11"/>
<rect y="104" width="890" height="118" fill="#110F11"/>
<path d="M41.6234 150.728C41.6234 150.898 41.4874 151 41.2494 151H37.8154C37.6454 151 37.5094 150.932 37.4754 150.762L36.4554 147.192C36.4214 147.022 36.2854 146.988 36.1154 146.988H31.2534C31.0834 146.988 30.9474 147.022 30.9134 147.192L29.8934 150.762C29.8594 150.932 29.7234 151 29.5534 151H26.1534C25.9154 151 25.7794 150.898 25.7794 150.728C25.7794 150.592 25.8814 150.388 25.9494 150.116L32.1374 129.818C32.1714 129.648 32.3074 129.58 32.4774 129.58H34.9254C35.0954 129.58 35.2314 129.648 35.2654 129.818L41.4534 150.116C41.5214 150.32 41.6234 150.592 41.6234 150.728ZM35.2994 143.112C35.2994 142.976 35.1974 142.67 35.1294 142.466L34.1434 138.488C34.0754 138.25 33.8374 136.89 33.7694 136.618H33.6674C33.5994 136.89 33.3274 138.216 33.2594 138.488L32.2394 142.432C32.1714 142.67 32.0694 142.976 32.0694 143.112C32.0694 143.282 32.2054 143.418 32.4434 143.418H34.9254C35.1634 143.418 35.2994 143.282 35.2994 143.112ZM55.91 135.904C55.91 139.27 53.462 141.922 49.586 141.922H46.526C46.288 141.922 46.186 142.024 46.186 142.262V150.66C46.186 150.898 46.084 151 45.846 151H42.616C42.378 151 42.276 150.898 42.276 150.66V129.92C42.276 129.682 42.378 129.58 42.616 129.58H49.586C53.462 129.58 55.91 132.096 55.91 135.904ZM52.034 135.904V135.598C52.034 134.272 50.912 133.15 49.586 133.15H46.526C46.288 133.15 46.186 133.252 46.186 133.49V138.012C46.186 138.25 46.288 138.352 46.526 138.352H49.586C50.912 138.352 52.034 137.23 52.034 135.904ZM69.4691 150.66C69.4691 150.898 69.3671 151 69.1291 151H57.1271C56.8891 151 56.7871 150.898 56.7871 150.66V129.92C56.7871 129.682 56.8891 129.58 57.1271 129.58H60.3571C60.5951 129.58 60.6971 129.682 60.6971 129.92V147.09C60.6971 147.328 60.7991 147.43 61.0371 147.43H69.1291C69.3671 147.43 69.4691 147.532 69.4691 147.77V150.66Z" fill="white"/>
<path d="M176.442 150.66C176.442 150.898 176.34 151 176.102 151H172.906C172.668 151 172.566 150.898 172.566 150.66V147.09C172.566 144.404 172.872 139.678 172.94 138.862L172.804 138.828C172.702 139.1 172.328 140.664 171.92 141.548L169.098 147.872C169.03 148.008 168.928 148.076 168.792 148.076H167.058C166.922 148.076 166.82 148.008 166.752 147.872L163.93 141.548C163.522 140.664 163.148 139.1 163.046 138.828L162.91 138.862C162.978 139.678 163.284 144.404 163.284 147.09V150.66C163.284 150.898 163.182 151 162.944 151H159.714C159.476 151 159.374 150.898 159.374 150.66V129.92C159.374 129.682 159.476 129.58 159.714 129.58H162.57C162.706 129.58 162.808 129.648 162.876 129.784L167.398 140.596C167.5 140.834 167.772 141.854 167.84 142.126H167.942C168.01 141.854 168.316 140.834 168.418 140.596L172.94 129.784C173.008 129.648 173.11 129.58 173.246 129.58H176.102C176.34 129.58 176.442 129.682 176.442 129.92V150.66ZM193.268 145.322C193.268 148.858 190.786 151.34 186.944 151.34H185.278C181.402 151.34 178.954 148.858 178.954 145.322V135.258C178.954 131.722 181.402 129.24 185.278 129.24H186.944C190.786 129.24 193.268 131.722 193.268 135.258V145.322ZM189.358 145.322V135.258C189.358 133.898 188.304 132.81 186.944 132.81H185.278C183.952 132.81 182.83 133.932 182.83 135.258V145.322C182.83 146.648 183.952 147.77 185.278 147.77H186.944C188.304 147.77 189.358 146.682 189.358 145.322ZM209.293 129.852C209.293 129.988 209.191 130.226 209.157 130.362L202.935 150.762C202.901 150.932 202.765 151 202.595 151H200.147C199.977 151 199.841 150.932 199.807 150.762L193.619 130.498C193.551 130.26 193.449 130.022 193.449 129.852C193.449 129.682 193.585 129.58 193.823 129.58H197.223C197.393 129.58 197.529 129.648 197.563 129.818L200.929 142.058C200.997 142.33 201.201 143.35 201.269 143.622H201.439C201.507 143.35 201.711 142.364 201.779 142.126L205.145 129.818C205.179 129.648 205.315 129.58 205.485 129.58H208.919C209.157 129.58 209.293 129.682 209.293 129.852ZM222.628 150.66C222.628 150.898 222.526 151 222.288 151H210.286C210.048 151 209.946 150.898 209.946 150.66V129.92C209.946 129.682 210.048 129.58 210.286 129.58H222.288C222.526 129.58 222.628 129.682 222.628 129.92V132.81C222.628 133.048 222.526 133.15 222.288 133.15H214.196C213.958 133.15 213.856 133.252 213.856 133.49V138.012C213.856 138.25 213.958 138.352 214.196 138.352H220.826C221.064 138.352 221.166 138.454 221.166 138.692V141.582C221.166 141.82 221.064 141.922 220.826 141.922H214.196C213.958 141.922 213.856 142.024 213.856 142.262V147.09C213.856 147.328 213.958 147.43 214.196 147.43H222.288C222.526 147.43 222.628 147.532 222.628 147.77V150.66Z" fill="white"/>
<path d="M317.338 145.322C317.338 148.858 314.89 151.34 311.014 151.34H309.654C306.832 151.34 305.302 150.184 304.282 148.586C303.976 148.076 303.636 147.532 303.636 147.328C303.636 147.226 303.704 147.158 303.84 147.09L306.56 145.696C306.696 145.628 306.832 145.526 306.968 145.526C307.07 145.526 307.172 145.594 307.24 145.764C307.852 147.226 308.736 147.77 309.654 147.77H311.014C312.34 147.77 313.462 146.648 313.462 145.322C313.462 143.486 311.66 142.806 309.824 141.956C307.138 140.664 304.18 139.27 304.18 135.258C304.18 131.722 306.628 129.24 310.504 129.24H311.048C313.87 129.24 315.4 130.396 316.42 131.994C316.726 132.504 317.066 133.048 317.066 133.252C317.066 133.354 316.998 133.422 316.862 133.49L314.142 134.884C314.006 134.952 313.87 135.054 313.734 135.054C313.632 135.054 313.53 134.986 313.462 134.816C312.85 133.354 311.966 132.81 311.048 132.81H310.504C309.178 132.81 308.056 133.932 308.056 135.258C308.056 136.992 310.028 137.502 312 138.42C314.584 139.61 317.338 141.208 317.338 145.322ZM333.46 150.728C333.46 150.898 333.324 151 333.086 151H329.652C329.482 151 329.346 150.932 329.312 150.762L328.292 147.192C328.258 147.022 328.122 146.988 327.952 146.988H323.09C322.92 146.988 322.784 147.022 322.75 147.192L321.73 150.762C321.696 150.932 321.56 151 321.39 151H317.99C317.752 151 317.616 150.898 317.616 150.728C317.616 150.592 317.718 150.388 317.786 150.116L323.974 129.818C324.008 129.648 324.144 129.58 324.314 129.58H326.762C326.932 129.58 327.068 129.648 327.102 129.818L333.29 150.116C333.358 150.32 333.46 150.592 333.46 150.728ZM327.136 143.112C327.136 142.976 327.034 142.67 326.966 142.466L325.98 138.488C325.912 138.25 325.674 136.89 325.606 136.618H325.504C325.436 136.89 325.164 138.216 325.096 138.488L324.076 142.432C324.008 142.67 323.906 142.976 323.906 143.112C323.906 143.282 324.042 143.418 324.28 143.418H326.762C327 143.418 327.136 143.282 327.136 143.112ZM346.909 129.852C346.909 129.988 346.807 130.226 346.773 130.362L340.551 150.762C340.517 150.932 340.381 151 340.211 151H337.763C337.593 151 337.457 150.932 337.423 150.762L331.235 130.498C331.167 130.26 331.065 130.022 331.065 129.852C331.065 129.682 331.201 129.58 331.439 129.58H334.839C335.009 129.58 335.145 129.648 335.179 129.818L338.545 142.058C338.613 142.33 338.817 143.35 338.885 143.622H339.055C339.123 143.35 339.327 142.364 339.395 142.126L342.761 129.818C342.795 129.648 342.931 129.58 343.101 129.58H346.535C346.773 129.58 346.909 129.682 346.909 129.852ZM360.243 150.66C360.243 150.898 360.141 151 359.903 151H347.901C347.663 151 347.561 150.898 347.561 150.66V129.92C347.561 129.682 347.663 129.58 347.901 129.58H359.903C360.141 129.58 360.243 129.682 360.243 129.92V132.81C360.243 133.048 360.141 133.15 359.903 133.15H351.811C351.573 133.15 351.471 133.252 351.471 133.49V138.012C351.471 138.25 351.573 138.352 351.811 138.352H358.441C358.679 138.352 358.781 138.454 358.781 138.692V141.582C358.781 141.82 358.679 141.922 358.441 141.922H351.811C351.573 141.922 351.471 142.024 351.471 142.262V147.09C351.471 147.328 351.573 147.43 351.811 147.43H359.903C360.141 147.43 360.243 147.532 360.243 147.77V150.66Z" fill="white"/>
<path d="M459.471 129.852C459.471 129.988 459.369 130.43 459.301 130.77L454.983 150.728C454.949 150.898 454.813 151 454.643 151H452.161C451.991 151 451.855 150.932 451.821 150.762L448.863 140.494C448.795 140.256 448.523 138.896 448.455 138.624H448.353C448.285 138.896 448.013 140.222 447.945 140.494L444.987 150.762C444.953 150.932 444.817 151 444.647 151H442.165C441.995 151 441.859 150.898 441.825 150.728L437.507 130.77C437.439 130.396 437.337 130.022 437.337 129.852C437.337 129.648 437.439 129.58 437.677 129.58H441.145C441.315 129.58 441.451 129.682 441.485 129.852L443.457 140.358C443.491 140.596 443.729 142.194 443.797 142.466H443.967C444.035 142.194 444.341 140.63 444.409 140.358L447.197 129.75C447.231 129.58 447.367 129.512 447.537 129.512H449.237C449.407 129.512 449.543 129.58 449.577 129.75L452.365 140.358C452.433 140.63 452.739 142.194 452.807 142.466H452.977C453.045 142.194 453.249 140.664 453.317 140.358L455.323 129.852C455.357 129.682 455.493 129.58 455.663 129.58H459.131C459.369 129.58 459.471 129.648 459.471 129.852ZM474.337 145.322C474.337 148.858 471.855 151.34 468.013 151.34H466.347C462.471 151.34 460.023 148.858 460.023 145.322V135.258C460.023 131.722 462.471 129.24 466.347 129.24H468.013C471.855 129.24 474.337 131.722 474.337 135.258V145.322ZM470.427 145.322V135.258C470.427 133.898 469.373 132.81 468.013 132.81H466.347C465.021 132.81 463.899 133.932 463.899 135.258V145.322C463.899 146.648 465.021 147.77 466.347 147.77H468.013C469.373 147.77 470.427 146.682 470.427 145.322ZM490.906 145.322C490.906 148.858 488.424 151.34 484.582 151.34H482.916C479.04 151.34 476.592 148.858 476.592 145.322V129.92C476.592 129.682 476.694 129.58 476.932 129.58H480.128C480.366 129.58 480.468 129.682 480.468 129.92V145.322C480.468 146.648 481.59 147.77 482.916 147.77H484.582C485.942 147.77 486.996 146.682 486.996 145.322V129.92C486.996 129.682 487.098 129.58 487.336 129.58H490.566C490.804 129.58 490.906 129.682 490.906 129.92V145.322ZM507.748 150.66C507.748 150.898 507.646 151 507.408 151H504.586C504.45 151 504.348 150.932 504.28 150.83L498.194 139.746C498.058 139.508 497.582 138.284 497.48 138.012L497.344 138.046C497.412 138.862 497.548 143.758 497.548 146.444V150.66C497.548 150.898 497.446 151 497.208 151H493.978C493.74 151 493.638 150.898 493.638 150.66V129.92C493.638 129.682 493.74 129.58 493.978 129.58H496.834C496.97 129.58 497.072 129.648 497.14 129.75L503.226 140.902C503.362 141.14 503.838 142.364 503.94 142.636L504.076 142.602C504.008 141.786 503.872 136.89 503.872 134.204V129.92C503.872 129.682 503.974 129.58 504.212 129.58H507.408C507.646 129.58 507.748 129.682 507.748 129.92V150.66ZM525.285 144.676C525.285 148.552 522.837 151 518.961 151H511.311C511.073 151 510.971 150.898 510.971 150.66V129.92C510.971 129.682 511.073 129.58 511.311 129.58H518.961C522.837 129.58 525.285 132.062 525.285 135.904V144.676ZM521.409 144.982V135.598C521.409 134.272 520.287 133.15 518.961 133.15H515.221C514.983 133.15 514.881 133.252 514.881 133.49V147.09C514.881 147.328 514.983 147.43 515.221 147.43H518.961C520.287 147.43 521.409 146.376 521.409 144.982ZM540.586 145.322C540.586 148.858 538.138 151.34 534.262 151.34H532.902C530.08 151.34 528.55 150.184 527.53 148.586C527.224 148.076 526.884 147.532 526.884 147.328C526.884 147.226 526.952 147.158 527.088 147.09L529.808 145.696C529.944 145.628 530.08 145.526 530.216 145.526C530.318 145.526 530.42 145.594 530.488 145.764C531.1 147.226 531.984 147.77 532.902 147.77H534.262C535.588 147.77 536.71 146.648 536.71 145.322C536.71 143.486 534.908 142.806 533.072 141.956C530.386 140.664 527.428 139.27 527.428 135.258C527.428 131.722 529.876 129.24 533.752 129.24H534.296C537.118 129.24 538.648 130.396 539.668 131.994C539.974 132.504 540.314 133.048 540.314 133.252C540.314 133.354 540.246 133.422 540.11 133.49L537.39 134.884C537.254 134.952 537.118 135.054 536.982 135.054C536.88 135.054 536.778 134.986 536.71 134.816C536.098 133.354 535.214 132.81 534.296 132.81H533.752C532.426 132.81 531.304 133.932 531.304 135.258C531.304 136.992 533.276 137.502 535.248 138.42C537.832 139.61 540.586 141.208 540.586 145.322Z" fill="white"/>
<path d="M608.5 104H890.5V222H561L608.5 104Z" fill="#F85908"/>
<rect y="1216" width="890" height="54" fill="#110F11"/>
<circle cx="855" cy="1243" r="24.5" stroke="white"/>
</g>
<defs>
<clipPath id="clip0_891_14608">
<rect width="890" height="1270" fill="white"/>
</clipPath>
</defs>
</svg>
