<svg width="750" height="1100" viewBox="0 0 750 1100" fill="none" xmlns="http://www.w3.org/2000/svg">
<rect width="750" height="1100" fill="#0E457D"/>
<path d="M169 648L715 601V648H169Z" fill="white"/>
<rect x="169" y="648" width="546" height="306" fill="white"/>
<g filter="url(#filter0_d_226_1699)">
<path d="M169 658.792L664.054 663.513L169 668.234V658.792Z" fill="#0E457D"/>
<mask id="path-4-outside-1_226_1699" maskUnits="userSpaceOnUse" x="181.536" y="651.07" width="211" height="25" fill="black">
<rect fill="white" x="181.536" y="651.07" width="211" height="25"/>
<path d="M198.946 658.117L196.519 657.308H193.011L191.932 657.847L191.392 658.926V660.006L192.336 660.949L196.383 661.894L198.946 664.457V669.449L195.438 672.955H188.019L186.536 668.504L189.288 669.449H193.011L194.09 668.908L194.63 667.83V666.076L193.685 665.132L189.638 664.187L187.076 661.624V657.577L190.583 654.07H197.598L198.946 658.117Z"/>
<path d="M207.298 656.228V660.815L207.164 661.219L212.694 655.689L213.234 654.07H218.225L218.494 654.34L212.83 660.006L216.606 670.392L218.09 672.955H212.424L212.155 670.527L209.726 663.243H209.322L207.568 664.996L207.298 665.536V670.797L207.838 672.955H202.713L203.251 670.797V656.228L202.713 654.07H207.838L207.298 656.228Z"/>
<path d="M225.108 656.228V670.797L225.648 672.955H220.523L221.061 670.797V656.228L220.523 654.07H225.648L225.108 656.228Z"/>
<path d="M234.54 656.768V669.043L234.944 669.449H239.127L241.959 668.504L240.476 672.955H229.955L230.493 670.797V656.228L229.955 654.07H235.215L234.54 656.768Z"/>
<path d="M248.029 656.768V669.043L248.434 669.449H252.616L255.448 668.504L253.965 672.955H243.444L243.983 670.797V656.228L243.444 654.07H248.704L248.029 656.768Z"/>
<path d="M268.263 658.117L265.835 657.308H262.327L261.248 657.847L260.708 658.926V660.006L261.653 660.949L265.7 661.894L268.263 664.457V669.449L264.755 672.955H257.336L255.853 668.504L258.605 669.449H262.327L263.406 668.908L263.946 667.83V666.076L263.002 665.132L258.955 664.187L256.393 661.624V657.577L259.9 654.07H266.914L268.263 658.117Z"/>
<path fill-rule="evenodd" clip-rule="evenodd" d="M290.778 657.983L288.081 657.038H284.304L284.034 657.308L288.351 665.941L289.16 664.322L289.564 662.434H293.341L293.611 662.704L289.7 668.638L290.508 670.257L293.206 672.955H289.025L287.406 671.336L285.787 672.955H280.932L277.694 669.717V664.862L281.74 660.815L279.717 656.768L282.415 654.07H289.43L290.778 657.983ZM282.281 664.862L281.74 665.941V668.1L282.281 669.178L283.359 669.717H284.708L285.517 669.313L285.922 668.908L283.359 663.783L282.281 664.862Z"/>
<path d="M315.589 658.521L312.756 657.577H310.329L310.059 657.847V670.527L310.867 672.955H305.203L306.012 670.527V657.847L305.742 657.577H303.314L300.482 658.521L301.965 654.07H314.105L315.589 658.521Z"/>
<path fill-rule="evenodd" clip-rule="evenodd" d="M331.906 657.308V661.894L328.938 664.862L330.962 670.392L332.446 672.955H327.319L325.027 665.941L324.487 665.671H322.464L322.194 665.941V670.797L322.734 672.955H317.608L318.147 670.797V656.228L317.608 654.07H328.668L331.906 657.308ZM322.194 657.577V662.164L322.464 662.434H325.702L327.05 661.759L327.589 660.681V659.062L327.05 657.983L325.702 657.308H322.464L322.194 657.577Z"/>
<path fill-rule="evenodd" clip-rule="evenodd" d="M345.123 655.824L349.169 670.797L350.25 672.955H344.718L344.988 670.797L344.448 668.638L344.179 668.368H339.052L338.784 668.638L338.244 670.797L338.514 672.955H333.522L334.601 670.797L338.648 655.824L338.244 654.07H345.528L345.123 655.824ZM341.482 657.577L339.727 664.862L339.997 665.132H343.235L343.505 664.862L341.75 657.577L341.616 656.768L341.482 657.577Z"/>
<path d="M356.997 656.228V670.797L357.537 672.955H352.411L352.95 670.797V656.228L352.411 654.07H357.537L356.997 656.228Z"/>
<path d="M374.657 658.521L371.824 657.577H369.397L369.127 657.847V670.527L369.935 672.955H364.271L365.08 670.527V657.847L364.81 657.577H362.382L359.55 658.521L361.033 654.07H373.173L374.657 658.521Z"/>
<path d="M388.006 658.117L385.578 657.308H382.07L380.992 657.847L380.451 658.926V660.006L381.396 660.949L385.443 661.894L388.006 664.457V669.449L384.498 672.955H377.079L375.596 668.504L378.348 669.449H382.07L383.149 668.908L383.689 667.83V666.076L382.745 665.132L378.698 664.187L376.136 661.624V657.577L379.643 654.07H386.657L388.006 658.117Z"/>
</mask>
<path d="M198.946 658.117L196.519 657.308H193.011L191.932 657.847L191.392 658.926V660.006L192.336 660.949L196.383 661.894L198.946 664.457V669.449L195.438 672.955H188.019L186.536 668.504L189.288 669.449H193.011L194.09 668.908L194.63 667.83V666.076L193.685 665.132L189.638 664.187L187.076 661.624V657.577L190.583 654.07H197.598L198.946 658.117Z" fill="#B5191D"/>
<path d="M207.298 656.228V660.815L207.164 661.219L212.694 655.689L213.234 654.07H218.225L218.494 654.34L212.83 660.006L216.606 670.392L218.09 672.955H212.424L212.155 670.527L209.726 663.243H209.322L207.568 664.996L207.298 665.536V670.797L207.838 672.955H202.713L203.251 670.797V656.228L202.713 654.07H207.838L207.298 656.228Z" fill="#B5191D"/>
<path d="M225.108 656.228V670.797L225.648 672.955H220.523L221.061 670.797V656.228L220.523 654.07H225.648L225.108 656.228Z" fill="#B5191D"/>
<path d="M234.54 656.768V669.043L234.944 669.449H239.127L241.959 668.504L240.476 672.955H229.955L230.493 670.797V656.228L229.955 654.07H235.215L234.54 656.768Z" fill="#B5191D"/>
<path d="M248.029 656.768V669.043L248.434 669.449H252.616L255.448 668.504L253.965 672.955H243.444L243.983 670.797V656.228L243.444 654.07H248.704L248.029 656.768Z" fill="#B5191D"/>
<path d="M268.263 658.117L265.835 657.308H262.327L261.248 657.847L260.708 658.926V660.006L261.653 660.949L265.7 661.894L268.263 664.457V669.449L264.755 672.955H257.336L255.853 668.504L258.605 669.449H262.327L263.406 668.908L263.946 667.83V666.076L263.002 665.132L258.955 664.187L256.393 661.624V657.577L259.9 654.07H266.914L268.263 658.117Z" fill="#B5191D"/>
<path fill-rule="evenodd" clip-rule="evenodd" d="M290.778 657.983L288.081 657.038H284.304L284.034 657.308L288.351 665.941L289.16 664.322L289.564 662.434H293.341L293.611 662.704L289.7 668.638L290.508 670.257L293.206 672.955H289.025L287.406 671.336L285.787 672.955H280.932L277.694 669.717V664.862L281.74 660.815L279.717 656.768L282.415 654.07H289.43L290.778 657.983ZM282.281 664.862L281.74 665.941V668.1L282.281 669.178L283.359 669.717H284.708L285.517 669.313L285.922 668.908L283.359 663.783L282.281 664.862Z" fill="#B5191D"/>
<path d="M315.589 658.521L312.756 657.577H310.329L310.059 657.847V670.527L310.867 672.955H305.203L306.012 670.527V657.847L305.742 657.577H303.314L300.482 658.521L301.965 654.07H314.105L315.589 658.521Z" fill="#B5191D"/>
<path fill-rule="evenodd" clip-rule="evenodd" d="M331.906 657.308V661.894L328.938 664.862L330.962 670.392L332.446 672.955H327.319L325.027 665.941L324.487 665.671H322.464L322.194 665.941V670.797L322.734 672.955H317.608L318.147 670.797V656.228L317.608 654.07H328.668L331.906 657.308ZM322.194 657.577V662.164L322.464 662.434H325.702L327.05 661.759L327.589 660.681V659.062L327.05 657.983L325.702 657.308H322.464L322.194 657.577Z" fill="#B5191D"/>
<path fill-rule="evenodd" clip-rule="evenodd" d="M345.123 655.824L349.169 670.797L350.25 672.955H344.718L344.988 670.797L344.448 668.638L344.179 668.368H339.052L338.784 668.638L338.244 670.797L338.514 672.955H333.522L334.601 670.797L338.648 655.824L338.244 654.07H345.528L345.123 655.824ZM341.482 657.577L339.727 664.862L339.997 665.132H343.235L343.505 664.862L341.75 657.577L341.616 656.768L341.482 657.577Z" fill="#B5191D"/>
<path d="M356.997 656.228V670.797L357.537 672.955H352.411L352.95 670.797V656.228L352.411 654.07H357.537L356.997 656.228Z" fill="#B5191D"/>
<path d="M374.657 658.521L371.824 657.577H369.397L369.127 657.847V670.527L369.935 672.955H364.271L365.08 670.527V657.847L364.81 657.577H362.382L359.55 658.521L361.033 654.07H373.173L374.657 658.521Z" fill="#B5191D"/>
<path d="M388.006 658.117L385.578 657.308H382.07L380.992 657.847L380.451 658.926V660.006L381.396 660.949L385.443 661.894L388.006 664.457V669.449L384.498 672.955H377.079L375.596 668.504L378.348 669.449H382.07L383.149 668.908L383.689 667.83V666.076L382.745 665.132L378.698 664.187L376.136 661.624V657.577L379.643 654.07H386.657L388.006 658.117Z" fill="#B5191D"/>
<path d="M198.946 658.117L196.519 657.308H193.011L191.932 657.847L191.392 658.926V660.006L192.336 660.949L196.383 661.894L198.946 664.457V669.449L195.438 672.955H188.019L186.536 668.504L189.288 669.449H193.011L194.09 668.908L194.63 667.83V666.076L193.685 665.132L189.638 664.187L187.076 661.624V657.577L190.583 654.07H197.598L198.946 658.117Z" stroke="white" stroke-width="5.39568" mask="url(#path-4-outside-1_226_1699)"/>
<path d="M207.298 656.228V660.815L207.164 661.219L212.694 655.689L213.234 654.07H218.225L218.494 654.34L212.83 660.006L216.606 670.392L218.09 672.955H212.424L212.155 670.527L209.726 663.243H209.322L207.568 664.996L207.298 665.536V670.797L207.838 672.955H202.713L203.251 670.797V656.228L202.713 654.07H207.838L207.298 656.228Z" stroke="white" stroke-width="5.39568" mask="url(#path-4-outside-1_226_1699)"/>
<path d="M225.108 656.228V670.797L225.648 672.955H220.523L221.061 670.797V656.228L220.523 654.07H225.648L225.108 656.228Z" stroke="white" stroke-width="5.39568" mask="url(#path-4-outside-1_226_1699)"/>
<path d="M234.54 656.768V669.043L234.944 669.449H239.127L241.959 668.504L240.476 672.955H229.955L230.493 670.797V656.228L229.955 654.07H235.215L234.54 656.768Z" stroke="white" stroke-width="5.39568" mask="url(#path-4-outside-1_226_1699)"/>
<path d="M248.029 656.768V669.043L248.434 669.449H252.616L255.448 668.504L253.965 672.955H243.444L243.983 670.797V656.228L243.444 654.07H248.704L248.029 656.768Z" stroke="white" stroke-width="5.39568" mask="url(#path-4-outside-1_226_1699)"/>
<path d="M268.263 658.117L265.835 657.308H262.327L261.248 657.847L260.708 658.926V660.006L261.653 660.949L265.7 661.894L268.263 664.457V669.449L264.755 672.955H257.336L255.853 668.504L258.605 669.449H262.327L263.406 668.908L263.946 667.83V666.076L263.002 665.132L258.955 664.187L256.393 661.624V657.577L259.9 654.07H266.914L268.263 658.117Z" stroke="white" stroke-width="5.39568" mask="url(#path-4-outside-1_226_1699)"/>
<path fill-rule="evenodd" clip-rule="evenodd" d="M290.778 657.983L288.081 657.038H284.304L284.034 657.308L288.351 665.941L289.16 664.322L289.564 662.434H293.341L293.611 662.704L289.7 668.638L290.508 670.257L293.206 672.955H289.025L287.406 671.336L285.787 672.955H280.932L277.694 669.717V664.862L281.74 660.815L279.717 656.768L282.415 654.07H289.43L290.778 657.983ZM282.281 664.862L281.74 665.941V668.1L282.281 669.178L283.359 669.717H284.708L285.517 669.313L285.922 668.908L283.359 663.783L282.281 664.862Z" stroke="white" stroke-width="5.39568" mask="url(#path-4-outside-1_226_1699)"/>
<path d="M315.589 658.521L312.756 657.577H310.329L310.059 657.847V670.527L310.867 672.955H305.203L306.012 670.527V657.847L305.742 657.577H303.314L300.482 658.521L301.965 654.07H314.105L315.589 658.521Z" stroke="white" stroke-width="5.39568" mask="url(#path-4-outside-1_226_1699)"/>
<path fill-rule="evenodd" clip-rule="evenodd" d="M331.906 657.308V661.894L328.938 664.862L330.962 670.392L332.446 672.955H327.319L325.027 665.941L324.487 665.671H322.464L322.194 665.941V670.797L322.734 672.955H317.608L318.147 670.797V656.228L317.608 654.07H328.668L331.906 657.308ZM322.194 657.577V662.164L322.464 662.434H325.702L327.05 661.759L327.589 660.681V659.062L327.05 657.983L325.702 657.308H322.464L322.194 657.577Z" stroke="white" stroke-width="5.39568" mask="url(#path-4-outside-1_226_1699)"/>
<path fill-rule="evenodd" clip-rule="evenodd" d="M345.123 655.824L349.169 670.797L350.25 672.955H344.718L344.988 670.797L344.448 668.638L344.179 668.368H339.052L338.784 668.638L338.244 670.797L338.514 672.955H333.522L334.601 670.797L338.648 655.824L338.244 654.07H345.528L345.123 655.824ZM341.482 657.577L339.727 664.862L339.997 665.132H343.235L343.505 664.862L341.75 657.577L341.616 656.768L341.482 657.577Z" stroke="white" stroke-width="5.39568" mask="url(#path-4-outside-1_226_1699)"/>
<path d="M356.997 656.228V670.797L357.537 672.955H352.411L352.95 670.797V656.228L352.411 654.07H357.537L356.997 656.228Z" stroke="white" stroke-width="5.39568" mask="url(#path-4-outside-1_226_1699)"/>
<path d="M374.657 658.521L371.824 657.577H369.397L369.127 657.847V670.527L369.935 672.955H364.271L365.08 670.527V657.847L364.81 657.577H362.382L359.55 658.521L361.033 654.07H373.173L374.657 658.521Z" stroke="white" stroke-width="5.39568" mask="url(#path-4-outside-1_226_1699)"/>
<path d="M388.006 658.117L385.578 657.308H382.07L380.992 657.847L380.451 658.926V660.006L381.396 660.949L385.443 661.894L388.006 664.457V669.449L384.498 672.955H377.079L375.596 668.504L378.348 669.449H382.07L383.149 668.908L383.689 667.83V666.076L382.745 665.132L378.698 664.187L376.136 661.624V657.577L379.643 654.07H386.657L388.006 658.117Z" stroke="white" stroke-width="5.39568" mask="url(#path-4-outside-1_226_1699)"/>
<path d="M169 817.964L664.054 822.686L169 827.407V817.964Z" fill="#0E457D"/>
<mask id="path-6-outside-2_226_1699" maskUnits="userSpaceOnUse" x="182.536" y="810.243" width="290" height="25" fill="black">
<rect fill="white" x="182.536" y="810.243" width="290" height="25"/>
<path fill-rule="evenodd" clip-rule="evenodd" d="M200.834 816.481V821.336L197.057 825.113H191.392L191.123 825.383V829.43L191.797 832.128H186.536L187.076 829.97V815.4L186.536 813.243H197.598L200.834 816.481ZM191.123 816.749V821.336L191.392 821.606H194.63L195.979 820.932L196.519 819.853V818.234L195.979 817.155L194.63 816.481H191.392L191.123 816.749Z"/>
<path d="M208.116 815.941V828.215L208.521 828.621H212.702L215.535 827.676L214.051 832.128H203.529L204.069 829.97V815.4L203.529 813.243H208.791L208.116 815.941Z"/>
<path fill-rule="evenodd" clip-rule="evenodd" d="M226.461 814.996L230.508 829.97L231.587 832.128H226.057L226.327 829.97L225.787 827.811L225.517 827.541H220.391L220.121 827.811L219.582 829.97L219.851 832.128H214.861L215.94 829.97L219.986 814.996L219.582 813.243H226.865L226.461 814.996ZM222.819 816.749L221.065 824.034L221.335 824.304H224.572L224.842 824.034L223.089 816.749L222.954 815.941L222.819 816.749Z"/>
<path d="M235.515 815.132L238.077 820.257L238.213 820.796L238.347 820.257L240.911 815.132L241.181 813.243H246.171L244.687 815.4L240.236 824.438V829.7L241.045 832.128H235.379L236.189 829.7V824.709L231.332 815.4L229.849 813.243H235.245L235.515 815.132Z"/>
<path d="M259.378 817.289L256.95 816.481H252.093L251.824 816.749V819.987L252.093 820.257H254.387L256.41 819.583V824.168L254.387 823.494H252.093L251.824 823.764V828.215L252.229 828.621H256.95L259.782 827.676L258.299 832.128H247.238L247.778 829.97V815.4L247.238 813.243H258.029L259.378 817.289Z"/>
<path fill-rule="evenodd" clip-rule="evenodd" d="M276.368 816.481V821.066L273.402 824.034L275.425 829.564L276.909 832.128H271.783L269.489 825.113L268.949 824.843H266.926L266.657 825.113V829.97L267.196 832.128H262.07L262.611 829.97V815.4L262.07 813.243H273.132L276.368 816.481ZM266.657 816.749V821.336L266.926 821.606H270.164L271.513 820.932L272.053 819.853V818.234L271.513 817.155L270.164 816.481H266.926L266.657 816.749Z"/>
<path fill-rule="evenodd" clip-rule="evenodd" d="M301.186 817.019V828.351L297.41 832.128H286.888L287.429 829.97V815.4L286.888 813.243H297.41L301.186 817.019ZM291.61 816.749V828.215L292.014 828.621H294.848L296.197 827.946L296.871 826.598V818.504L296.197 817.155L294.848 816.481H291.88L291.61 816.749Z"/>
<path d="M317.655 817.289L315.228 816.481H310.371L310.102 816.749V819.987L310.371 820.257H312.664L314.688 819.583V824.168L312.664 823.494H310.371L310.102 823.764V828.215L310.506 828.621H315.228L318.06 827.676L316.577 832.128H305.515L306.055 829.97V815.4L305.515 813.243H316.307L317.655 817.289Z"/>
<path d="M323.046 815.4L325.744 825.113L325.879 826.192L326.014 825.113L328.712 815.4L328.442 813.243H333.703L332.624 815.4L327.497 832.128H323.99L318.865 815.4L317.786 813.243H323.316L323.046 815.4Z"/>
<path d="M347.585 817.289L345.157 816.481H340.3L340.031 816.749V819.987L340.3 820.257H342.593L344.617 819.583V824.168L342.593 823.494H340.3L340.031 823.764V828.215L340.436 828.621H345.157L347.989 827.676L346.506 832.128H335.444L335.984 829.97V815.4L335.444 813.243H346.236L347.585 817.289Z"/>
<path d="M354.864 815.941V828.215L355.268 828.621H359.45L362.283 827.676L360.799 832.128H350.277L350.817 829.97V815.4L350.277 813.243H355.539L354.864 815.941Z"/>
<path fill-rule="evenodd" clip-rule="evenodd" d="M377.796 816.749V828.621L374.288 832.128H367.273L363.766 828.621V816.749L367.273 813.243H374.288L377.796 816.749ZM368.622 817.019L368.083 818.098V827.002L368.622 828.081L369.702 828.621H371.86L372.939 828.081L373.479 827.002V818.098L372.939 817.019L371.86 816.481H369.702L368.622 817.019Z"/>
<path fill-rule="evenodd" clip-rule="evenodd" d="M396.401 816.481V821.336L392.625 825.113H386.959L386.69 825.383V829.43L387.365 832.128H382.103L382.643 829.97V815.4L382.103 813.243H393.165L396.401 816.481ZM386.69 816.749V821.336L386.959 821.606H390.197L391.546 820.932L392.086 819.853V818.234L391.546 817.155L390.197 816.481H386.959L386.69 816.749Z"/>
<path d="M408.135 821.795L408.269 822.415L408.405 821.795L412.181 813.243H417.441L416.903 815.4V829.97L417.441 832.128H412.451L412.99 829.97V820.257L413.126 819.178L412.72 820.257L408.135 830.779H407.999L403.413 820.257L403.009 819.178L403.143 820.257V829.97L403.683 832.128H399.097L399.637 829.97V815.4L399.097 813.243H404.358L408.135 821.795Z"/>
<path d="M433.894 817.289L431.467 816.481H426.61L426.341 816.749V819.987L426.61 820.257H428.903L430.927 819.583V824.168L428.903 823.494H426.61L426.341 823.764V828.215L426.745 828.621H431.467L434.299 827.676L432.816 832.128H421.754L422.294 829.97V815.4L421.754 813.243H432.546L433.894 817.289Z"/>
<path d="M446.434 822.685L446.974 824.034L446.838 822.685V815.4L446.3 813.243H450.885L450.346 815.4V832.128H446.838L441.038 820.527L440.499 819.178L440.634 820.527V829.97L441.174 832.128H436.587L437.127 829.97V815.4L436.453 813.243H441.713L446.434 822.685Z"/>
<path d="M468.029 817.694L465.195 816.749H462.767L462.497 817.019V829.7L463.307 832.128H457.642L458.45 829.7V817.019L458.182 816.749H455.753L452.92 817.694L454.404 813.243H466.544L468.029 817.694Z"/>
</mask>
<path fill-rule="evenodd" clip-rule="evenodd" d="M200.834 816.481V821.336L197.057 825.113H191.392L191.123 825.383V829.43L191.797 832.128H186.536L187.076 829.97V815.4L186.536 813.243H197.598L200.834 816.481ZM191.123 816.749V821.336L191.392 821.606H194.63L195.979 820.932L196.519 819.853V818.234L195.979 817.155L194.63 816.481H191.392L191.123 816.749Z" fill="#B5191D"/>
<path d="M208.116 815.941V828.215L208.521 828.621H212.702L215.535 827.676L214.051 832.128H203.529L204.069 829.97V815.4L203.529 813.243H208.791L208.116 815.941Z" fill="#B5191D"/>
<path fill-rule="evenodd" clip-rule="evenodd" d="M226.461 814.996L230.508 829.97L231.587 832.128H226.057L226.327 829.97L225.787 827.811L225.517 827.541H220.391L220.121 827.811L219.582 829.97L219.851 832.128H214.861L215.94 829.97L219.986 814.996L219.582 813.243H226.865L226.461 814.996ZM222.819 816.749L221.065 824.034L221.335 824.304H224.572L224.842 824.034L223.089 816.749L222.954 815.941L222.819 816.749Z" fill="#B5191D"/>
<path d="M235.515 815.132L238.077 820.257L238.213 820.796L238.347 820.257L240.911 815.132L241.181 813.243H246.171L244.687 815.4L240.236 824.438V829.7L241.045 832.128H235.379L236.189 829.7V824.709L231.332 815.4L229.849 813.243H235.245L235.515 815.132Z" fill="#B5191D"/>
<path d="M259.378 817.289L256.95 816.481H252.093L251.824 816.749V819.987L252.093 820.257H254.387L256.41 819.583V824.168L254.387 823.494H252.093L251.824 823.764V828.215L252.229 828.621H256.95L259.782 827.676L258.299 832.128H247.238L247.778 829.97V815.4L247.238 813.243H258.029L259.378 817.289Z" fill="#B5191D"/>
<path fill-rule="evenodd" clip-rule="evenodd" d="M276.368 816.481V821.066L273.402 824.034L275.425 829.564L276.909 832.128H271.783L269.489 825.113L268.949 824.843H266.926L266.657 825.113V829.97L267.196 832.128H262.07L262.611 829.97V815.4L262.07 813.243H273.132L276.368 816.481ZM266.657 816.749V821.336L266.926 821.606H270.164L271.513 820.932L272.053 819.853V818.234L271.513 817.155L270.164 816.481H266.926L266.657 816.749Z" fill="#B5191D"/>
<path fill-rule="evenodd" clip-rule="evenodd" d="M301.186 817.019V828.351L297.41 832.128H286.888L287.429 829.97V815.4L286.888 813.243H297.41L301.186 817.019ZM291.61 816.749V828.215L292.014 828.621H294.848L296.197 827.946L296.871 826.598V818.504L296.197 817.155L294.848 816.481H291.88L291.61 816.749Z" fill="#B5191D"/>
<path d="M317.655 817.289L315.228 816.481H310.371L310.102 816.749V819.987L310.371 820.257H312.664L314.688 819.583V824.168L312.664 823.494H310.371L310.102 823.764V828.215L310.506 828.621H315.228L318.06 827.676L316.577 832.128H305.515L306.055 829.97V815.4L305.515 813.243H316.307L317.655 817.289Z" fill="#B5191D"/>
<path d="M323.046 815.4L325.744 825.113L325.879 826.192L326.014 825.113L328.712 815.4L328.442 813.243H333.703L332.624 815.4L327.497 832.128H323.99L318.865 815.4L317.786 813.243H323.316L323.046 815.4Z" fill="#B5191D"/>
<path d="M347.585 817.289L345.157 816.481H340.3L340.031 816.749V819.987L340.3 820.257H342.593L344.617 819.583V824.168L342.593 823.494H340.3L340.031 823.764V828.215L340.436 828.621H345.157L347.989 827.676L346.506 832.128H335.444L335.984 829.97V815.4L335.444 813.243H346.236L347.585 817.289Z" fill="#B5191D"/>
<path d="M354.864 815.941V828.215L355.268 828.621H359.45L362.283 827.676L360.799 832.128H350.277L350.817 829.97V815.4L350.277 813.243H355.539L354.864 815.941Z" fill="#B5191D"/>
<path fill-rule="evenodd" clip-rule="evenodd" d="M377.796 816.749V828.621L374.288 832.128H367.273L363.766 828.621V816.749L367.273 813.243H374.288L377.796 816.749ZM368.622 817.019L368.083 818.098V827.002L368.622 828.081L369.702 828.621H371.86L372.939 828.081L373.479 827.002V818.098L372.939 817.019L371.86 816.481H369.702L368.622 817.019Z" fill="#B5191D"/>
<path fill-rule="evenodd" clip-rule="evenodd" d="M396.401 816.481V821.336L392.625 825.113H386.959L386.69 825.383V829.43L387.365 832.128H382.103L382.643 829.97V815.4L382.103 813.243H393.165L396.401 816.481ZM386.69 816.749V821.336L386.959 821.606H390.197L391.546 820.932L392.086 819.853V818.234L391.546 817.155L390.197 816.481H386.959L386.69 816.749Z" fill="#B5191D"/>
<path d="M408.135 821.795L408.269 822.415L408.405 821.795L412.181 813.243H417.441L416.903 815.4V829.97L417.441 832.128H412.451L412.99 829.97V820.257L413.126 819.178L412.72 820.257L408.135 830.779H407.999L403.413 820.257L403.009 819.178L403.143 820.257V829.97L403.683 832.128H399.097L399.637 829.97V815.4L399.097 813.243H404.358L408.135 821.795Z" fill="#B5191D"/>
<path d="M433.894 817.289L431.467 816.481H426.61L426.341 816.749V819.987L426.61 820.257H428.903L430.927 819.583V824.168L428.903 823.494H426.61L426.341 823.764V828.215L426.745 828.621H431.467L434.299 827.676L432.816 832.128H421.754L422.294 829.97V815.4L421.754 813.243H432.546L433.894 817.289Z" fill="#B5191D"/>
<path d="M446.434 822.685L446.974 824.034L446.838 822.685V815.4L446.3 813.243H450.885L450.346 815.4V832.128H446.838L441.038 820.527L440.499 819.178L440.634 820.527V829.97L441.174 832.128H436.587L437.127 829.97V815.4L436.453 813.243H441.713L446.434 822.685Z" fill="#B5191D"/>
<path d="M468.029 817.694L465.195 816.749H462.767L462.497 817.019V829.7L463.307 832.128H457.642L458.45 829.7V817.019L458.182 816.749H455.753L452.92 817.694L454.404 813.243H466.544L468.029 817.694Z" fill="#B5191D"/>
<path fill-rule="evenodd" clip-rule="evenodd" d="M200.834 816.481V821.336L197.057 825.113H191.392L191.123 825.383V829.43L191.797 832.128H186.536L187.076 829.97V815.4L186.536 813.243H197.598L200.834 816.481ZM191.123 816.749V821.336L191.392 821.606H194.63L195.979 820.932L196.519 819.853V818.234L195.979 817.155L194.63 816.481H191.392L191.123 816.749Z" stroke="white" stroke-width="5.39568" mask="url(#path-6-outside-2_226_1699)"/>
<path d="M208.116 815.941V828.215L208.521 828.621H212.702L215.535 827.676L214.051 832.128H203.529L204.069 829.97V815.4L203.529 813.243H208.791L208.116 815.941Z" stroke="white" stroke-width="5.39568" mask="url(#path-6-outside-2_226_1699)"/>
<path fill-rule="evenodd" clip-rule="evenodd" d="M226.461 814.996L230.508 829.97L231.587 832.128H226.057L226.327 829.97L225.787 827.811L225.517 827.541H220.391L220.121 827.811L219.582 829.97L219.851 832.128H214.861L215.94 829.97L219.986 814.996L219.582 813.243H226.865L226.461 814.996ZM222.819 816.749L221.065 824.034L221.335 824.304H224.572L224.842 824.034L223.089 816.749L222.954 815.941L222.819 816.749Z" stroke="white" stroke-width="5.39568" mask="url(#path-6-outside-2_226_1699)"/>
<path d="M235.515 815.132L238.077 820.257L238.213 820.796L238.347 820.257L240.911 815.132L241.181 813.243H246.171L244.687 815.4L240.236 824.438V829.7L241.045 832.128H235.379L236.189 829.7V824.709L231.332 815.4L229.849 813.243H235.245L235.515 815.132Z" stroke="white" stroke-width="5.39568" mask="url(#path-6-outside-2_226_1699)"/>
<path d="M259.378 817.289L256.95 816.481H252.093L251.824 816.749V819.987L252.093 820.257H254.387L256.41 819.583V824.168L254.387 823.494H252.093L251.824 823.764V828.215L252.229 828.621H256.95L259.782 827.676L258.299 832.128H247.238L247.778 829.97V815.4L247.238 813.243H258.029L259.378 817.289Z" stroke="white" stroke-width="5.39568" mask="url(#path-6-outside-2_226_1699)"/>
<path fill-rule="evenodd" clip-rule="evenodd" d="M276.368 816.481V821.066L273.402 824.034L275.425 829.564L276.909 832.128H271.783L269.489 825.113L268.949 824.843H266.926L266.657 825.113V829.97L267.196 832.128H262.07L262.611 829.97V815.4L262.07 813.243H273.132L276.368 816.481ZM266.657 816.749V821.336L266.926 821.606H270.164L271.513 820.932L272.053 819.853V818.234L271.513 817.155L270.164 816.481H266.926L266.657 816.749Z" stroke="white" stroke-width="5.39568" mask="url(#path-6-outside-2_226_1699)"/>
<path fill-rule="evenodd" clip-rule="evenodd" d="M301.186 817.019V828.351L297.41 832.128H286.888L287.429 829.97V815.4L286.888 813.243H297.41L301.186 817.019ZM291.61 816.749V828.215L292.014 828.621H294.848L296.197 827.946L296.871 826.598V818.504L296.197 817.155L294.848 816.481H291.88L291.61 816.749Z" stroke="white" stroke-width="5.39568" mask="url(#path-6-outside-2_226_1699)"/>
<path d="M317.655 817.289L315.228 816.481H310.371L310.102 816.749V819.987L310.371 820.257H312.664L314.688 819.583V824.168L312.664 823.494H310.371L310.102 823.764V828.215L310.506 828.621H315.228L318.06 827.676L316.577 832.128H305.515L306.055 829.97V815.4L305.515 813.243H316.307L317.655 817.289Z" stroke="white" stroke-width="5.39568" mask="url(#path-6-outside-2_226_1699)"/>
<path d="M323.046 815.4L325.744 825.113L325.879 826.192L326.014 825.113L328.712 815.4L328.442 813.243H333.703L332.624 815.4L327.497 832.128H323.99L318.865 815.4L317.786 813.243H323.316L323.046 815.4Z" stroke="white" stroke-width="5.39568" mask="url(#path-6-outside-2_226_1699)"/>
<path d="M347.585 817.289L345.157 816.481H340.3L340.031 816.749V819.987L340.3 820.257H342.593L344.617 819.583V824.168L342.593 823.494H340.3L340.031 823.764V828.215L340.436 828.621H345.157L347.989 827.676L346.506 832.128H335.444L335.984 829.97V815.4L335.444 813.243H346.236L347.585 817.289Z" stroke="white" stroke-width="5.39568" mask="url(#path-6-outside-2_226_1699)"/>
<path d="M354.864 815.941V828.215L355.268 828.621H359.45L362.283 827.676L360.799 832.128H350.277L350.817 829.97V815.4L350.277 813.243H355.539L354.864 815.941Z" stroke="white" stroke-width="5.39568" mask="url(#path-6-outside-2_226_1699)"/>
<path fill-rule="evenodd" clip-rule="evenodd" d="M377.796 816.749V828.621L374.288 832.128H367.273L363.766 828.621V816.749L367.273 813.243H374.288L377.796 816.749ZM368.622 817.019L368.083 818.098V827.002L368.622 828.081L369.702 828.621H371.86L372.939 828.081L373.479 827.002V818.098L372.939 817.019L371.86 816.481H369.702L368.622 817.019Z" stroke="white" stroke-width="5.39568" mask="url(#path-6-outside-2_226_1699)"/>
<path fill-rule="evenodd" clip-rule="evenodd" d="M396.401 816.481V821.336L392.625 825.113H386.959L386.69 825.383V829.43L387.365 832.128H382.103L382.643 829.97V815.4L382.103 813.243H393.165L396.401 816.481ZM386.69 816.749V821.336L386.959 821.606H390.197L391.546 820.932L392.086 819.853V818.234L391.546 817.155L390.197 816.481H386.959L386.69 816.749Z" stroke="white" stroke-width="5.39568" mask="url(#path-6-outside-2_226_1699)"/>
<path d="M408.135 821.795L408.269 822.415L408.405 821.795L412.181 813.243H417.441L416.903 815.4V829.97L417.441 832.128H412.451L412.99 829.97V820.257L413.126 819.178L412.72 820.257L408.135 830.779H407.999L403.413 820.257L403.009 819.178L403.143 820.257V829.97L403.683 832.128H399.097L399.637 829.97V815.4L399.097 813.243H404.358L408.135 821.795Z" stroke="white" stroke-width="5.39568" mask="url(#path-6-outside-2_226_1699)"/>
<path d="M433.894 817.289L431.467 816.481H426.61L426.341 816.749V819.987L426.61 820.257H428.903L430.927 819.583V824.168L428.903 823.494H426.61L426.341 823.764V828.215L426.745 828.621H431.467L434.299 827.676L432.816 832.128H421.754L422.294 829.97V815.4L421.754 813.243H432.546L433.894 817.289Z" stroke="white" stroke-width="5.39568" mask="url(#path-6-outside-2_226_1699)"/>
<path d="M446.434 822.685L446.974 824.034L446.838 822.685V815.4L446.3 813.243H450.885L450.346 815.4V832.128H446.838L441.038 820.527L440.499 819.178L440.634 820.527V829.97L441.174 832.128H436.587L437.127 829.97V815.4L436.453 813.243H441.713L446.434 822.685Z" stroke="white" stroke-width="5.39568" mask="url(#path-6-outside-2_226_1699)"/>
<path d="M468.029 817.694L465.195 816.749H462.767L462.497 817.019V829.7L463.307 832.128H457.642L458.45 829.7V817.019L458.182 816.749H455.753L452.92 817.694L454.404 813.243H466.544L468.029 817.694Z" stroke="white" stroke-width="5.39568" mask="url(#path-6-outside-2_226_1699)"/>
</g>
<rect x="33.4766" y="34.874" width="679" height="1030" rx="46.0611" stroke="white" stroke-width="5"/>
<g filter="url(#filter1_di_226_1699)">
<path d="M157 300.809L0 323.741V0H157V300.809Z" fill="#B5191D"/>
</g>
<rect width="67.446" height="60.7014" transform="translate(0 226.619)" fill="#0E457D"/>
<path d="M41.446 256.97L41.446 251.979L43.6043 252.518L53.3165 252.518L54.3957 252.653L53.3165 252.249L42.795 247.662L42.795 247.527L53.3165 242.941L54.3957 242.536L53.3165 242.671L43.6043 242.671L41.446 243.211L41.446 238.624L43.6043 239.164L58.1727 239.164L60.3309 238.624L60.3309 243.885L51.7788 247.662L51.1583 247.797L51.7788 247.932L60.3309 251.709L60.3309 256.97L58.1727 256.43L43.6043 256.43L41.446 256.97ZM41.446 277.469L41.446 271.939L43.6043 272.208L45.7626 271.669L46.0324 271.399L46.0324 266.273L45.7626 266.003L43.6043 265.464L41.446 265.734L41.446 260.743L43.6043 261.822L58.5773 265.868L60.3309 265.464L60.3309 272.748L58.5773 272.343L43.6043 276.39L41.446 277.469ZM49.5396 270.725L56.8237 268.971L57.6331 268.836L56.8237 268.701L49.5396 266.948L49.2698 267.217L49.2698 270.455L49.5396 270.725Z" fill="white"/>
<g filter="url(#filter2_di_226_1699)">
<path d="M157 439.748L0 462.68V333.184L157 310.252V439.748Z" fill="#B5191D"/>
<rect width="67.446" height="60.7014" transform="translate(0 361.511)" fill="#0E457D"/>
<path d="M44.9532 389.577L41.446 386.069L41.446 378.65L45.8975 377.167L44.9532 379.918L44.9532 383.641L45.4928 384.72L46.5719 385.26L48.3255 385.26L49.2698 384.316L50.214 380.269L52.777 377.706L56.8237 377.706L60.3309 381.213L60.3309 388.228L56.2842 389.577L57.0935 387.149L57.0935 383.641L56.554 382.562L55.4748 382.023L54.3957 382.023L53.4514 382.967L52.5072 387.014L49.9442 389.577L44.9532 389.577ZM55.8795 407.775L56.8237 404.943L56.8237 402.515L56.554 402.245L43.8741 402.245L41.446 403.054L41.446 397.389L43.8741 398.198L56.554 398.198L56.8237 397.928L56.8237 395.5L55.8795 392.668L60.3309 394.151L60.3309 406.292L55.8795 407.775Z" fill="white"/>
</g>
<g filter="url(#filter3_di_226_1699)">
<path d="M157 578.687L0 601.618V472.122L157 449.19V578.687Z" fill="#B5191D"/>
<rect width="67.446" height="60.7014" transform="translate(0 500.449)" fill="#0E457D"/>
<path d="M41.446 529.724L41.446 524.193L43.6043 524.463L45.7626 523.923L46.0324 523.654L46.0324 518.528L45.7626 518.258L43.6043 517.718L41.446 517.988L41.446 512.997L43.6043 514.076L58.5773 518.123L60.3309 517.718L60.3309 525.003L58.5773 524.598L43.6043 528.645L41.446 529.724ZM49.5396 522.979L56.8237 521.226L57.6331 521.091L56.8237 520.956L49.5396 519.202L49.2698 519.472L49.2698 522.709L49.5396 522.979ZM51.6978 547.803L50.0791 546.993L46.5719 546.993L44.9532 547.263L41.446 543.756L41.446 537.011L44.9532 533.504L56.554 533.504L60.3309 537.281L60.3309 544.835L55.8795 546.319L56.8237 543.54L56.8237 539.844L56.1493 538.495L54.8004 537.821L46.5719 537.821L45.4928 538.36L44.9532 539.439L44.9532 542.137L45.7626 542.946L49.5396 542.946L51.6978 541.867L51.6978 547.803Z" fill="white"/>
</g>
<g filter="url(#filter4_di_226_1699)">
<path d="M157 717.625L0 740.557V611.061L157 588.129V717.625Z" fill="#B5191D"/>
<rect width="67.446" height="60.7014" transform="translate(0 639.388)" fill="#0E457D"/>
<path d="M52.2374 668.933L48.4604 665.156L48.4604 659.491L48.1906 659.221L44.1439 659.221L41.446 659.895L41.446 654.635L43.6043 655.174L58.1727 655.174L60.3309 654.635L60.3309 665.696L57.0935 668.933L52.2374 668.933ZM53.7212 664.617L55.3399 664.617L56.4191 664.077L57.0935 662.728L57.0935 659.491L56.8237 659.221L52.2374 659.221L51.9676 659.491L51.9676 662.728L52.6421 664.077L53.7212 664.617ZM41.446 686.998L41.446 681.468L43.6043 681.737L45.7626 681.198L46.0324 680.928L46.0324 675.802L45.7626 675.532L43.6043 674.993L41.446 675.262L41.446 670.271L43.6043 671.351L58.5773 675.397L60.3309 674.993L60.3309 682.277L58.5773 681.872L43.6043 685.919L41.446 686.998ZM49.5396 680.254L56.8237 678.5L57.6331 678.365L56.8237 678.23L49.5396 676.477L49.2698 676.746L49.2698 679.984L49.5396 680.254Z" fill="white"/>
</g>
<g filter="url(#filter5_di_226_1699)">
<path d="M157 856.563L0 879.495V749.999L157 727.067V856.563Z" fill="#B5191D"/>
<rect width="67.446" height="60.7014" transform="translate(0 778.327)" fill="#0E457D"/>
<path d="M41.446 808.681L41.446 803.151L43.6043 803.421L45.7626 802.881L46.0324 802.611L46.0324 797.485L45.7626 797.216L43.6043 796.676L41.446 796.946L41.446 791.955L43.6043 793.034L58.5773 797.081L60.3309 796.676L60.3309 803.96L58.5773 803.556L43.6043 807.602L41.446 808.681ZM49.5396 801.937L56.8237 800.183L57.6331 800.048L56.8237 799.913L49.5396 798.16L49.2698 798.43L49.2698 801.667L49.5396 801.937ZM60.3309 825.816L58.1727 824.737L41.446 819.611L41.446 816.104L58.1727 810.978L60.3309 809.899L60.3309 815.429L58.1727 815.159L48.4604 817.857L47.3813 817.992L48.4604 818.127L58.1727 820.825L60.3309 820.555L60.3309 825.816Z" fill="white"/>
</g>
<path d="M110.606 958.954C125.35 958.954 138.631 962.383 148.212 965.802C153.005 967.513 156.883 969.225 159.567 970.511C160.909 971.155 161.954 971.692 162.666 972.071C163.022 972.26 163.296 972.41 163.481 972.513C163.574 972.565 163.645 972.605 163.693 972.632C163.717 972.646 163.736 972.656 163.749 972.664C163.755 972.667 163.761 972.67 163.764 972.672C163.766 972.673 163.768 972.675 163.769 972.675L163.77 972.676C163.769 972.68 163.741 972.727 163.356 973.393L163.771 972.676L164.428 973.056L164.444 973.816V973.823C164.444 973.827 164.445 973.834 164.445 973.843C164.445 973.861 164.445 973.888 164.446 973.922C164.447 973.993 164.45 974.097 164.453 974.234C164.458 974.507 164.465 974.911 164.473 975.431C164.49 976.472 164.511 977.98 164.529 979.851C164.565 983.594 164.59 988.791 164.542 994.613C164.445 1006.24 164.059 1020.41 162.891 1030.44C161.323 1043.91 150.67 1055.38 139.461 1063.39C133.822 1067.42 127.962 1070.63 122.87 1072.84C117.836 1075.03 113.382 1076.31 110.606 1076.31C107.78 1076.31 103.532 1074.97 98.8035 1072.72C94.0171 1070.44 88.56 1067.15 83.2634 1063.07C72.717 1054.96 62.5727 1043.54 59.8835 1030.56C57.8013 1020.52 57.0285 1006.3 56.7703 994.66C56.6408 988.827 56.6399 983.616 56.6716 979.864C56.6875 977.987 56.7122 976.474 56.7322 975.43C56.7422 974.908 56.751 974.503 56.7576 974.228C56.7608 974.091 56.7635 973.985 56.7654 973.915C56.7663 973.879 56.7668 973.853 56.7673 973.834C56.7676 973.826 56.7682 973.819 56.7683 973.814V973.807V973.806L56.7888 973.053L57.4412 972.676L58.1169 973.844C57.4868 972.755 57.4446 972.681 57.4421 972.676L57.4431 972.675L57.4626 972.664C57.4757 972.656 57.495 972.646 57.5193 972.632C57.5678 972.605 57.6385 972.565 57.7312 972.513C57.9168 972.41 58.1897 972.26 58.5457 972.071C59.2577 971.692 60.303 971.155 61.6453 970.511C64.3293 969.225 68.2071 967.513 73.0007 965.802C82.581 962.383 95.862 958.954 110.606 958.954Z" fill="#AE171E" stroke="white" stroke-width="2.69784"/>
<path d="M110.612 964.35C123.548 964.35 135.193 967.78 143.582 971.193C147.781 972.902 151.178 974.612 153.53 975.896C154.705 976.539 155.621 977.076 156.245 977.454C156.558 977.643 156.798 977.793 156.961 977.896C157.042 977.948 157.105 977.988 157.148 978.016C157.169 978.029 157.186 978.04 157.198 978.048C157.203 978.052 157.208 978.055 157.211 978.058L157.217 978.061C157.217 978.061 157.215 978.065 156.79 978.709L157.218 978.062L157.809 978.451L157.823 979.159V979.165C157.824 979.169 157.824 979.175 157.824 979.183C157.825 979.198 157.825 979.222 157.825 979.253C157.827 979.314 157.828 979.405 157.83 979.524C157.835 979.763 157.842 980.117 157.849 980.571C157.863 981.481 157.882 982.799 157.898 984.438C157.929 987.714 157.951 992.27 157.908 997.392C157.824 1007.62 157.487 1020.16 156.466 1029.25C155.092 1041.49 145.755 1051.9 135.942 1059.17C131.004 1062.83 125.873 1065.75 121.411 1067.75C117.01 1069.74 113.085 1070.91 110.612 1070.91C108.091 1070.91 104.343 1069.68 100.208 1067.64C96.0134 1065.57 91.2346 1062.58 86.5979 1058.88C77.3662 1051.52 68.4795 1041.15 66.1233 1029.36C64.3026 1020.26 63.6273 1007.68 63.4016 997.437C63.2885 992.304 63.2879 987.734 63.3157 984.448C63.3295 982.805 63.3509 981.482 63.3684 980.569C63.3772 980.113 63.3852 979.759 63.3909 979.519C63.3937 979.399 63.3961 979.307 63.3977 979.245C63.3985 979.214 63.3992 979.191 63.3997 979.175V979.15V979.149L63.4192 978.448L64.0051 978.062L64.7483 979.188C64.0105 978.069 64.0057 978.061 64.0061 978.061L64.012 978.058C64.0153 978.055 64.0198 978.052 64.0256 978.048C64.0373 978.04 64.0541 978.029 64.0754 978.016C64.1183 977.988 64.1807 977.948 64.262 977.896C64.4252 977.793 64.6655 977.643 64.9778 977.454C65.6023 977.076 66.5178 976.539 67.6936 975.896C70.045 974.612 73.4424 972.902 77.6418 971.193C86.0313 967.78 97.6749 964.35 110.612 964.35Z" stroke="white" stroke-width="2.69784"/>
<path d="M110.611 1052.03L112.538 1055.45L116.384 1056.22L113.729 1059.11L114.179 1063.01L110.611 1061.38L107.043 1063.01L107.494 1059.11L104.838 1056.22L108.685 1055.45L110.611 1052.03Z" fill="white"/>
<path d="M107.941 987.597L106.646 990.187V995.799L107.077 998.388L101.466 1004H90.6744L85.0629 998.388V979.827L91.106 973.784H103.192L105.566 980.906L101.12 979.396H95.2067L93.0485 980.475L91.9693 982.633V995.799L92.8326 997.525L94.5593 998.388H98.8758L100.171 997.094V991.05L98.4442 987.597H107.941ZM135.551 986.734L129.508 992.777H120.443L120.012 993.209V999.683L121.091 1004H112.674L113.537 1000.55V977.237L112.674 973.784H130.371L135.551 978.964V986.734ZM128.645 984.36V981.77L127.781 980.043L125.623 978.964H120.443L120.012 979.396V986.734L120.443 987.165H125.623L127.781 986.086L128.645 984.36Z" fill="white"/>
<path d="M74.1907 984.583L76.1174 988.001L79.9638 988.777L77.3082 991.666L77.7587 995.564L74.1907 993.931L70.6228 995.564L71.0733 991.666L68.4177 988.777L72.2641 988.001L74.1907 984.583Z" fill="white"/>
<path d="M147.032 984.583L148.959 988.001L152.805 988.777L150.15 991.666L150.6 995.564L147.032 993.931L143.464 995.564L143.915 991.666L141.259 988.777L145.106 988.001L147.032 984.583Z" fill="white"/>
<path d="M196.943 1009.54C197.203 1009.54 197.441 1009.69 197.552 1009.92C197.663 1010.16 197.629 1010.44 197.463 1010.64L182.303 1029.1L197.463 1047.55C197.629 1047.76 197.663 1048.03 197.552 1048.27C197.441 1048.51 197.203 1048.66 196.943 1048.66H24.2805C24.0197 1048.66 23.7826 1048.51 23.6711 1048.27C23.5598 1048.03 23.5937 1047.76 23.759 1047.55L38.9192 1029.1L23.759 1010.64C23.5937 1010.44 23.5597 1010.16 23.6711 1009.92C23.7826 1009.69 24.0197 1009.54 24.2805 1009.54H196.943Z" fill="#0E457D" stroke="white" stroke-width="1.34892" stroke-linejoin="round"/>
<defs>
<filter id="filter0_d_226_1699" x="155.511" y="642.604" width="516.636" height="308.903" filterUnits="userSpaceOnUse" color-interpolation-filters="sRGB">
<feFlood flood-opacity="0" result="BackgroundImageFix"/>
<feColorMatrix in="SourceAlpha" type="matrix" values="0 0 0 0 0 0 0 0 0 0 0 0 0 0 0 0 0 0 127 0" result="hardAlpha"/>
<feOffset dx="-2.69784" dy="5.39568"/>
<feGaussianBlur stdDeviation="5.39568"/>
<feComposite in2="hardAlpha" operator="out"/>
<feColorMatrix type="matrix" values="0 0 0 0 0 0 0 0 0 0 0 0 0 0 0 0 0 0 0.25 0"/>
<feBlend mode="normal" in2="BackgroundImageFix" result="effect1_dropShadow_226_1699"/>
<feBlend mode="normal" in="SourceGraphic" in2="effect1_dropShadow_226_1699" result="shape"/>
</filter>
<filter id="filter1_di_226_1699" x="0" y="0" width="159.698" height="329.137" filterUnits="userSpaceOnUse" color-interpolation-filters="sRGB">
<feFlood flood-opacity="0" result="BackgroundImageFix"/>
<feColorMatrix in="SourceAlpha" type="matrix" values="0 0 0 0 0 0 0 0 0 0 0 0 0 0 0 0 0 0 127 0" result="hardAlpha"/>
<feOffset dx="2.69784" dy="5.39568"/>
<feComposite in2="hardAlpha" operator="out"/>
<feColorMatrix type="matrix" values="0 0 0 0 0 0 0 0 0 0 0 0 0 0 0 0 0 0 0.25 0"/>
<feBlend mode="normal" in2="BackgroundImageFix" result="effect1_dropShadow_226_1699"/>
<feBlend mode="normal" in="SourceGraphic" in2="effect1_dropShadow_226_1699" result="shape"/>
<feColorMatrix in="SourceAlpha" type="matrix" values="0 0 0 0 0 0 0 0 0 0 0 0 0 0 0 0 0 0 127 0" result="hardAlpha"/>
<feOffset/>
<feGaussianBlur stdDeviation="5.39568"/>
<feComposite in2="hardAlpha" operator="arithmetic" k2="-1" k3="1"/>
<feColorMatrix type="matrix" values="0 0 0 0 0 0 0 0 0 0 0 0 0 0 0 0 0 0 0.25 0"/>
<feBlend mode="normal" in2="shape" result="effect2_innerShadow_226_1699"/>
</filter>
<filter id="filter2_di_226_1699" x="0" y="310.252" width="159.698" height="157.823" filterUnits="userSpaceOnUse" color-interpolation-filters="sRGB">
<feFlood flood-opacity="0" result="BackgroundImageFix"/>
<feColorMatrix in="SourceAlpha" type="matrix" values="0 0 0 0 0 0 0 0 0 0 0 0 0 0 0 0 0 0 127 0" result="hardAlpha"/>
<feOffset dx="2.69784" dy="5.39568"/>
<feComposite in2="hardAlpha" operator="out"/>
<feColorMatrix type="matrix" values="0 0 0 0 0 0 0 0 0 0 0 0 0 0 0 0 0 0 0.25 0"/>
<feBlend mode="normal" in2="BackgroundImageFix" result="effect1_dropShadow_226_1699"/>
<feBlend mode="normal" in="SourceGraphic" in2="effect1_dropShadow_226_1699" result="shape"/>
<feColorMatrix in="SourceAlpha" type="matrix" values="0 0 0 0 0 0 0 0 0 0 0 0 0 0 0 0 0 0 127 0" result="hardAlpha"/>
<feOffset/>
<feGaussianBlur stdDeviation="5.39568"/>
<feComposite in2="hardAlpha" operator="arithmetic" k2="-1" k3="1"/>
<feColorMatrix type="matrix" values="0 0 0 0 0 0 0 0 0 0 0 0 0 0 0 0 0 0 0.25 0"/>
<feBlend mode="normal" in2="shape" result="effect2_innerShadow_226_1699"/>
</filter>
<filter id="filter3_di_226_1699" x="0" y="449.19" width="159.698" height="157.823" filterUnits="userSpaceOnUse" color-interpolation-filters="sRGB">
<feFlood flood-opacity="0" result="BackgroundImageFix"/>
<feColorMatrix in="SourceAlpha" type="matrix" values="0 0 0 0 0 0 0 0 0 0 0 0 0 0 0 0 0 0 127 0" result="hardAlpha"/>
<feOffset dx="2.69784" dy="5.39568"/>
<feComposite in2="hardAlpha" operator="out"/>
<feColorMatrix type="matrix" values="0 0 0 0 0 0 0 0 0 0 0 0 0 0 0 0 0 0 0.25 0"/>
<feBlend mode="normal" in2="BackgroundImageFix" result="effect1_dropShadow_226_1699"/>
<feBlend mode="normal" in="SourceGraphic" in2="effect1_dropShadow_226_1699" result="shape"/>
<feColorMatrix in="SourceAlpha" type="matrix" values="0 0 0 0 0 0 0 0 0 0 0 0 0 0 0 0 0 0 127 0" result="hardAlpha"/>
<feOffset/>
<feGaussianBlur stdDeviation="5.39568"/>
<feComposite in2="hardAlpha" operator="arithmetic" k2="-1" k3="1"/>
<feColorMatrix type="matrix" values="0 0 0 0 0 0 0 0 0 0 0 0 0 0 0 0 0 0 0.25 0"/>
<feBlend mode="normal" in2="shape" result="effect2_innerShadow_226_1699"/>
</filter>
<filter id="filter4_di_226_1699" x="0" y="588.129" width="159.698" height="157.823" filterUnits="userSpaceOnUse" color-interpolation-filters="sRGB">
<feFlood flood-opacity="0" result="BackgroundImageFix"/>
<feColorMatrix in="SourceAlpha" type="matrix" values="0 0 0 0 0 0 0 0 0 0 0 0 0 0 0 0 0 0 127 0" result="hardAlpha"/>
<feOffset dx="2.69784" dy="5.39568"/>
<feComposite in2="hardAlpha" operator="out"/>
<feColorMatrix type="matrix" values="0 0 0 0 0 0 0 0 0 0 0 0 0 0 0 0 0 0 0.25 0"/>
<feBlend mode="normal" in2="BackgroundImageFix" result="effect1_dropShadow_226_1699"/>
<feBlend mode="normal" in="SourceGraphic" in2="effect1_dropShadow_226_1699" result="shape"/>
<feColorMatrix in="SourceAlpha" type="matrix" values="0 0 0 0 0 0 0 0 0 0 0 0 0 0 0 0 0 0 127 0" result="hardAlpha"/>
<feOffset/>
<feGaussianBlur stdDeviation="5.39568"/>
<feComposite in2="hardAlpha" operator="arithmetic" k2="-1" k3="1"/>
<feColorMatrix type="matrix" values="0 0 0 0 0 0 0 0 0 0 0 0 0 0 0 0 0 0 0.25 0"/>
<feBlend mode="normal" in2="shape" result="effect2_innerShadow_226_1699"/>
</filter>
<filter id="filter5_di_226_1699" x="0" y="727.067" width="159.698" height="157.823" filterUnits="userSpaceOnUse" color-interpolation-filters="sRGB">
<feFlood flood-opacity="0" result="BackgroundImageFix"/>
<feColorMatrix in="SourceAlpha" type="matrix" values="0 0 0 0 0 0 0 0 0 0 0 0 0 0 0 0 0 0 127 0" result="hardAlpha"/>
<feOffset dx="2.69784" dy="5.39568"/>
<feComposite in2="hardAlpha" operator="out"/>
<feColorMatrix type="matrix" values="0 0 0 0 0 0 0 0 0 0 0 0 0 0 0 0 0 0 0.25 0"/>
<feBlend mode="normal" in2="BackgroundImageFix" result="effect1_dropShadow_226_1699"/>
<feBlend mode="normal" in="SourceGraphic" in2="effect1_dropShadow_226_1699" result="shape"/>
<feColorMatrix in="SourceAlpha" type="matrix" values="0 0 0 0 0 0 0 0 0 0 0 0 0 0 0 0 0 0 127 0" result="hardAlpha"/>
<feOffset/>
<feGaussianBlur stdDeviation="5.39568"/>
<feComposite in2="hardAlpha" operator="arithmetic" k2="-1" k3="1"/>
<feColorMatrix type="matrix" values="0 0 0 0 0 0 0 0 0 0 0 0 0 0 0 0 0 0 0.25 0"/>
<feBlend mode="normal" in2="shape" result="effect2_innerShadow_226_1699"/>
</filter>
</defs>
</svg>
