<svg width="556" height="779" viewBox="0 0 556 779" fill="none" xmlns="http://www.w3.org/2000/svg">
<rect width="556" height="779" rx="30" fill="#0E457D"/>
<path d="M163 464L530 429V464H163Z" fill="white"/>
<rect x="163" y="464" width="363" height="213" fill="white"/>
<g filter="url(#filter0_d_226_1699)">
<path d="M163 469L530 472.5L163 476V469Z" fill="#0E457D"/>
<mask id="path-5-outside-1_226_1699" maskUnits="userSpaceOnUse" x="172" y="463.5" width="157" height="18" fill="black">
<rect fill="white" x="172" y="463.5" width="157" height="18"/>
<path d="M185.2 468.5L183.4 467.9H180.8L180 468.3L179.6 469.1V469.9L180.3 470.6L183.3 471.3L185.2 473.2V476.9L182.6 479.5H177.1L176 476.2L178.04 476.9H180.8L181.6 476.5L182 475.7V474.4L181.3 473.7L178.3 473L176.4 471.1V468.1L179 465.5H184.2L185.2 468.5Z"/>
<path d="M191.392 467.1V470.5L191.292 470.8L195.392 466.7L195.792 465.5H199.492L199.691 465.7L195.492 469.9L198.292 477.6L199.392 479.5H195.191L194.992 477.7L193.191 472.3H192.892L191.592 473.6L191.392 474V477.9L191.792 479.5H187.992L188.392 477.9V467.1L187.992 465.5H191.792L191.392 467.1Z"/>
<path d="M204.595 467.1V477.9L204.995 479.5H201.195L201.595 477.9V467.1L201.195 465.5H204.995L204.595 467.1Z"/>
<path d="M211.587 467.5V476.6L211.887 476.9H214.987L217.087 476.2L215.987 479.5H208.188L208.587 477.9V467.1L208.188 465.5H212.087L211.587 467.5Z"/>
<path d="M221.587 467.5V476.6L221.887 476.9H224.987L227.087 476.2L225.987 479.5H218.188L218.587 477.9V467.1L218.188 465.5H222.087L221.587 467.5Z"/>
<path d="M236.587 468.5L234.787 467.9H232.187L231.387 468.3L230.986 469.1V469.9L231.687 470.6L234.687 471.3L236.587 473.2V476.9L233.986 479.5H228.486L227.387 476.2L229.427 476.9H232.187L232.986 476.5L233.387 475.7V474.4L232.687 473.7L229.687 473L227.787 471.1V468.1L230.387 465.5H235.587L236.587 468.5Z"/>
<path fill-rule="evenodd" clip-rule="evenodd" d="M253.278 468.4L251.278 467.7H248.479L248.278 467.9L251.479 474.3L252.078 473.1L252.378 471.7H255.178L255.378 471.9L252.479 476.3L253.078 477.5L255.078 479.5H251.979L250.778 478.3L249.578 479.5H245.979L243.578 477.1V473.5L246.578 470.5L245.078 467.5L247.078 465.5H252.278L253.278 468.4ZM246.979 473.5L246.578 474.3V475.9L246.979 476.7L247.778 477.1H248.778L249.378 476.8L249.678 476.5L247.778 472.7L246.979 473.5Z"/>
<path d="M271.671 468.8L269.571 468.1H267.771L267.571 468.3V477.7L268.171 479.5H263.972L264.571 477.7V468.3L264.371 468.1H262.571L260.472 468.8L261.571 465.5H270.571L271.671 468.8Z"/>
<path fill-rule="evenodd" clip-rule="evenodd" d="M283.768 467.9V471.3L281.567 473.5L283.067 477.6L284.168 479.5H280.367L278.668 474.3L278.268 474.1H276.768L276.567 474.3V477.9L276.968 479.5H273.168L273.567 477.9V467.1L273.168 465.5H281.367L283.768 467.9ZM276.567 468.1V471.5L276.768 471.7H279.168L280.168 471.2L280.567 470.4V469.2L280.168 468.4L279.168 467.9H276.768L276.567 468.1Z"/>
<path fill-rule="evenodd" clip-rule="evenodd" d="M293.565 466.8L296.565 477.9L297.366 479.5H293.266L293.466 477.9L293.065 476.3L292.866 476.1H289.065L288.866 476.3L288.466 477.9L288.666 479.5H284.966L285.766 477.9L288.766 466.8L288.466 465.5H293.866L293.565 466.8ZM290.866 468.1L289.565 473.5L289.766 473.7H292.166L292.366 473.5L291.065 468.1L290.966 467.5L290.866 468.1Z"/>
<path d="M302.368 467.1V477.9L302.769 479.5H298.969L299.368 477.9V467.1L298.969 465.5H302.769L302.368 467.1Z"/>
<path d="M315.46 468.8L313.36 468.1H311.561L311.36 468.3V477.7L311.96 479.5H307.761L308.36 477.7V468.3L308.16 468.1H306.36L304.261 468.8L305.36 465.5H314.36L315.46 468.8Z"/>
<path d="M325.356 468.5L323.557 467.9H320.956L320.156 468.3L319.756 469.1V469.9L320.456 470.6L323.456 471.3L325.356 473.2V476.9L322.756 479.5H317.256L316.156 476.2L318.196 476.9H320.956L321.756 476.5L322.156 475.7V474.4L321.456 473.7L318.456 473L316.557 471.1V468.1L319.156 465.5H324.356L325.356 468.5Z"/>
</mask>
<path d="M185.2 468.5L183.4 467.9H180.8L180 468.3L179.6 469.1V469.9L180.3 470.6L183.3 471.3L185.2 473.2V476.9L182.6 479.5H177.1L176 476.2L178.04 476.9H180.8L181.6 476.5L182 475.7V474.4L181.3 473.7L178.3 473L176.4 471.1V468.1L179 465.5H184.2L185.2 468.5Z" fill="#B5191D"/>
<path d="M191.392 467.1V470.5L191.292 470.8L195.392 466.7L195.792 465.5H199.492L199.691 465.7L195.492 469.9L198.292 477.6L199.392 479.5H195.191L194.992 477.7L193.191 472.3H192.892L191.592 473.6L191.392 474V477.9L191.792 479.5H187.992L188.392 477.9V467.1L187.992 465.5H191.792L191.392 467.1Z" fill="#B5191D"/>
<path d="M204.595 467.1V477.9L204.995 479.5H201.195L201.595 477.9V467.1L201.195 465.5H204.995L204.595 467.1Z" fill="#B5191D"/>
<path d="M211.587 467.5V476.6L211.887 476.9H214.987L217.087 476.2L215.987 479.5H208.188L208.587 477.9V467.1L208.188 465.5H212.087L211.587 467.5Z" fill="#B5191D"/>
<path d="M221.587 467.5V476.6L221.887 476.9H224.987L227.087 476.2L225.987 479.5H218.188L218.587 477.9V467.1L218.188 465.5H222.087L221.587 467.5Z" fill="#B5191D"/>
<path d="M236.587 468.5L234.787 467.9H232.187L231.387 468.3L230.986 469.1V469.9L231.687 470.6L234.687 471.3L236.587 473.2V476.9L233.986 479.5H228.486L227.387 476.2L229.427 476.9H232.187L232.986 476.5L233.387 475.7V474.4L232.687 473.7L229.687 473L227.787 471.1V468.1L230.387 465.5H235.587L236.587 468.5Z" fill="#B5191D"/>
<path fill-rule="evenodd" clip-rule="evenodd" d="M253.278 468.4L251.278 467.7H248.479L248.278 467.9L251.479 474.3L252.078 473.1L252.378 471.7H255.178L255.378 471.9L252.479 476.3L253.078 477.5L255.078 479.5H251.979L250.778 478.3L249.578 479.5H245.979L243.578 477.1V473.5L246.578 470.5L245.078 467.5L247.078 465.5H252.278L253.278 468.4ZM246.979 473.5L246.578 474.3V475.9L246.979 476.7L247.778 477.1H248.778L249.378 476.8L249.678 476.5L247.778 472.7L246.979 473.5Z" fill="#B5191D"/>
<path d="M271.671 468.8L269.571 468.1H267.771L267.571 468.3V477.7L268.171 479.5H263.972L264.571 477.7V468.3L264.371 468.1H262.571L260.472 468.8L261.571 465.5H270.571L271.671 468.8Z" fill="#B5191D"/>
<path fill-rule="evenodd" clip-rule="evenodd" d="M283.768 467.9V471.3L281.567 473.5L283.067 477.6L284.168 479.5H280.367L278.668 474.3L278.268 474.1H276.768L276.567 474.3V477.9L276.968 479.5H273.168L273.567 477.9V467.1L273.168 465.5H281.367L283.768 467.9ZM276.567 468.1V471.5L276.768 471.7H279.168L280.168 471.2L280.567 470.4V469.2L280.168 468.4L279.168 467.9H276.768L276.567 468.1Z" fill="#B5191D"/>
<path fill-rule="evenodd" clip-rule="evenodd" d="M293.565 466.8L296.565 477.9L297.366 479.5H293.266L293.466 477.9L293.065 476.3L292.866 476.1H289.065L288.866 476.3L288.466 477.9L288.666 479.5H284.966L285.766 477.9L288.766 466.8L288.466 465.5H293.866L293.565 466.8ZM290.866 468.1L289.565 473.5L289.766 473.7H292.166L292.366 473.5L291.065 468.1L290.966 467.5L290.866 468.1Z" fill="#B5191D"/>
<path d="M302.368 467.1V477.9L302.769 479.5H298.969L299.368 477.9V467.1L298.969 465.5H302.769L302.368 467.1Z" fill="#B5191D"/>
<path d="M315.46 468.8L313.36 468.1H311.561L311.36 468.3V477.7L311.96 479.5H307.761L308.36 477.7V468.3L308.16 468.1H306.36L304.261 468.8L305.36 465.5H314.36L315.46 468.8Z" fill="#B5191D"/>
<path d="M325.356 468.5L323.557 467.9H320.956L320.156 468.3L319.756 469.1V469.9L320.456 470.6L323.456 471.3L325.356 473.2V476.9L322.756 479.5H317.256L316.156 476.2L318.196 476.9H320.956L321.756 476.5L322.156 475.7V474.4L321.456 473.7L318.456 473L316.557 471.1V468.1L319.156 465.5H324.356L325.356 468.5Z" fill="#B5191D"/>
<path d="M185.2 468.5L183.4 467.9H180.8L180 468.3L179.6 469.1V469.9L180.3 470.6L183.3 471.3L185.2 473.2V476.9L182.6 479.5H177.1L176 476.2L178.04 476.9H180.8L181.6 476.5L182 475.7V474.4L181.3 473.7L178.3 473L176.4 471.1V468.1L179 465.5H184.2L185.2 468.5Z" stroke="white" stroke-width="4" mask="url(#path-5-outside-1_226_1699)"/>
<path d="M191.392 467.1V470.5L191.292 470.8L195.392 466.7L195.792 465.5H199.492L199.691 465.7L195.492 469.9L198.292 477.6L199.392 479.5H195.191L194.992 477.7L193.191 472.3H192.892L191.592 473.6L191.392 474V477.9L191.792 479.5H187.992L188.392 477.9V467.1L187.992 465.5H191.792L191.392 467.1Z" stroke="white" stroke-width="4" mask="url(#path-5-outside-1_226_1699)"/>
<path d="M204.595 467.1V477.9L204.995 479.5H201.195L201.595 477.9V467.1L201.195 465.5H204.995L204.595 467.1Z" stroke="white" stroke-width="4" mask="url(#path-5-outside-1_226_1699)"/>
<path d="M211.587 467.5V476.6L211.887 476.9H214.987L217.087 476.2L215.987 479.5H208.188L208.587 477.9V467.1L208.188 465.5H212.087L211.587 467.5Z" stroke="white" stroke-width="4" mask="url(#path-5-outside-1_226_1699)"/>
<path d="M221.587 467.5V476.6L221.887 476.9H224.987L227.087 476.2L225.987 479.5H218.188L218.587 477.9V467.1L218.188 465.5H222.087L221.587 467.5Z" stroke="white" stroke-width="4" mask="url(#path-5-outside-1_226_1699)"/>
<path d="M236.587 468.5L234.787 467.9H232.187L231.387 468.3L230.986 469.1V469.9L231.687 470.6L234.687 471.3L236.587 473.2V476.9L233.986 479.5H228.486L227.387 476.2L229.427 476.9H232.187L232.986 476.5L233.387 475.7V474.4L232.687 473.7L229.687 473L227.787 471.1V468.1L230.387 465.5H235.587L236.587 468.5Z" stroke="white" stroke-width="4" mask="url(#path-5-outside-1_226_1699)"/>
<path fill-rule="evenodd" clip-rule="evenodd" d="M253.278 468.4L251.278 467.7H248.479L248.278 467.9L251.479 474.3L252.078 473.1L252.378 471.7H255.178L255.378 471.9L252.479 476.3L253.078 477.5L255.078 479.5H251.979L250.778 478.3L249.578 479.5H245.979L243.578 477.1V473.5L246.578 470.5L245.078 467.5L247.078 465.5H252.278L253.278 468.4ZM246.979 473.5L246.578 474.3V475.9L246.979 476.7L247.778 477.1H248.778L249.378 476.8L249.678 476.5L247.778 472.7L246.979 473.5Z" stroke="white" stroke-width="4" mask="url(#path-5-outside-1_226_1699)"/>
<path d="M271.671 468.8L269.571 468.1H267.771L267.571 468.3V477.7L268.171 479.5H263.972L264.571 477.7V468.3L264.371 468.1H262.571L260.472 468.8L261.571 465.5H270.571L271.671 468.8Z" stroke="white" stroke-width="4" mask="url(#path-5-outside-1_226_1699)"/>
<path fill-rule="evenodd" clip-rule="evenodd" d="M283.768 467.9V471.3L281.567 473.5L283.067 477.6L284.168 479.5H280.367L278.668 474.3L278.268 474.1H276.768L276.567 474.3V477.9L276.968 479.5H273.168L273.567 477.9V467.1L273.168 465.5H281.367L283.768 467.9ZM276.567 468.1V471.5L276.768 471.7H279.168L280.168 471.2L280.567 470.4V469.2L280.168 468.4L279.168 467.9H276.768L276.567 468.1Z" stroke="white" stroke-width="4" mask="url(#path-5-outside-1_226_1699)"/>
<path fill-rule="evenodd" clip-rule="evenodd" d="M293.565 466.8L296.565 477.9L297.366 479.5H293.266L293.466 477.9L293.065 476.3L292.866 476.1H289.065L288.866 476.3L288.466 477.9L288.666 479.5H284.966L285.766 477.9L288.766 466.8L288.466 465.5H293.866L293.565 466.8ZM290.866 468.1L289.565 473.5L289.766 473.7H292.166L292.366 473.5L291.065 468.1L290.966 467.5L290.866 468.1Z" stroke="white" stroke-width="4" mask="url(#path-5-outside-1_226_1699)"/>
<path d="M302.368 467.1V477.9L302.769 479.5H298.969L299.368 477.9V467.1L298.969 465.5H302.769L302.368 467.1Z" stroke="white" stroke-width="4" mask="url(#path-5-outside-1_226_1699)"/>
<path d="M315.46 468.8L313.36 468.1H311.561L311.36 468.3V477.7L311.96 479.5H307.761L308.36 477.7V468.3L308.16 468.1H306.36L304.261 468.8L305.36 465.5H314.36L315.46 468.8Z" stroke="white" stroke-width="4" mask="url(#path-5-outside-1_226_1699)"/>
<path d="M325.356 468.5L323.557 467.9H320.956L320.156 468.3L319.756 469.1V469.9L320.456 470.6L323.456 471.3L325.356 473.2V476.9L322.756 479.5H317.256L316.156 476.2L318.196 476.9H320.956L321.756 476.5L322.156 475.7V474.4L321.456 473.7L318.456 473L316.557 471.1V468.1L319.156 465.5H324.356L325.356 468.5Z" stroke="white" stroke-width="4" mask="url(#path-5-outside-1_226_1699)"/>
<path d="M163 587L530 590.5L163 594V587Z" fill="#0E457D"/>
<mask id="path-7-outside-2_226_1699" maskUnits="userSpaceOnUse" x="173" y="581.5" width="215" height="18" fill="black">
<rect fill="white" x="173" y="581.5" width="215" height="18"/>
<path fill-rule="evenodd" clip-rule="evenodd" d="M186.6 585.9V589.5L183.8 592.3H179.6L179.4 592.5V595.5L179.9 597.5H176L176.4 595.9V585.1L176 583.5H184.2L186.6 585.9ZM179.4 586.1V589.5L179.6 589.7H182L183 589.2L183.4 588.4V587.2L183 586.4L182 585.9H179.6L179.4 586.1Z"/>
<path d="M191.998 585.5V594.6L192.298 594.9H195.397L197.498 594.2L196.397 597.5H188.598L188.998 595.9V585.1L188.598 583.5H192.498L191.998 585.5Z"/>
<path fill-rule="evenodd" clip-rule="evenodd" d="M205.598 584.8L208.598 595.9L209.397 597.5H205.298L205.498 595.9L205.098 594.3L204.897 594.1H201.098L200.897 594.3L200.498 595.9L200.697 597.5H196.998L197.798 595.9L200.798 584.8L200.498 583.5H205.897L205.598 584.8ZM202.897 586.1L201.598 591.5L201.798 591.7H204.197L204.397 591.5L203.098 586.1L202.998 585.5L202.897 586.1Z"/>
<path d="M212.31 584.9L214.209 588.7L214.31 589.1L214.409 588.7L216.31 584.9L216.51 583.5H220.209L219.109 585.1L215.81 591.8V595.7L216.409 597.5H212.209L212.81 595.7V592L209.209 585.1L208.109 583.5H212.109L212.31 584.9Z"/>
<path d="M230 586.5L228.2 585.9H224.6L224.4 586.1V588.5L224.6 588.7H226.3L227.8 588.2V591.6L226.3 591.1H224.6L224.4 591.3V594.6L224.7 594.9H228.2L230.3 594.2L229.2 597.5H221L221.4 595.9V585.1L221 583.5H229L230 586.5Z"/>
<path fill-rule="evenodd" clip-rule="evenodd" d="M242.596 585.9V589.3L240.396 591.5L241.896 595.6L242.996 597.5H239.196L237.496 592.3L237.096 592.1H235.596L235.396 592.3V595.9L235.796 597.5H231.996L232.396 595.9V585.1L231.996 583.5H240.196L242.596 585.9ZM235.396 586.1V589.5L235.596 589.7H237.996L238.996 589.2L239.396 588.4V587.2L238.996 586.4L237.996 585.9H235.596L235.396 586.1Z"/>
<path fill-rule="evenodd" clip-rule="evenodd" d="M260.994 586.3V594.7L258.194 597.5H250.395L250.795 595.9V585.1L250.395 583.5H258.194L260.994 586.3ZM253.895 586.1V594.6L254.194 594.9H256.295L257.295 594.4L257.795 593.4V587.4L257.295 586.4L256.295 585.9H254.095L253.895 586.1Z"/>
<path d="M273.203 586.5L271.403 585.9H267.803L267.604 586.1V588.5L267.803 588.7H269.503L271.003 588.2V591.6L269.503 591.1H267.803L267.604 591.3V594.6L267.903 594.9H271.403L273.503 594.2L272.403 597.5H264.203L264.604 595.9V585.1L264.203 583.5H272.203L273.203 586.5Z"/>
<path d="M277.199 585.1L279.199 592.3L279.3 593.1L279.399 592.3L281.399 585.1L281.199 583.5H285.1L284.3 585.1L280.499 597.5H277.899L274.1 585.1L273.3 583.5H277.399L277.199 585.1Z"/>
<path d="M295.391 586.5L293.591 585.9H289.99L289.791 586.1V588.5L289.99 588.7H291.69L293.19 588.2V591.6L291.69 591.1H289.99L289.791 591.3V594.6L290.091 594.9H293.591L295.69 594.2L294.591 597.5H286.391L286.791 595.9V585.1L286.391 583.5H294.391L295.391 586.5Z"/>
<path d="M300.787 585.5V594.6L301.087 594.9H304.187L306.287 594.2L305.187 597.5H297.387L297.787 595.9V585.1L297.387 583.5H301.287L300.787 585.5Z"/>
<path fill-rule="evenodd" clip-rule="evenodd" d="M317.787 586.1V594.9L315.187 597.5H309.986L307.387 594.9V586.1L309.986 583.5H315.187L317.787 586.1ZM310.986 586.3L310.587 587.1V593.7L310.986 594.5L311.787 594.9H313.387L314.187 594.5L314.587 593.7V587.1L314.187 586.3L313.387 585.9H311.787L310.986 586.3Z"/>
<path fill-rule="evenodd" clip-rule="evenodd" d="M331.58 585.9V589.5L328.78 592.3H324.58L324.381 592.5V595.5L324.881 597.5H320.98L321.381 595.9V585.1L320.98 583.5H329.181L331.58 585.9ZM324.381 586.1V589.5L324.58 589.7H326.98L327.98 589.2L328.381 588.4V587.2L327.98 586.4L326.98 585.9H324.58L324.381 586.1Z"/>
<path d="M340.278 589.84L340.378 590.3L340.479 589.84L343.278 583.5H347.178L346.778 585.1V595.9L347.178 597.5H343.479L343.878 595.9V588.7L343.979 587.9L343.678 588.7L340.278 596.5H340.178L336.778 588.7L336.479 587.9L336.578 588.7V595.9L336.979 597.5H333.578L333.979 595.9V585.1L333.578 583.5H337.479L340.278 589.84Z"/>
<path d="M359.375 586.5L357.575 585.9H353.975L353.775 586.1V588.5L353.975 588.7H355.675L357.175 588.2V591.6L355.675 591.1H353.975L353.775 591.3V594.6L354.075 594.9H357.575L359.675 594.2L358.575 597.5H350.375L350.775 595.9V585.1L350.375 583.5H358.375L359.375 586.5Z"/>
<path d="M368.671 590.5L369.071 591.5L368.971 590.5V585.1L368.571 583.5H371.971L371.571 585.1V597.5H368.971L364.671 588.9L364.271 587.9L364.371 588.9V595.9L364.771 597.5H361.371L361.771 595.9V585.1L361.271 583.5H365.171L368.671 590.5Z"/>
<path d="M384.68 586.8L382.579 586.1H380.779L380.579 586.3V595.7L381.18 597.5H376.979L377.579 595.7V586.3L377.38 586.1H375.579L373.479 586.8L374.579 583.5H383.579L384.68 586.8Z"/>
</mask>
<path fill-rule="evenodd" clip-rule="evenodd" d="M186.6 585.9V589.5L183.8 592.3H179.6L179.4 592.5V595.5L179.9 597.5H176L176.4 595.9V585.1L176 583.5H184.2L186.6 585.9ZM179.4 586.1V589.5L179.6 589.7H182L183 589.2L183.4 588.4V587.2L183 586.4L182 585.9H179.6L179.4 586.1Z" fill="#B5191D"/>
<path d="M191.998 585.5V594.6L192.298 594.9H195.397L197.498 594.2L196.397 597.5H188.598L188.998 595.9V585.1L188.598 583.5H192.498L191.998 585.5Z" fill="#B5191D"/>
<path fill-rule="evenodd" clip-rule="evenodd" d="M205.598 584.8L208.598 595.9L209.397 597.5H205.298L205.498 595.9L205.098 594.3L204.897 594.1H201.098L200.897 594.3L200.498 595.9L200.697 597.5H196.998L197.798 595.9L200.798 584.8L200.498 583.5H205.897L205.598 584.8ZM202.897 586.1L201.598 591.5L201.798 591.7H204.197L204.397 591.5L203.098 586.1L202.998 585.5L202.897 586.1Z" fill="#B5191D"/>
<path d="M212.31 584.9L214.209 588.7L214.31 589.1L214.409 588.7L216.31 584.9L216.51 583.5H220.209L219.109 585.1L215.81 591.8V595.7L216.409 597.5H212.209L212.81 595.7V592L209.209 585.1L208.109 583.5H212.109L212.31 584.9Z" fill="#B5191D"/>
<path d="M230 586.5L228.2 585.9H224.6L224.4 586.1V588.5L224.6 588.7H226.3L227.8 588.2V591.6L226.3 591.1H224.6L224.4 591.3V594.6L224.7 594.9H228.2L230.3 594.2L229.2 597.5H221L221.4 595.9V585.1L221 583.5H229L230 586.5Z" fill="#B5191D"/>
<path fill-rule="evenodd" clip-rule="evenodd" d="M242.596 585.9V589.3L240.396 591.5L241.896 595.6L242.996 597.5H239.196L237.496 592.3L237.096 592.1H235.596L235.396 592.3V595.9L235.796 597.5H231.996L232.396 595.9V585.1L231.996 583.5H240.196L242.596 585.9ZM235.396 586.1V589.5L235.596 589.7H237.996L238.996 589.2L239.396 588.4V587.2L238.996 586.4L237.996 585.9H235.596L235.396 586.1Z" fill="#B5191D"/>
<path fill-rule="evenodd" clip-rule="evenodd" d="M260.994 586.3V594.7L258.194 597.5H250.395L250.795 595.9V585.1L250.395 583.5H258.194L260.994 586.3ZM253.895 586.1V594.6L254.194 594.9H256.295L257.295 594.4L257.795 593.4V587.4L257.295 586.4L256.295 585.9H254.095L253.895 586.1Z" fill="#B5191D"/>
<path d="M273.203 586.5L271.403 585.9H267.803L267.604 586.1V588.5L267.803 588.7H269.503L271.003 588.2V591.6L269.503 591.1H267.803L267.604 591.3V594.6L267.903 594.9H271.403L273.503 594.2L272.403 597.5H264.203L264.604 595.9V585.1L264.203 583.5H272.203L273.203 586.5Z" fill="#B5191D"/>
<path d="M277.199 585.1L279.199 592.3L279.3 593.1L279.399 592.3L281.399 585.1L281.199 583.5H285.1L284.3 585.1L280.499 597.5H277.899L274.1 585.1L273.3 583.5H277.399L277.199 585.1Z" fill="#B5191D"/>
<path d="M295.391 586.5L293.591 585.9H289.99L289.791 586.1V588.5L289.99 588.7H291.69L293.19 588.2V591.6L291.69 591.1H289.99L289.791 591.3V594.6L290.091 594.9H293.591L295.69 594.2L294.591 597.5H286.391L286.791 595.9V585.1L286.391 583.5H294.391L295.391 586.5Z" fill="#B5191D"/>
<path d="M300.787 585.5V594.6L301.087 594.9H304.187L306.287 594.2L305.187 597.5H297.387L297.787 595.9V585.1L297.387 583.5H301.287L300.787 585.5Z" fill="#B5191D"/>
<path fill-rule="evenodd" clip-rule="evenodd" d="M317.787 586.1V594.9L315.187 597.5H309.986L307.387 594.9V586.1L309.986 583.5H315.187L317.787 586.1ZM310.986 586.3L310.587 587.1V593.7L310.986 594.5L311.787 594.9H313.387L314.187 594.5L314.587 593.7V587.1L314.187 586.3L313.387 585.9H311.787L310.986 586.3Z" fill="#B5191D"/>
<path fill-rule="evenodd" clip-rule="evenodd" d="M331.58 585.9V589.5L328.78 592.3H324.58L324.381 592.5V595.5L324.881 597.5H320.98L321.381 595.9V585.1L320.98 583.5H329.181L331.58 585.9ZM324.381 586.1V589.5L324.58 589.7H326.98L327.98 589.2L328.381 588.4V587.2L327.98 586.4L326.98 585.9H324.58L324.381 586.1Z" fill="#B5191D"/>
<path d="M340.278 589.84L340.378 590.3L340.479 589.84L343.278 583.5H347.178L346.778 585.1V595.9L347.178 597.5H343.479L343.878 595.9V588.7L343.979 587.9L343.678 588.7L340.278 596.5H340.178L336.778 588.7L336.479 587.9L336.578 588.7V595.9L336.979 597.5H333.578L333.979 595.9V585.1L333.578 583.5H337.479L340.278 589.84Z" fill="#B5191D"/>
<path d="M359.375 586.5L357.575 585.9H353.975L353.775 586.1V588.5L353.975 588.7H355.675L357.175 588.2V591.6L355.675 591.1H353.975L353.775 591.3V594.6L354.075 594.9H357.575L359.675 594.2L358.575 597.5H350.375L350.775 595.9V585.1L350.375 583.5H358.375L359.375 586.5Z" fill="#B5191D"/>
<path d="M368.671 590.5L369.071 591.5L368.971 590.5V585.1L368.571 583.5H371.971L371.571 585.1V597.5H368.971L364.671 588.9L364.271 587.9L364.371 588.9V595.9L364.771 597.5H361.371L361.771 595.9V585.1L361.271 583.5H365.171L368.671 590.5Z" fill="#B5191D"/>
<path d="M384.68 586.8L382.579 586.1H380.779L380.579 586.3V595.7L381.18 597.5H376.979L377.579 595.7V586.3L377.38 586.1H375.579L373.479 586.8L374.579 583.5H383.579L384.68 586.8Z" fill="#B5191D"/>
<path fill-rule="evenodd" clip-rule="evenodd" d="M186.6 585.9V589.5L183.8 592.3H179.6L179.4 592.5V595.5L179.9 597.5H176L176.4 595.9V585.1L176 583.5H184.2L186.6 585.9ZM179.4 586.1V589.5L179.6 589.7H182L183 589.2L183.4 588.4V587.2L183 586.4L182 585.9H179.6L179.4 586.1Z" stroke="white" stroke-width="4" mask="url(#path-7-outside-2_226_1699)"/>
<path d="M191.998 585.5V594.6L192.298 594.9H195.397L197.498 594.2L196.397 597.5H188.598L188.998 595.9V585.1L188.598 583.5H192.498L191.998 585.5Z" stroke="white" stroke-width="4" mask="url(#path-7-outside-2_226_1699)"/>
<path fill-rule="evenodd" clip-rule="evenodd" d="M205.598 584.8L208.598 595.9L209.397 597.5H205.298L205.498 595.9L205.098 594.3L204.897 594.1H201.098L200.897 594.3L200.498 595.9L200.697 597.5H196.998L197.798 595.9L200.798 584.8L200.498 583.5H205.897L205.598 584.8ZM202.897 586.1L201.598 591.5L201.798 591.7H204.197L204.397 591.5L203.098 586.1L202.998 585.5L202.897 586.1Z" stroke="white" stroke-width="4" mask="url(#path-7-outside-2_226_1699)"/>
<path d="M212.31 584.9L214.209 588.7L214.31 589.1L214.409 588.7L216.31 584.9L216.51 583.5H220.209L219.109 585.1L215.81 591.8V595.7L216.409 597.5H212.209L212.81 595.7V592L209.209 585.1L208.109 583.5H212.109L212.31 584.9Z" stroke="white" stroke-width="4" mask="url(#path-7-outside-2_226_1699)"/>
<path d="M230 586.5L228.2 585.9H224.6L224.4 586.1V588.5L224.6 588.7H226.3L227.8 588.2V591.6L226.3 591.1H224.6L224.4 591.3V594.6L224.7 594.9H228.2L230.3 594.2L229.2 597.5H221L221.4 595.9V585.1L221 583.5H229L230 586.5Z" stroke="white" stroke-width="4" mask="url(#path-7-outside-2_226_1699)"/>
<path fill-rule="evenodd" clip-rule="evenodd" d="M242.596 585.9V589.3L240.396 591.5L241.896 595.6L242.996 597.5H239.196L237.496 592.3L237.096 592.1H235.596L235.396 592.3V595.9L235.796 597.5H231.996L232.396 595.9V585.1L231.996 583.5H240.196L242.596 585.9ZM235.396 586.1V589.5L235.596 589.7H237.996L238.996 589.2L239.396 588.4V587.2L238.996 586.4L237.996 585.9H235.596L235.396 586.1Z" stroke="white" stroke-width="4" mask="url(#path-7-outside-2_226_1699)"/>
<path fill-rule="evenodd" clip-rule="evenodd" d="M260.994 586.3V594.7L258.194 597.5H250.395L250.795 595.9V585.1L250.395 583.5H258.194L260.994 586.3ZM253.895 586.1V594.6L254.194 594.9H256.295L257.295 594.4L257.795 593.4V587.4L257.295 586.4L256.295 585.9H254.095L253.895 586.1Z" stroke="white" stroke-width="4" mask="url(#path-7-outside-2_226_1699)"/>
<path d="M273.203 586.5L271.403 585.9H267.803L267.604 586.1V588.5L267.803 588.7H269.503L271.003 588.2V591.6L269.503 591.1H267.803L267.604 591.3V594.6L267.903 594.9H271.403L273.503 594.2L272.403 597.5H264.203L264.604 595.9V585.1L264.203 583.5H272.203L273.203 586.5Z" stroke="white" stroke-width="4" mask="url(#path-7-outside-2_226_1699)"/>
<path d="M277.199 585.1L279.199 592.3L279.3 593.1L279.399 592.3L281.399 585.1L281.199 583.5H285.1L284.3 585.1L280.499 597.5H277.899L274.1 585.1L273.3 583.5H277.399L277.199 585.1Z" stroke="white" stroke-width="4" mask="url(#path-7-outside-2_226_1699)"/>
<path d="M295.391 586.5L293.591 585.9H289.99L289.791 586.1V588.5L289.99 588.7H291.69L293.19 588.2V591.6L291.69 591.1H289.99L289.791 591.3V594.6L290.091 594.9H293.591L295.69 594.2L294.591 597.5H286.391L286.791 595.9V585.1L286.391 583.5H294.391L295.391 586.5Z" stroke="white" stroke-width="4" mask="url(#path-7-outside-2_226_1699)"/>
<path d="M300.787 585.5V594.6L301.087 594.9H304.187L306.287 594.2L305.187 597.5H297.387L297.787 595.9V585.1L297.387 583.5H301.287L300.787 585.5Z" stroke="white" stroke-width="4" mask="url(#path-7-outside-2_226_1699)"/>
<path fill-rule="evenodd" clip-rule="evenodd" d="M317.787 586.1V594.9L315.187 597.5H309.986L307.387 594.9V586.1L309.986 583.5H315.187L317.787 586.1ZM310.986 586.3L310.587 587.1V593.7L310.986 594.5L311.787 594.9H313.387L314.187 594.5L314.587 593.7V587.1L314.187 586.3L313.387 585.9H311.787L310.986 586.3Z" stroke="white" stroke-width="4" mask="url(#path-7-outside-2_226_1699)"/>
<path fill-rule="evenodd" clip-rule="evenodd" d="M331.58 585.9V589.5L328.78 592.3H324.58L324.381 592.5V595.5L324.881 597.5H320.98L321.381 595.9V585.1L320.98 583.5H329.181L331.58 585.9ZM324.381 586.1V589.5L324.58 589.7H326.98L327.98 589.2L328.381 588.4V587.2L327.98 586.4L326.98 585.9H324.58L324.381 586.1Z" stroke="white" stroke-width="4" mask="url(#path-7-outside-2_226_1699)"/>
<path d="M340.278 589.84L340.378 590.3L340.479 589.84L343.278 583.5H347.178L346.778 585.1V595.9L347.178 597.5H343.479L343.878 595.9V588.7L343.979 587.9L343.678 588.7L340.278 596.5H340.178L336.778 588.7L336.479 587.9L336.578 588.7V595.9L336.979 597.5H333.578L333.979 595.9V585.1L333.578 583.5H337.479L340.278 589.84Z" stroke="white" stroke-width="4" mask="url(#path-7-outside-2_226_1699)"/>
<path d="M359.375 586.5L357.575 585.9H353.975L353.775 586.1V588.5L353.975 588.7H355.675L357.175 588.2V591.6L355.675 591.1H353.975L353.775 591.3V594.6L354.075 594.9H357.575L359.675 594.2L358.575 597.5H350.375L350.775 595.9V585.1L350.375 583.5H358.375L359.375 586.5Z" stroke="white" stroke-width="4" mask="url(#path-7-outside-2_226_1699)"/>
<path d="M368.671 590.5L369.071 591.5L368.971 590.5V585.1L368.571 583.5H371.971L371.571 585.1V597.5H368.971L364.671 588.9L364.271 587.9L364.371 588.9V595.9L364.771 597.5H361.371L361.771 595.9V585.1L361.271 583.5H365.171L368.671 590.5Z" stroke="white" stroke-width="4" mask="url(#path-7-outside-2_226_1699)"/>
<path d="M384.68 586.8L382.579 586.1H380.779L380.579 586.3V595.7L381.18 597.5H376.979L377.579 595.7V586.3L377.38 586.1H375.579L373.479 586.8L374.579 583.5H383.579L384.68 586.8Z" stroke="white" stroke-width="4" mask="url(#path-7-outside-2_226_1699)"/>
</g>
<rect x="25" y="26" width="503" height="726" rx="34" stroke="white" stroke-width="4"/>
<g filter="url(#filter1_di_226_1699)">
<path d="M157 223L0 240V0H157V223Z" fill="#B5191D"/>
</g>
<rect width="50" height="45" transform="translate(0 168)" fill="#0E457D"/>
<path d="M31 190.5L31 186.8L32.6 187.2L39.8 187.2L40.6 187.3L39.8 187L32 183.6L32 183.5L39.8 180.1L40.6 179.8L39.8 179.9L32.6 179.9L31 180.3L31 176.9L32.6 177.3L43.4 177.3L45 176.9L45 180.8L38.66 183.6L38.2 183.7L38.66 183.8L45 186.6L45 190.5L43.4 190.1L32.6 190.1L31 190.5ZM31 205.697L31 201.597L32.6 201.797L34.2 201.397L34.4 201.197L34.4 197.397L34.2 197.197L32.6 196.797L31 196.997L31 193.297L32.6 194.097L43.7 197.097L45 196.797L45 202.197L43.7 201.897L32.6 204.897L31 205.697ZM37 200.697L42.4 199.397L43 199.297L42.4 199.197L37 197.897L36.8 198.097L36.8 200.497L37 200.697Z" fill="white"/>
<g filter="url(#filter2_di_226_1699)">
<path d="M157 326L0 343V247L157 230V326Z" fill="#B5191D"/>
<rect width="50" height="45" transform="translate(0 268)" fill="#0E457D"/>
<path d="M33.6 288.806L31 286.206L31 280.706L34.3 279.606L33.6 281.646L33.6 284.406L34 285.206L34.8 285.606L36.1 285.606L36.8 284.906L37.5 281.906L39.4 280.006L42.4 280.006L45 282.606L45 287.806L42 288.806L42.6 287.006L42.6 284.406L42.2 283.606L41.4 283.206L40.6 283.206L39.9 283.906L39.2 286.906L37.3 288.806L33.6 288.806ZM41.7 302.298L42.4 300.198L42.4 298.398L42.2 298.198L32.8 298.198L31 298.798L31 294.598L32.8 295.198L42.2 295.198L42.4 294.998L42.4 293.198L41.7 291.098L45 292.198L45 301.198L41.7 302.298Z" fill="white"/>
</g>
<g filter="url(#filter3_di_226_1699)">
<path d="M157 429L0 446V350L157 333V429Z" fill="#B5191D"/>
<rect width="50" height="45" transform="translate(0 371)" fill="#0E457D"/>
<path d="M31 392.702L31 388.602L32.6 388.802L34.2 388.402L34.4 388.202L34.4 384.402L34.2 384.202L32.6 383.802L31 384.002L31 380.302L32.6 381.102L43.7 384.102L45 383.802L45 389.202L43.7 388.902L32.6 391.902L31 392.702ZM37 387.702L42.4 386.402L43 386.302L42.4 386.202L37 384.902L36.8 385.102L36.8 387.502L37 387.702ZM38.6 406.105L37.4 405.505L34.8 405.505L33.6 405.705L31 403.105L31 398.105L33.6 395.505L42.2 395.505L45 398.305L45 403.905L41.7 405.005L42.4 402.945L42.4 400.205L41.9 399.205L40.9 398.705L34.8 398.705L34 399.105L33.6 399.905L33.6 401.905L34.2 402.505L37 402.505L38.6 401.705L38.6 406.105Z" fill="white"/>
</g>
<g filter="url(#filter4_di_226_1699)">
<path d="M157 532L0 549V453L157 436V532Z" fill="#B5191D"/>
<rect width="50" height="45" transform="translate(0 474)" fill="#0E457D"/>
<path d="M39 495.903L36.2 493.103L36.2 488.903L36 488.703L33 488.703L31 489.203L31 485.303L32.6 485.703L43.4 485.703L45 485.303L45 493.503L42.6 495.903L39 495.903ZM40.1 492.703L41.3 492.703L42.1 492.303L42.6 491.303L42.6 488.903L42.4 488.703L39 488.703L38.8 488.903L38.8 491.303L39.3 492.303L40.1 492.703ZM31 509.295L31 505.195L32.6 505.395L34.2 504.995L34.4 504.795L34.4 500.995L34.2 500.795L32.6 500.395L31 500.595L31 496.895L32.6 497.695L43.7 500.695L45 500.395L45 505.795L43.7 505.495L32.6 508.495L31 509.295ZM37 504.295L42.4 502.995L43 502.895L42.4 502.795L37 501.495L36.8 501.695L36.8 504.095L37 504.295Z" fill="white"/>
</g>
<g filter="url(#filter5_di_226_1699)">
<path d="M157 635L0 652V556L157 539V635Z" fill="#B5191D"/>
<rect width="50" height="45" transform="translate(0 577)" fill="#0E457D"/>
<path d="M31 599.503L31 595.403L32.6 595.603L34.2 595.203L34.4 595.003L34.4 591.203L34.2 591.003L32.6 590.603L31 590.803L31 587.103L32.6 587.903L43.7 590.903L45 590.603L45 596.003L43.7 595.703L32.6 598.703L31 599.503ZM37 594.503L42.4 593.203L43 593.103L42.4 593.003L37 591.703L36.8 591.903L36.8 594.303L37 594.503ZM45 612.205L43.4 611.405L31 607.605L31 605.005L43.4 601.205L45 600.405L45 604.505L43.4 604.305L36.2 606.305L35.4 606.405L36.2 606.505L43.4 608.505L45 608.305L45 612.205Z" fill="white"/>
</g>
<path d="M81.9961 655C92.9264 655 102.772 657.544 109.874 660.078C113.428 661.346 116.303 662.615 118.293 663.568C119.288 664.045 120.062 664.444 120.59 664.725C120.854 664.865 121.056 664.975 121.193 665.052C121.262 665.09 121.316 665.12 121.352 665.141C121.369 665.151 121.383 665.159 121.393 665.164C121.397 665.167 121.402 665.169 121.404 665.171C121.405 665.172 121.406 665.172 121.407 665.173H121.408L121.409 665.174L121.896 665.455L121.908 666.018V666.019V666.038C121.908 666.051 121.909 666.071 121.909 666.097C121.91 666.149 121.912 666.227 121.914 666.328C121.918 666.531 121.924 666.83 121.93 667.216C121.942 667.987 121.957 669.105 121.971 670.492C121.998 673.267 122.016 677.12 121.98 681.436C121.909 690.054 121.622 700.563 120.757 707.999C119.594 717.984 111.697 726.482 103.387 732.42C99.2063 735.407 94.8626 737.79 91.0879 739.43C87.3558 741.05 84.0541 742 81.9961 742C79.9008 742 76.7516 741.003 73.2461 739.336C69.6978 737.648 65.6521 735.21 61.7256 732.188C53.9072 726.17 46.3871 717.704 44.3936 708.086C42.8499 700.639 42.2774 690.097 42.0859 681.471C41.99 677.146 41.9892 673.283 42.0127 670.501C42.0245 669.11 42.0428 667.989 42.0576 667.215C42.065 666.828 42.0713 666.527 42.0762 666.323C42.0786 666.222 42.0807 666.144 42.082 666.092C42.0827 666.066 42.0836 666.046 42.084 666.032V666.012V666.011L42.0996 665.453L42.583 665.174L43.084 666.039C42.5832 665.174 42.5836 665.173 42.584 665.173H42.585C42.5858 665.172 42.5867 665.172 42.5879 665.171C42.5906 665.169 42.5948 665.167 42.5996 665.164C42.6092 665.159 42.6229 665.151 42.6406 665.141C42.6766 665.12 42.7291 665.09 42.7979 665.052C42.9354 664.975 43.1384 664.865 43.4023 664.725C43.9302 664.444 44.7043 664.045 45.6992 663.568C47.689 662.615 50.5642 661.346 54.1182 660.078C61.2203 657.544 71.0658 655 81.9961 655Z" fill="#AE171E" stroke="white" stroke-width="2"/>
<path d="M82 659C91.5902 659 100.222 661.543 106.441 664.073C109.555 665.34 112.073 666.607 113.816 667.56C114.688 668.036 115.367 668.434 115.83 668.715C116.062 668.855 116.239 668.966 116.36 669.043C116.421 669.081 116.467 669.111 116.499 669.132C116.515 669.142 116.528 669.15 116.536 669.155C116.54 669.158 116.543 669.161 116.546 669.162C116.547 669.163 116.548 669.164 116.549 669.164L116.55 669.165C116.548 669.168 116.519 669.214 116.014 669.979L116.551 669.165L116.988 669.454L117 669.979V669.979V669.997C117 670.009 117.001 670.026 117.001 670.048C117.002 670.093 117.003 670.161 117.005 670.25C117.008 670.427 117.013 670.688 117.019 671.025C117.029 671.7 117.043 672.677 117.055 673.892C117.078 676.32 117.094 679.698 117.062 683.495C117 691.077 116.75 700.372 115.993 707.111C114.974 716.185 108.053 723.904 100.778 729.294C97.1181 732.006 93.3133 734.169 90.0059 735.658C86.7431 737.127 83.8335 738 82 738C80.1312 738 77.3532 737.083 74.2881 735.571C71.1784 734.038 67.6355 731.824 64.1982 729.081C57.3545 723.62 50.7663 715.933 49.0195 707.196C47.6698 700.445 47.1693 691.119 47.002 683.528C46.9181 679.723 46.9179 676.336 46.9385 673.9C46.9488 672.682 46.9636 671.701 46.9766 671.024C46.983 670.686 46.9889 670.423 46.9932 670.245C46.9953 670.156 46.9969 670.088 46.998 670.042C46.9986 670.019 46.9997 670.002 47 669.99V669.973V669.972L47.0146 669.452L47.4492 669.165L48 670C47.4873 669.223 47.4523 669.169 47.4502 669.165L47.4512 669.164C47.4519 669.164 47.453 669.163 47.4541 669.162C47.4566 669.161 47.4597 669.158 47.4639 669.155C47.4725 669.15 47.4851 669.142 47.501 669.132C47.5328 669.111 47.5791 669.081 47.6396 669.043C47.7607 668.966 47.9384 668.855 48.1699 668.715C48.633 668.434 49.3118 668.036 50.1836 667.56C51.9267 666.607 54.4447 665.34 57.5576 664.073C63.777 661.543 72.4095 659 82 659Z" stroke="white" stroke-width="2"/>
<path d="M82 724L83.4283 726.534L86.2798 727.109L84.3111 729.251L84.645 732.141L82 730.93L79.355 732.141L79.6889 729.251L77.7202 727.109L80.5717 726.534L82 724Z" fill="white"/>
<path d="M80.02 676.84L79.06 678.76V682.92L79.38 684.84L75.22 689H67.22L63.06 684.84V671.08L67.54 666.6H76.5L78.26 671.88L74.964 670.76H70.58L68.98 671.56L68.18 673.16V682.92L68.82 684.2L70.1 684.84H73.3L74.26 683.88V679.4L72.98 676.84H80.02ZM100.489 676.2L96.0088 680.68H89.2888L88.9688 681V685.8L89.7688 689H83.5288L84.1688 686.44V669.16L83.5288 666.6H96.6488L100.489 670.44V676.2ZM95.3688 674.44V672.52L94.7288 671.24L93.1288 670.44H89.2888L88.9688 670.76V676.2L89.2888 676.52H93.1288L94.7288 675.72L95.3688 674.44Z" fill="white"/>
<path d="M55 674L56.4283 676.534L59.2798 677.109L57.3111 679.251L57.645 682.141L55 680.93L52.355 682.141L52.6889 679.251L50.7202 677.109L53.5717 676.534L55 674Z" fill="white"/>
<path d="M109 674L110.428 676.534L113.28 677.109L111.311 679.251L111.645 682.141L109 680.93L106.355 682.141L106.689 679.251L104.72 677.109L107.572 676.534L109 674Z" fill="white"/>
<path d="M146 692.5C146.193 692.5 146.369 692.611 146.452 692.786C146.535 692.961 146.509 693.168 146.387 693.317L135.146 707L146.387 720.683C146.509 720.832 146.535 721.039 146.452 721.214C146.369 721.389 146.193 721.5 146 721.5H18C17.8067 721.5 17.6305 721.389 17.5479 721.214C17.4652 721.039 17.4907 720.832 17.6133 720.683L28.8525 707L17.6133 693.317C17.4907 693.168 17.4652 692.961 17.5479 692.786C17.6305 692.611 17.8067 692.5 18 692.5H146Z" fill="#0E457D" stroke="white" stroke-linejoin="round"/>
<defs>
<filter id="filter0_d_226_1699" x="153" y="457" width="383" height="229" filterUnits="userSpaceOnUse" color-interpolation-filters="sRGB">
<feFlood flood-opacity="0" result="BackgroundImageFix"/>
<feColorMatrix in="SourceAlpha" type="matrix" values="0 0 0 0 0 0 0 0 0 0 0 0 0 0 0 0 0 0 127 0" result="hardAlpha"/>
<feOffset dx="-2" dy="4"/>
<feGaussianBlur stdDeviation="4"/>
<feComposite in2="hardAlpha" operator="out"/>
<feColorMatrix type="matrix" values="0 0 0 0 0 0 0 0 0 0 0 0 0 0 0 0 0 0 0.25 0"/>
<feBlend mode="normal" in2="BackgroundImageFix" result="effect1_dropShadow_226_1699"/>
<feBlend mode="normal" in="SourceGraphic" in2="effect1_dropShadow_226_1699" result="shape"/>
</filter>
<filter id="filter1_di_226_1699" x="0" y="0" width="159" height="244" filterUnits="userSpaceOnUse" color-interpolation-filters="sRGB">
<feFlood flood-opacity="0" result="BackgroundImageFix"/>
<feColorMatrix in="SourceAlpha" type="matrix" values="0 0 0 0 0 0 0 0 0 0 0 0 0 0 0 0 0 0 127 0" result="hardAlpha"/>
<feOffset dx="2" dy="4"/>
<feComposite in2="hardAlpha" operator="out"/>
<feColorMatrix type="matrix" values="0 0 0 0 0 0 0 0 0 0 0 0 0 0 0 0 0 0 0.25 0"/>
<feBlend mode="normal" in2="BackgroundImageFix" result="effect1_dropShadow_226_1699"/>
<feBlend mode="normal" in="SourceGraphic" in2="effect1_dropShadow_226_1699" result="shape"/>
<feColorMatrix in="SourceAlpha" type="matrix" values="0 0 0 0 0 0 0 0 0 0 0 0 0 0 0 0 0 0 127 0" result="hardAlpha"/>
<feOffset/>
<feGaussianBlur stdDeviation="4"/>
<feComposite in2="hardAlpha" operator="arithmetic" k2="-1" k3="1"/>
<feColorMatrix type="matrix" values="0 0 0 0 0 0 0 0 0 0 0 0 0 0 0 0 0 0 0.25 0"/>
<feBlend mode="normal" in2="shape" result="effect2_innerShadow_226_1699"/>
</filter>
<filter id="filter2_di_226_1699" x="0" y="230" width="159" height="117" filterUnits="userSpaceOnUse" color-interpolation-filters="sRGB">
<feFlood flood-opacity="0" result="BackgroundImageFix"/>
<feColorMatrix in="SourceAlpha" type="matrix" values="0 0 0 0 0 0 0 0 0 0 0 0 0 0 0 0 0 0 127 0" result="hardAlpha"/>
<feOffset dx="2" dy="4"/>
<feComposite in2="hardAlpha" operator="out"/>
<feColorMatrix type="matrix" values="0 0 0 0 0 0 0 0 0 0 0 0 0 0 0 0 0 0 0.25 0"/>
<feBlend mode="normal" in2="BackgroundImageFix" result="effect1_dropShadow_226_1699"/>
<feBlend mode="normal" in="SourceGraphic" in2="effect1_dropShadow_226_1699" result="shape"/>
<feColorMatrix in="SourceAlpha" type="matrix" values="0 0 0 0 0 0 0 0 0 0 0 0 0 0 0 0 0 0 127 0" result="hardAlpha"/>
<feOffset/>
<feGaussianBlur stdDeviation="4"/>
<feComposite in2="hardAlpha" operator="arithmetic" k2="-1" k3="1"/>
<feColorMatrix type="matrix" values="0 0 0 0 0 0 0 0 0 0 0 0 0 0 0 0 0 0 0.25 0"/>
<feBlend mode="normal" in2="shape" result="effect2_innerShadow_226_1699"/>
</filter>
<filter id="filter3_di_226_1699" x="0" y="333" width="159" height="117" filterUnits="userSpaceOnUse" color-interpolation-filters="sRGB">
<feFlood flood-opacity="0" result="BackgroundImageFix"/>
<feColorMatrix in="SourceAlpha" type="matrix" values="0 0 0 0 0 0 0 0 0 0 0 0 0 0 0 0 0 0 127 0" result="hardAlpha"/>
<feOffset dx="2" dy="4"/>
<feComposite in2="hardAlpha" operator="out"/>
<feColorMatrix type="matrix" values="0 0 0 0 0 0 0 0 0 0 0 0 0 0 0 0 0 0 0.25 0"/>
<feBlend mode="normal" in2="BackgroundImageFix" result="effect1_dropShadow_226_1699"/>
<feBlend mode="normal" in="SourceGraphic" in2="effect1_dropShadow_226_1699" result="shape"/>
<feColorMatrix in="SourceAlpha" type="matrix" values="0 0 0 0 0 0 0 0 0 0 0 0 0 0 0 0 0 0 127 0" result="hardAlpha"/>
<feOffset/>
<feGaussianBlur stdDeviation="4"/>
<feComposite in2="hardAlpha" operator="arithmetic" k2="-1" k3="1"/>
<feColorMatrix type="matrix" values="0 0 0 0 0 0 0 0 0 0 0 0 0 0 0 0 0 0 0.25 0"/>
<feBlend mode="normal" in2="shape" result="effect2_innerShadow_226_1699"/>
</filter>
<filter id="filter4_di_226_1699" x="0" y="436" width="159" height="117" filterUnits="userSpaceOnUse" color-interpolation-filters="sRGB">
<feFlood flood-opacity="0" result="BackgroundImageFix"/>
<feColorMatrix in="SourceAlpha" type="matrix" values="0 0 0 0 0 0 0 0 0 0 0 0 0 0 0 0 0 0 127 0" result="hardAlpha"/>
<feOffset dx="2" dy="4"/>
<feComposite in2="hardAlpha" operator="out"/>
<feColorMatrix type="matrix" values="0 0 0 0 0 0 0 0 0 0 0 0 0 0 0 0 0 0 0.25 0"/>
<feBlend mode="normal" in2="BackgroundImageFix" result="effect1_dropShadow_226_1699"/>
<feBlend mode="normal" in="SourceGraphic" in2="effect1_dropShadow_226_1699" result="shape"/>
<feColorMatrix in="SourceAlpha" type="matrix" values="0 0 0 0 0 0 0 0 0 0 0 0 0 0 0 0 0 0 127 0" result="hardAlpha"/>
<feOffset/>
<feGaussianBlur stdDeviation="4"/>
<feComposite in2="hardAlpha" operator="arithmetic" k2="-1" k3="1"/>
<feColorMatrix type="matrix" values="0 0 0 0 0 0 0 0 0 0 0 0 0 0 0 0 0 0 0.25 0"/>
<feBlend mode="normal" in2="shape" result="effect2_innerShadow_226_1699"/>
</filter>
<filter id="filter5_di_226_1699" x="0" y="539" width="159" height="117" filterUnits="userSpaceOnUse" color-interpolation-filters="sRGB">
<feFlood flood-opacity="0" result="BackgroundImageFix"/>
<feColorMatrix in="SourceAlpha" type="matrix" values="0 0 0 0 0 0 0 0 0 0 0 0 0 0 0 0 0 0 127 0" result="hardAlpha"/>
<feOffset dx="2" dy="4"/>
<feComposite in2="hardAlpha" operator="out"/>
<feColorMatrix type="matrix" values="0 0 0 0 0 0 0 0 0 0 0 0 0 0 0 0 0 0 0.25 0"/>
<feBlend mode="normal" in2="BackgroundImageFix" result="effect1_dropShadow_226_1699"/>
<feBlend mode="normal" in="SourceGraphic" in2="effect1_dropShadow_226_1699" result="shape"/>
<feColorMatrix in="SourceAlpha" type="matrix" values="0 0 0 0 0 0 0 0 0 0 0 0 0 0 0 0 0 0 127 0" result="hardAlpha"/>
<feOffset/>
<feGaussianBlur stdDeviation="4"/>
<feComposite in2="hardAlpha" operator="arithmetic" k2="-1" k3="1"/>
<feColorMatrix type="matrix" values="0 0 0 0 0 0 0 0 0 0 0 0 0 0 0 0 0 0 0.25 0"/>
<feBlend mode="normal" in2="shape" result="effect2_innerShadow_226_1699"/>
</filter>
</defs>
</svg>
