<svg width="1109" height="832" viewBox="0 0 1109 832" fill="none" xmlns="http://www.w3.org/2000/svg">
<path d="M493.242 130.927C459.809 146.146 442.586 185.464 438.153 203.22C424.223 164.537 397.501 80.322 402.06 52.9269C390.662 79.561 388.763 201.317 421.056 254.586C446.891 297.2 449.55 302.781 447.651 300.244V319.269L443.851 324.976L455.249 344C453.983 354.147 452.59 375.581 457.149 380.147C443.851 368.732 419.156 355.415 398.26 357.317C381.544 358.839 348.237 368.098 333.673 372.537L278.584 326.878L303.279 389.659C296.947 395.366 282.383 409.825 274.784 422C265.666 422 240.591 420.732 229.193 420.098L259.587 452.439L257.688 467.659C253.889 470.83 246.67 479.074 248.19 486.683C249.709 494.293 257.688 496.196 261.487 496.196L236.792 551.366L240.591 562.781L227.294 583.708H195L215.896 606.537L210.197 633.171L229.193 627.464C227.927 636.976 226.154 657.523 229.193 663.61C232.993 671.22 231.093 703.562 231.093 709.269C231.093 713.835 228.56 721.318 227.294 724.489L231.093 737.806C231.726 754.928 233.752 791.454 236.792 800.586H357.668C360.434 797.431 365.967 786.927 365.967 770.147C367.866 754.928 370.526 722.967 365.967 716.879C365.967 709.269 373.565 707.367 377.364 709.269C381.164 711.171 392.561 741.611 402.06 751.123C409.658 758.732 416.623 772.05 419.156 777.757L421.169 800.586H747.792V791.074C749.059 780.928 753.111 759.113 759.19 753.025C759.19 760.635 770.588 787.269 776.287 791.074L778.69 800.586H913.521C914.913 776.884 912.941 757.735 911.782 751.123L913.521 737.806L903.953 722.159H898.733L897.863 720.684C888.745 702.42 862.404 678.83 850.373 669.318C849.106 667.415 846.573 662.469 846.573 657.903C855.692 656.381 863.037 650.927 865.57 648.391L859.871 633.171L878.867 616.049L852.272 619.854L838.975 597.025L831.376 598.927L835.176 593.22L833.276 589.415L846.573 576.098L827.577 574.196L823.778 549.464L816.179 545.659C816.179 535.005 812.38 510.781 810.48 500L838.975 473.366H806.681C809.721 438.361 792.751 410.586 783.886 401.074L814.28 336.391C797.816 347.805 762.99 371.776 755.391 376.342C744.753 368.732 729.43 360.488 723.098 357.317L717.399 285.025C707.267 303.415 686.245 342.478 683.205 351.61C675.607 348.566 662.309 347.805 656.611 347.805C654.078 338.293 648.252 317.747 645.213 311.659C642.173 305.571 640.147 290.098 639.514 283.122L637.614 269.805C642.047 265.366 650.152 245.073 647.112 199.415C643.313 142.342 603.421 52.9269 578.726 32C599.622 56.7317 611.019 140.439 611.019 172.781C586.324 127.122 538.833 121.415 529.335 121.415C518.697 116.849 509.706 115.707 506.54 115.707C504.007 116.976 497.801 121.795 493.242 130.927Z" fill="url(#paint0_linear_991_17934)" stroke="url(#paint1_linear_991_17934)" stroke-width="5.60332" stroke-linejoin="round"/>
<defs>
<linearGradient id="paint0_linear_991_17934" x1="554.5" y1="32" x2="554.5" y2="800.586" gradientUnits="userSpaceOnUse">
<stop stop-color="#002589" stop-opacity="0.5"/>
<stop offset="1" stop-color="#030712" stop-opacity="0"/>
</linearGradient>
<linearGradient id="paint1_linear_991_17934" x1="546.432" y1="32" x2="546.432" y2="800.586" gradientUnits="userSpaceOnUse">
<stop stop-color="#044BFF"/>
<stop offset="1" stop-color="#044BFF" stop-opacity="0"/>
</linearGradient>
</defs>
</svg>
