<svg width="45" height="45" viewBox="0 0 45 45" fill="none" xmlns="http://www.w3.org/2000/svg">
<circle cx="22.5" cy="22.5" r="22.5" fill="#1A1A1A"/>
<path d="M22.918 40.1729H18.9365V38.7021C19.5868 38.7952 20.2517 38.8457 20.9277 38.8457C21.6036 38.8457 22.2678 38.7951 22.918 38.7021V40.1729ZM20.9277 12.2998C27.8913 12.3001 33.5361 17.9455 33.5361 24.9092C33.5361 31.8728 27.8913 37.5183 20.9277 37.5186C13.9639 37.5186 8.31837 31.873 8.31836 24.9092C8.31836 17.9454 13.9639 12.2998 20.9277 12.2998ZM20.9277 14.9551C15.43 14.9551 10.9727 19.4114 10.9727 24.9092C10.9727 30.4069 15.43 34.8633 20.9277 34.8633C26.4253 34.863 30.8818 30.4068 30.8818 24.9092C30.8818 19.4116 26.4253 14.9553 20.9277 14.9551ZM22.918 33.3027C22.2789 33.4537 21.613 33.5361 20.9277 33.5361C20.2423 33.5361 19.5758 33.4538 18.9365 33.3027V29.5547H22.918V33.3027ZM7.24512 22.2549C7.07939 23.1142 6.99121 24.0014 6.99121 24.9092C6.99121 25.3568 7.01244 25.7995 7.05371 26.2363H5V22.2549H7.24512ZM15.6182 26.2363H12.4023C12.3355 25.8037 12.2998 25.3605 12.2998 24.9092C12.2998 23.9829 12.4476 23.0912 12.7178 22.2549H15.6182V26.2363ZM29.1367 22.2549C29.4069 23.0912 29.5547 23.9829 29.5547 24.9092C29.5547 25.3605 29.519 25.8037 29.4521 26.2363H26.2363V22.2549H29.1367ZM36.8545 26.2363H34.8008C34.8421 25.7995 34.8633 25.3568 34.8633 24.9092C34.8633 24.0014 34.7751 23.1143 34.6094 22.2549H36.8545V26.2363ZM28.2275 10.3096L34.2002 5.66406L32.873 12.9639L39.5088 11.6367L35.5273 16.2822L41.5 17.6094L34.2422 20.7842C32.8011 16.1274 28.9851 12.5152 24.209 11.3623L25.5723 5L28.2275 10.3096ZM20.9277 16.2822C21.6129 16.2823 22.2789 16.3637 22.918 16.5146V18.9365H18.9365V16.5146C19.5757 16.3636 20.2424 16.2822 20.9277 16.2822ZM22.918 11.1152C22.2679 11.0222 21.6035 10.9727 20.9277 10.9727C20.2518 10.9727 19.5868 11.0222 18.9365 11.1152V8.31836H22.918V11.1152Z" fill="#D38041"/>
</svg>
