<svg width="750" height="1100" viewBox="0 0 750 1100" fill="none" xmlns="http://www.w3.org/2000/svg">
<g clip-path="url(#clip0_897_14263)">
<rect width="750" height="1100" fill="#0E457D"/>
<path d="M169 648L715 601V648H169Z" fill="white"/>
<rect x="169" y="648" width="546" height="306" fill="white"/>
<g filter="url(#filter0_d_897_14263)">
<path d="M169 658.792L664.054 663.513L169 668.234V658.792Z" fill="#0E457D"/>
<mask id="path-4-outside-1_897_14263" maskUnits="userSpaceOnUse" x="181.536" y="651.07" width="211" height="25" fill="black">
<rect fill="white" x="181.536" y="651.07" width="211" height="25"/>
<path d="M198.946 658.117L196.518 657.308H193.01L191.931 657.847L191.391 658.926V660.006L192.336 660.949L196.383 661.894L198.946 664.457V669.449L195.438 672.955H188.019L186.536 668.504L189.287 669.449H193.01L194.089 668.908L194.629 667.83V666.076L193.685 665.132L189.638 664.187L187.076 661.624V657.577L190.582 654.07H197.597L198.946 658.117Z"/>
<path d="M207.298 656.228V660.815L207.163 661.219L212.693 655.689L213.233 654.07H218.225L218.493 654.34L212.829 660.006L216.606 670.392L218.089 672.955H212.423L212.155 670.527L209.725 663.243H209.321L207.568 664.996L207.298 665.536V670.797L207.838 672.955H202.712L203.251 670.797V656.228L202.712 654.07H207.838L207.298 656.228Z"/>
<path d="M225.108 656.228V670.797L225.648 672.955H220.522L221.061 670.797V656.228L220.522 654.07H225.648L225.108 656.228Z"/>
<path d="M234.54 656.768V669.043L234.944 669.449H239.126L241.959 668.504L240.475 672.955H229.954L230.493 670.797V656.228L229.954 654.07H235.214L234.54 656.768Z"/>
<path d="M248.029 656.768V669.043L248.433 669.449H252.616L255.448 668.504L253.965 672.955H243.443L243.982 670.797V656.228L243.443 654.07H248.703L248.029 656.768Z"/>
<path d="M268.263 658.117L265.835 657.308H262.327L261.248 657.847L260.708 658.926V660.006L261.652 660.949L265.699 661.894L268.263 664.457V669.449L264.755 672.955H257.336L255.852 668.504L258.604 669.449H262.327L263.406 668.908L263.946 667.83V666.076L263.001 665.132L258.955 664.187L256.392 661.624V657.577L259.899 654.07H266.914L268.263 658.117Z"/>
<path fill-rule="evenodd" clip-rule="evenodd" d="M290.778 657.983L288.08 657.038H284.303L284.033 657.308L288.35 665.941L289.159 664.322L289.563 662.434H293.34L293.61 662.704L289.699 668.638L290.508 670.257L293.206 672.955H289.025L287.406 671.336L285.787 672.955H280.931L277.693 669.717V664.862L281.74 660.815L279.717 656.768L282.414 654.07H289.429L290.778 657.983ZM282.28 664.862L281.74 665.941V668.1L282.28 669.178L283.359 669.717H284.708L285.517 669.313L285.921 668.908L283.359 663.783L282.28 664.862Z"/>
<path d="M315.588 658.521L312.756 657.577H310.328L310.058 657.847V670.527L310.867 672.955H305.202L306.011 670.527V657.847L305.741 657.577H303.313L300.481 658.521L301.965 654.07H314.105L315.588 658.521Z"/>
<path fill-rule="evenodd" clip-rule="evenodd" d="M331.906 657.308V661.894L328.938 664.862L330.961 670.392L332.446 672.955H327.319L325.027 665.941L324.487 665.671H322.463L322.193 665.941V670.797L322.733 672.955H317.608L318.146 670.797V656.228L317.608 654.07H328.668L331.906 657.308ZM322.193 657.577V662.164L322.463 662.434H325.701L327.05 661.759L327.589 660.681V659.062L327.05 657.983L325.701 657.308H322.463L322.193 657.577Z"/>
<path fill-rule="evenodd" clip-rule="evenodd" d="M345.122 655.824L349.169 670.797L350.249 672.955H344.718L344.988 670.797L344.448 668.638L344.179 668.368H339.052L338.783 668.638L338.243 670.797L338.513 672.955H333.522L334.601 670.797L338.648 655.824L338.243 654.07H345.528L345.122 655.824ZM341.481 657.577L339.726 664.862L339.996 665.132H343.234L343.504 664.862L341.75 657.577L341.615 656.768L341.481 657.577Z"/>
<path d="M356.996 656.228V670.797L357.536 672.955H352.411L352.95 670.797V656.228L352.411 654.07H357.536L356.996 656.228Z"/>
<path d="M374.656 658.521L371.824 657.577H369.396L369.126 657.847V670.527L369.935 672.955H364.27L365.079 670.527V657.847L364.809 657.577H362.381L359.549 658.521L361.033 654.07H373.173L374.656 658.521Z"/>
<path d="M388.006 658.117L385.578 657.308H382.07L380.991 657.847L380.451 658.926V660.006L381.395 660.949L385.442 661.894L388.006 664.457V669.449L384.498 672.955H377.079L375.595 668.504L378.347 669.449H382.07L383.149 668.908L383.689 667.83V666.076L382.744 665.132L378.698 664.187L376.135 661.624V657.577L379.642 654.07H386.657L388.006 658.117Z"/>
</mask>
<path d="M198.946 658.117L196.518 657.308H193.01L191.931 657.847L191.391 658.926V660.006L192.336 660.949L196.383 661.894L198.946 664.457V669.449L195.438 672.955H188.019L186.536 668.504L189.287 669.449H193.01L194.089 668.908L194.629 667.83V666.076L193.685 665.132L189.638 664.187L187.076 661.624V657.577L190.582 654.07H197.597L198.946 658.117Z" fill="#B5191D"/>
<path d="M207.298 656.228V660.815L207.163 661.219L212.693 655.689L213.233 654.07H218.225L218.493 654.34L212.829 660.006L216.606 670.392L218.089 672.955H212.423L212.155 670.527L209.725 663.243H209.321L207.568 664.996L207.298 665.536V670.797L207.838 672.955H202.712L203.251 670.797V656.228L202.712 654.07H207.838L207.298 656.228Z" fill="#B5191D"/>
<path d="M225.108 656.228V670.797L225.648 672.955H220.522L221.061 670.797V656.228L220.522 654.07H225.648L225.108 656.228Z" fill="#B5191D"/>
<path d="M234.54 656.768V669.043L234.944 669.449H239.126L241.959 668.504L240.475 672.955H229.954L230.493 670.797V656.228L229.954 654.07H235.214L234.54 656.768Z" fill="#B5191D"/>
<path d="M248.029 656.768V669.043L248.433 669.449H252.616L255.448 668.504L253.965 672.955H243.443L243.982 670.797V656.228L243.443 654.07H248.703L248.029 656.768Z" fill="#B5191D"/>
<path d="M268.263 658.117L265.835 657.308H262.327L261.248 657.847L260.708 658.926V660.006L261.652 660.949L265.699 661.894L268.263 664.457V669.449L264.755 672.955H257.336L255.852 668.504L258.604 669.449H262.327L263.406 668.908L263.946 667.83V666.076L263.001 665.132L258.955 664.187L256.392 661.624V657.577L259.899 654.07H266.914L268.263 658.117Z" fill="#B5191D"/>
<path fill-rule="evenodd" clip-rule="evenodd" d="M290.778 657.983L288.08 657.038H284.303L284.033 657.308L288.35 665.941L289.159 664.322L289.563 662.434H293.34L293.61 662.704L289.699 668.638L290.508 670.257L293.206 672.955H289.025L287.406 671.336L285.787 672.955H280.931L277.693 669.717V664.862L281.74 660.815L279.717 656.768L282.414 654.07H289.429L290.778 657.983ZM282.28 664.862L281.74 665.941V668.1L282.28 669.178L283.359 669.717H284.708L285.517 669.313L285.921 668.908L283.359 663.783L282.28 664.862Z" fill="#B5191D"/>
<path d="M315.588 658.521L312.756 657.577H310.328L310.058 657.847V670.527L310.867 672.955H305.202L306.011 670.527V657.847L305.741 657.577H303.313L300.481 658.521L301.965 654.07H314.105L315.588 658.521Z" fill="#B5191D"/>
<path fill-rule="evenodd" clip-rule="evenodd" d="M331.906 657.308V661.894L328.938 664.862L330.961 670.392L332.446 672.955H327.319L325.027 665.941L324.487 665.671H322.463L322.193 665.941V670.797L322.733 672.955H317.608L318.146 670.797V656.228L317.608 654.07H328.668L331.906 657.308ZM322.193 657.577V662.164L322.463 662.434H325.701L327.05 661.759L327.589 660.681V659.062L327.05 657.983L325.701 657.308H322.463L322.193 657.577Z" fill="#B5191D"/>
<path fill-rule="evenodd" clip-rule="evenodd" d="M345.122 655.824L349.169 670.797L350.249 672.955H344.718L344.988 670.797L344.448 668.638L344.179 668.368H339.052L338.783 668.638L338.243 670.797L338.513 672.955H333.522L334.601 670.797L338.648 655.824L338.243 654.07H345.528L345.122 655.824ZM341.481 657.577L339.726 664.862L339.996 665.132H343.234L343.504 664.862L341.75 657.577L341.615 656.768L341.481 657.577Z" fill="#B5191D"/>
<path d="M356.996 656.228V670.797L357.536 672.955H352.411L352.95 670.797V656.228L352.411 654.07H357.536L356.996 656.228Z" fill="#B5191D"/>
<path d="M374.656 658.521L371.824 657.577H369.396L369.126 657.847V670.527L369.935 672.955H364.27L365.079 670.527V657.847L364.809 657.577H362.381L359.549 658.521L361.033 654.07H373.173L374.656 658.521Z" fill="#B5191D"/>
<path d="M388.006 658.117L385.578 657.308H382.07L380.991 657.847L380.451 658.926V660.006L381.395 660.949L385.442 661.894L388.006 664.457V669.449L384.498 672.955H377.079L375.595 668.504L378.347 669.449H382.07L383.149 668.908L383.689 667.83V666.076L382.744 665.132L378.698 664.187L376.135 661.624V657.577L379.642 654.07H386.657L388.006 658.117Z" fill="#B5191D"/>
<path d="M198.946 658.117L196.518 657.308H193.01L191.931 657.847L191.391 658.926V660.006L192.336 660.949L196.383 661.894L198.946 664.457V669.449L195.438 672.955H188.019L186.536 668.504L189.287 669.449H193.01L194.089 668.908L194.629 667.83V666.076L193.685 665.132L189.638 664.187L187.076 661.624V657.577L190.582 654.07H197.597L198.946 658.117Z" stroke="white" stroke-width="5.39568" mask="url(#path-4-outside-1_897_14263)"/>
<path d="M207.298 656.228V660.815L207.163 661.219L212.693 655.689L213.233 654.07H218.225L218.493 654.34L212.829 660.006L216.606 670.392L218.089 672.955H212.423L212.155 670.527L209.725 663.243H209.321L207.568 664.996L207.298 665.536V670.797L207.838 672.955H202.712L203.251 670.797V656.228L202.712 654.07H207.838L207.298 656.228Z" stroke="white" stroke-width="5.39568" mask="url(#path-4-outside-1_897_14263)"/>
<path d="M225.108 656.228V670.797L225.648 672.955H220.522L221.061 670.797V656.228L220.522 654.07H225.648L225.108 656.228Z" stroke="white" stroke-width="5.39568" mask="url(#path-4-outside-1_897_14263)"/>
<path d="M234.54 656.768V669.043L234.944 669.449H239.126L241.959 668.504L240.475 672.955H229.954L230.493 670.797V656.228L229.954 654.07H235.214L234.54 656.768Z" stroke="white" stroke-width="5.39568" mask="url(#path-4-outside-1_897_14263)"/>
<path d="M248.029 656.768V669.043L248.433 669.449H252.616L255.448 668.504L253.965 672.955H243.443L243.982 670.797V656.228L243.443 654.07H248.703L248.029 656.768Z" stroke="white" stroke-width="5.39568" mask="url(#path-4-outside-1_897_14263)"/>
<path d="M268.263 658.117L265.835 657.308H262.327L261.248 657.847L260.708 658.926V660.006L261.652 660.949L265.699 661.894L268.263 664.457V669.449L264.755 672.955H257.336L255.852 668.504L258.604 669.449H262.327L263.406 668.908L263.946 667.83V666.076L263.001 665.132L258.955 664.187L256.392 661.624V657.577L259.899 654.07H266.914L268.263 658.117Z" stroke="white" stroke-width="5.39568" mask="url(#path-4-outside-1_897_14263)"/>
<path fill-rule="evenodd" clip-rule="evenodd" d="M290.778 657.983L288.08 657.038H284.303L284.033 657.308L288.35 665.941L289.159 664.322L289.563 662.434H293.34L293.61 662.704L289.699 668.638L290.508 670.257L293.206 672.955H289.025L287.406 671.336L285.787 672.955H280.931L277.693 669.717V664.862L281.74 660.815L279.717 656.768L282.414 654.07H289.429L290.778 657.983ZM282.28 664.862L281.74 665.941V668.1L282.28 669.178L283.359 669.717H284.708L285.517 669.313L285.921 668.908L283.359 663.783L282.28 664.862Z" stroke="white" stroke-width="5.39568" mask="url(#path-4-outside-1_897_14263)"/>
<path d="M315.588 658.521L312.756 657.577H310.328L310.058 657.847V670.527L310.867 672.955H305.202L306.011 670.527V657.847L305.741 657.577H303.313L300.481 658.521L301.965 654.07H314.105L315.588 658.521Z" stroke="white" stroke-width="5.39568" mask="url(#path-4-outside-1_897_14263)"/>
<path fill-rule="evenodd" clip-rule="evenodd" d="M331.906 657.308V661.894L328.938 664.862L330.961 670.392L332.446 672.955H327.319L325.027 665.941L324.487 665.671H322.463L322.193 665.941V670.797L322.733 672.955H317.608L318.146 670.797V656.228L317.608 654.07H328.668L331.906 657.308ZM322.193 657.577V662.164L322.463 662.434H325.701L327.05 661.759L327.589 660.681V659.062L327.05 657.983L325.701 657.308H322.463L322.193 657.577Z" stroke="white" stroke-width="5.39568" mask="url(#path-4-outside-1_897_14263)"/>
<path fill-rule="evenodd" clip-rule="evenodd" d="M345.122 655.824L349.169 670.797L350.249 672.955H344.718L344.988 670.797L344.448 668.638L344.179 668.368H339.052L338.783 668.638L338.243 670.797L338.513 672.955H333.522L334.601 670.797L338.648 655.824L338.243 654.07H345.528L345.122 655.824ZM341.481 657.577L339.726 664.862L339.996 665.132H343.234L343.504 664.862L341.75 657.577L341.615 656.768L341.481 657.577Z" stroke="white" stroke-width="5.39568" mask="url(#path-4-outside-1_897_14263)"/>
<path d="M356.996 656.228V670.797L357.536 672.955H352.411L352.95 670.797V656.228L352.411 654.07H357.536L356.996 656.228Z" stroke="white" stroke-width="5.39568" mask="url(#path-4-outside-1_897_14263)"/>
<path d="M374.656 658.521L371.824 657.577H369.396L369.126 657.847V670.527L369.935 672.955H364.27L365.079 670.527V657.847L364.809 657.577H362.381L359.549 658.521L361.033 654.07H373.173L374.656 658.521Z" stroke="white" stroke-width="5.39568" mask="url(#path-4-outside-1_897_14263)"/>
<path d="M388.006 658.117L385.578 657.308H382.07L380.991 657.847L380.451 658.926V660.006L381.395 660.949L385.442 661.894L388.006 664.457V669.449L384.498 672.955H377.079L375.595 668.504L378.347 669.449H382.07L383.149 668.908L383.689 667.83V666.076L382.744 665.132L378.698 664.187L376.135 661.624V657.577L379.642 654.07H386.657L388.006 658.117Z" stroke="white" stroke-width="5.39568" mask="url(#path-4-outside-1_897_14263)"/>
<path d="M169 817.964L664.054 822.686L169 827.407V817.964Z" fill="#0E457D"/>
</g>
<rect x="33.4766" y="34.874" width="679" height="1030" rx="46.0611" stroke="#E49C00" stroke-width="5"/>
<g filter="url(#filter1_di_897_14263)">
<path d="M158 -1V301.674L157.145 301.799L0.144531 324.73L-1 324.897V-1H158Z" fill="#B5191D" stroke="#FFAE00" stroke-width="2"/>
</g>
<rect width="67.446" height="60.7014" transform="translate(0 226.619)" fill="#0E457D"/>
<path d="M41.4463 256.97L41.4463 251.979L43.6046 252.518L53.3168 252.518L54.3959 252.653L53.3168 252.249L42.7952 247.662L42.7952 247.527L53.3168 242.941L54.3959 242.536L53.3168 242.671L43.6046 242.671L41.4463 243.211L41.4463 238.624L43.6046 239.164L58.1729 239.164L60.3312 238.624L60.3312 243.885L51.779 247.662L51.1585 247.797L51.779 247.932L60.3312 251.709L60.3312 256.97L58.1729 256.43L43.6046 256.43L41.4463 256.97ZM41.4463 277.469L41.4463 271.939L43.6046 272.208L45.7628 271.669L46.0326 271.399L46.0326 266.273L45.7628 266.003L43.6046 265.464L41.4463 265.734L41.4463 260.743L43.6046 261.822L58.5776 265.868L60.3312 265.464L60.3312 272.748L58.5776 272.343L43.6046 276.39L41.4463 277.469ZM49.5398 270.725L56.824 268.971L57.6333 268.836L56.824 268.701L49.5398 266.948L49.27 267.217L49.27 270.455L49.5398 270.725Z" fill="white"/>
<g filter="url(#filter2_di_897_14263)">
<mask id="path-9-outside-2_897_14263" maskUnits="userSpaceOnUse" x="-2" y="307.252" width="161" height="158" fill="black">
<rect fill="white" x="-2" y="307.252" width="161" height="158"/>
<path d="M157 439.748L0 462.68V333.184L157 310.252V439.748Z"/>
</mask>
<path d="M157 439.748L0 462.68V333.184L157 310.252V439.748Z" fill="#B5191D"/>
<path d="M157 439.748L157.289 441.727L159 441.477V439.748H157ZM0 462.68H-2V464.993L0.289056 464.659L0 462.68ZM0 333.184L-0.289056 331.205L-2 331.454V333.184H0ZM157 310.252H159V307.939L156.711 308.273L157 310.252ZM157 439.748L156.711 437.769L-0.289056 460.701L0 462.68L0.289056 464.659L157.289 441.727L157 439.748ZM0 462.68H2V333.184H0H-2V462.68H0ZM0 333.184L0.289056 335.163L157.289 312.231L157 310.252L156.711 308.273L-0.289056 331.205L0 333.184ZM157 310.252H155V439.748H157H159V310.252H157Z" fill="#FFAE00" mask="url(#path-9-outside-2_897_14263)"/>
<rect width="67.446" height="60.7014" transform="translate(0 361.511)" fill="#0E457D"/>
<path d="M44.9535 389.577L41.4463 386.069L41.4463 378.65L45.8977 377.167L44.9535 379.918L44.9535 383.641L45.4931 384.72L46.5722 385.26L48.3258 385.26L49.27 384.316L50.2143 380.269L52.7772 377.706L56.824 377.706L60.3312 381.213L60.3312 388.228L56.2844 389.577L57.0938 387.149L57.0938 383.641L56.5542 382.562L55.4751 382.023L54.3959 382.023L53.4517 382.967L52.5074 387.014L49.9445 389.577L44.9535 389.577ZM55.8797 407.775L56.824 404.943L56.824 402.515L56.5542 402.245L43.8743 402.245L41.4463 403.054L41.4463 397.389L43.8743 398.198L56.5542 398.198L56.824 397.928L56.824 395.5L55.8797 392.668L60.3312 394.151L60.3312 406.292L55.8797 407.775Z" fill="white"/>
</g>
<g filter="url(#filter3_di_897_14263)">
<mask id="path-12-outside-3_897_14263" maskUnits="userSpaceOnUse" x="-2" y="446.19" width="161" height="158" fill="black">
<rect fill="white" x="-2" y="446.19" width="161" height="158"/>
<path d="M157 578.687L0 601.618V472.122L157 449.19V578.687Z"/>
</mask>
<path d="M157 578.687L0 601.618V472.122L157 449.19V578.687Z" fill="#B5191D"/>
<path d="M157 578.687L157.289 580.666L159 580.416V578.687H157ZM0 601.618H-2V603.932L0.289056 603.597L0 601.618ZM0 472.122L-0.289056 470.143L-2 470.393V472.122H0ZM157 449.19H159V446.877L156.711 447.211L157 449.19ZM157 578.687L156.711 576.708L-0.289056 599.639L0 601.618L0.289056 603.597L157.289 580.666L157 578.687ZM0 601.618H2V472.122H0H-2V601.618H0ZM0 472.122L0.289056 474.101L157.289 451.169L157 449.19L156.711 447.211L-0.289056 470.143L0 472.122ZM157 449.19H155V578.687H157H159V449.19H157Z" fill="#FFAE00" mask="url(#path-12-outside-3_897_14263)"/>
<rect width="67.446" height="60.7014" transform="translate(0 500.449)" fill="#0E457D"/>
<path d="M41.4463 529.724L41.4463 524.193L43.6046 524.463L45.7628 523.923L46.0326 523.654L46.0326 518.528L45.7628 518.258L43.6046 517.718L41.4463 517.988L41.4463 512.997L43.6046 514.076L58.5776 518.123L60.3312 517.718L60.3312 525.003L58.5776 524.598L43.6046 528.645L41.4463 529.724ZM49.5398 522.979L56.824 521.226L57.6333 521.091L56.824 520.956L49.5398 519.202L49.27 519.472L49.27 522.709L49.5398 522.979ZM51.6981 547.803L50.0794 546.993L46.5722 546.993L44.9535 547.263L41.4463 543.756L41.4463 537.011L44.9535 533.504L56.5542 533.504L60.3312 537.281L60.3312 544.835L55.8797 546.319L56.824 543.54L56.824 539.844L56.1495 538.495L54.8006 537.821L46.5722 537.821L45.4931 538.36L44.9535 539.439L44.9535 542.137L45.7628 542.946L49.5398 542.946L51.6981 541.867L51.6981 547.803Z" fill="white"/>
</g>
<g filter="url(#filter4_di_897_14263)">
<mask id="path-15-outside-4_897_14263" maskUnits="userSpaceOnUse" x="-2" y="585.129" width="161" height="158" fill="black">
<rect fill="white" x="-2" y="585.129" width="161" height="158"/>
<path d="M157 717.625L0 740.557V611.061L157 588.129V717.625Z"/>
</mask>
<path d="M157 717.625L0 740.557V611.061L157 588.129V717.625Z" fill="#B5191D"/>
<path d="M157 717.625L157.289 719.604L159 719.354V717.625H157ZM0 740.557H-2V742.87L0.289056 742.536L0 740.557ZM0 611.061L-0.289056 609.082L-2 609.331V611.061H0ZM157 588.129H159V585.816L156.711 586.15L157 588.129ZM157 717.625L156.711 715.646L-0.289056 738.578L0 740.557L0.289056 742.536L157.289 719.604L157 717.625ZM0 740.557H2V611.061H0H-2V740.557H0ZM0 611.061L0.289056 613.04L157.289 590.108L157 588.129L156.711 586.15L-0.289056 609.082L0 611.061ZM157 588.129H155V717.625H157H159V588.129H157Z" fill="#FFAE00" mask="url(#path-15-outside-4_897_14263)"/>
<rect width="67.446" height="60.7014" transform="translate(0 639.388)" fill="#0E457D"/>
<path d="M52.2377 668.933L48.4607 665.156L48.4607 659.491L48.1909 659.221L44.1441 659.221L41.4463 659.895L41.4463 654.635L43.6046 655.174L58.1729 655.174L60.3312 654.635L60.3312 665.696L57.0938 668.933L52.2377 668.933ZM53.7215 664.617L55.3402 664.617L56.4193 664.077L57.0938 662.728L57.0938 659.491L56.824 659.221L52.2377 659.221L51.9679 659.491L51.9679 662.728L52.6423 664.077L53.7215 664.617ZM41.4463 686.998L41.4463 681.468L43.6046 681.737L45.7628 681.198L46.0326 680.928L46.0326 675.802L45.7628 675.532L43.6046 674.993L41.4463 675.262L41.4463 670.271L43.6046 671.351L58.5776 675.397L60.3312 674.993L60.3312 682.277L58.5776 681.872L43.6046 685.919L41.4463 686.998ZM49.5398 680.254L56.824 678.5L57.6333 678.365L56.824 678.23L49.5398 676.477L49.27 676.746L49.27 679.984L49.5398 680.254Z" fill="white"/>
</g>
<g filter="url(#filter5_di_897_14263)">
<mask id="path-18-outside-5_897_14263" maskUnits="userSpaceOnUse" x="-2" y="724.067" width="161" height="158" fill="black">
<rect fill="white" x="-2" y="724.067" width="161" height="158"/>
<path d="M157 856.563L0 879.495V749.999L157 727.067V856.563Z"/>
</mask>
<path d="M157 856.563L0 879.495V749.999L157 727.067V856.563Z" fill="#B5191D"/>
<path d="M157 856.563L157.289 858.542L159 858.293V856.563H157ZM0 879.495H-2V881.808L0.289056 881.474L0 879.495ZM0 749.999L-0.289056 748.02L-2 748.27V749.999H0ZM157 727.067H159V724.754L156.711 725.088L157 727.067ZM157 856.563L156.711 854.584L-0.289056 877.516L0 879.495L0.289056 881.474L157.289 858.542L157 856.563ZM0 879.495H2V749.999H0H-2V879.495H0ZM0 749.999L0.289056 751.978L157.289 729.046L157 727.067L156.711 725.088L-0.289056 748.02L0 749.999ZM157 727.067H155V856.563H157H159V727.067H157Z" fill="#FFAE00" mask="url(#path-18-outside-5_897_14263)"/>
<rect width="67.446" height="60.7014" transform="translate(0 778.327)" fill="#0E457D"/>
<path d="M41.4463 808.681L41.4463 803.151L43.6046 803.421L45.7628 802.881L46.0326 802.611L46.0326 797.485L45.7628 797.216L43.6046 796.676L41.4463 796.946L41.4463 791.955L43.6046 793.034L58.5776 797.081L60.3312 796.676L60.3312 803.96L58.5776 803.556L43.6046 807.602L41.4463 808.681ZM49.5398 801.937L56.824 800.183L57.6333 800.048L56.824 799.913L49.5398 798.16L49.27 798.43L49.27 801.667L49.5398 801.937ZM60.3312 825.816L58.1729 824.737L41.4463 819.611L41.4463 816.104L58.1729 810.978L60.3312 809.899L60.3312 815.429L58.1729 815.159L48.4607 817.857L47.3815 817.992L48.4607 818.127L58.1729 820.825L60.3312 820.555L60.3312 825.816Z" fill="white"/>
</g>
<path d="M110.606 958.954C125.35 958.954 138.631 962.383 148.211 965.802C153.005 967.513 156.883 969.225 159.567 970.511C160.909 971.155 161.954 971.692 162.666 972.071C163.022 972.26 163.295 972.41 163.481 972.513C163.574 972.565 163.644 972.605 163.693 972.632C163.717 972.646 163.736 972.656 163.749 972.664C163.755 972.667 163.76 972.67 163.764 972.672C163.766 972.673 163.768 972.675 163.769 972.675L163.77 972.676C163.768 972.68 163.741 972.727 163.356 973.393L163.771 972.676L164.428 973.056L164.444 973.816V973.823C164.444 973.827 164.445 973.834 164.445 973.843C164.445 973.861 164.445 973.888 164.446 973.922C164.447 973.993 164.45 974.097 164.453 974.234C164.458 974.507 164.465 974.911 164.473 975.431C164.49 976.472 164.511 977.98 164.529 979.851C164.565 983.594 164.59 988.791 164.542 994.613C164.445 1006.24 164.059 1020.41 162.891 1030.44C161.323 1043.91 150.67 1055.38 139.46 1063.39C133.821 1067.42 127.961 1070.63 122.87 1072.84C117.835 1075.03 113.382 1076.31 110.606 1076.31C107.78 1076.31 103.532 1074.97 98.8032 1072.72C94.0169 1070.44 88.5598 1067.15 83.2632 1063.07C72.7167 1054.96 62.5724 1043.54 59.8833 1030.56C57.801 1020.52 57.0282 1006.3 56.77 994.66C56.6406 988.827 56.6397 983.616 56.6714 979.864C56.6873 977.987 56.7119 976.474 56.7319 975.43C56.7419 974.908 56.7508 974.503 56.7573 974.228C56.7606 974.091 56.7633 973.985 56.7651 973.915C56.766 973.879 56.7666 973.853 56.7671 973.834C56.7673 973.826 56.7679 973.819 56.7681 973.814V973.807V973.806L56.7886 973.053L57.4409 972.676L58.1167 973.844C57.4866 972.755 57.4443 972.681 57.4419 972.676L57.4429 972.675L57.4624 972.664C57.4754 972.656 57.4948 972.646 57.519 972.632C57.5676 972.605 57.6383 972.565 57.731 972.513C57.9165 972.41 58.1895 972.26 58.5454 972.071C59.2574 971.692 60.3027 971.155 61.645 970.511C64.3291 969.225 68.2068 967.513 73.0005 965.802C82.5807 962.383 95.8618 958.954 110.606 958.954Z" fill="#AE171E" stroke="white" stroke-width="2.69784"/>
<path d="M110.611 964.35C123.548 964.35 135.193 967.78 143.582 971.193C147.781 972.902 151.178 974.612 153.529 975.896C154.705 976.539 155.621 977.076 156.245 977.454C156.557 977.643 156.798 977.793 156.961 977.896C157.042 977.948 157.105 977.988 157.147 978.016C157.169 978.029 157.186 978.04 157.197 978.048C157.203 978.052 157.208 978.055 157.211 978.058L157.217 978.061C157.217 978.061 157.215 978.065 156.79 978.709L157.218 978.062L157.809 978.451L157.823 979.159V979.165C157.823 979.169 157.824 979.175 157.824 979.183C157.825 979.198 157.825 979.222 157.825 979.253C157.826 979.314 157.828 979.405 157.83 979.524C157.835 979.763 157.841 980.117 157.849 980.571C157.863 981.481 157.882 982.799 157.897 984.438C157.929 987.714 157.95 992.27 157.908 997.392C157.824 1007.62 157.487 1020.16 156.466 1029.25C155.092 1041.49 145.755 1051.9 135.941 1059.17C131.004 1062.83 125.873 1065.75 121.411 1067.75C117.01 1069.74 113.085 1070.91 110.611 1070.91C108.09 1070.91 104.343 1069.68 100.208 1067.64C96.0132 1065.57 91.2344 1062.58 86.5977 1058.88C77.366 1051.52 68.4792 1041.15 66.123 1029.36C64.3024 1020.26 63.6271 1007.68 63.4014 997.437C63.2882 992.304 63.2877 987.734 63.3154 984.448C63.3293 982.805 63.3507 981.482 63.3682 980.569C63.3769 980.113 63.3849 979.759 63.3906 979.519C63.3935 979.399 63.3959 979.307 63.3975 979.245C63.3983 979.214 63.399 979.191 63.3994 979.175V979.15V979.149L63.4189 978.448L64.0049 978.062L64.748 979.188C64.0103 978.069 64.0054 978.061 64.0059 978.061L64.0117 978.058C64.0151 978.055 64.0196 978.052 64.0254 978.048C64.037 978.04 64.0539 978.029 64.0752 978.016C64.1181 977.988 64.1805 977.948 64.2617 977.896C64.425 977.793 64.6652 977.643 64.9775 977.454C65.6021 977.076 66.5176 976.539 67.6934 975.896C70.0448 974.612 73.4422 972.902 77.6416 971.193C86.031 967.78 97.6747 964.35 110.611 964.35Z" stroke="white" stroke-width="2.69784"/>
<path d="M110.611 1052.03L112.538 1055.45L116.384 1056.22L113.729 1059.11L114.179 1063.01L110.611 1061.38L107.043 1063.01L107.494 1059.11L104.838 1056.22L108.684 1055.45L110.611 1052.03Z" fill="white"/>
<path d="M107.94 987.597L106.645 990.187V995.799L107.077 998.388L101.465 1004H90.6741L85.0626 998.388V979.827L91.1058 973.784H103.192L105.566 980.906L101.12 979.396H95.2065L93.0482 980.475L91.9691 982.633V995.799L92.8324 997.525L94.559 998.388H98.8756L100.171 997.094V991.05L98.4439 987.597H107.94ZM135.551 986.734L129.508 992.777H120.443L120.011 993.209V999.683L121.091 1004H112.673L113.537 1000.55V977.237L112.673 973.784H130.371L135.551 978.964V986.734ZM128.645 984.36V981.77L127.781 980.043L125.623 978.964H120.443L120.011 979.396V986.734L120.443 987.165H125.623L127.781 986.086L128.645 984.36Z" fill="white"/>
<path d="M74.1903 984.583L76.1169 988.001L79.9633 988.777L77.3077 991.666L77.7582 995.564L74.1903 993.931L70.6223 995.564L71.0728 991.666L68.4172 988.777L72.2636 988.001L74.1903 984.583Z" fill="white"/>
<path d="M147.032 984.583L148.959 988.001L152.805 988.777L150.15 991.666L150.6 995.564L147.032 993.931L143.464 995.564L143.915 991.666L141.259 988.777L145.105 988.001L147.032 984.583Z" fill="white"/>
<path d="M196.942 1009.54C197.203 1009.54 197.44 1009.69 197.552 1009.92C197.663 1010.16 197.628 1010.44 197.463 1010.64L182.303 1029.1L197.463 1047.55C197.628 1047.76 197.663 1048.03 197.552 1048.27C197.44 1048.51 197.203 1048.66 196.942 1048.66H24.2803C24.0194 1048.66 23.7824 1048.51 23.6709 1048.27C23.5596 1048.03 23.5934 1047.76 23.7588 1047.55L38.9189 1029.1L23.7588 1010.64C23.5935 1010.44 23.5595 1010.16 23.6709 1009.92C23.7824 1009.69 24.0194 1009.54 24.2803 1009.54H196.942Z" fill="#0E457D" stroke="white" stroke-width="1.34892" stroke-linejoin="round"/>
<mask id="path-28-outside-6_897_14263" maskUnits="userSpaceOnUse" x="182" y="808" width="191" height="25" fill="black">
<rect fill="white" x="182" y="808" width="191" height="25"/>
<path d="M199.22 826.563L195.783 830H188.512L187.058 825.637L189.755 826.563H193.403L194.461 826.034L194.99 824.976V823.258L194.064 822.332L190.098 821.407L187.586 818.895V814.929L191.024 811.492H197.898L199.22 815.458L196.841 814.664H193.403L192.346 815.193L191.817 816.251V817.308L192.742 818.234L196.708 819.159L199.22 821.671V826.563ZM216.924 819.424L213.223 823.125H207.67L207.406 823.39V827.356L208.067 830H202.911L203.439 827.885V813.607L202.911 811.492H213.751L216.924 814.664V819.424ZM212.694 817.969V816.383L212.165 815.325L210.843 814.664H207.67L207.406 814.929V819.424L207.67 819.688H210.843L212.165 819.027L212.694 817.969ZM231.86 825.637L230.406 830H219.565L220.094 827.885V813.607L219.565 811.492H230.141L231.463 815.458L229.084 814.664H224.325L224.06 814.929V818.102L224.325 818.366H226.572L228.555 817.705V822.2L226.572 821.539H224.325L224.06 821.803V826.166L224.457 826.563H229.084L231.86 825.637ZM246.133 825.637L244.679 830H237.804L234.102 826.298V815.193L237.804 811.492H244.414L245.868 815.854L243.145 814.929H240.316L238.994 815.59L238.333 816.912V824.58L238.994 825.902L240.316 826.563H243.357L246.133 825.637ZM253.663 830H248.64L249.168 827.885V813.607L248.64 811.492H253.663L253.135 813.607V827.885L253.663 830ZM272.161 830H266.741L267.006 827.885L266.477 825.769L266.212 825.505H261.189L260.924 825.769L260.395 827.885L260.66 830H255.768L256.826 827.885L260.792 813.21L260.395 811.492H267.534L267.138 813.21L271.104 827.885L272.161 830ZM265.551 822.068L263.833 814.929L263.7 814.136L263.568 814.929L261.85 822.068L262.114 822.332H265.287L265.551 822.068ZM286.046 825.637L284.592 830H274.28L274.809 827.885V813.607L274.28 811.492H279.436L278.775 814.136V826.166L279.171 826.563H283.27L286.046 825.637ZM308.653 830H303.629L301.381 823.125L300.853 822.861H298.87L298.605 823.125V827.885L299.134 830H294.11L294.639 827.885V813.607L294.11 811.492H304.951L308.124 814.664V819.159L305.215 822.068L307.198 827.488L308.653 830ZM303.893 817.969V816.383L303.365 815.325L302.043 814.664H298.87L298.605 814.929V819.424L298.87 819.688H302.043L303.365 819.027L303.893 817.969ZM325.837 811.492L325.308 813.607V824.976L325.573 826.563L322.135 830H315.261L311.823 826.563L312.088 824.976V813.607L311.559 811.492H316.715L316.186 813.607V824.976L316.715 826.034L317.773 826.563H319.756L320.813 826.034L321.342 824.976V813.607L320.813 811.492H325.837ZM341.561 825.637L340.107 830H329.795L330.324 827.885V813.607L329.795 811.492H334.951L334.29 814.136V826.166L334.686 826.563H338.785L341.561 825.637ZM355.31 825.637L353.856 830H343.015L343.544 827.885V813.607L343.015 811.492H353.591L354.914 815.458L352.534 814.664H347.775L347.51 814.929V818.102L347.775 818.366H350.022L352.005 817.705V822.2L350.022 821.539H347.775L347.51 821.803V826.166L347.907 826.563H352.534L355.31 825.637ZM368.657 826.563L365.22 830H357.949L356.495 825.637L359.192 826.563H362.841L363.898 826.034L364.427 824.976V823.258L363.502 822.332L359.535 821.407L357.024 818.895V814.929L360.461 811.492H367.335L368.657 815.458L366.278 814.664H362.841L361.783 815.193L361.254 816.251V817.308L362.18 818.234L366.146 819.159L368.657 821.671V826.563Z"/>
</mask>
<path d="M199.22 826.563L195.783 830H188.512L187.058 825.637L189.755 826.563H193.403L194.461 826.034L194.99 824.976V823.258L194.064 822.332L190.098 821.407L187.586 818.895V814.929L191.024 811.492H197.898L199.22 815.458L196.841 814.664H193.403L192.346 815.193L191.817 816.251V817.308L192.742 818.234L196.708 819.159L199.22 821.671V826.563ZM216.924 819.424L213.223 823.125H207.67L207.406 823.39V827.356L208.067 830H202.911L203.439 827.885V813.607L202.911 811.492H213.751L216.924 814.664V819.424ZM212.694 817.969V816.383L212.165 815.325L210.843 814.664H207.67L207.406 814.929V819.424L207.67 819.688H210.843L212.165 819.027L212.694 817.969ZM231.86 825.637L230.406 830H219.565L220.094 827.885V813.607L219.565 811.492H230.141L231.463 815.458L229.084 814.664H224.325L224.06 814.929V818.102L224.325 818.366H226.572L228.555 817.705V822.2L226.572 821.539H224.325L224.06 821.803V826.166L224.457 826.563H229.084L231.86 825.637ZM246.133 825.637L244.679 830H237.804L234.102 826.298V815.193L237.804 811.492H244.414L245.868 815.854L243.145 814.929H240.316L238.994 815.59L238.333 816.912V824.58L238.994 825.902L240.316 826.563H243.357L246.133 825.637ZM253.663 830H248.64L249.168 827.885V813.607L248.64 811.492H253.663L253.135 813.607V827.885L253.663 830ZM272.161 830H266.741L267.006 827.885L266.477 825.769L266.212 825.505H261.189L260.924 825.769L260.395 827.885L260.66 830H255.768L256.826 827.885L260.792 813.21L260.395 811.492H267.534L267.138 813.21L271.104 827.885L272.161 830ZM265.551 822.068L263.833 814.929L263.7 814.136L263.568 814.929L261.85 822.068L262.114 822.332H265.287L265.551 822.068ZM286.046 825.637L284.592 830H274.28L274.809 827.885V813.607L274.28 811.492H279.436L278.775 814.136V826.166L279.171 826.563H283.27L286.046 825.637ZM308.653 830H303.629L301.381 823.125L300.853 822.861H298.87L298.605 823.125V827.885L299.134 830H294.11L294.639 827.885V813.607L294.11 811.492H304.951L308.124 814.664V819.159L305.215 822.068L307.198 827.488L308.653 830ZM303.893 817.969V816.383L303.365 815.325L302.043 814.664H298.87L298.605 814.929V819.424L298.87 819.688H302.043L303.365 819.027L303.893 817.969ZM325.837 811.492L325.308 813.607V824.976L325.573 826.563L322.135 830H315.261L311.823 826.563L312.088 824.976V813.607L311.559 811.492H316.715L316.186 813.607V824.976L316.715 826.034L317.773 826.563H319.756L320.813 826.034L321.342 824.976V813.607L320.813 811.492H325.837ZM341.561 825.637L340.107 830H329.795L330.324 827.885V813.607L329.795 811.492H334.951L334.29 814.136V826.166L334.686 826.563H338.785L341.561 825.637ZM355.31 825.637L353.856 830H343.015L343.544 827.885V813.607L343.015 811.492H353.591L354.914 815.458L352.534 814.664H347.775L347.51 814.929V818.102L347.775 818.366H350.022L352.005 817.705V822.2L350.022 821.539H347.775L347.51 821.803V826.166L347.907 826.563H352.534L355.31 825.637ZM368.657 826.563L365.22 830H357.949L356.495 825.637L359.192 826.563H362.841L363.898 826.034L364.427 824.976V823.258L363.502 822.332L359.535 821.407L357.024 818.895V814.929L360.461 811.492H367.335L368.657 815.458L366.278 814.664H362.841L361.783 815.193L361.254 816.251V817.308L362.18 818.234L366.146 819.159L368.657 821.671V826.563Z" fill="#B5191D"/>
<path d="M199.22 826.563L201.13 828.472L201.92 827.681V826.563H199.22ZM195.783 830V832.7H196.901L197.692 831.909L195.783 830ZM188.512 830L185.95 830.854L186.566 832.7H188.512V830ZM187.058 825.637L187.934 823.083L182.77 821.311L184.496 826.491L187.058 825.637ZM189.755 826.563L188.878 829.117L189.304 829.263H189.755V826.563ZM193.403 826.563V829.263H194.041L194.611 828.978L193.403 826.563ZM194.461 826.034L195.668 828.449L196.473 828.046L196.876 827.241L194.461 826.034ZM194.99 824.976L197.405 826.184L197.69 825.614V824.976H194.99ZM194.99 823.258H197.69V822.139L196.899 821.348L194.99 823.258ZM194.064 822.332L195.974 820.423L195.429 819.878L194.678 819.703L194.064 822.332ZM190.098 821.407L188.189 823.316L188.734 823.861L189.485 824.036L190.098 821.407ZM187.586 818.895H184.886V820.013L185.677 820.804L187.586 818.895ZM187.586 814.929L185.677 813.02L184.886 813.81V814.929H187.586ZM191.024 811.492V808.792H189.905L189.115 809.582L191.024 811.492ZM197.898 811.492L200.46 810.638L199.844 808.792H197.898V811.492ZM199.22 815.458L198.367 818.019L203.489 819.727L201.782 814.604L199.22 815.458ZM196.841 814.664L197.694 812.103L197.279 811.964H196.841V814.664ZM193.403 814.664V811.964H192.766L192.196 812.249L193.403 814.664ZM192.346 815.193L191.138 812.778L190.333 813.181L189.931 813.986L192.346 815.193ZM191.817 816.251L189.402 815.043L189.117 815.613V816.251H191.817ZM191.817 817.308H189.117V818.427L189.908 819.218L191.817 817.308ZM192.742 818.234L190.833 820.143L191.378 820.688L192.129 820.863L192.742 818.234ZM196.708 819.159L198.618 817.25L198.073 816.705L197.322 816.53L196.708 819.159ZM199.22 821.671H201.92V820.553L201.13 819.762L199.22 821.671ZM199.22 826.563L197.311 824.654L193.874 828.091L195.783 830L197.692 831.909L201.13 828.472L199.22 826.563ZM195.783 830V827.3H188.512V830V832.7H195.783V830ZM188.512 830L191.073 829.146L189.619 824.783L187.058 825.637L184.496 826.491L185.95 830.854L188.512 830ZM187.058 825.637L186.181 828.191L188.878 829.117L189.755 826.563L190.631 824.009L187.934 823.083L187.058 825.637ZM189.755 826.563V829.263H193.403V826.563V823.863H189.755V826.563ZM193.403 826.563L194.611 828.978L195.668 828.449L194.461 826.034L193.254 823.619L192.196 824.148L193.403 826.563ZM194.461 826.034L196.876 827.241L197.405 826.184L194.99 824.976L192.575 823.769L192.046 824.826L194.461 826.034ZM194.99 824.976H197.69V823.258H194.99H192.29V824.976H194.99ZM194.99 823.258L196.899 821.348L195.974 820.423L194.064 822.332L192.155 824.241L193.081 825.167L194.99 823.258ZM194.064 822.332L194.678 819.703L190.712 818.777L190.098 821.407L189.485 824.036L193.451 824.962L194.064 822.332ZM190.098 821.407L192.007 819.498L189.496 816.986L187.586 818.895L185.677 820.804L188.189 823.316L190.098 821.407ZM187.586 818.895H190.286V814.929H187.586H184.886V818.895H187.586ZM187.586 814.929L189.496 816.838L192.933 813.401L191.024 811.492L189.115 809.582L185.677 813.02L187.586 814.929ZM191.024 811.492V814.192H197.898V811.492V808.792H191.024V811.492ZM197.898 811.492L195.337 812.345L196.659 816.311L199.22 815.458L201.782 814.604L200.46 810.638L197.898 811.492ZM199.22 815.458L200.074 812.896L197.694 812.103L196.841 814.664L195.987 817.226L198.367 818.019L199.22 815.458ZM196.841 814.664V811.964H193.403V814.664V817.364H196.841V814.664ZM193.403 814.664L192.196 812.249L191.138 812.778L192.346 815.193L193.553 817.608L194.611 817.079L193.403 814.664ZM192.346 815.193L189.931 813.986L189.402 815.043L191.817 816.251L194.232 817.458L194.761 816.401L192.346 815.193ZM191.817 816.251H189.117V817.308H191.817H194.517V816.251H191.817ZM191.817 817.308L189.908 819.218L190.833 820.143L192.742 818.234L194.652 816.325L193.726 815.399L191.817 817.308ZM192.742 818.234L192.129 820.863L196.095 821.789L196.708 819.159L197.322 816.53L193.356 815.605L192.742 818.234ZM196.708 819.159L194.799 821.069L197.311 823.58L199.22 821.671L201.13 819.762L198.618 817.25L196.708 819.159ZM199.22 821.671H196.52V826.563H199.22H201.92V821.671H199.22ZM216.924 819.424L218.833 821.333L219.624 820.542V819.424H216.924ZM213.223 823.125V825.825H214.341L215.132 825.035L213.223 823.125ZM207.67 823.125V820.425H206.552L205.761 821.216L207.67 823.125ZM207.406 823.39L205.496 821.481L204.706 822.271V823.39H207.406ZM207.406 827.356H204.706V827.688L204.786 828.011L207.406 827.356ZM208.067 830V832.7H211.525L210.686 829.345L208.067 830ZM202.911 830L200.291 829.345L199.453 832.7H202.911V830ZM203.439 827.885L206.059 828.54L206.139 828.217V827.885H203.439ZM203.439 813.607H206.139V813.274L206.059 812.952L203.439 813.607ZM202.911 811.492V808.792H199.453L200.291 812.146L202.911 811.492ZM213.751 811.492L215.661 809.582L214.87 808.792H213.751V811.492ZM216.924 814.664H219.624V813.546L218.833 812.755L216.924 814.664ZM212.694 817.969L215.109 819.177L215.394 818.607V817.969H212.694ZM212.694 816.383H215.394V815.746L215.109 815.176L212.694 816.383ZM212.165 815.325L214.58 814.118L214.177 813.313L213.372 812.91L212.165 815.325ZM210.843 814.664L212.05 812.249L211.48 811.964H210.843V814.664ZM207.67 814.664V811.964H206.552L205.761 812.755L207.67 814.664ZM207.406 814.929L205.496 813.02L204.706 813.81V814.929H207.406ZM207.406 819.424H204.706V820.542L205.496 821.333L207.406 819.424ZM207.67 819.688L205.761 821.597L206.552 822.388H207.67V819.688ZM210.843 819.688V822.388H211.48L212.05 822.103L210.843 819.688ZM212.165 819.027L213.372 821.442L214.177 821.04L214.58 820.235L212.165 819.027ZM216.924 819.424L215.015 817.515L211.313 821.216L213.223 823.125L215.132 825.035L218.833 821.333L216.924 819.424ZM213.223 823.125V820.425H207.67V823.125V825.825H213.223V823.125ZM207.67 823.125L205.761 821.216L205.496 821.481L207.406 823.39L209.315 825.299L209.579 825.035L207.67 823.125ZM207.406 823.39H204.706V827.356H207.406H210.106V823.39H207.406ZM207.406 827.356L204.786 828.011L205.447 830.655L208.067 830L210.686 829.345L210.025 826.701L207.406 827.356ZM208.067 830V827.3H202.911V830V832.7H208.067V830ZM202.911 830L205.53 830.655L206.059 828.54L203.439 827.885L200.82 827.23L200.291 829.345L202.911 830ZM203.439 827.885H206.139V813.607H203.439H200.739V827.885H203.439ZM203.439 813.607L206.059 812.952L205.53 810.837L202.911 811.492L200.291 812.146L200.82 814.262L203.439 813.607ZM202.911 811.492V814.192H213.751V811.492V808.792H202.911V811.492ZM213.751 811.492L211.842 813.401L215.015 816.574L216.924 814.664L218.833 812.755L215.661 809.582L213.751 811.492ZM216.924 814.664H214.224V819.424H216.924H219.624V814.664H216.924ZM212.694 817.969H215.394V816.383H212.694H209.994V817.969H212.694ZM212.694 816.383L215.109 815.176L214.58 814.118L212.165 815.325L209.75 816.533L210.279 817.591L212.694 816.383ZM212.165 815.325L213.372 812.91L212.05 812.249L210.843 814.664L209.635 817.079L210.957 817.74L212.165 815.325ZM210.843 814.664V811.964H207.67V814.664V817.364H210.843V814.664ZM207.67 814.664L205.761 812.755L205.496 813.02L207.406 814.929L209.315 816.838L209.579 816.574L207.67 814.664ZM207.406 814.929H204.706V819.424H207.406H210.106V814.929H207.406ZM207.406 819.424L205.496 821.333L205.761 821.597L207.67 819.688L209.579 817.779L209.315 817.515L207.406 819.424ZM207.67 819.688V822.388H210.843V819.688V816.988H207.67V819.688ZM210.843 819.688L212.05 822.103L213.372 821.442L212.165 819.027L210.957 816.612L209.635 817.273L210.843 819.688ZM212.165 819.027L214.58 820.235L215.109 819.177L212.694 817.969L210.279 816.762L209.75 817.82L212.165 819.027ZM231.86 825.637L234.422 826.491L236.129 821.368L231.006 823.076L231.86 825.637ZM230.406 830V832.7H232.352L232.967 830.854L230.406 830ZM219.565 830L216.946 829.345L216.107 832.7H219.565V830ZM220.094 827.885L222.713 828.54L222.794 828.217V827.885H220.094ZM220.094 813.607H222.794V813.274L222.713 812.952L220.094 813.607ZM219.565 811.492V808.792H216.107L216.946 812.146L219.565 811.492ZM230.141 811.492L232.703 810.638L232.088 808.792H230.141V811.492ZM231.463 815.458L230.61 818.019L235.733 819.727L234.025 814.604L231.463 815.458ZM229.084 814.664L229.938 812.103L229.522 811.964H229.084V814.664ZM224.325 814.664V811.964H223.206L222.415 812.755L224.325 814.664ZM224.06 814.929L222.151 813.02L221.36 813.81V814.929H224.06ZM224.06 818.102H221.36V819.22L222.151 820.011L224.06 818.102ZM224.325 818.366L222.415 820.275L223.206 821.066H224.325V818.366ZM226.572 818.366V821.066H227.01L227.426 820.928L226.572 818.366ZM228.555 817.705H231.255V813.959L227.701 815.144L228.555 817.705ZM228.555 822.2L227.701 824.761L231.255 825.946V822.2H228.555ZM226.572 821.539L227.426 818.978L227.01 818.839H226.572V821.539ZM224.325 821.539V818.839H223.206L222.415 819.63L224.325 821.539ZM224.06 821.803L222.151 819.894L221.36 820.685V821.803H224.06ZM224.06 826.166H221.36V827.284L222.151 828.075L224.06 826.166ZM224.457 826.563L222.548 828.472L223.338 829.263H224.457V826.563ZM229.084 826.563V829.263H229.522L229.938 829.124L229.084 826.563ZM231.86 825.637L229.299 824.783L227.844 829.146L230.406 830L232.967 830.854L234.422 826.491L231.86 825.637ZM230.406 830V827.3H219.565V830V832.7H230.406V830ZM219.565 830L222.185 830.655L222.713 828.54L220.094 827.885L217.475 827.23L216.946 829.345L219.565 830ZM220.094 827.885H222.794V813.607H220.094H217.394V827.885H220.094ZM220.094 813.607L222.713 812.952L222.185 810.837L219.565 811.492L216.946 812.146L217.475 814.262L220.094 813.607ZM219.565 811.492V814.192H230.141V811.492V808.792H219.565V811.492ZM230.141 811.492L227.58 812.345L228.902 816.311L231.463 815.458L234.025 814.604L232.703 810.638L230.141 811.492ZM231.463 815.458L232.317 812.896L229.938 812.103L229.084 814.664L228.23 817.226L230.61 818.019L231.463 815.458ZM229.084 814.664V811.964H224.325V814.664V817.364H229.084V814.664ZM224.325 814.664L222.415 812.755L222.151 813.02L224.06 814.929L225.969 816.838L226.234 816.574L224.325 814.664ZM224.06 814.929H221.36V818.102H224.06H226.76V814.929H224.06ZM224.06 818.102L222.151 820.011L222.415 820.275L224.325 818.366L226.234 816.457L225.969 816.193L224.06 818.102ZM224.325 818.366V821.066H226.572V818.366V815.666H224.325V818.366ZM226.572 818.366L227.426 820.928L229.409 820.267L228.555 817.705L227.701 815.144L225.718 815.805L226.572 818.366ZM228.555 817.705H225.855V822.2H228.555H231.255V817.705H228.555ZM228.555 822.2L229.409 819.639L227.426 818.978L226.572 821.539L225.718 824.1L227.701 824.761L228.555 822.2ZM226.572 821.539V818.839H224.325V821.539V824.239H226.572V821.539ZM224.325 821.539L222.415 819.63L222.151 819.894L224.06 821.803L225.969 823.713L226.234 823.448L224.325 821.539ZM224.06 821.803H221.36V826.166H224.06H226.76V821.803H224.06ZM224.06 826.166L222.151 828.075L222.548 828.472L224.457 826.563L226.366 824.654L225.969 824.257L224.06 826.166ZM224.457 826.563V829.263H229.084V826.563V823.863H224.457V826.563ZM229.084 826.563L229.938 829.124L232.714 828.199L231.86 825.637L231.006 823.076L228.23 824.001L229.084 826.563ZM246.133 825.637L248.694 826.491L250.402 821.368L245.279 823.076L246.133 825.637ZM244.679 830V832.7H246.625L247.24 830.854L244.679 830ZM237.804 830L235.895 831.909L236.686 832.7H237.804V830ZM234.102 826.298H231.402V827.417L232.193 828.207L234.102 826.298ZM234.102 815.193L232.193 813.284L231.402 814.075V815.193H234.102ZM237.804 811.492V808.792H236.686L235.895 809.582L237.804 811.492ZM244.414 811.492L246.976 810.638L246.36 808.792H244.414V811.492ZM245.868 815.854L245 818.411L250.15 820.161L248.43 815L245.868 815.854ZM243.145 814.929L244.014 812.372L243.591 812.229H243.145V814.929ZM240.316 814.929V812.229H239.679L239.108 812.514L240.316 814.929ZM238.994 815.59L237.786 813.175L236.981 813.577L236.579 814.382L238.994 815.59ZM238.333 816.912L235.918 815.704L235.633 816.274V816.912H238.333ZM238.333 824.58H235.633V825.217L235.918 825.787L238.333 824.58ZM238.994 825.902L236.579 827.109L236.981 827.914L237.786 828.317L238.994 825.902ZM240.316 826.563L239.108 828.978L239.679 829.263H240.316V826.563ZM243.357 826.563V829.263H243.795L244.21 829.124L243.357 826.563ZM246.133 825.637L243.571 824.783L242.117 829.146L244.679 830L247.24 830.854L248.694 826.491L246.133 825.637ZM244.679 830V827.3H237.804V830V832.7H244.679V830ZM237.804 830L239.713 828.091L236.012 824.389L234.102 826.298L232.193 828.207L235.895 831.909L237.804 830ZM234.102 826.298H236.802V815.193H234.102H231.402V826.298H234.102ZM234.102 815.193L236.012 817.102L239.713 813.401L237.804 811.492L235.895 809.582L232.193 813.284L234.102 815.193ZM237.804 811.492V814.192H244.414V811.492V808.792H237.804V811.492ZM244.414 811.492L241.853 812.345L243.307 816.708L245.868 815.854L248.43 815L246.976 810.638L244.414 811.492ZM245.868 815.854L246.737 813.298L244.014 812.372L243.145 814.929L242.276 817.485L245 818.411L245.868 815.854ZM243.145 814.929V812.229H240.316V814.929V817.629H243.145V814.929ZM240.316 814.929L239.108 812.514L237.786 813.175L238.994 815.59L240.201 818.005L241.523 817.344L240.316 814.929ZM238.994 815.59L236.579 814.382L235.918 815.704L238.333 816.912L240.748 818.119L241.409 816.797L238.994 815.59ZM238.333 816.912H235.633V824.58H238.333H241.033V816.912H238.333ZM238.333 824.58L235.918 825.787L236.579 827.109L238.994 825.902L241.409 824.694L240.748 823.372L238.333 824.58ZM238.994 825.902L237.786 828.317L239.108 828.978L240.316 826.563L241.523 824.148L240.201 823.487L238.994 825.902ZM240.316 826.563V829.263H243.357V826.563V823.863H240.316V826.563ZM243.357 826.563L244.21 829.124L246.987 828.199L246.133 825.637L245.279 823.076L242.503 824.001L243.357 826.563ZM253.663 830V832.7H257.121L256.283 829.345L253.663 830ZM248.64 830L246.02 829.345L245.181 832.7H248.64V830ZM249.168 827.885L251.788 828.54L251.868 828.217V827.885H249.168ZM249.168 813.607H251.868V813.274L251.788 812.952L249.168 813.607ZM248.64 811.492V808.792H245.181L246.02 812.146L248.64 811.492ZM253.663 811.492L256.283 812.146L257.121 808.792H253.663V811.492ZM253.135 813.607L250.515 812.952L250.435 813.274V813.607H253.135ZM253.135 827.885H250.435V828.217L250.515 828.54L253.135 827.885ZM253.663 830V827.3H248.64V830V832.7H253.663V830ZM248.64 830L251.259 830.655L251.788 828.54L249.168 827.885L246.549 827.23L246.02 829.345L248.64 830ZM249.168 827.885H251.868V813.607H249.168H246.468V827.885H249.168ZM249.168 813.607L251.788 812.952L251.259 810.837L248.64 811.492L246.02 812.146L246.549 814.262L249.168 813.607ZM248.64 811.492V814.192H253.663V811.492V808.792H248.64V811.492ZM253.663 811.492L251.044 810.837L250.515 812.952L253.135 813.607L255.754 814.262L256.283 812.146L253.663 811.492ZM253.135 813.607H250.435V827.885H253.135H255.835V813.607H253.135ZM253.135 827.885L250.515 828.54L251.044 830.655L253.663 830L256.283 829.345L255.754 827.23L253.135 827.885ZM272.161 830V832.7H276.53L274.576 828.793L272.161 830ZM266.741 830L264.062 829.665L263.683 832.7H266.741V830ZM267.006 827.885L269.685 828.22L269.747 827.719L269.625 827.23L267.006 827.885ZM266.477 825.769L269.096 825.115L268.915 824.389L268.386 823.86L266.477 825.769ZM266.212 825.505L268.121 823.596L267.331 822.805H266.212V825.505ZM261.189 825.505V822.805H260.07L259.279 823.596L261.189 825.505ZM260.924 825.769L259.015 823.86L258.486 824.389L258.305 825.115L260.924 825.769ZM260.395 827.885L257.776 827.23L257.654 827.719L257.716 828.22L260.395 827.885ZM260.66 830V832.7H263.718L263.339 829.665L260.66 830ZM255.768 830L253.353 828.793L251.4 832.7H255.768V830ZM256.826 827.885L259.241 829.092L259.362 828.85L259.432 828.589L256.826 827.885ZM260.792 813.21L263.398 813.915L263.575 813.262L263.423 812.603L260.792 813.21ZM260.395 811.492V808.792H257.001L257.765 812.099L260.395 811.492ZM267.534 811.492L270.165 812.099L270.928 808.792H267.534V811.492ZM267.138 813.21L264.507 812.603L264.355 813.262L264.531 813.915L267.138 813.21ZM271.104 827.885L268.497 828.589L268.568 828.85L268.689 829.092L271.104 827.885ZM265.551 822.068L267.46 823.977L268.53 822.907L268.176 821.436L265.551 822.068ZM263.833 814.929L261.169 815.373L261.185 815.467L261.208 815.561L263.833 814.929ZM263.7 814.136L266.364 813.692H261.037L263.7 814.136ZM263.568 814.929L266.193 815.561L266.216 815.467L266.232 815.373L263.568 814.929ZM261.85 822.068L259.225 821.436L258.87 822.907L259.94 823.977L261.85 822.068ZM262.114 822.332L260.205 824.241L260.996 825.032H262.114V822.332ZM265.287 822.332V825.032H266.405L267.196 824.241L265.287 822.332ZM272.161 830V827.3H266.741V830V832.7H272.161V830ZM266.741 830L269.42 830.335L269.685 828.22L267.006 827.885L264.326 827.55L264.062 829.665L266.741 830ZM267.006 827.885L269.625 827.23L269.096 825.115L266.477 825.769L263.857 826.424L264.386 828.54L267.006 827.885ZM266.477 825.769L268.386 823.86L268.121 823.596L266.212 825.505L264.303 827.414L264.568 827.679L266.477 825.769ZM266.212 825.505V822.805H261.189V825.505V828.205H266.212V825.505ZM261.189 825.505L259.279 823.596L259.015 823.86L260.924 825.769L262.833 827.679L263.098 827.414L261.189 825.505ZM260.924 825.769L258.305 825.115L257.776 827.23L260.395 827.885L263.015 828.54L263.544 826.424L260.924 825.769ZM260.395 827.885L257.716 828.22L257.981 830.335L260.66 830L263.339 829.665L263.075 827.55L260.395 827.885ZM260.66 830V827.3H255.768V830V832.7H260.66V830ZM255.768 830L258.183 831.207L259.241 829.092L256.826 827.885L254.411 826.677L253.353 828.793L255.768 830ZM256.826 827.885L259.432 828.589L263.398 813.915L260.792 813.21L258.185 812.506L254.219 827.18L256.826 827.885ZM260.792 813.21L263.423 812.603L263.026 810.884L260.395 811.492L257.765 812.099L258.161 813.817L260.792 813.21ZM260.395 811.492V814.192H267.534V811.492V808.792H260.395V811.492ZM267.534 811.492L264.903 810.884L264.507 812.603L267.138 813.21L269.769 813.817L270.165 812.099L267.534 811.492ZM267.138 813.21L264.531 813.915L268.497 828.589L271.104 827.885L273.71 827.18L269.744 812.506L267.138 813.21ZM271.104 827.885L268.689 829.092L269.746 831.207L272.161 830L274.576 828.793L273.519 826.677L271.104 827.885ZM265.551 822.068L268.176 821.436L266.458 814.297L263.833 814.929L261.208 815.561L262.926 822.7L265.551 822.068ZM263.833 814.929L266.496 814.485L266.364 813.692L263.7 814.136L261.037 814.579L261.169 815.373L263.833 814.929ZM263.7 814.136L261.037 813.692L260.905 814.485L263.568 814.929L266.232 815.373L266.364 814.579L263.7 814.136ZM263.568 814.929L260.943 814.297L259.225 821.436L261.85 822.068L264.475 822.7L266.193 815.561L263.568 814.929ZM261.85 822.068L259.94 823.977L260.205 824.241L262.114 822.332L264.023 820.423L263.759 820.159L261.85 822.068ZM262.114 822.332V825.032H265.287V822.332V819.632H262.114V822.332ZM265.287 822.332L267.196 824.241L267.46 823.977L265.551 822.068L263.642 820.159L263.378 820.423L265.287 822.332ZM286.046 825.637L288.607 826.491L290.315 821.368L285.192 823.076L286.046 825.637ZM284.592 830V832.7H286.538L287.153 830.854L284.592 830ZM274.28 830L271.66 829.345L270.822 832.7H274.28V830ZM274.809 827.885L277.428 828.54L277.509 828.217V827.885H274.809ZM274.809 813.607H277.509V813.274L277.428 812.952L274.809 813.607ZM274.28 811.492V808.792H270.822L271.66 812.146L274.28 811.492ZM279.436 811.492L282.055 812.146L282.894 808.792H279.436V811.492ZM278.775 814.136L276.155 813.481L276.075 813.803V814.136H278.775ZM278.775 826.166H276.075V827.284L276.866 828.075L278.775 826.166ZM279.171 826.563L277.262 828.472L278.053 829.263H279.171V826.563ZM283.27 826.563V829.263H283.708L284.123 829.124L283.27 826.563ZM286.046 825.637L283.484 824.783L282.03 829.146L284.592 830L287.153 830.854L288.607 826.491L286.046 825.637ZM284.592 830V827.3H274.28V830V832.7H284.592V830ZM274.28 830L276.899 830.655L277.428 828.54L274.809 827.885L272.189 827.23L271.66 829.345L274.28 830ZM274.809 827.885H277.509V813.607H274.809H272.109V827.885H274.809ZM274.809 813.607L277.428 812.952L276.899 810.837L274.28 811.492L271.66 812.146L272.189 814.262L274.809 813.607ZM274.28 811.492V814.192H279.436V811.492V808.792H274.28V811.492ZM279.436 811.492L276.816 810.837L276.155 813.481L278.775 814.136L281.394 814.79L282.055 812.146L279.436 811.492ZM278.775 814.136H276.075V826.166H278.775H281.475V814.136H278.775ZM278.775 826.166L276.866 828.075L277.262 828.472L279.171 826.563L281.081 824.654L280.684 824.257L278.775 826.166ZM279.171 826.563V829.263H283.27V826.563V823.863H279.171V826.563ZM283.27 826.563L284.123 829.124L286.9 828.199L286.046 825.637L285.192 823.076L282.416 824.001L283.27 826.563ZM308.653 830V832.7H313.336L310.989 828.647L308.653 830ZM303.629 830L301.063 830.839L301.671 832.7H303.629V830ZM301.381 823.125L303.948 822.286L303.597 821.215L302.589 820.71L301.381 823.125ZM300.853 822.861L302.06 820.446L301.49 820.161H300.853V822.861ZM298.87 822.861V820.161H297.751L296.96 820.952L298.87 822.861ZM298.605 823.125L296.696 821.216L295.905 822.007V823.125H298.605ZM298.605 827.885H295.905V828.217L295.986 828.54L298.605 827.885ZM299.134 830V832.7H302.592L301.753 829.345L299.134 830ZM294.11 830L291.491 829.345L290.652 832.7H294.11V830ZM294.639 827.885L297.259 828.54L297.339 828.217V827.885H294.639ZM294.639 813.607H297.339V813.274L297.259 812.952L294.639 813.607ZM294.11 811.492V808.792H290.652L291.491 812.146L294.11 811.492ZM304.951 811.492L306.86 809.582L306.069 808.792H304.951V811.492ZM308.124 814.664H310.824V813.546L310.033 812.755L308.124 814.664ZM308.124 819.159L310.033 821.069L310.824 820.278V819.159H308.124ZM305.215 822.068L303.306 820.159L302.088 821.377L302.68 822.995L305.215 822.068ZM307.198 827.488L304.663 828.416L304.744 828.637L304.862 828.841L307.198 827.488ZM303.893 817.969L306.308 819.177L306.593 818.607V817.969H303.893ZM303.893 816.383H306.593V815.746L306.308 815.176L303.893 816.383ZM303.365 815.325L305.779 814.118L305.377 813.313L304.572 812.91L303.365 815.325ZM302.043 814.664L303.25 812.249L302.68 811.964H302.043V814.664ZM298.87 814.664V811.964H297.751L296.96 812.755L298.87 814.664ZM298.605 814.929L296.696 813.02L295.905 813.81V814.929H298.605ZM298.605 819.424H295.905V820.542L296.696 821.333L298.605 819.424ZM298.87 819.688L296.96 821.597L297.751 822.388H298.87V819.688ZM302.043 819.688V822.388H302.68L303.25 822.103L302.043 819.688ZM303.365 819.027L304.572 821.442L305.377 821.04L305.779 820.235L303.365 819.027ZM308.653 830V827.3H303.629V830V832.7H308.653V830ZM303.629 830L306.195 829.161L303.948 822.286L301.381 823.125L298.815 823.964L301.063 830.839L303.629 830ZM301.381 823.125L302.589 820.71L302.06 820.446L300.853 822.861L299.645 825.276L300.174 825.54L301.381 823.125ZM300.853 822.861V820.161H298.87V822.861V825.561H300.853V822.861ZM298.87 822.861L296.96 820.952L296.696 821.216L298.605 823.125L300.514 825.035L300.779 824.77L298.87 822.861ZM298.605 823.125H295.905V827.885H298.605H301.305V823.125H298.605ZM298.605 827.885L295.986 828.54L296.515 830.655L299.134 830L301.753 829.345L301.225 827.23L298.605 827.885ZM299.134 830V827.3H294.11V830V832.7H299.134V830ZM294.11 830L296.73 830.655L297.259 828.54L294.639 827.885L292.02 827.23L291.491 829.345L294.11 830ZM294.639 827.885H297.339V813.607H294.639H291.939V827.885H294.639ZM294.639 813.607L297.259 812.952L296.73 810.837L294.11 811.492L291.491 812.146L292.02 814.262L294.639 813.607ZM294.11 811.492V814.192H304.951V811.492V808.792H294.11V811.492ZM304.951 811.492L303.042 813.401L306.215 816.574L308.124 814.664L310.033 812.755L306.86 809.582L304.951 811.492ZM308.124 814.664H305.424V819.159H308.124H310.824V814.664H308.124ZM308.124 819.159L306.215 817.25L303.306 820.159L305.215 822.068L307.125 823.977L310.033 821.069L308.124 819.159ZM305.215 822.068L302.68 822.995L304.663 828.416L307.198 827.488L309.734 826.56L307.751 821.14L305.215 822.068ZM307.198 827.488L304.862 828.841L306.316 831.353L308.653 830L310.989 828.647L309.535 826.135L307.198 827.488ZM303.893 817.969H306.593V816.383H303.893H301.193V817.969H303.893ZM303.893 816.383L306.308 815.176L305.779 814.118L303.365 815.325L300.95 816.533L301.478 817.591L303.893 816.383ZM303.365 815.325L304.572 812.91L303.25 812.249L302.043 814.664L300.835 817.079L302.157 817.74L303.365 815.325ZM302.043 814.664V811.964H298.87V814.664V817.364H302.043V814.664ZM298.87 814.664L296.96 812.755L296.696 813.02L298.605 814.929L300.514 816.838L300.779 816.574L298.87 814.664ZM298.605 814.929H295.905V819.424H298.605H301.305V814.929H298.605ZM298.605 819.424L296.696 821.333L296.96 821.597L298.87 819.688L300.779 817.779L300.514 817.515L298.605 819.424ZM298.87 819.688V822.388H302.043V819.688V816.988H298.87V819.688ZM302.043 819.688L303.25 822.103L304.572 821.442L303.365 819.027L302.157 816.612L300.835 817.273L302.043 819.688ZM303.365 819.027L305.779 820.235L306.308 819.177L303.893 817.969L301.478 816.762L300.95 817.82L303.365 819.027ZM325.837 811.492L328.456 812.146L329.295 808.792H325.837V811.492ZM325.308 813.607L322.689 812.952L322.608 813.274V813.607H325.308ZM325.308 824.976H322.608V825.2L322.645 825.42L325.308 824.976ZM325.573 826.563L327.482 828.472L328.464 827.489L328.236 826.119L325.573 826.563ZM322.135 830V832.7H323.254L324.045 831.909L322.135 830ZM315.261 830L313.352 831.909L314.142 832.7H315.261V830ZM311.823 826.563L309.16 826.119L308.932 827.489L309.914 828.472L311.823 826.563ZM312.088 824.976L314.751 825.42L314.788 825.2V824.976H312.088ZM312.088 813.607H314.788V813.274L314.707 812.952L312.088 813.607ZM311.559 811.492V808.792H308.101L308.94 812.146L311.559 811.492ZM316.715 811.492L319.334 812.146L320.173 808.792H316.715V811.492ZM316.186 813.607L313.567 812.952L313.486 813.274V813.607H316.186ZM316.186 824.976H313.486V825.614L313.771 826.184L316.186 824.976ZM316.715 826.034L314.3 827.241L314.703 828.046L315.508 828.449L316.715 826.034ZM317.773 826.563L316.565 828.978L317.135 829.263H317.773V826.563ZM319.756 826.563V829.263H320.393L320.963 828.978L319.756 826.563ZM320.813 826.034L322.021 828.449L322.826 828.046L323.228 827.241L320.813 826.034ZM321.342 824.976L323.757 826.184L324.042 825.614V824.976H321.342ZM321.342 813.607H324.042V813.274L323.962 812.952L321.342 813.607ZM320.813 811.492V808.792H317.355L318.194 812.146L320.813 811.492ZM325.837 811.492L323.218 810.837L322.689 812.952L325.308 813.607L327.928 814.262L328.456 812.146L325.837 811.492ZM325.308 813.607H322.608V824.976H325.308H328.008V813.607H325.308ZM325.308 824.976L322.645 825.42L322.909 827.007L325.573 826.563L328.236 826.119L327.971 824.532L325.308 824.976ZM325.573 826.563L323.663 824.654L320.226 828.091L322.135 830L324.045 831.909L327.482 828.472L325.573 826.563ZM322.135 830V827.3H315.261V830V832.7H322.135V830ZM315.261 830L317.17 828.091L313.733 824.654L311.823 826.563L309.914 828.472L313.352 831.909L315.261 830ZM311.823 826.563L314.487 827.007L314.751 825.42L312.088 824.976L309.425 824.532L309.16 826.119L311.823 826.563ZM312.088 824.976H314.788V813.607H312.088H309.388V824.976H312.088ZM312.088 813.607L314.707 812.952L314.178 810.837L311.559 811.492L308.94 812.146L309.469 814.262L312.088 813.607ZM311.559 811.492V814.192H316.715V811.492V808.792H311.559V811.492ZM316.715 811.492L314.096 810.837L313.567 812.952L316.186 813.607L318.806 814.262L319.334 812.146L316.715 811.492ZM316.186 813.607H313.486V824.976H316.186H318.886V813.607H316.186ZM316.186 824.976L313.771 826.184L314.3 827.241L316.715 826.034L319.13 824.826L318.601 823.769L316.186 824.976ZM316.715 826.034L315.508 828.449L316.565 828.978L317.773 826.563L318.98 824.148L317.922 823.619L316.715 826.034ZM317.773 826.563V829.263H319.756V826.563V823.863H317.773V826.563ZM319.756 826.563L320.963 828.978L322.021 828.449L320.813 826.034L319.606 823.619L318.548 824.148L319.756 826.563ZM320.813 826.034L323.228 827.241L323.757 826.184L321.342 824.976L318.927 823.769L318.398 824.826L320.813 826.034ZM321.342 824.976H324.042V813.607H321.342H318.642V824.976H321.342ZM321.342 813.607L323.962 812.952L323.433 810.837L320.813 811.492L318.194 812.146L318.723 814.262L321.342 813.607ZM320.813 811.492V814.192H325.837V811.492V808.792H320.813V811.492ZM341.561 825.637L344.122 826.491L345.83 821.368L340.707 823.076L341.561 825.637ZM340.107 830V832.7H342.053L342.668 830.854L340.107 830ZM329.795 830L327.175 829.345L326.337 832.7H329.795V830ZM330.324 827.885L332.943 828.54L333.024 828.217V827.885H330.324ZM330.324 813.607H333.024V813.274L332.943 812.952L330.324 813.607ZM329.795 811.492V808.792H326.337L327.175 812.146L329.795 811.492ZM334.951 811.492L337.57 812.146L338.409 808.792H334.951V811.492ZM334.29 814.136L331.67 813.481L331.59 813.803V814.136H334.29ZM334.29 826.166H331.59V827.284L332.381 828.075L334.29 826.166ZM334.686 826.563L332.777 828.472L333.568 829.263H334.686V826.563ZM338.785 826.563V829.263H339.223L339.639 829.124L338.785 826.563ZM341.561 825.637L339 824.783L337.545 829.146L340.107 830L342.668 830.854L344.122 826.491L341.561 825.637ZM340.107 830V827.3H329.795V830V832.7H340.107V830ZM329.795 830L332.414 830.655L332.943 828.54L330.324 827.885L327.704 827.23L327.175 829.345L329.795 830ZM330.324 827.885H333.024V813.607H330.324H327.624V827.885H330.324ZM330.324 813.607L332.943 812.952L332.414 810.837L329.795 811.492L327.175 812.146L327.704 814.262L330.324 813.607ZM329.795 811.492V814.192H334.951V811.492V808.792H329.795V811.492ZM334.951 811.492L332.331 810.837L331.67 813.481L334.29 814.136L336.909 814.79L337.57 812.146L334.951 811.492ZM334.29 814.136H331.59V826.166H334.29H336.99V814.136H334.29ZM334.29 826.166L332.381 828.075L332.777 828.472L334.686 826.563L336.596 824.654L336.199 824.257L334.29 826.166ZM334.686 826.563V829.263H338.785V826.563V823.863H334.686V826.563ZM338.785 826.563L339.639 829.124L342.415 828.199L341.561 825.637L340.707 823.076L337.931 824.001L338.785 826.563ZM355.31 825.637L357.872 826.491L359.579 821.368L354.456 823.076L355.31 825.637ZM353.856 830V832.7H355.802L356.417 830.854L353.856 830ZM343.015 830L340.396 829.345L339.557 832.7H343.015V830ZM343.544 827.885L346.163 828.54L346.244 828.217V827.885H343.544ZM343.544 813.607H346.244V813.274L346.163 812.952L343.544 813.607ZM343.015 811.492V808.792H339.557L340.396 812.146L343.015 811.492ZM353.591 811.492L356.153 810.638L355.538 808.792H353.591V811.492ZM354.914 815.458L354.06 818.019L359.183 819.727L357.475 814.604L354.914 815.458ZM352.534 814.664L353.388 812.103L352.972 811.964H352.534V814.664ZM347.775 814.664V811.964H346.656L345.865 812.755L347.775 814.664ZM347.51 814.929L345.601 813.02L344.81 813.81V814.929H347.51ZM347.51 818.102H344.81V819.22L345.601 820.011L347.51 818.102ZM347.775 818.366L345.865 820.275L346.656 821.066H347.775V818.366ZM350.022 818.366V821.066H350.46L350.876 820.928L350.022 818.366ZM352.005 817.705H354.705V813.959L351.151 815.144L352.005 817.705ZM352.005 822.2L351.151 824.761L354.705 825.946V822.2H352.005ZM350.022 821.539L350.876 818.978L350.46 818.839H350.022V821.539ZM347.775 821.539V818.839H346.656L345.865 819.63L347.775 821.539ZM347.51 821.803L345.601 819.894L344.81 820.685V821.803H347.51ZM347.51 826.166H344.81V827.284L345.601 828.075L347.51 826.166ZM347.907 826.563L345.998 828.472L346.788 829.263H347.907V826.563ZM352.534 826.563V829.263H352.972L353.388 829.124L352.534 826.563ZM355.31 825.637L352.749 824.783L351.294 829.146L353.856 830L356.417 830.854L357.872 826.491L355.31 825.637ZM353.856 830V827.3H343.015V830V832.7H353.856V830ZM343.015 830L345.635 830.655L346.163 828.54L343.544 827.885L340.925 827.23L340.396 829.345L343.015 830ZM343.544 827.885H346.244V813.607H343.544H340.844V827.885H343.544ZM343.544 813.607L346.163 812.952L345.635 810.837L343.015 811.492L340.396 812.146L340.925 814.262L343.544 813.607ZM343.015 811.492V814.192H353.591V811.492V808.792H343.015V811.492ZM353.591 811.492L351.03 812.345L352.352 816.311L354.914 815.458L357.475 814.604L356.153 810.638L353.591 811.492ZM354.914 815.458L355.767 812.896L353.388 812.103L352.534 814.664L351.68 817.226L354.06 818.019L354.914 815.458ZM352.534 814.664V811.964H347.775V814.664V817.364H352.534V814.664ZM347.775 814.664L345.865 812.755L345.601 813.02L347.51 814.929L349.419 816.838L349.684 816.574L347.775 814.664ZM347.51 814.929H344.81V818.102H347.51H350.21V814.929H347.51ZM347.51 818.102L345.601 820.011L345.865 820.275L347.775 818.366L349.684 816.457L349.419 816.193L347.51 818.102ZM347.775 818.366V821.066H350.022V818.366V815.666H347.775V818.366ZM350.022 818.366L350.876 820.928L352.859 820.267L352.005 817.705L351.151 815.144L349.168 815.805L350.022 818.366ZM352.005 817.705H349.305V822.2H352.005H354.705V817.705H352.005ZM352.005 822.2L352.859 819.639L350.876 818.978L350.022 821.539L349.168 824.1L351.151 824.761L352.005 822.2ZM350.022 821.539V818.839H347.775V821.539V824.239H350.022V821.539ZM347.775 821.539L345.865 819.63L345.601 819.894L347.51 821.803L349.419 823.713L349.684 823.448L347.775 821.539ZM347.51 821.803H344.81V826.166H347.51H350.21V821.803H347.51ZM347.51 826.166L345.601 828.075L345.998 828.472L347.907 826.563L349.816 824.654L349.419 824.257L347.51 826.166ZM347.907 826.563V829.263H352.534V826.563V823.863H347.907V826.563ZM352.534 826.563L353.388 829.124L356.164 828.199L355.31 825.637L354.456 823.076L351.68 824.001L352.534 826.563ZM368.658 826.563L370.567 828.472L371.357 827.681V826.563H368.658ZM365.22 830V832.7H366.339L367.129 831.909L365.22 830ZM357.949 830L355.388 830.854L356.003 832.7H357.949V830ZM356.495 825.637L357.371 823.083L352.207 821.311L353.933 826.491L356.495 825.637ZM359.192 826.563L358.315 829.117L358.741 829.263H359.192V826.563ZM362.841 826.563V829.263H363.478L364.048 828.978L362.841 826.563ZM363.898 826.034L365.106 828.449L365.911 828.046L366.313 827.241L363.898 826.034ZM364.427 824.976L366.842 826.184L367.127 825.614V824.976H364.427ZM364.427 823.258H367.127V822.139L366.336 821.348L364.427 823.258ZM363.502 822.332L365.411 820.423L364.866 819.878L364.115 819.703L363.502 822.332ZM359.535 821.407L357.626 823.316L358.171 823.861L358.922 824.036L359.535 821.407ZM357.024 818.895H354.324V820.013L355.114 820.804L357.024 818.895ZM357.024 814.929L355.114 813.02L354.324 813.81V814.929H357.024ZM360.461 811.492V808.792H359.343L358.552 809.582L360.461 811.492ZM367.335 811.492L369.897 810.638L369.282 808.792H367.335V811.492ZM368.658 815.458L367.804 818.019L372.927 819.727L371.219 814.604L368.658 815.458ZM366.278 814.664L367.132 812.103L366.716 811.964H366.278V814.664ZM362.841 814.664V811.964H362.203L361.633 812.249L362.841 814.664ZM361.783 815.193L360.575 812.778L359.77 813.181L359.368 813.986L361.783 815.193ZM361.254 816.251L358.839 815.043L358.554 815.613V816.251H361.254ZM361.254 817.308H358.554V818.427L359.345 819.218L361.254 817.308ZM362.18 818.234L360.27 820.143L360.815 820.688L361.566 820.863L362.18 818.234ZM366.146 819.159L368.055 817.25L367.51 816.705L366.759 816.53L366.146 819.159ZM368.658 821.671H371.357V820.553L370.567 819.762L368.658 821.671ZM368.658 826.563L366.748 824.654L363.311 828.091L365.22 830L367.129 831.909L370.567 828.472L368.658 826.563ZM365.22 830V827.3H357.949V830V832.7H365.22V830ZM357.949 830L360.51 829.146L359.056 824.783L356.495 825.637L353.933 826.491L355.388 830.854L357.949 830ZM356.495 825.637L355.618 828.191L358.315 829.117L359.192 826.563L360.068 824.009L357.371 823.083L356.495 825.637ZM359.192 826.563V829.263H362.841V826.563V823.863H359.192V826.563ZM362.841 826.563L364.048 828.978L365.106 828.449L363.898 826.034L362.691 823.619L361.633 824.148L362.841 826.563ZM363.898 826.034L366.313 827.241L366.842 826.184L364.427 824.976L362.012 823.769L361.483 824.826L363.898 826.034ZM364.427 824.976H367.127V823.258H364.427H361.727V824.976H364.427ZM364.427 823.258L366.336 821.348L365.411 820.423L363.502 822.332L361.592 824.241L362.518 825.167L364.427 823.258ZM363.502 822.332L364.115 819.703L360.149 818.777L359.535 821.407L358.922 824.036L362.888 824.962L363.502 822.332ZM359.535 821.407L361.445 819.498L358.933 816.986L357.024 818.895L355.114 820.804L357.626 823.316L359.535 821.407ZM357.024 818.895H359.724V814.929H357.024H354.324V818.895H357.024ZM357.024 814.929L358.933 816.838L362.37 813.401L360.461 811.492L358.552 809.582L355.114 813.02L357.024 814.929ZM360.461 811.492V814.192H367.335V811.492V808.792H360.461V811.492ZM367.335 811.492L364.774 812.345L366.096 816.311L368.658 815.458L371.219 814.604L369.897 810.638L367.335 811.492ZM368.658 815.458L369.511 812.896L367.132 812.103L366.278 814.664L365.424 817.226L367.804 818.019L368.658 815.458ZM366.278 814.664V811.964H362.841V814.664V817.364H366.278V814.664ZM362.841 814.664L361.633 812.249L360.575 812.778L361.783 815.193L362.99 817.608L364.048 817.079L362.841 814.664ZM361.783 815.193L359.368 813.986L358.839 815.043L361.254 816.251L363.669 817.458L364.198 816.401L361.783 815.193ZM361.254 816.251H358.554V817.308H361.254H363.954V816.251H361.254ZM361.254 817.308L359.345 819.218L360.27 820.143L362.18 818.234L364.089 816.325L363.163 815.399L361.254 817.308ZM362.18 818.234L361.566 820.863L365.532 821.789L366.146 819.159L366.759 816.53L362.793 815.605L362.18 818.234ZM366.146 819.159L364.236 821.069L366.748 823.58L368.658 821.671L370.567 819.762L368.055 817.25L366.146 819.159ZM368.658 821.671H365.958V826.563H368.658H371.357V821.671H368.658Z" fill="white" mask="url(#path-28-outside-6_897_14263)"/>
</g>
<defs>
<filter id="filter0_d_897_14263" x="155.511" y="642.604" width="516.636" height="308.903" filterUnits="userSpaceOnUse" color-interpolation-filters="sRGB">
<feFlood flood-opacity="0" result="BackgroundImageFix"/>
<feColorMatrix in="SourceAlpha" type="matrix" values="0 0 0 0 0 0 0 0 0 0 0 0 0 0 0 0 0 0 127 0" result="hardAlpha"/>
<feOffset dx="-2.69784" dy="5.39568"/>
<feGaussianBlur stdDeviation="5.39568"/>
<feComposite in2="hardAlpha" operator="out"/>
<feColorMatrix type="matrix" values="0 0 0 0 0 0 0 0 0 0 0 0 0 0 0 0 0 0 0.25 0"/>
<feBlend mode="normal" in2="BackgroundImageFix" result="effect1_dropShadow_897_14263"/>
<feBlend mode="normal" in="SourceGraphic" in2="effect1_dropShadow_897_14263" result="shape"/>
</filter>
<filter id="filter1_di_897_14263" x="-2" y="-2" width="163.698" height="333.45" filterUnits="userSpaceOnUse" color-interpolation-filters="sRGB">
<feFlood flood-opacity="0" result="BackgroundImageFix"/>
<feColorMatrix in="SourceAlpha" type="matrix" values="0 0 0 0 0 0 0 0 0 0 0 0 0 0 0 0 0 0 127 0" result="hardAlpha"/>
<feOffset dx="2.69784" dy="5.39568"/>
<feComposite in2="hardAlpha" operator="out"/>
<feColorMatrix type="matrix" values="0 0 0 0 0 0 0 0 0 0 0 0 0 0 0 0 0 0 0.25 0"/>
<feBlend mode="normal" in2="BackgroundImageFix" result="effect1_dropShadow_897_14263"/>
<feBlend mode="normal" in="SourceGraphic" in2="effect1_dropShadow_897_14263" result="shape"/>
<feColorMatrix in="SourceAlpha" type="matrix" values="0 0 0 0 0 0 0 0 0 0 0 0 0 0 0 0 0 0 127 0" result="hardAlpha"/>
<feOffset/>
<feGaussianBlur stdDeviation="5.39568"/>
<feComposite in2="hardAlpha" operator="arithmetic" k2="-1" k3="1"/>
<feColorMatrix type="matrix" values="0 0 0 0 0 0 0 0 0 0 0 0 0 0 0 0 0 0 0.25 0"/>
<feBlend mode="normal" in2="shape" result="effect2_innerShadow_897_14263"/>
</filter>
<filter id="filter2_di_897_14263" x="-2" y="307.938" width="163.698" height="162.45" filterUnits="userSpaceOnUse" color-interpolation-filters="sRGB">
<feFlood flood-opacity="0" result="BackgroundImageFix"/>
<feColorMatrix in="SourceAlpha" type="matrix" values="0 0 0 0 0 0 0 0 0 0 0 0 0 0 0 0 0 0 127 0" result="hardAlpha"/>
<feOffset dx="2.69784" dy="5.39568"/>
<feComposite in2="hardAlpha" operator="out"/>
<feColorMatrix type="matrix" values="0 0 0 0 0 0 0 0 0 0 0 0 0 0 0 0 0 0 0.25 0"/>
<feBlend mode="normal" in2="BackgroundImageFix" result="effect1_dropShadow_897_14263"/>
<feBlend mode="normal" in="SourceGraphic" in2="effect1_dropShadow_897_14263" result="shape"/>
<feColorMatrix in="SourceAlpha" type="matrix" values="0 0 0 0 0 0 0 0 0 0 0 0 0 0 0 0 0 0 127 0" result="hardAlpha"/>
<feOffset/>
<feGaussianBlur stdDeviation="5.39568"/>
<feComposite in2="hardAlpha" operator="arithmetic" k2="-1" k3="1"/>
<feColorMatrix type="matrix" values="0 0 0 0 0 0 0 0 0 0 0 0 0 0 0 0 0 0 0.25 0"/>
<feBlend mode="normal" in2="shape" result="effect2_innerShadow_897_14263"/>
</filter>
<filter id="filter3_di_897_14263" x="-2" y="446.877" width="163.698" height="162.45" filterUnits="userSpaceOnUse" color-interpolation-filters="sRGB">
<feFlood flood-opacity="0" result="BackgroundImageFix"/>
<feColorMatrix in="SourceAlpha" type="matrix" values="0 0 0 0 0 0 0 0 0 0 0 0 0 0 0 0 0 0 127 0" result="hardAlpha"/>
<feOffset dx="2.69784" dy="5.39568"/>
<feComposite in2="hardAlpha" operator="out"/>
<feColorMatrix type="matrix" values="0 0 0 0 0 0 0 0 0 0 0 0 0 0 0 0 0 0 0.25 0"/>
<feBlend mode="normal" in2="BackgroundImageFix" result="effect1_dropShadow_897_14263"/>
<feBlend mode="normal" in="SourceGraphic" in2="effect1_dropShadow_897_14263" result="shape"/>
<feColorMatrix in="SourceAlpha" type="matrix" values="0 0 0 0 0 0 0 0 0 0 0 0 0 0 0 0 0 0 127 0" result="hardAlpha"/>
<feOffset/>
<feGaussianBlur stdDeviation="5.39568"/>
<feComposite in2="hardAlpha" operator="arithmetic" k2="-1" k3="1"/>
<feColorMatrix type="matrix" values="0 0 0 0 0 0 0 0 0 0 0 0 0 0 0 0 0 0 0.25 0"/>
<feBlend mode="normal" in2="shape" result="effect2_innerShadow_897_14263"/>
</filter>
<filter id="filter4_di_897_14263" x="-2" y="585.815" width="163.698" height="162.45" filterUnits="userSpaceOnUse" color-interpolation-filters="sRGB">
<feFlood flood-opacity="0" result="BackgroundImageFix"/>
<feColorMatrix in="SourceAlpha" type="matrix" values="0 0 0 0 0 0 0 0 0 0 0 0 0 0 0 0 0 0 127 0" result="hardAlpha"/>
<feOffset dx="2.69784" dy="5.39568"/>
<feComposite in2="hardAlpha" operator="out"/>
<feColorMatrix type="matrix" values="0 0 0 0 0 0 0 0 0 0 0 0 0 0 0 0 0 0 0.25 0"/>
<feBlend mode="normal" in2="BackgroundImageFix" result="effect1_dropShadow_897_14263"/>
<feBlend mode="normal" in="SourceGraphic" in2="effect1_dropShadow_897_14263" result="shape"/>
<feColorMatrix in="SourceAlpha" type="matrix" values="0 0 0 0 0 0 0 0 0 0 0 0 0 0 0 0 0 0 127 0" result="hardAlpha"/>
<feOffset/>
<feGaussianBlur stdDeviation="5.39568"/>
<feComposite in2="hardAlpha" operator="arithmetic" k2="-1" k3="1"/>
<feColorMatrix type="matrix" values="0 0 0 0 0 0 0 0 0 0 0 0 0 0 0 0 0 0 0.25 0"/>
<feBlend mode="normal" in2="shape" result="effect2_innerShadow_897_14263"/>
</filter>
<filter id="filter5_di_897_14263" x="-2" y="724.754" width="163.698" height="162.45" filterUnits="userSpaceOnUse" color-interpolation-filters="sRGB">
<feFlood flood-opacity="0" result="BackgroundImageFix"/>
<feColorMatrix in="SourceAlpha" type="matrix" values="0 0 0 0 0 0 0 0 0 0 0 0 0 0 0 0 0 0 127 0" result="hardAlpha"/>
<feOffset dx="2.69784" dy="5.39568"/>
<feComposite in2="hardAlpha" operator="out"/>
<feColorMatrix type="matrix" values="0 0 0 0 0 0 0 0 0 0 0 0 0 0 0 0 0 0 0.25 0"/>
<feBlend mode="normal" in2="BackgroundImageFix" result="effect1_dropShadow_897_14263"/>
<feBlend mode="normal" in="SourceGraphic" in2="effect1_dropShadow_897_14263" result="shape"/>
<feColorMatrix in="SourceAlpha" type="matrix" values="0 0 0 0 0 0 0 0 0 0 0 0 0 0 0 0 0 0 127 0" result="hardAlpha"/>
<feOffset/>
<feGaussianBlur stdDeviation="5.39568"/>
<feComposite in2="hardAlpha" operator="arithmetic" k2="-1" k3="1"/>
<feColorMatrix type="matrix" values="0 0 0 0 0 0 0 0 0 0 0 0 0 0 0 0 0 0 0.25 0"/>
<feBlend mode="normal" in2="shape" result="effect2_innerShadow_897_14263"/>
</filter>
<clipPath id="clip0_897_14263">
<rect width="750" height="1100" fill="white"/>
</clipPath>
</defs>
</svg>
