<svg width="1330" height="950" viewBox="0 0 1330 950" fill="none" xmlns="http://www.w3.org/2000/svg">
<g clip-path="url(#clip0_871_2171)">
<rect width="1330" height="950" fill="url(#paint0_linear_871_2171)"/>
<rect x="864" width="96" height="148" fill="#110F11"/>
<path d="M905.623 76.728C905.623 76.898 905.487 77 905.249 77H901.815C901.645 77 901.509 76.932 901.475 76.762L900.455 73.192C900.421 73.022 900.285 72.988 900.115 72.988H895.253C895.083 72.988 894.947 73.022 894.913 73.192L893.893 76.762C893.859 76.932 893.723 77 893.553 77H890.153C889.915 77 889.779 76.898 889.779 76.728C889.779 76.592 889.881 76.388 889.949 76.116L896.137 55.818C896.171 55.648 896.307 55.58 896.477 55.58H898.925C899.095 55.58 899.231 55.648 899.265 55.818L905.453 76.116C905.521 76.32 905.623 76.592 905.623 76.728ZM899.299 69.112C899.299 68.976 899.197 68.67 899.129 68.466L898.143 64.488C898.075 64.25 897.837 62.89 897.769 62.618H897.667C897.599 62.89 897.327 64.216 897.259 64.488L896.239 68.432C896.171 68.67 896.069 68.976 896.069 69.112C896.069 69.282 896.205 69.418 896.443 69.418H898.925C899.163 69.418 899.299 69.282 899.299 69.112ZM919.91 61.904C919.91 65.27 917.462 67.922 913.586 67.922H910.526C910.288 67.922 910.186 68.024 910.186 68.262V76.66C910.186 76.898 910.084 77 909.846 77H906.616C906.378 77 906.276 76.898 906.276 76.66V55.92C906.276 55.682 906.378 55.58 906.616 55.58H913.586C917.462 55.58 919.91 58.096 919.91 61.904ZM916.034 61.904V61.598C916.034 60.272 914.912 59.15 913.586 59.15H910.526C910.288 59.15 910.186 59.252 910.186 59.49V64.012C910.186 64.25 910.288 64.352 910.526 64.352H913.586C914.912 64.352 916.034 63.23 916.034 61.904ZM933.469 76.66C933.469 76.898 933.367 77 933.129 77H921.127C920.889 77 920.787 76.898 920.787 76.66V55.92C920.787 55.682 920.889 55.58 921.127 55.58H924.357C924.595 55.58 924.697 55.682 924.697 55.92V73.09C924.697 73.328 924.799 73.43 925.037 73.43H933.129C933.367 73.43 933.469 73.532 933.469 73.77V76.66Z" fill="white"/>
<rect x="967" width="96" height="148" fill="#110F11"/>
<path d="M1001.44 76.66C1001.44 76.898 1001.34 77 1001.1 77H997.906C997.668 77 997.566 76.898 997.566 76.66V73.09C997.566 70.404 997.872 65.678 997.94 64.862L997.804 64.828C997.702 65.1 997.328 66.664 996.92 67.548L994.098 73.872C994.03 74.008 993.928 74.076 993.792 74.076H992.058C991.922 74.076 991.82 74.008 991.752 73.872L988.93 67.548C988.522 66.664 988.148 65.1 988.046 64.828L987.91 64.862C987.978 65.678 988.284 70.404 988.284 73.09V76.66C988.284 76.898 988.182 77 987.944 77H984.714C984.476 77 984.374 76.898 984.374 76.66V55.92C984.374 55.682 984.476 55.58 984.714 55.58H987.57C987.706 55.58 987.808 55.648 987.876 55.784L992.398 66.596C992.5 66.834 992.772 67.854 992.84 68.126H992.942C993.01 67.854 993.316 66.834 993.418 66.596L997.94 55.784C998.008 55.648 998.11 55.58 998.246 55.58H1001.1C1001.34 55.58 1001.44 55.682 1001.44 55.92V76.66ZM1018.27 71.322C1018.27 74.858 1015.79 77.34 1011.94 77.34H1010.28C1006.4 77.34 1003.95 74.858 1003.95 71.322V61.258C1003.95 57.722 1006.4 55.24 1010.28 55.24H1011.94C1015.79 55.24 1018.27 57.722 1018.27 61.258V71.322ZM1014.36 71.322V61.258C1014.36 59.898 1013.3 58.81 1011.94 58.81H1010.28C1008.95 58.81 1007.83 59.932 1007.83 61.258V71.322C1007.83 72.648 1008.95 73.77 1010.28 73.77H1011.94C1013.3 73.77 1014.36 72.682 1014.36 71.322ZM1034.29 55.852C1034.29 55.988 1034.19 56.226 1034.16 56.362L1027.94 76.762C1027.9 76.932 1027.77 77 1027.6 77H1025.15C1024.98 77 1024.84 76.932 1024.81 76.762L1018.62 56.498C1018.55 56.26 1018.45 56.022 1018.45 55.852C1018.45 55.682 1018.59 55.58 1018.82 55.58H1022.22C1022.39 55.58 1022.53 55.648 1022.56 55.818L1025.93 68.058C1026 68.33 1026.2 69.35 1026.27 69.622H1026.44C1026.51 69.35 1026.71 68.364 1026.78 68.126L1030.15 55.818C1030.18 55.648 1030.32 55.58 1030.49 55.58H1033.92C1034.16 55.58 1034.29 55.682 1034.29 55.852ZM1047.63 76.66C1047.63 76.898 1047.53 77 1047.29 77H1035.29C1035.05 77 1034.95 76.898 1034.95 76.66V55.92C1034.95 55.682 1035.05 55.58 1035.29 55.58H1047.29C1047.53 55.58 1047.63 55.682 1047.63 55.92V58.81C1047.63 59.048 1047.53 59.15 1047.29 59.15H1039.2C1038.96 59.15 1038.86 59.252 1038.86 59.49V64.012C1038.86 64.25 1038.96 64.352 1039.2 64.352H1045.83C1046.06 64.352 1046.17 64.454 1046.17 64.692V67.582C1046.17 67.82 1046.06 67.922 1045.83 67.922H1039.2C1038.96 67.922 1038.86 68.024 1038.86 68.262V73.09C1038.86 73.328 1038.96 73.43 1039.2 73.43H1047.29C1047.53 73.43 1047.63 73.532 1047.63 73.77V76.66Z" fill="white"/>
<rect x="1070" width="96" height="148" fill="#110F11"/>
<path d="M1103.34 71.322C1103.34 74.858 1100.89 77.34 1097.01 77.34H1095.65C1092.83 77.34 1091.3 76.184 1090.28 74.586C1089.98 74.076 1089.64 73.532 1089.64 73.328C1089.64 73.226 1089.7 73.158 1089.84 73.09L1092.56 71.696C1092.7 71.628 1092.83 71.526 1092.97 71.526C1093.07 71.526 1093.17 71.594 1093.24 71.764C1093.85 73.226 1094.74 73.77 1095.65 73.77H1097.01C1098.34 73.77 1099.46 72.648 1099.46 71.322C1099.46 69.486 1097.66 68.806 1095.82 67.956C1093.14 66.664 1090.18 65.27 1090.18 61.258C1090.18 57.722 1092.63 55.24 1096.5 55.24H1097.05C1099.87 55.24 1101.4 56.396 1102.42 57.994C1102.73 58.504 1103.07 59.048 1103.07 59.252C1103.07 59.354 1103 59.422 1102.86 59.49L1100.14 60.884C1100.01 60.952 1099.87 61.054 1099.73 61.054C1099.63 61.054 1099.53 60.986 1099.46 60.816C1098.85 59.354 1097.97 58.81 1097.05 58.81H1096.5C1095.18 58.81 1094.06 59.932 1094.06 61.258C1094.06 62.992 1096.03 63.502 1098 64.42C1100.58 65.61 1103.34 67.208 1103.34 71.322ZM1119.46 76.728C1119.46 76.898 1119.32 77 1119.09 77H1115.65C1115.48 77 1115.35 76.932 1115.31 76.762L1114.29 73.192C1114.26 73.022 1114.12 72.988 1113.95 72.988H1109.09C1108.92 72.988 1108.78 73.022 1108.75 73.192L1107.73 76.762C1107.7 76.932 1107.56 77 1107.39 77H1103.99C1103.75 77 1103.62 76.898 1103.62 76.728C1103.62 76.592 1103.72 76.388 1103.79 76.116L1109.97 55.818C1110.01 55.648 1110.14 55.58 1110.31 55.58H1112.76C1112.93 55.58 1113.07 55.648 1113.1 55.818L1119.29 76.116C1119.36 76.32 1119.46 76.592 1119.46 76.728ZM1113.14 69.112C1113.14 68.976 1113.03 68.67 1112.97 68.466L1111.98 64.488C1111.91 64.25 1111.67 62.89 1111.61 62.618H1111.5C1111.44 62.89 1111.16 64.216 1111.1 64.488L1110.08 68.432C1110.01 68.67 1109.91 68.976 1109.91 69.112C1109.91 69.282 1110.04 69.418 1110.28 69.418H1112.76C1113 69.418 1113.14 69.282 1113.14 69.112ZM1132.91 55.852C1132.91 55.988 1132.81 56.226 1132.77 56.362L1126.55 76.762C1126.52 76.932 1126.38 77 1126.21 77H1123.76C1123.59 77 1123.46 76.932 1123.42 76.762L1117.23 56.498C1117.17 56.26 1117.06 56.022 1117.06 55.852C1117.06 55.682 1117.2 55.58 1117.44 55.58H1120.84C1121.01 55.58 1121.14 55.648 1121.18 55.818L1124.54 68.058C1124.61 68.33 1124.82 69.35 1124.88 69.622H1125.05C1125.12 69.35 1125.33 68.364 1125.39 68.126L1128.76 55.818C1128.79 55.648 1128.93 55.58 1129.1 55.58H1132.53C1132.77 55.58 1132.91 55.682 1132.91 55.852ZM1146.24 76.66C1146.24 76.898 1146.14 77 1145.9 77H1133.9C1133.66 77 1133.56 76.898 1133.56 76.66V55.92C1133.56 55.682 1133.66 55.58 1133.9 55.58H1145.9C1146.14 55.58 1146.24 55.682 1146.24 55.92V58.81C1146.24 59.048 1146.14 59.15 1145.9 59.15H1137.81C1137.57 59.15 1137.47 59.252 1137.47 59.49V64.012C1137.47 64.25 1137.57 64.352 1137.81 64.352H1144.44C1144.68 64.352 1144.78 64.454 1144.78 64.692V67.582C1144.78 67.82 1144.68 67.922 1144.44 67.922H1137.81C1137.57 67.922 1137.47 68.024 1137.47 68.262V73.09C1137.47 73.328 1137.57 73.43 1137.81 73.43H1145.9C1146.14 73.43 1146.24 73.532 1146.24 73.77V76.66Z" fill="white"/>
<rect x="1173" width="157" height="148" fill="#110F11"/>
<path d="M1206.47 55.852C1206.47 55.988 1206.37 56.43 1206.3 56.77L1201.98 76.728C1201.95 76.898 1201.81 77 1201.64 77H1199.16C1198.99 77 1198.85 76.932 1198.82 76.762L1195.86 66.494C1195.79 66.256 1195.52 64.896 1195.45 64.624H1195.35C1195.28 64.896 1195.01 66.222 1194.94 66.494L1191.99 76.762C1191.95 76.932 1191.82 77 1191.65 77H1189.16C1188.99 77 1188.86 76.898 1188.82 76.728L1184.51 56.77C1184.44 56.396 1184.34 56.022 1184.34 55.852C1184.34 55.648 1184.44 55.58 1184.68 55.58H1188.14C1188.31 55.58 1188.45 55.682 1188.48 55.852L1190.46 66.358C1190.49 66.596 1190.73 68.194 1190.8 68.466H1190.97C1191.03 68.194 1191.34 66.63 1191.41 66.358L1194.2 55.75C1194.23 55.58 1194.37 55.512 1194.54 55.512H1196.24C1196.41 55.512 1196.54 55.58 1196.58 55.75L1199.36 66.358C1199.43 66.63 1199.74 68.194 1199.81 68.466H1199.98C1200.04 68.194 1200.25 66.664 1200.32 66.358L1202.32 55.852C1202.36 55.682 1202.49 55.58 1202.66 55.58H1206.13C1206.37 55.58 1206.47 55.648 1206.47 55.852ZM1221.34 71.322C1221.34 74.858 1218.85 77.34 1215.01 77.34H1213.35C1209.47 77.34 1207.02 74.858 1207.02 71.322V61.258C1207.02 57.722 1209.47 55.24 1213.35 55.24H1215.01C1218.85 55.24 1221.34 57.722 1221.34 61.258V71.322ZM1217.43 71.322V61.258C1217.43 59.898 1216.37 58.81 1215.01 58.81H1213.35C1212.02 58.81 1210.9 59.932 1210.9 61.258V71.322C1210.9 72.648 1212.02 73.77 1213.35 73.77H1215.01C1216.37 73.77 1217.43 72.682 1217.43 71.322ZM1237.91 71.322C1237.91 74.858 1235.42 77.34 1231.58 77.34H1229.92C1226.04 77.34 1223.59 74.858 1223.59 71.322V55.92C1223.59 55.682 1223.69 55.58 1223.93 55.58H1227.13C1227.37 55.58 1227.47 55.682 1227.47 55.92V71.322C1227.47 72.648 1228.59 73.77 1229.92 73.77H1231.58C1232.94 73.77 1234 72.682 1234 71.322V55.92C1234 55.682 1234.1 55.58 1234.34 55.58H1237.57C1237.8 55.58 1237.91 55.682 1237.91 55.92V71.322ZM1254.75 76.66C1254.75 76.898 1254.65 77 1254.41 77H1251.59C1251.45 77 1251.35 76.932 1251.28 76.83L1245.19 65.746C1245.06 65.508 1244.58 64.284 1244.48 64.012L1244.34 64.046C1244.41 64.862 1244.55 69.758 1244.55 72.444V76.66C1244.55 76.898 1244.45 77 1244.21 77H1240.98C1240.74 77 1240.64 76.898 1240.64 76.66V55.92C1240.64 55.682 1240.74 55.58 1240.98 55.58H1243.83C1243.97 55.58 1244.07 55.648 1244.14 55.75L1250.23 66.902C1250.36 67.14 1250.84 68.364 1250.94 68.636L1251.08 68.602C1251.01 67.786 1250.87 62.89 1250.87 60.204V55.92C1250.87 55.682 1250.97 55.58 1251.21 55.58H1254.41C1254.65 55.58 1254.75 55.682 1254.75 55.92V76.66ZM1272.29 70.676C1272.29 74.552 1269.84 77 1265.96 77H1258.31C1258.07 77 1257.97 76.898 1257.97 76.66V55.92C1257.97 55.682 1258.07 55.58 1258.31 55.58H1265.96C1269.84 55.58 1272.29 58.062 1272.29 61.904V70.676ZM1268.41 70.982V61.598C1268.41 60.272 1267.29 59.15 1265.96 59.15H1262.22C1261.98 59.15 1261.88 59.252 1261.88 59.49V73.09C1261.88 73.328 1261.98 73.43 1262.22 73.43H1265.96C1267.29 73.43 1268.41 72.376 1268.41 70.982ZM1287.59 71.322C1287.59 74.858 1285.14 77.34 1281.26 77.34H1279.9C1277.08 77.34 1275.55 76.184 1274.53 74.586C1274.22 74.076 1273.88 73.532 1273.88 73.328C1273.88 73.226 1273.95 73.158 1274.09 73.09L1276.81 71.696C1276.94 71.628 1277.08 71.526 1277.22 71.526C1277.32 71.526 1277.42 71.594 1277.49 71.764C1278.1 73.226 1278.98 73.77 1279.9 73.77H1281.26C1282.59 73.77 1283.71 72.648 1283.71 71.322C1283.71 69.486 1281.91 68.806 1280.07 67.956C1277.39 66.664 1274.43 65.27 1274.43 61.258C1274.43 57.722 1276.88 55.24 1280.75 55.24H1281.3C1284.12 55.24 1285.65 56.396 1286.67 57.994C1286.97 58.504 1287.31 59.048 1287.31 59.252C1287.31 59.354 1287.25 59.422 1287.11 59.49L1284.39 60.884C1284.25 60.952 1284.12 61.054 1283.98 61.054C1283.88 61.054 1283.78 60.986 1283.71 60.816C1283.1 59.354 1282.21 58.81 1281.3 58.81H1280.75C1279.43 58.81 1278.3 59.932 1278.3 61.258C1278.3 62.992 1280.28 63.502 1282.25 64.42C1284.83 65.61 1287.59 67.208 1287.59 71.322Z" fill="white"/>
<rect width="855" height="148" fill="#110F11"/>
<rect y="840" width="1330" height="110" fill="#110F11"/>
<path d="M573 30H855V148H525.5L573 30Z" fill="#F85908"/>
<path d="M620.5 -88H902.5V30H573L620.5 -88Z" fill="#F85908"/>
<path d="M583 30H855V148H535.5L583 30Z" fill="#110F11"/>
<path d="M630.5 -88H902.5V30H583L630.5 -88Z" fill="#110F11"/>
</g>
<defs>
<linearGradient id="paint0_linear_871_2171" x1="0" y1="0" x2="1347.02" y2="943.306" gradientUnits="userSpaceOnUse">
<stop stop-color="white"/>
<stop offset="1" stop-color="#B4B4B4"/>
</linearGradient>
<clipPath id="clip0_871_2171">
<rect width="1330" height="950" fill="white"/>
</clipPath>
</defs>
</svg>
