<svg width="1270" height="890" viewBox="0 0 1270 890" fill="none" xmlns="http://www.w3.org/2000/svg">
<g clip-path="url(#clip0_848_4623)">
<rect width="1270" height="890" fill="#E5E5E7"/>
<rect x="834" width="96" height="118" fill="#0D0B0E"/>
<path d="M875.623 46.728C875.623 46.898 875.487 47 875.249 47H871.815C871.645 47 871.509 46.932 871.475 46.762L870.455 43.192C870.421 43.022 870.285 42.988 870.115 42.988H865.253C865.083 42.988 864.947 43.022 864.913 43.192L863.893 46.762C863.859 46.932 863.723 47 863.553 47H860.153C859.915 47 859.779 46.898 859.779 46.728C859.779 46.592 859.881 46.388 859.949 46.116L866.137 25.818C866.171 25.648 866.307 25.58 866.477 25.58H868.925C869.095 25.58 869.231 25.648 869.265 25.818L875.453 46.116C875.521 46.32 875.623 46.592 875.623 46.728ZM869.299 39.112C869.299 38.976 869.197 38.67 869.129 38.466L868.143 34.488C868.075 34.25 867.837 32.89 867.769 32.618H867.667C867.599 32.89 867.327 34.216 867.259 34.488L866.239 38.432C866.171 38.67 866.069 38.976 866.069 39.112C866.069 39.282 866.205 39.418 866.443 39.418H868.925C869.163 39.418 869.299 39.282 869.299 39.112ZM889.91 31.904C889.91 35.27 887.462 37.922 883.586 37.922H880.526C880.288 37.922 880.186 38.024 880.186 38.262V46.66C880.186 46.898 880.084 47 879.846 47H876.616C876.378 47 876.276 46.898 876.276 46.66V25.92C876.276 25.682 876.378 25.58 876.616 25.58H883.586C887.462 25.58 889.91 28.096 889.91 31.904ZM886.034 31.904V31.598C886.034 30.272 884.912 29.15 883.586 29.15H880.526C880.288 29.15 880.186 29.252 880.186 29.49V34.012C880.186 34.25 880.288 34.352 880.526 34.352H883.586C884.912 34.352 886.034 33.23 886.034 31.904ZM903.469 46.66C903.469 46.898 903.367 47 903.129 47H891.127C890.889 47 890.787 46.898 890.787 46.66V25.92C890.787 25.682 890.889 25.58 891.127 25.58H894.357C894.595 25.58 894.697 25.682 894.697 25.92V43.09C894.697 43.328 894.799 43.43 895.037 43.43H903.129C903.367 43.43 903.469 43.532 903.469 43.77V46.66Z" fill="white"/>
<rect x="937" width="96" height="118" fill="#0D0B0E"/>
<path d="M971.442 46.66C971.442 46.898 971.34 47 971.102 47H967.906C967.668 47 967.566 46.898 967.566 46.66V43.09C967.566 40.404 967.872 35.678 967.94 34.862L967.804 34.828C967.702 35.1 967.328 36.664 966.92 37.548L964.098 43.872C964.03 44.008 963.928 44.076 963.792 44.076H962.058C961.922 44.076 961.82 44.008 961.752 43.872L958.93 37.548C958.522 36.664 958.148 35.1 958.046 34.828L957.91 34.862C957.978 35.678 958.284 40.404 958.284 43.09V46.66C958.284 46.898 958.182 47 957.944 47H954.714C954.476 47 954.374 46.898 954.374 46.66V25.92C954.374 25.682 954.476 25.58 954.714 25.58H957.57C957.706 25.58 957.808 25.648 957.876 25.784L962.398 36.596C962.5 36.834 962.772 37.854 962.84 38.126H962.942C963.01 37.854 963.316 36.834 963.418 36.596L967.94 25.784C968.008 25.648 968.11 25.58 968.246 25.58H971.102C971.34 25.58 971.442 25.682 971.442 25.92V46.66ZM988.268 41.322C988.268 44.858 985.786 47.34 981.944 47.34H980.278C976.402 47.34 973.954 44.858 973.954 41.322V31.258C973.954 27.722 976.402 25.24 980.278 25.24H981.944C985.786 25.24 988.268 27.722 988.268 31.258V41.322ZM984.358 41.322V31.258C984.358 29.898 983.304 28.81 981.944 28.81H980.278C978.952 28.81 977.83 29.932 977.83 31.258V41.322C977.83 42.648 978.952 43.77 980.278 43.77H981.944C983.304 43.77 984.358 42.682 984.358 41.322ZM1004.29 25.852C1004.29 25.988 1004.19 26.226 1004.16 26.362L997.935 46.762C997.901 46.932 997.765 47 997.595 47H995.147C994.977 47 994.841 46.932 994.807 46.762L988.619 26.498C988.551 26.26 988.449 26.022 988.449 25.852C988.449 25.682 988.585 25.58 988.823 25.58H992.223C992.393 25.58 992.529 25.648 992.563 25.818L995.929 38.058C995.997 38.33 996.201 39.35 996.269 39.622H996.439C996.507 39.35 996.711 38.364 996.779 38.126L1000.15 25.818C1000.18 25.648 1000.32 25.58 1000.49 25.58H1003.92C1004.16 25.58 1004.29 25.682 1004.29 25.852ZM1017.63 46.66C1017.63 46.898 1017.53 47 1017.29 47H1005.29C1005.05 47 1004.95 46.898 1004.95 46.66V25.92C1004.95 25.682 1005.05 25.58 1005.29 25.58H1017.29C1017.53 25.58 1017.63 25.682 1017.63 25.92V28.81C1017.63 29.048 1017.53 29.15 1017.29 29.15H1009.2C1008.96 29.15 1008.86 29.252 1008.86 29.49V34.012C1008.86 34.25 1008.96 34.352 1009.2 34.352H1015.83C1016.06 34.352 1016.17 34.454 1016.17 34.692V37.582C1016.17 37.82 1016.06 37.922 1015.83 37.922H1009.2C1008.96 37.922 1008.86 38.024 1008.86 38.262V43.09C1008.86 43.328 1008.96 43.43 1009.2 43.43H1017.29C1017.53 43.43 1017.63 43.532 1017.63 43.77V46.66Z" fill="white"/>
<rect x="1040" width="96" height="118" fill="#0D0B0E"/>
<path d="M1073.34 41.322C1073.34 44.858 1070.89 47.34 1067.01 47.34H1065.65C1062.83 47.34 1061.3 46.184 1060.28 44.586C1059.98 44.076 1059.64 43.532 1059.64 43.328C1059.64 43.226 1059.7 43.158 1059.84 43.09L1062.56 41.696C1062.7 41.628 1062.83 41.526 1062.97 41.526C1063.07 41.526 1063.17 41.594 1063.24 41.764C1063.85 43.226 1064.74 43.77 1065.65 43.77H1067.01C1068.34 43.77 1069.46 42.648 1069.46 41.322C1069.46 39.486 1067.66 38.806 1065.82 37.956C1063.14 36.664 1060.18 35.27 1060.18 31.258C1060.18 27.722 1062.63 25.24 1066.5 25.24H1067.05C1069.87 25.24 1071.4 26.396 1072.42 27.994C1072.73 28.504 1073.07 29.048 1073.07 29.252C1073.07 29.354 1073 29.422 1072.86 29.49L1070.14 30.884C1070.01 30.952 1069.87 31.054 1069.73 31.054C1069.63 31.054 1069.53 30.986 1069.46 30.816C1068.85 29.354 1067.97 28.81 1067.05 28.81H1066.5C1065.18 28.81 1064.06 29.932 1064.06 31.258C1064.06 32.992 1066.03 33.502 1068 34.42C1070.58 35.61 1073.34 37.208 1073.34 41.322ZM1089.46 46.728C1089.46 46.898 1089.32 47 1089.09 47H1085.65C1085.48 47 1085.35 46.932 1085.31 46.762L1084.29 43.192C1084.26 43.022 1084.12 42.988 1083.95 42.988H1079.09C1078.92 42.988 1078.78 43.022 1078.75 43.192L1077.73 46.762C1077.7 46.932 1077.56 47 1077.39 47H1073.99C1073.75 47 1073.62 46.898 1073.62 46.728C1073.62 46.592 1073.72 46.388 1073.79 46.116L1079.97 25.818C1080.01 25.648 1080.14 25.58 1080.31 25.58H1082.76C1082.93 25.58 1083.07 25.648 1083.1 25.818L1089.29 46.116C1089.36 46.32 1089.46 46.592 1089.46 46.728ZM1083.14 39.112C1083.14 38.976 1083.03 38.67 1082.97 38.466L1081.98 34.488C1081.91 34.25 1081.67 32.89 1081.61 32.618H1081.5C1081.44 32.89 1081.16 34.216 1081.1 34.488L1080.08 38.432C1080.01 38.67 1079.91 38.976 1079.91 39.112C1079.91 39.282 1080.04 39.418 1080.28 39.418H1082.76C1083 39.418 1083.14 39.282 1083.14 39.112ZM1102.91 25.852C1102.91 25.988 1102.81 26.226 1102.77 26.362L1096.55 46.762C1096.52 46.932 1096.38 47 1096.21 47H1093.76C1093.59 47 1093.46 46.932 1093.42 46.762L1087.23 26.498C1087.17 26.26 1087.06 26.022 1087.06 25.852C1087.06 25.682 1087.2 25.58 1087.44 25.58H1090.84C1091.01 25.58 1091.14 25.648 1091.18 25.818L1094.54 38.058C1094.61 38.33 1094.82 39.35 1094.88 39.622H1095.05C1095.12 39.35 1095.33 38.364 1095.39 38.126L1098.76 25.818C1098.79 25.648 1098.93 25.58 1099.1 25.58H1102.53C1102.77 25.58 1102.91 25.682 1102.91 25.852ZM1116.24 46.66C1116.24 46.898 1116.14 47 1115.9 47H1103.9C1103.66 47 1103.56 46.898 1103.56 46.66V25.92C1103.56 25.682 1103.66 25.58 1103.9 25.58H1115.9C1116.14 25.58 1116.24 25.682 1116.24 25.92V28.81C1116.24 29.048 1116.14 29.15 1115.9 29.15H1107.81C1107.57 29.15 1107.47 29.252 1107.47 29.49V34.012C1107.47 34.25 1107.57 34.352 1107.81 34.352H1114.44C1114.68 34.352 1114.78 34.454 1114.78 34.692V37.582C1114.78 37.82 1114.68 37.922 1114.44 37.922H1107.81C1107.57 37.922 1107.47 38.024 1107.47 38.262V43.09C1107.47 43.328 1107.57 43.43 1107.81 43.43H1115.9C1116.14 43.43 1116.24 43.532 1116.24 43.77V46.66Z" fill="white"/>
<rect x="1143" width="127" height="118" fill="#0D0B0E"/>
<path d="M1176.47 25.852C1176.47 25.988 1176.37 26.43 1176.3 26.77L1171.98 46.728C1171.95 46.898 1171.81 47 1171.64 47H1169.16C1168.99 47 1168.85 46.932 1168.82 46.762L1165.86 36.494C1165.79 36.256 1165.52 34.896 1165.45 34.624H1165.35C1165.28 34.896 1165.01 36.222 1164.94 36.494L1161.99 46.762C1161.95 46.932 1161.82 47 1161.65 47H1159.16C1158.99 47 1158.86 46.898 1158.82 46.728L1154.51 26.77C1154.44 26.396 1154.34 26.022 1154.34 25.852C1154.34 25.648 1154.44 25.58 1154.68 25.58H1158.14C1158.31 25.58 1158.45 25.682 1158.48 25.852L1160.46 36.358C1160.49 36.596 1160.73 38.194 1160.8 38.466H1160.97C1161.03 38.194 1161.34 36.63 1161.41 36.358L1164.2 25.75C1164.23 25.58 1164.37 25.512 1164.54 25.512H1166.24C1166.41 25.512 1166.54 25.58 1166.58 25.75L1169.36 36.358C1169.43 36.63 1169.74 38.194 1169.81 38.466H1169.98C1170.04 38.194 1170.25 36.664 1170.32 36.358L1172.32 25.852C1172.36 25.682 1172.49 25.58 1172.66 25.58H1176.13C1176.37 25.58 1176.47 25.648 1176.47 25.852ZM1191.34 41.322C1191.34 44.858 1188.85 47.34 1185.01 47.34H1183.35C1179.47 47.34 1177.02 44.858 1177.02 41.322V31.258C1177.02 27.722 1179.47 25.24 1183.35 25.24H1185.01C1188.85 25.24 1191.34 27.722 1191.34 31.258V41.322ZM1187.43 41.322V31.258C1187.43 29.898 1186.37 28.81 1185.01 28.81H1183.35C1182.02 28.81 1180.9 29.932 1180.9 31.258V41.322C1180.9 42.648 1182.02 43.77 1183.35 43.77H1185.01C1186.37 43.77 1187.43 42.682 1187.43 41.322ZM1207.91 41.322C1207.91 44.858 1205.42 47.34 1201.58 47.34H1199.92C1196.04 47.34 1193.59 44.858 1193.59 41.322V25.92C1193.59 25.682 1193.69 25.58 1193.93 25.58H1197.13C1197.37 25.58 1197.47 25.682 1197.47 25.92V41.322C1197.47 42.648 1198.59 43.77 1199.92 43.77H1201.58C1202.94 43.77 1204 42.682 1204 41.322V25.92C1204 25.682 1204.1 25.58 1204.34 25.58H1207.57C1207.8 25.58 1207.91 25.682 1207.91 25.92V41.322ZM1224.75 46.66C1224.75 46.898 1224.65 47 1224.41 47H1221.59C1221.45 47 1221.35 46.932 1221.28 46.83L1215.19 35.746C1215.06 35.508 1214.58 34.284 1214.48 34.012L1214.34 34.046C1214.41 34.862 1214.55 39.758 1214.55 42.444V46.66C1214.55 46.898 1214.45 47 1214.21 47H1210.98C1210.74 47 1210.64 46.898 1210.64 46.66V25.92C1210.64 25.682 1210.74 25.58 1210.98 25.58H1213.83C1213.97 25.58 1214.07 25.648 1214.14 25.75L1220.23 36.902C1220.36 37.14 1220.84 38.364 1220.94 38.636L1221.08 38.602C1221.01 37.786 1220.87 32.89 1220.87 30.204V25.92C1220.87 25.682 1220.97 25.58 1221.21 25.58H1224.41C1224.65 25.58 1224.75 25.682 1224.75 25.92V46.66ZM1242.29 40.676C1242.29 44.552 1239.84 47 1235.96 47H1228.31C1228.07 47 1227.97 46.898 1227.97 46.66V25.92C1227.97 25.682 1228.07 25.58 1228.31 25.58H1235.96C1239.84 25.58 1242.29 28.062 1242.29 31.904V40.676ZM1238.41 40.982V31.598C1238.41 30.272 1237.29 29.15 1235.96 29.15H1232.22C1231.98 29.15 1231.88 29.252 1231.88 29.49V43.09C1231.88 43.328 1231.98 43.43 1232.22 43.43H1235.96C1237.29 43.43 1238.41 42.376 1238.41 40.982ZM1257.59 41.322C1257.59 44.858 1255.14 47.34 1251.26 47.34H1249.9C1247.08 47.34 1245.55 46.184 1244.53 44.586C1244.22 44.076 1243.88 43.532 1243.88 43.328C1243.88 43.226 1243.95 43.158 1244.09 43.09L1246.81 41.696C1246.94 41.628 1247.08 41.526 1247.22 41.526C1247.32 41.526 1247.42 41.594 1247.49 41.764C1248.1 43.226 1248.98 43.77 1249.9 43.77H1251.26C1252.59 43.77 1253.71 42.648 1253.71 41.322C1253.71 39.486 1251.91 38.806 1250.07 37.956C1247.39 36.664 1244.43 35.27 1244.43 31.258C1244.43 27.722 1246.88 25.24 1250.75 25.24H1251.3C1254.12 25.24 1255.65 26.396 1256.67 27.994C1256.97 28.504 1257.31 29.048 1257.31 29.252C1257.31 29.354 1257.25 29.422 1257.11 29.49L1254.39 30.884C1254.25 30.952 1254.12 31.054 1253.98 31.054C1253.88 31.054 1253.78 30.986 1253.71 30.816C1253.1 29.354 1252.21 28.81 1251.3 28.81H1250.75C1249.43 28.81 1248.3 29.932 1248.3 31.258C1248.3 32.992 1250.28 33.502 1252.25 34.42C1254.83 35.61 1257.59 37.208 1257.59 41.322Z" fill="white"/>
<rect width="825" height="118" fill="#0D0B0E"/>
<rect y="810" width="1271" height="80" fill="#0D0B0E"/>
</g>
<defs>
<clipPath id="clip0_848_4623">
<rect width="1270" height="890" fill="white"/>
</clipPath>
</defs>
</svg>
