<svg width="924" height="191" viewBox="0 0 924 191" fill="none" xmlns="http://www.w3.org/2000/svg">
<g filter="url(#filter0_d_11_8627)">
<path d="M516.906 20C545.181 20.0001 554.15 31.5056 554.15 62.9004V68.75C554.15 74.405 552.591 75.9648 546.936 75.9648H534.456C528.801 75.9648 527.241 74.405 527.241 68.75V58.2197C527.241 50.4199 523.926 47.2998 517.101 47.2998C510.276 47.2999 506.961 50.42 506.961 58.2197V131.93C506.961 139.73 510.276 142.85 517.101 142.85C523.926 142.85 527.241 139.73 527.241 131.93V121.4C527.241 115.745 528.801 114.185 534.456 114.185H546.936C552.591 114.185 554.15 115.745 554.15 121.4V127.25C554.15 158.645 545.181 170.15 516.906 170.15C488.631 170.15 479.271 158.645 479.271 127.25V62.9004C479.271 31.5054 488.631 20 516.906 20ZM865.532 20C893.807 20 903.167 31.5054 903.167 62.9004V66.7998C903.167 72.4548 901.607 74.0146 895.952 74.0146H882.692C877.037 74.0146 875.478 72.4548 875.478 66.7998V58.2197C875.477 50.4199 872.357 47.2998 865.532 47.2998C858.707 47.2998 855.587 50.2251 855.587 57.2451V60.5596C855.587 66.2144 856.757 68.9449 862.217 74.0146L887.178 96.6348C900.243 108.335 903.167 115.355 903.167 128.42V131.93C903.167 156.5 893.807 170.15 865.532 170.15C837.257 170.15 827.897 158.645 827.897 127.25V123.35C827.898 117.695 829.457 116.135 835.112 116.135H848.372C854.027 116.135 855.587 117.695 855.587 123.35V131.93C855.587 139.73 858.707 142.85 865.532 142.85C872.357 142.85 875.477 139.925 875.478 132.905V129.2C875.478 123.74 874.307 121.01 867.092 114.575L843.692 93.71C830.627 82.205 827.897 75.5748 827.897 62.5098V58.2197C827.898 33.6499 837.257 20 865.532 20ZM637.07 22.5371C640.384 22.5373 643.07 25.2245 643.07 28.5381V162.538C643.07 165.851 640.384 168.538 637.07 168.538H565.07C561.757 168.538 559.071 165.852 559.07 162.538V28.5381C559.07 25.2244 561.757 22.5371 565.07 22.5371H637.07ZM54.9053 21.9502C83.1801 21.9503 96.0498 32.4803 96.0498 56.0752V67.3848C96.0498 77.5248 92.7352 84.7405 85.9102 90.9805C85.3253 91.5654 85.1299 91.7604 85.1299 92.1504C85.13 92.5401 85.3253 92.7355 85.9102 93.3203C93.3199 99.3652 97.0253 105.8 97.0254 116.135V135.05C97.0254 157.67 83.5697 168.2 53.9297 168.2H27.2148C21.5601 168.2 20.0001 166.64 20 160.985V29.165C20 23.5101 21.56 21.9502 27.2148 21.9502H54.9053ZM155.939 21.9502C164.714 21.9502 167.444 24.875 168.419 32.0898L185.579 160.985C186.359 166.64 184.799 168.2 179.145 168.2H165.689C159.84 168.2 158.474 166.835 157.694 160.985L155.159 139.73C154.964 137.78 154.379 137.195 152.039 137.195H135.27C132.93 137.195 132.344 137.78 132.149 139.73L129.614 160.985C128.834 166.835 127.469 168.2 121.619 168.2H108.164C102.509 168.2 100.95 166.64 101.729 160.985L118.89 32.0898C119.865 24.8751 122.594 21.9502 131.369 21.9502H155.939ZM245.484 21.9502C251.139 21.9503 252.699 23.5102 252.699 29.165V42.0352C252.699 47.6899 251.139 49.2499 245.484 49.25H233.394C230.664 49.2501 229.884 50.0301 229.884 52.7598V160.985C229.884 166.64 228.324 168.2 222.669 168.2H210.188C204.534 168.2 202.974 166.64 202.974 160.985V52.7598C202.974 50.03 202.194 49.25 199.464 49.25H187.374C181.719 49.25 180.159 47.69 180.159 42.0352V29.165C180.159 23.51 181.719 21.9502 187.374 21.9502H245.484ZM323.751 21.9502C329.406 21.9503 330.966 23.5102 330.966 29.165V42.0352C330.966 47.6899 329.406 49.2499 323.751 49.25H311.66C308.931 49.2501 308.15 50.0301 308.15 52.7598V160.985C308.15 166.64 306.59 168.2 300.936 168.2H288.455C282.801 168.2 281.24 166.64 281.24 160.985V52.7598C281.24 50.03 280.46 49.25 277.73 49.25H265.641C259.986 49.25 258.426 47.69 258.426 42.0352V29.165C258.426 23.51 259.986 21.9502 265.641 21.9502H323.751ZM356.38 21.9502C362.035 21.9503 363.595 23.5102 363.595 29.165V137.78C363.595 140.12 364.375 140.9 367.104 140.9H391.479C397.134 140.9 398.694 142.46 398.694 148.115V160.985C398.694 166.64 397.134 168.2 391.479 168.2H343.899C338.245 168.2 336.685 166.64 336.685 160.985V29.165C336.685 23.5101 338.245 21.9502 343.899 21.9502H356.38ZM461.608 21.9502C467.263 21.9503 468.823 23.5102 468.823 29.165V42.0352C468.823 47.6899 467.263 49.2499 461.608 49.25H435.088C432.358 49.25 431.578 50.03 431.578 52.7598V74.5996C431.578 77.1346 432.358 78.1103 435.088 78.1104H459.268C464.923 78.1104 466.483 79.6702 466.483 85.3252V98.1953C466.483 103.85 464.923 105.41 459.658 105.41H435.088C432.358 105.41 431.578 106.19 431.578 108.92V137.39C431.578 139.925 432.358 140.9 435.088 140.9H461.608C467.263 140.9 468.823 142.46 468.823 148.115V160.985C468.823 166.64 467.263 168.2 461.608 168.2H411.883C406.228 168.2 404.668 166.64 404.668 160.985V29.165C404.668 23.5101 406.228 21.9502 411.883 21.9502H461.608ZM684.42 21.9502C714.06 21.9502 727.515 32.09 727.515 57.0498V71.0898C727.515 89.4198 724.59 96.4399 714.255 105.215C713.085 105.995 712.89 106.385 712.89 107.36C712.89 107.945 713.085 108.531 713.475 109.896L730.635 160.79C732.39 165.86 730.44 168.2 725.37 168.2H711.135C705.675 168.2 704.505 167.42 702.945 162.74L687.345 115.355C686.37 112.626 685.59 111.845 682.665 111.845H681.885C679.155 111.845 678.375 112.625 678.375 115.355V160.985C678.375 166.64 676.815 168.2 671.16 168.2H658.68C653.025 168.2 651.465 166.64 651.465 160.985V29.165C651.465 23.5101 653.025 21.9502 658.68 21.9502H684.42ZM772.543 21.9502C809.983 21.9502 817.588 35.6 817.588 68.75V121.4C817.588 154.55 809.983 168.2 772.543 168.2H748.753C743.098 168.2 741.538 166.64 741.538 160.985V29.165C741.538 23.5101 743.098 21.9502 748.753 21.9502H772.543ZM50.4199 105.995C47.69 105.995 46.9102 106.775 46.9102 109.505V137.39C46.9102 140.12 47.69 140.9 50.4199 140.9H55.4902C65.0451 140.9 69.335 137.585 69.335 129.005V117.89C69.3348 109.31 65.0449 105.995 55.4902 105.995H50.4199ZM771.958 49.25C769.228 49.25 768.448 50.03 768.448 52.7598V137.39C768.448 139.925 769.228 140.9 771.958 140.9H774.104C785.023 140.9 789.898 135.83 789.898 123.155V66.9951C789.898 54.3203 785.023 49.2501 774.104 49.25H771.958ZM591.502 80.9912L574.489 86.5762L584.97 101.094L585.024 118.999L602.07 113.518L619.115 118.999L619.17 101.094L629.65 86.5762L612.639 80.9912L602.07 66.5381L591.502 80.9912ZM143.654 59C141.509 59 140.34 59.3905 140.145 61.7305L135.659 107.165C135.464 109.505 136.049 110.09 138.584 110.09H148.725C151.259 110.09 151.844 109.505 151.649 107.165L147.164 61.7305C146.969 59.3905 145.799 59 143.654 59ZM681.885 48.2754C679.155 48.2754 678.375 49.0552 678.375 51.7852V81.8154C678.375 84.5451 679.155 85.3252 681.885 85.3252H685.979C695.144 85.3252 699.825 81.2301 699.825 71.8701V61.1445C699.825 51.9799 695.534 48.2754 685.979 48.2754H681.885ZM50.4199 49.25C47.6901 49.25 46.9102 50.03 46.9102 52.7598V75.1846C46.9102 77.9145 47.69 78.6953 50.4199 78.6953H54.5146C64.0696 78.6953 68.3604 75.3798 68.3604 66.7998V61.1445C68.3602 52.5649 64.0695 49.25 54.5146 49.25H50.4199Z" fill="url(#paint0_linear_11_8627)"/>
</g>
<defs>
<filter id="filter0_d_11_8627" x="0" y="0" width="923.167" height="190.15" filterUnits="userSpaceOnUse" color-interpolation-filters="sRGB">
<feFlood flood-opacity="0" result="BackgroundImageFix"/>
<feColorMatrix in="SourceAlpha" type="matrix" values="0 0 0 0 0 0 0 0 0 0 0 0 0 0 0 0 0 0 127 0" result="hardAlpha"/>
<feOffset/>
<feGaussianBlur stdDeviation="10"/>
<feComposite in2="hardAlpha" operator="out"/>
<feColorMatrix type="matrix" values="0 0 0 0 0 0 0 0 0 0.4 0 0 0 0 1 0 0 0 1 0"/>
<feBlend mode="normal" in2="BackgroundImageFix" result="effect1_dropShadow_11_8627"/>
<feBlend mode="normal" in="SourceGraphic" in2="effect1_dropShadow_11_8627" result="shape"/>
</filter>
<linearGradient id="paint0_linear_11_8627" x1="461.584" y1="170.15" x2="461.584" y2="20" gradientUnits="userSpaceOnUse">
<stop stop-color="white"/>
<stop offset="0.894231" stop-color="#E3F1FF"/>
<stop offset="1" stop-color="#8FC9FF"/>
</linearGradient>
</defs>
</svg>
