<svg width="201" height="200" viewBox="0 0 201 200" fill="none" xmlns="http://www.w3.org/2000/svg">
<rect x="0.0699463" width="200" height="200" rx="100" fill="url(#paint0_linear_1010_18150)"/>
<path fill-rule="evenodd" clip-rule="evenodd" d="M70.7684 28.051L39.3894 26.0869L38.295 42.4604L43.6423 55.3198L37.258 57.9745L36.9319 62.8544L39.8749 91.0936L42.5526 93.6642L40.3788 95.9285L40.9016 100.945L43.4322 123.661L53.5456 130.74L43.8769 144.553L40.9979 163.389L54.5299 172.86L73.9468 171.511L79.0132 164.272L87.9627 170.536L92.4139 170.227L123.177 173.07L136.622 169.943L137.546 173.913H160.939L161.961 162.374L157.159 150.826L163.205 148.311L164.324 135.67L159.238 133.132L163.298 124.993L157.348 99.0548L158.406 88.3885L156.372 87.3735L159.037 82.0312L160.939 62.8544V51.2894L154.701 42.0498L160.939 37.838V26.0869L135.514 33.8374L104.323 30.1512L84.428 28.9059L75.4419 34.973L70.7684 28.051ZM86.001 34.6866L73.9151 42.8464L67.6296 33.5367L44.6712 32.0997L44.0421 41.5113L51.0561 58.3787L42.682 61.8609L42.6227 62.7488L45.3002 88.4406L50.571 93.5006L46.2921 97.9577L46.5422 100.357L48.7845 120.485L61.4436 129.346L49.2827 146.72L47.1362 160.763L56.1381 167.064L70.853 166.041L77.6191 156.374L89.571 164.74L92.4786 164.538L122.786 167.338L140.862 163.135L142.049 168.242H155.748L156.189 163.263L149.745 147.767L157.859 144.393L158.334 139.019L151.632 135.675L157.316 124.281L151.613 99.4183L152.377 91.7182L148.765 89.9166L153.496 80.4332L155.268 62.5738V53.0246L146.828 40.523L155.268 34.8243V33.7444L136.03 39.6089L103.813 35.8014L86.001 34.6866Z" fill="white"/>
<path d="M133.042 179.584H139.612C127.703 185.512 114.276 188.846 100.07 188.846C84.8696 188.846 70.562 185.027 58.0511 178.3L69.7787 177.484C77.8583 180.645 86.5524 182.58 95.6332 183.057L100.093 179.627L104.549 183.055C114.195 182.544 123.403 180.387 131.902 176.863L132.384 176.752L133.042 179.584ZM32.5482 43.4099L34.6947 48.572C24.409 61.6292 17.9513 77.8425 17.0131 95.5203L20.4408 99.9744L17.0101 104.43C17.9982 123.256 25.2479 140.422 36.7133 153.888L35.6049 161.137C20.4943 145.21 11.223 123.688 11.223 99.9998C11.2231 77.9076 19.287 57.6992 32.6312 42.156L32.5482 43.4099ZM166.457 40.9539C180.428 56.6502 188.916 77.3335 188.916 99.9998C188.916 122.57 180.5 143.174 166.635 158.845L164.573 153.885L168.552 152.23L169.062 146.467C177.253 134.33 182.326 119.916 183.131 104.373L179.746 99.9744L183.128 95.5779C182.237 78.5564 176.227 62.8914 166.611 50.0906V49.5544L162.576 43.5769L166.457 40.9539ZM100.07 11.1531C117.235 11.1531 133.264 16.022 146.85 24.4529L139.436 26.7126C128.936 21.0607 117.083 17.5993 104.487 16.9402L100.093 20.321L95.6957 16.9373C86.7636 17.4 78.2042 19.2718 70.2357 22.3347L58.2621 21.5857C70.7226 14.9283 84.9551 11.1531 100.07 11.1531Z" fill="white"/>
<path d="M117.59 97.5558C121.019 97.974 124.155 99.1867 126.999 101.194C129.926 103.201 132.226 105.71 133.899 108.721C135.655 111.732 136.534 114.91 136.534 118.256C136.534 126.285 133.815 132.599 128.379 137.199C122.943 141.716 115.875 143.974 107.177 143.974H69.0391V143.723C71.0464 142.218 72.7609 139.918 74.1827 136.823C75.6882 133.645 76.4409 129.505 76.4409 124.403V76.2285C76.4409 71.3776 75.73 67.3631 74.3082 64.1849C72.97 60.9231 71.2136 58.5395 69.0391 57.034V56.7831H103.665C113.115 56.7831 120.183 58.5813 124.866 62.1776C129.634 65.774 132.017 71.294 132.017 78.7376C132.017 81.8322 131.306 84.7176 129.885 87.394C128.546 90.0704 126.748 92.2867 124.49 94.0431C122.315 95.7158 120.015 96.7613 117.59 97.1795V97.5558ZM93.6282 69.0776V91.6595H102.661C106.341 91.6595 109.185 90.6558 111.192 88.6485C113.283 86.5576 114.328 83.5467 114.328 79.6158C114.328 76.1031 113.325 73.4685 111.317 71.7122C109.31 69.9558 106.425 69.0776 102.661 69.0776H93.6282ZM104.668 131.679C109.268 131.679 112.739 130.425 115.081 127.916C117.423 125.323 118.594 121.894 118.594 117.629C118.594 113.363 117.423 110.018 115.081 107.592C112.739 105.083 109.268 103.829 104.668 103.829H93.6282V131.679H104.668Z" fill="white"/>
<defs>
<linearGradient id="paint0_linear_1010_18150" x1="0.0699463" y1="0" x2="200.07" y2="200" gradientUnits="userSpaceOnUse">
<stop stop-color="#4DDDC5"/>
<stop offset="1" stop-color="#40209D"/>
</linearGradient>
</defs>
</svg>
