<svg width="45" height="45" viewBox="0 0 45 45" fill="none" xmlns="http://www.w3.org/2000/svg">
<circle cx="22.5" cy="22.5" r="22.5" fill="#1A1A1A"/>
<path d="M21.842 30.5957C20.8259 31.7647 20.7954 33.2741 20.844 34.0332C20.8495 34.1416 20.9833 34.1823 21.05 34.0996C21.2144 33.8874 21.4405 33.6444 21.7434 33.4219C21.776 33.3979 21.8097 33.3767 21.842 33.3545V39.1953H20.5774L20.5002 37.5488L19.9553 37.626L19.801 39.1953H18.1682L18.0139 37.5488L17.2121 37.5586L16.7649 39.1953H15.8303C15.8303 39.1953 16.1641 34.4983 16.5237 33.877C17.0007 33.0594 13.9809 34.6438 13.0305 33.8623C12.5065 33.4325 8.64375 28.1761 11.4846 24.8623C12.1922 24.0376 8.70024 17.908 10.5442 12.4824C12.6994 6.13093 19.0785 5.1312 21.842 5V30.5957ZM23.1575 5C23.5358 5.01799 23.981 5.05537 24.4739 5.11719V27.7432C24.4473 27.7569 24.42 27.7695 24.3938 27.7832C24.2039 27.8816 24.1634 28.1296 24.302 28.29C24.3558 28.351 24.413 28.4138 24.4739 28.4775V38.1523L24.425 39.1953H23.1575V33.2041C23.2646 33.267 23.3763 33.3386 23.4895 33.4219C23.7925 33.6445 24.0194 33.8873 24.1838 34.0996C24.2505 34.1823 24.3834 34.1416 24.3889 34.0332C24.4403 33.2358 24.4042 31.5884 23.2073 30.3975C23.1917 30.3818 23.1741 30.3678 23.1575 30.3525V5ZM25.9299 29.6162C26.3264 29.8407 26.7225 30.0041 27.1047 30.126V37.5498L26.9885 37.5488L26.8342 39.1953H25.7893V29.5312C25.8358 29.5592 25.8818 29.589 25.9299 29.6162ZM28.4211 30.4004C28.9403 30.4531 29.3933 30.4368 29.7366 30.4062V33.8652C28.9001 33.6661 28.235 33.4606 28.4778 33.877C28.8374 34.4983 29.1711 39.1953 29.1711 39.1953H28.4211V30.4004ZM31.053 7.64746C31.5148 8.00512 31.9556 8.41205 32.3684 8.87109V33.4023C32.1874 33.6395 32.0462 33.8005 31.9709 33.8623C31.752 34.0409 31.4233 34.0931 31.053 34.0801V29.6504C31.9457 28.74 32.2378 27.6318 31.884 26.8818C31.8217 26.7607 31.6207 26.3851 31.053 26.0947V7.64746ZM14.428 25.9443C14.3817 25.9443 14.3355 25.9503 14.2893 25.9658C13.4883 26.2608 13.2313 26.7366 13.1643 26.8818C12.7122 27.8294 13.2928 29.3469 14.8186 30.3203C14.8545 30.3461 14.9005 30.362 14.9465 30.3672C15.6451 30.4656 17.3712 30.6049 19.1125 29.6162C19.8369 29.2072 20.3716 28.7094 20.7414 28.29C20.8798 28.1296 20.839 27.8817 20.6545 27.7832C19.9045 27.3897 18.9898 26.9801 17.9162 26.6436C16.5909 26.2242 15.3937 26.0324 14.428 25.9443ZM25.7893 5.33301C26.213 5.42087 26.6542 5.53125 27.1047 5.66699V26.6523C26.6354 26.8004 26.197 26.9627 25.7893 27.1309V5.33301ZM28.4211 6.13672C28.8617 6.31998 29.3025 6.53224 29.7366 6.77734V26.0498C29.3256 26.1094 28.8855 26.1899 28.4211 26.2959V6.13672ZM33.6838 10.7217C33.979 11.2574 34.2396 11.8426 34.4573 12.4824C35.7945 16.4244 34.3182 20.7421 33.6838 23.123V10.7217Z" fill="#D38041"/>
</svg>
