<svg width="130" height="89" viewBox="0 0 130 89" fill="none" xmlns="http://www.w3.org/2000/svg">
<path d="M64.9961 1C75.9264 1.00003 85.7719 3.54364 92.874 6.07812C96.4279 7.34638 99.3032 8.61461 101.293 9.56836C102.288 10.0453 103.062 10.4441 103.59 10.7246C103.854 10.8647 104.056 10.9753 104.193 11.0518C104.262 11.09 104.316 11.1202 104.352 11.1406C104.369 11.1507 104.383 11.1586 104.393 11.1641C104.397 11.1668 104.402 11.1693 104.404 11.1709C104.405 11.1716 104.406 11.1724 104.407 11.1729H104.408L104.409 11.1738L104.896 11.4551L104.908 12.0176V12.0186V12.0381C104.908 12.0513 104.909 12.0709 104.909 12.0967C104.91 12.1488 104.912 12.2267 104.914 12.3281C104.918 12.531 104.924 12.8302 104.93 13.2158C104.942 13.9872 104.957 15.105 104.971 16.4922C104.998 19.2666 105.016 23.12 104.98 27.4355C104.909 36.0537 104.622 46.5627 103.757 53.999C102.594 63.9838 94.6968 72.4817 86.3867 78.4199C82.2063 81.4072 77.8626 83.7904 74.0879 85.4297C70.3558 87.0505 67.0541 87.9999 64.9961 88C62.9008 88 59.7516 87.0033 56.2461 85.3359C52.6978 83.6483 48.6521 81.2096 44.7256 78.1875C36.9072 72.1699 29.3871 63.7037 27.3936 54.0859C25.8499 46.6385 25.2774 36.0974 25.0859 27.4707C24.99 23.1463 24.9892 19.2829 25.0127 16.501C25.0245 15.11 25.0428 13.9889 25.0576 13.2148C25.065 12.8278 25.0713 12.5271 25.0762 12.3232C25.0786 12.2218 25.0807 12.1442 25.082 12.0918C25.0827 12.0658 25.0836 12.0457 25.084 12.0322V12.0117V12.0107L25.0996 11.4531L25.583 11.1738L26.084 12.0391C25.5832 11.1735 25.5836 11.1731 25.584 11.1729H25.585C25.5858 11.1724 25.5867 11.1716 25.5879 11.1709C25.5906 11.1693 25.5948 11.1668 25.5996 11.1641C25.6092 11.1586 25.6229 11.1507 25.6406 11.1406C25.6766 11.1202 25.7291 11.09 25.7979 11.0518C25.9354 10.9753 26.1384 10.8649 26.4023 10.7246C26.9302 10.4441 27.7043 10.0453 28.6992 9.56836C30.689 8.61459 33.5642 7.34639 37.1182 6.07812C44.2203 3.54364 54.0658 1 64.9961 1Z" fill="#AE171E" stroke="white" stroke-width="2"/>
<path d="M65.0002 5C74.5905 5.00002 83.2223 7.54305 89.4417 10.0732C92.5547 11.3398 95.0735 12.607 96.8167 13.5596C97.6885 14.036 98.3673 14.4343 98.8303 14.7148C99.0618 14.8551 99.2396 14.9663 99.3606 15.043C99.421 15.0812 99.4675 15.1113 99.4993 15.1318C99.5151 15.1421 99.5278 15.1497 99.5364 15.1553C99.5406 15.158 99.5437 15.1605 99.5461 15.1621C99.5473 15.1629 99.5483 15.1636 99.5491 15.1641L99.55 15.165C99.5486 15.168 99.519 15.2138 99.0139 15.9795L99.551 15.165L99.9885 15.4541L100 15.9785V15.9795V15.9971C100 16.0086 100.001 16.0256 100.001 16.0479C100.002 16.0934 100.003 16.1614 100.005 16.25C100.008 16.4272 100.013 16.6884 100.019 17.0254C100.03 17.6996 100.043 18.6772 100.055 19.8916C100.078 22.3204 100.094 25.6984 100.063 29.4951C100 37.0769 99.7501 46.3721 98.9934 53.1113C97.9746 62.1847 91.0534 69.9043 83.7786 75.2939C80.1184 78.0056 76.3135 80.169 73.0061 81.6582C69.7433 83.1272 66.8337 84 65.0002 84C63.1314 84 60.3534 83.0827 57.2883 81.5713C54.1787 80.0379 50.6357 77.8238 47.1985 75.0811C40.3547 69.62 33.7665 61.9327 32.0198 53.1963C30.67 46.445 30.1695 37.1188 30.0022 29.5283C29.9183 25.7232 29.9182 22.3363 29.9387 19.9004C29.949 18.6823 29.9638 17.7012 29.9768 17.0244C29.9833 16.686 29.9892 16.4233 29.9934 16.2451C29.9955 16.1562 29.9971 16.0878 29.9983 16.042C29.9989 16.0192 29.9999 16.0019 30.0002 15.9902V15.9727V15.9717L30.0149 15.4521L30.4495 15.165L31.0002 16C30.4876 15.2228 30.4526 15.1689 30.4504 15.165L30.4514 15.1641C30.4521 15.1636 30.4532 15.1628 30.4543 15.1621C30.4568 15.1605 30.4599 15.158 30.4641 15.1553C30.4727 15.1496 30.4853 15.1421 30.5012 15.1318C30.5331 15.1112 30.5794 15.0813 30.6399 15.043C30.7609 14.9663 30.9386 14.8551 31.1702 14.7148C31.6332 14.4343 32.3121 14.0359 33.1838 13.5596C34.927 12.607 37.4449 11.3397 40.5579 10.0732C46.7772 7.54297 55.4097 5 65.0002 5Z" stroke="white" stroke-width="2"/>
<path d="M65 70L66.4283 72.5341L69.2798 73.1094L67.3111 75.2509L67.645 78.1406L65 76.93L62.355 78.1406L62.6889 75.2509L60.7202 73.1094L63.5717 72.5341L65 70Z" fill="white"/>
<path d="M63.02 22.84L62.06 24.76V28.92L62.38 30.84L58.22 35H50.22L46.06 30.84V17.08L50.54 12.6H59.5L61.26 17.88L57.964 16.76H53.58L51.98 17.56L51.18 19.16V28.92L51.82 30.2L53.1 30.84H56.3L57.26 29.88V25.4L55.98 22.84H63.02ZM83.4888 22.2L79.0088 26.68H72.2888L71.9688 27V31.8L72.7688 35H66.5288L67.1688 32.44V15.16L66.5288 12.6H79.6488L83.4888 16.44V22.2ZM78.3688 20.44V18.52L77.7288 17.24L76.1288 16.44H72.2888L71.9688 16.76V22.2L72.2888 22.52H76.1288L77.7288 21.72L78.3688 20.44Z" fill="white"/>
<path d="M38 20L39.4283 22.5341L42.2798 23.1094L40.3111 25.2509L40.645 28.1406L38 26.93L35.355 28.1406L35.6889 25.2509L33.7202 23.1094L36.5717 22.5341L38 20Z" fill="white"/>
<path d="M92 20L93.4283 22.5341L96.2798 23.1094L94.3111 25.2509L94.645 28.1406L92 26.93L89.355 28.1406L89.6889 25.2509L87.7202 23.1094L90.5717 22.5341L92 20Z" fill="white"/>
<path d="M129 38.5C129.193 38.5 129.369 38.6114 129.452 38.7861C129.535 38.9609 129.509 39.168 129.387 39.3174L118.146 53L129.387 66.6826C129.509 66.832 129.535 67.0391 129.452 67.2139C129.369 67.3886 129.193 67.5 129 67.5H1C0.806672 67.5 0.630512 67.3886 0.547852 67.2139C0.465245 67.0391 0.490659 66.832 0.613281 66.6826L11.8525 53L0.613281 39.3174C0.490659 39.168 0.465245 38.9609 0.547852 38.7861C0.630512 38.6114 0.806672 38.5 1 38.5H129Z" fill="#0E457D" stroke="white" stroke-linejoin="round"/>
<path d="M69.3953 50.99L67.7453 52.64L65.5453 53.74L64.7753 56.05H63.2353V52.31L65.6553 51.1L66.0953 50.22V49.34L65.6553 48.46L64.7753 48.02H62.7953L60.5293 48.79L61.5853 45.6H66.9753L69.3953 48.02V50.99ZM65.8753 60.12L64.9953 61H63.2353L62.3553 60.12V58.36L63.2353 57.48H64.9953L65.8753 58.36V60.12Z" fill="white"/>
</svg>
